<svg width="512" height="492" viewBox="0 0 512 492" fill="none" xmlns="http://www.w3.org/2000/svg">
<path d="M375.701 55.4644C345.368 35.0006 308.787 23.0492 269.405 23.0492C178.918 23.0492 103.211 86.1473 84.1248 170.624M428.104 108.352C447.841 138.216 459.328 173.982 459.328 212.422C459.328 277.743 426.16 335.339 375.701 369.38M82.7959 247.823C99.4218 335.492 176.648 401.796 269.405 401.796C285.493 401.796 301.113 399.801 316.031 396.047" stroke="#DADADA" stroke-width="4.76549" stroke-linecap="round"/>
<path d="M306.159 225.478C286.731 243.181 267.038 268.483 267.038 268.483C203.367 355.013 215.465 461.576 218.026 479.107C218.114 479.884 217.938 480.575 217.585 481.179C217.231 481.784 216.613 482.302 215.907 482.561C214.141 483.166 212.286 482.302 211.668 480.488C197.362 436.36 210.167 385.151 213.611 365.721C215.995 352.076 218.291 343.786 211.138 342.146C197.803 339.037 191.975 382.388 190.209 395.514C189.944 397.327 188.708 398.709 187.118 399.313C186.411 399.572 185.705 399.659 184.91 399.573C182.349 399.313 180.495 397.155 180.583 394.65C182.261 357.517 206.458 298.708 214.229 280.66C214.847 279.192 214.847 277.637 214.317 276.256C213.787 274.787 212.551 273.492 210.961 272.888C207.959 271.679 204.515 272.888 203.102 275.737L194.889 292.145C194.359 293.095 193.565 293.872 192.593 294.218C191.71 294.563 190.65 294.563 189.679 294.218C187.471 293.44 186.323 291.109 187.118 288.95C236.306 153.888 302.008 171.246 302.008 171.246C304.392 172.023 306.512 172.887 308.455 173.837C308.101 174.182 307.748 174.614 307.483 174.959C301.831 181.609 296.268 188.258 290.881 195.167L292.206 196.549C299.624 191.885 306.865 186.877 314.106 181.954C315.166 181.263 316.138 180.573 317.197 179.795C329.649 192.231 321.436 211.575 306.159 225.478Z" fill="#00BEF6"/>
<path d="M98.2072 221.753C94.9388 221.753 92.2798 219.142 92.2798 215.933C92.2798 212.724 94.9388 210.114 98.2072 210.114C101.476 210.114 104.135 212.724 104.135 215.933C104.135 219.142 101.476 221.753 98.2072 221.753ZM98.2072 213.695C96.9502 213.695 95.9275 214.699 95.9275 215.933C95.9275 217.167 96.9502 218.172 98.2072 218.172C99.4643 218.172 100.487 217.167 100.487 215.933C100.487 214.699 99.4643 213.695 98.2072 213.695ZM83.2519 222.738C79.9835 222.738 77.3245 220.127 77.3245 216.918C77.3245 213.709 79.9835 211.098 83.2519 211.098C86.5203 211.098 89.1793 213.709 89.1793 216.918C89.1793 220.127 86.5203 222.738 83.2519 222.738ZM83.2519 214.68C81.9948 214.68 80.9721 215.684 80.9721 216.918C80.9721 218.152 81.9948 219.156 83.2519 219.156C84.509 219.156 85.5317 218.152 85.5317 216.918C85.5317 215.684 84.509 214.68 83.2519 214.68ZM78.5099 232.049C78.5099 230.124 80.1255 228.557 82.1112 228.557H85.2581C86.2654 228.557 87.0819 227.756 87.0819 226.767C87.0819 225.778 86.2654 224.976 85.2581 224.976H82.1112C78.1141 224.976 74.8623 228.149 74.8623 232.049C74.8623 233.038 75.6788 233.84 76.6861 233.84C77.6934 233.84 78.5099 233.038 78.5099 232.049ZM68.4789 222.738C65.2105 222.738 62.5515 220.127 62.5515 216.918C62.5515 213.709 65.2105 211.098 68.4789 211.098C71.7473 211.098 74.4063 213.709 74.4063 216.918C74.4063 220.127 71.7473 222.738 68.4789 222.738ZM68.4789 214.68C67.2219 214.68 66.1991 215.684 66.1991 216.918C66.1991 218.152 67.2219 219.156 68.4789 219.156C69.736 219.156 70.7587 218.152 70.7587 216.918C70.7587 215.684 69.736 214.68 68.4789 214.68ZM64.1017 232.049C64.1017 230.124 65.7173 228.557 67.703 228.557H71.397C72.4043 228.557 73.2209 227.756 73.2209 226.767C73.2209 225.778 72.4043 224.976 71.397 224.976H67.703C63.7059 224.976 60.4541 228.149 60.4541 232.049C60.4541 233.038 61.2706 233.84 62.2779 233.84C63.2852 233.84 64.1017 233.038 64.1017 232.049ZM92.645 207.875C92.1703 207.875 91.7039 207.693 91.3549 207.351L91.1901 207.189C90.3025 206.318 88.9534 206.1 87.8327 206.648C86.1664 207.462 84.3661 207.875 82.4818 207.875H82.476H70.5763C64.9949 207.875 60.4541 203.417 60.4541 197.937C60.4541 192.457 64.9949 187.999 70.5763 187.999H84.3462C89.9276 187.999 94.4684 192.457 94.4684 197.937V206.085C94.4684 206.809 94.024 207.462 93.3425 207.739C93.1169 207.831 92.8798 207.875 92.645 207.875ZM70.5763 191.581C67.0063 191.581 64.1017 194.432 64.1017 197.937C64.1017 201.442 67.0063 204.294 70.5763 204.294H82.4768H82.4809C83.7969 204.294 85.0501 204.007 86.2068 203.442C87.673 202.725 89.3126 202.589 90.8207 202.985V197.937C90.8207 194.432 87.9162 191.581 84.3462 191.581H70.5763ZM105.32 233.84C104.313 233.84 103.496 233.038 103.496 232.049C103.496 229.438 101.319 227.314 98.6431 227.314H97.4066C94.7305 227.314 92.5534 229.438 92.5534 232.049C92.5534 233.038 91.7369 233.84 90.7296 233.84C89.7223 233.84 88.9057 233.038 88.9057 232.049C88.9057 227.463 92.7192 223.732 97.4066 223.732H98.6432C103.331 223.732 107.144 227.463 107.144 232.049C107.144 233.038 106.327 233.84 105.32 233.84ZM67.7494 197.937C67.7494 199.173 68.7701 200.176 70.0292 200.176C71.2882 200.176 72.3089 199.173 72.3089 197.937C72.3089 196.701 71.2882 195.699 70.0292 195.699C68.7701 195.699 67.7494 196.701 67.7494 197.937ZM75.0447 197.937C75.0447 199.173 76.0654 200.176 77.3245 200.176C78.5835 200.176 79.6042 199.173 79.6042 197.937C79.6042 196.701 78.5835 195.699 77.3245 195.699C76.0654 195.699 75.0447 196.701 75.0447 197.937ZM82.34 197.937C82.34 199.173 83.3607 200.176 84.6197 200.176C85.8788 200.176 86.8995 199.173 86.8995 197.937C86.8995 196.701 85.8788 195.699 84.6197 195.699C83.3607 195.699 82.34 196.701 82.34 197.937Z" fill="#FF316F"/>
<path d="M379.059 91.3556C375.497 91.3556 372.6 94.2948 372.6 97.9076C372.6 101.52 375.497 104.46 379.059 104.46C382.621 104.46 385.519 101.52 385.519 97.9076C385.519 94.2948 382.621 91.3556 379.059 91.3556ZM379.059 100.82C377.476 100.82 376.188 99.5133 376.188 97.9076C376.188 96.3019 377.476 94.9956 379.059 94.9956C380.643 94.9956 381.931 96.3019 381.931 97.9076C381.931 99.5133 380.643 100.82 379.059 100.82Z" fill="#FFB931"/>
<path d="M395.882 70.6077C395.507 70.6077 394.227 70.4837 392.822 69.9175C391.901 69.5463 390.858 70.0024 390.492 70.9365C390.126 71.8706 390.575 72.9288 391.496 73.3001C392.318 73.6311 393.132 73.8601 393.864 74.0105V74.2477C393.864 75.2529 394.667 76.0677 395.658 76.0677C396.649 76.0677 397.453 75.2529 397.453 74.2477V73.9657C399.179 73.3231 400.413 71.6525 400.413 69.6978C400.413 68.4568 399.87 67.2568 398.923 66.4054C398.021 65.5944 396.83 65.1478 395.568 65.1478C394.699 65.1478 394.043 64.7566 394.043 64.2378C394.043 63.736 394.446 63.3278 394.94 63.3278C395.578 63.3278 396.353 63.4009 397.699 63.932C398.623 64.2962 399.663 63.8322 400.022 62.8954C400.381 61.9586 399.924 60.9038 399 60.5395C398.425 60.3128 397.914 60.146 397.453 60.0227V59.6878C397.453 58.6826 396.649 57.8678 395.658 57.8678C394.667 57.8678 393.864 58.6826 393.864 59.6878V59.8212C391.909 60.3117 390.454 62.1054 390.454 64.2378C390.454 66.8317 392.653 68.7878 395.568 68.7878C396.249 68.7878 396.825 69.2045 396.825 69.6978C396.825 70.191 396.393 70.6077 395.882 70.6077Z" fill="#FFB931"/>
<path d="M395.658 78.7976C394.667 78.7976 393.863 79.6124 393.863 80.6176V86.1686C393.863 87.1738 394.667 87.9886 395.658 87.9886C396.649 87.9886 397.452 87.1738 397.452 86.1686V80.6176C397.452 79.6124 396.649 78.7976 395.658 78.7976Z" fill="#FFB931"/>
<path d="M395.658 91.3556C392.096 91.3556 389.198 94.2948 389.198 97.9076C389.198 101.52 392.096 104.46 395.658 104.46C399.22 104.46 402.118 101.52 402.118 97.9076C402.118 94.2948 399.22 91.3556 395.658 91.3556ZM395.658 100.82C394.075 100.82 392.787 99.5133 392.787 97.9076C392.787 96.3019 394.075 94.9956 395.658 94.9956C397.241 94.9956 398.529 96.3019 398.529 97.9076C398.529 99.5133 397.241 100.82 395.658 100.82Z" fill="#FFB931"/>
<path d="M412.077 91.3556C408.515 91.3556 405.617 94.2948 405.617 97.9076C405.617 101.52 408.515 104.46 412.077 104.46C415.639 104.46 418.537 101.52 418.537 97.9076C418.537 94.2948 415.639 91.3556 412.077 91.3556ZM412.077 100.82C410.494 100.82 409.206 99.5133 409.206 97.9076C409.206 96.3019 410.494 94.9956 412.077 94.9956C413.66 94.9956 414.948 96.3019 414.948 97.9076C414.948 99.5133 413.66 100.82 412.077 100.82Z" fill="#FFB931"/>
<path d="M385.486 67.4145C383.138 67.9488 381.006 69.2927 379.483 71.1986C377.937 73.1336 377.086 75.5732 377.086 78.0679V86.3507C377.086 87.3559 377.889 88.1707 378.88 88.1707C379.871 88.1707 380.675 87.3559 380.675 86.3507V78.0679C380.675 74.6907 383.028 71.704 386.271 70.9662C387.238 70.7461 387.846 69.7727 387.629 68.7919C387.412 67.8112 386.453 67.1945 385.486 67.4145Z" fill="#FFB931"/>
<path d="M410.372 78.0679V86.3507C410.372 87.3559 411.175 88.1707 412.166 88.1707C413.157 88.1707 413.96 87.3559 413.96 86.3507V78.0679C413.96 75.5731 413.109 73.1336 411.563 71.1985C410.041 69.2927 407.909 67.9488 405.561 67.4144C404.593 67.1947 403.634 67.8112 403.417 68.7919C403.2 69.7727 403.808 70.7461 404.775 70.9662C408.018 71.7041 410.372 74.6908 410.372 78.0679Z" fill="#FFB931"/>
<path d="M365.048 396.663C360.737 402.622 353.753 406.179 346.367 406.179C340.232 406.179 334.464 403.795 330.126 399.466C325.788 395.137 323.398 389.381 323.398 383.259C323.398 377.137 325.788 371.381 330.126 367.052C334.464 362.723 340.232 360.339 346.367 360.339C353.753 360.339 360.737 363.896 365.048 369.855C365.628 370.657 365.447 371.776 364.644 372.355C363.84 372.934 362.718 372.754 362.138 371.952C358.5 366.923 352.604 363.92 346.367 363.92C335.681 363.92 326.987 372.596 326.987 383.259C326.987 393.922 335.681 402.598 346.367 402.598C352.604 402.598 358.5 399.595 362.138 394.566C362.718 393.764 363.84 393.584 364.644 394.163C365.447 394.742 365.628 395.861 365.048 396.663ZM346.367 374.753C348.66 374.753 350.815 375.673 352.435 377.342C353.125 378.053 354.261 378.071 354.972 377.383C355.684 376.695 355.702 375.561 355.013 374.851C352.71 372.479 349.64 371.172 346.367 371.172C339.688 371.172 334.255 376.594 334.255 383.259C334.255 389.924 339.688 395.346 346.367 395.346C349.64 395.346 352.711 394.039 355.013 391.667C355.702 390.957 355.684 389.823 354.972 389.135C354.26 388.447 353.125 388.465 352.435 389.176C350.815 390.845 348.66 391.765 346.367 391.765C341.667 391.765 337.843 387.949 337.843 383.259C337.843 378.569 341.667 374.753 346.367 374.753ZM366.687 385.08C366.196 384.593 365.926 383.946 365.926 383.259C365.926 382.572 366.196 381.925 366.687 381.438L368.806 379.336C369.509 378.639 369.512 377.505 368.813 376.804C368.115 376.102 366.978 376.099 366.276 376.796L364.157 378.898C363.422 379.627 362.894 380.508 362.602 381.468H346.367C345.376 381.468 344.572 382.27 344.572 383.259C344.572 384.248 345.376 385.05 346.367 385.05H362.602C362.894 386.011 363.422 386.891 364.157 387.62L366.276 389.722C366.626 390.069 367.083 390.243 367.541 390.243C368.002 390.243 368.463 390.066 368.813 389.714C369.512 389.013 369.509 387.879 368.806 387.182L366.687 385.08Z" fill="#46BF1B"/>
<path d="M208.947 195.994L327.319 150.625C331.615 148.898 336.209 152.405 335.527 156.904L316.666 243.415C315.601 250.532 307.305 254.09 301.245 250.053L263.348 223.058C258.79 220.013 253.742 217.737 248.416 216.283L209.505 204.941C205.07 203.744 204.703 197.722 208.947 195.994Z" fill="#4882EB"/>
<path d="M303.269 181.317C303.269 180.701 302.868 180.051 302.239 179.982C282.522 178.101 271.729 195.43 271.729 195.43L264.184 197.62C263.538 197.808 262.979 198.168 262.543 198.664L256.762 205.216C256.36 205.678 256.849 206.362 257.426 206.14L265.826 203.077C265.739 203.197 262.176 208.363 264.621 212.196C265.337 211.391 266.053 210.587 266.787 209.8C267.363 209.168 267.887 208.483 268.446 207.816C269.005 207.149 269.616 206.567 270.332 206.088C271.048 205.592 271.799 205.147 272.62 204.771C273.44 204.395 274.296 204.07 275.309 203.881L275.571 204.155C275.309 205.13 274.907 205.934 274.453 206.721C273.999 207.491 273.493 208.192 272.934 208.842C272.375 209.493 271.729 210.074 271.013 210.553C270.297 211.032 269.546 211.494 268.865 212.007C268.027 212.64 267.171 213.273 266.298 213.889C269.913 216.25 275.274 213.786 275.274 213.786L271.1 221.964C270.751 222.648 271.572 223.332 272.218 222.888L280.042 217.259C280.706 216.78 281.195 216.113 281.422 215.343L283.343 208.945C283.308 208.945 303.217 201.367 303.269 181.317ZM290.451 194.387C288.11 194.318 286.277 192.402 286.347 190.11C286.416 187.818 288.372 186.021 290.713 186.09C293.053 186.158 294.887 188.074 294.817 190.367C294.747 192.676 292.791 194.472 290.451 194.387Z" fill="white"/>
<path d="M263.068 223.709C259.226 227.216 255.331 232.228 255.331 232.228C242.74 249.37 245.132 270.48 245.639 273.953C245.656 274.107 245.621 274.244 245.552 274.363C245.482 274.483 245.359 274.586 245.22 274.637C244.87 274.757 244.504 274.586 244.381 274.227C241.552 265.485 244.085 255.34 244.766 251.491C245.237 248.788 245.691 247.146 244.277 246.821C241.64 246.205 240.487 254.793 240.138 257.393C240.085 257.752 239.841 258.026 239.526 258.146C239.387 258.197 239.247 258.214 239.09 258.197C238.583 258.146 238.217 257.718 238.234 257.222C238.566 249.866 243.351 238.216 244.888 234.64C245.01 234.349 245.01 234.041 244.905 233.768C244.801 233.477 244.556 233.22 244.242 233.101C243.648 232.861 242.967 233.101 242.687 233.665L241.063 236.916C240.958 237.104 240.801 237.258 240.609 237.326C240.434 237.395 240.225 237.395 240.033 237.326C239.596 237.172 239.369 236.71 239.526 236.283C249.254 209.527 262.247 212.965 262.247 212.965C262.719 213.119 263.138 213.29 263.522 213.479C263.452 213.547 263.383 213.632 263.33 213.701C262.212 215.018 261.112 216.335 260.047 217.704L260.309 217.978C261.776 217.054 263.208 216.062 264.64 215.087C264.85 214.95 265.042 214.813 265.251 214.659C267.714 217.122 266.089 220.954 263.068 223.709Z" fill="white"/>
</svg>
