<svg width="1211" height="240" viewBox="0 0 1211 240" fill="none" xmlns="http://www.w3.org/2000/svg">
<g opacity="0.3">
<path d="M832.106 34.0001C830.469 34.0299 827.956 34.8799 815.872 39.7884C807.39 43.2915 798.931 46.8501 790.496 50.4639C788.434 51.2671 787.36 52.049 787.262 52.814C787.072 54.2844 789.238 54.7392 791.961 55.6061C794.182 56.3116 797.172 57.1361 798.727 57.17C800.136 57.1998 801.709 56.6303 803.444 55.4701C815.301 47.6505 821.414 43.7024 821.8 43.6174C822.071 43.5579 822.445 43.4814 822.702 43.7024C822.956 43.9234 822.93 44.3399 822.9 44.4547C822.685 45.3514 811.555 55.2406 810.915 55.8909L810.605 56.1968C808.243 58.5045 805.858 60.0132 809.974 62.6608C813.694 65.0534 815.859 66.5791 819.682 69.0355C822.131 70.5994 824.051 72.4566 826.577 72.2313C827.741 72.1251 828.94 71.0584 829.554 67.871C830.993 60.3489 833.829 44.0382 834.482 37.315C834.521 36.7573 834.497 36.197 834.409 35.6448C834.356 35.199 834.135 34.7893 833.79 34.4974C833.27 34.0809 832.463 33.9959 832.106 34.0001Z" fill="#ADABB5"/>
<path d="M20.708 216.47V219.421C20.708 219.911 20.3103 220.309 19.8198 220.309C19.3293 220.309 18.9316 219.911 18.9316 219.421V216.47C18.9316 215.98 19.3293 215.582 19.8198 215.582C20.3103 215.582 20.708 215.98 20.708 216.47Z" fill="#ADABB5"/>
<path d="M13.9873 216.47V219.421C13.9873 219.911 13.5896 220.309 13.0991 220.309C12.6086 220.309 12.2109 219.911 12.2109 219.421V216.47C12.2109 215.98 12.6086 215.582 13.0991 215.582C13.5896 215.582 13.9873 215.98 13.9873 216.47Z" fill="#ADABB5"/>
<path fill-rule="evenodd" clip-rule="evenodd" d="M17.2634 207.715C18.0185 207.278 18.5265 206.461 18.5265 205.526C18.5265 204.131 17.3955 203 16.0002 203C14.605 203 13.4739 204.131 13.4739 205.526C13.4739 206.461 13.982 207.278 14.7371 207.715V209.503H9.96078C7.0224 209.503 4.63184 211.894 4.63184 214.832V221.672C4.63184 224.61 7.022 227 9.9599 227H22.0397C24.9782 227 27.3687 224.609 27.3687 221.671V214.832C27.3687 211.894 24.9781 209.503 22.0397 209.503H17.2634V207.715ZM9.96078 211.28C8.00186 211.28 6.40815 212.873 6.40815 214.832V221.672C6.40815 223.63 8.00146 225.224 9.9599 225.224H22.0397C23.9987 225.224 25.5924 223.63 25.5924 221.671V214.832C25.5924 212.873 23.9987 211.28 22.0397 211.28H9.96078Z" fill="#ADABB5"/>
<path d="M993.708 17.4702V20.4208C993.708 20.9114 993.31 21.309 992.82 21.309C992.329 21.309 991.932 20.9114 991.932 20.4208V17.4702C991.932 16.9797 992.329 16.582 992.82 16.582C993.31 16.582 993.708 16.9797 993.708 17.4702Z" fill="#ADABB5"/>
<path d="M986.987 17.4702V20.4208C986.987 20.9114 986.59 21.309 986.099 21.309C985.609 21.309 985.211 20.9114 985.211 20.4208V17.4702C985.211 16.9797 985.609 16.582 986.099 16.582C986.59 16.582 986.987 16.9797 986.987 17.4702Z" fill="#ADABB5"/>
<path fill-rule="evenodd" clip-rule="evenodd" d="M990.263 8.71463C991.019 8.27782 991.527 7.46139 991.527 6.52632C991.527 5.13107 990.395 4 989 4C987.605 4 986.474 5.13107 986.474 6.52632C986.474 7.46143 986.982 8.27787 987.737 8.71468V10.5033H982.961C980.022 10.5033 977.632 12.8939 977.632 15.8323V22.672C977.632 25.6099 980.022 28 982.96 28H995.04C997.978 28 1000.37 25.6095 1000.37 22.6711V15.8323C1000.37 12.8939 997.978 10.5033 995.04 10.5033H990.263V8.71463ZM982.961 12.2796C981.002 12.2796 979.408 13.8733 979.408 15.8323V22.672C979.408 24.6304 981.001 26.2237 982.96 26.2237H995.04C996.999 26.2237 998.592 24.63 998.592 22.6711V15.8323C998.592 13.8733 996.999 12.2796 995.04 12.2796H982.961Z" fill="#ADABB5"/>
<path d="M755.906 202.941C755.175 202.705 754.39 203.106 754.154 203.838L753.77 205.031H750.16L749.775 203.838C749.539 203.106 748.755 202.705 748.023 202.941C747.292 203.177 746.89 203.961 747.126 204.692L747.822 206.85C748.007 207.424 748.543 207.814 749.147 207.814H754.783C755.387 207.814 755.922 207.424 756.108 206.85L756.803 204.692C757.039 203.961 756.638 203.177 755.906 202.941Z" fill="#ADABB5"/>
<path d="M761.492 175.744C759.013 173.471 755.604 172.21 752 172.187C748.396 172.21 744.987 173.471 742.508 175.744C739.923 178.114 738.5 181.397 738.5 184.991C738.5 188.719 740.091 192.608 743.1 196.235C745.328 198.92 747.545 200.528 747.638 200.595C747.875 200.765 748.159 200.857 748.451 200.857H755.479C755.769 200.857 756.052 200.766 756.288 200.598C756.382 200.531 758.616 198.924 760.861 196.239C763.896 192.611 765.5 188.722 765.5 184.991C765.5 181.397 764.077 178.114 761.492 175.744ZM755.009 198.073H748.924C747.399 196.859 741.283 191.578 741.283 184.991C741.283 179.289 745.888 174.987 752 174.97C758.112 174.987 762.716 179.289 762.716 184.991C762.716 191.582 756.538 196.867 755.009 198.073Z" fill="#ADABB5"/>
<path d="M756.119 183.516C755.656 183.196 753.96 182.15 751.861 182.137C749.524 182.151 747.681 183.447 747.481 183.595C746.865 184.054 746.736 184.925 747.195 185.542C747.468 185.91 747.888 186.104 748.313 186.104C748.601 186.104 748.893 186.014 749.142 185.829C749.15 185.823 749.688 185.436 750.469 185.169V192.575C750.469 193.344 751.092 193.967 751.861 193.967C752.629 193.967 753.252 193.344 753.252 192.575V185.174C754.029 185.442 754.567 185.827 754.575 185.833L754.569 185.829L754.574 185.823C754.806 185.998 755.095 186.104 755.41 186.104C756.178 186.104 756.801 185.481 756.801 184.712C756.801 184.203 756.527 183.759 756.119 183.516Z" fill="#ADABB5"/>
<path d="M527.48 181.937C527.069 181.937 526.656 181.838 526.273 181.639L524.289 180.603C524.079 180.493 523.828 180.493 523.617 180.603L521.633 181.639C520.75 182.1 519.701 182.022 518.896 181.435C518.098 180.852 517.706 179.887 517.874 178.915L518.253 176.722C518.292 176.494 518.216 176.262 518.049 176.1L516.444 174.546C515.732 173.857 515.479 172.845 515.783 171.904C516.089 170.959 516.892 170.284 517.879 170.141L520.097 169.821C520.331 169.787 520.533 169.642 520.638 169.433L521.629 167.436C522.07 166.55 522.96 166 523.953 166C524.946 166 525.836 166.55 526.277 167.436L527.269 169.433C527.373 169.642 527.575 169.787 527.809 169.821L530.027 170.141C531.014 170.284 531.817 170.959 532.123 171.904C532.427 172.845 532.174 173.857 531.463 174.546L529.858 176.1C529.691 176.262 529.614 176.494 529.653 176.722L530.032 178.915C530.2 179.887 529.808 180.852 529.01 181.435C528.554 181.768 528.019 181.937 527.48 181.937ZM523.953 178.646C524.367 178.646 524.78 178.744 525.157 178.941L527.141 179.977C527.502 180.165 527.796 180 527.905 179.92C528.011 179.842 528.252 179.62 528.185 179.234L527.806 177.041C527.661 176.201 527.941 175.346 528.554 174.753L530.159 173.199C530.442 172.924 530.38 172.606 530.339 172.481C530.298 172.355 530.16 172.055 529.76 171.997L527.542 171.677C526.698 171.555 525.968 171.028 525.59 170.267L524.598 168.271C524.42 167.914 524.088 167.875 523.953 167.875C523.819 167.875 523.486 167.914 523.309 168.271L522.317 170.267C521.938 171.028 521.209 171.555 520.365 171.677L518.147 171.997C517.746 172.055 517.608 172.355 517.567 172.481C517.527 172.606 517.464 172.924 517.748 173.199L519.353 174.753C519.966 175.346 520.245 176.201 520.1 177.041L519.722 179.234C519.655 179.62 519.895 179.842 520.001 179.92C520.111 180 520.404 180.165 520.765 179.976L522.749 178.941C523.126 178.744 523.54 178.646 523.953 178.646ZM520.219 190C519.895 190 519.569 189.922 519.268 189.765L517.941 189.072C517.89 189.046 517.829 189.046 517.778 189.072L516.451 189.765C515.755 190.129 514.929 190.067 514.294 189.604C513.664 189.144 513.355 188.382 513.488 187.616L513.741 186.148C513.75 186.098 513.733 186.045 513.695 186.009L512.621 184.969C512.06 184.426 511.86 183.627 512.1 182.884C512.341 182.138 512.975 181.605 513.753 181.493L515.236 181.279C515.273 181.274 515.308 181.256 515.334 181.23C515.698 180.862 516.292 180.858 516.66 181.222C517.028 181.586 517.032 182.18 516.668 182.548C516.356 182.863 515.943 183.071 515.504 183.135L514.021 183.349C513.995 183.353 513.915 183.364 513.884 183.461C513.854 183.553 513.908 183.605 513.925 183.622L514.999 184.661C515.483 185.13 515.703 185.805 515.589 186.467L515.335 187.935C515.331 187.958 515.319 188.03 515.4 188.089C515.458 188.132 515.52 188.136 515.584 188.103L516.911 187.41C517.505 187.1 518.214 187.1 518.808 187.41L520.135 188.103C520.199 188.136 520.261 188.132 520.32 188.089C520.4 188.031 520.388 187.958 520.384 187.935L520.13 186.468C520.016 185.805 520.237 185.13 520.72 184.661L521.794 183.622C522.166 183.262 522.759 183.272 523.119 183.644C523.48 184.016 523.47 184.609 523.098 184.969L522.024 186.009C521.987 186.045 521.969 186.098 521.978 186.148L522.231 187.616C522.364 188.382 522.055 189.144 521.425 189.604C521.065 189.867 520.643 190 520.219 190ZM533.706 189.604C534.336 189.144 534.645 188.382 534.512 187.616L534.259 186.148C534.25 186.097 534.267 186.045 534.305 186.008L535.379 184.969C535.94 184.426 536.14 183.627 535.9 182.884C535.659 182.138 535.025 181.605 534.247 181.493L532.764 181.279C532.727 181.273 532.692 181.256 532.666 181.23C532.302 180.862 531.708 180.858 531.34 181.222C530.972 181.586 530.968 182.18 531.332 182.548C531.644 182.863 532.057 183.071 532.496 183.135L533.979 183.349C534.005 183.352 534.085 183.364 534.116 183.461C534.146 183.553 534.092 183.605 534.075 183.622L533.001 184.661C532.517 185.13 532.297 185.805 532.411 186.467L532.665 187.935C532.669 187.958 532.681 188.03 532.6 188.089C532.542 188.132 532.48 188.136 532.416 188.103L531.089 187.41C530.495 187.1 529.786 187.1 529.192 187.41L527.865 188.103C527.801 188.136 527.739 188.132 527.68 188.089C527.6 188.03 527.612 187.958 527.616 187.935L527.87 186.467C527.984 185.805 527.763 185.13 527.28 184.661L526.206 183.622C525.834 183.262 525.241 183.272 524.881 183.644C524.52 184.016 524.53 184.609 524.902 184.969L525.976 186.008C526.013 186.045 526.031 186.097 526.022 186.148L525.769 187.615C525.636 188.382 525.945 189.144 526.575 189.604C527.21 190.067 528.036 190.128 528.732 189.765L530.059 189.072C530.11 189.046 530.171 189.046 530.222 189.072L531.549 189.765C531.85 189.922 532.176 190 532.5 190C532.924 190 533.346 189.867 533.706 189.604Z" fill="#ADABB5"/>
<path d="M60 55.0625C60 55.434 59.762 56 59.0627 56C58.6262 56 58.2813 55.6181 58.2713 55.6082C57.464 54.8007 56.2461 54.5968 55.241 55.1006C54.0502 55.6974 52.7465 56 51.3666 56C48.5825 56 46.0339 54.7351 44.3891 52.5291C44.0795 52.1141 44.1652 51.5267 44.5802 51.2172C44.9953 50.9076 45.5828 50.9933 45.8922 51.4084C47.1795 53.1349 49.1789 54.125 51.3657 54.125C52.4523 54.125 53.4731 53.8893 54.4009 53.4244C55.5879 52.8295 56.9447 52.8057 58.1249 53.2959L58.1246 47.4042C58.1246 47.4012 58.1246 47.3981 58.1247 47.3951C58.1455 45.22 57.1132 43.1458 55.363 41.8465C54.9473 41.5379 54.8605 40.9507 55.1691 40.535C55.4778 40.1192 56.065 40.0325 56.4807 40.341C58.7093 41.9955 60.0246 44.6371 59.9996 47.408L60 55.0625ZM44.6326 49.3438C43.2534 49.3438 41.9499 49.0412 40.759 48.4444C40.3909 48.2599 39.9943 48.1706 39.5998 48.1706C38.4411 48.1706 37.57 49.0982 37.57 49.0982C37.3938 49.2593 37.167 49.3438 36.9373 49.3438C36.8095 49.3438 36.6809 49.3177 36.5594 49.2642C36.2194 49.1143 36 48.7778 36 48.4062L36.0004 40.7522C35.9793 38.4288 36.8728 36.2354 38.5167 34.5756C40.1617 32.9147 42.3477 32 44.6719 32C47.0128 32 49.202 32.9087 50.8362 34.5587C52.4755 36.2137 53.3658 38.415 53.3433 40.7569C53.3212 43.0636 52.4039 45.2248 50.7604 46.8424C49.1215 48.4555 46.9484 49.3438 44.6411 49.3438C44.6382 49.3438 44.6354 49.3438 44.6326 49.3438ZM41.5991 46.7681C42.5268 47.233 43.5478 47.4688 44.6335 47.4688C48.3639 47.469 51.4328 44.4505 51.4685 40.7389C51.4861 38.9012 50.7885 37.175 49.5041 35.8781C48.2247 34.5864 46.5086 33.875 44.6719 33.875C42.852 33.875 41.1391 34.5924 39.8489 35.8951C38.5587 37.1977 37.8578 38.9179 37.8753 40.7388C37.8753 40.7418 37.875 46.6397 37.875 46.6397C38.4237 46.4118 39.0106 46.295 39.6007 46.295C40.2802 46.295 40.9639 46.4497 41.5991 46.7681ZM48.3281 39.5469C47.6809 39.5469 47.1562 40.0715 47.1562 40.7188C47.1562 41.366 47.6809 41.8906 48.3281 41.8906C48.9753 41.8906 49.5 41.366 49.5 40.7188C49.5 40.0715 48.9754 39.5469 48.3281 39.5469ZM44.625 39.5469C43.9778 39.5469 43.4531 40.0715 43.4531 40.7188C43.4531 41.366 43.9778 41.8906 44.625 41.8906C45.2722 41.8906 45.7969 41.366 45.7969 40.7188C45.7969 40.0715 45.2723 39.5469 44.625 39.5469ZM40.9219 39.5469C40.2747 39.5469 39.75 40.0715 39.75 40.7188C39.75 41.366 40.2747 41.8906 40.9219 41.8906C41.5691 41.8906 42.0938 41.366 42.0938 40.7188C42.0938 40.0715 41.5691 39.5469 40.9219 39.5469Z" fill="#ADABB5"/>
<path d="M1043.36 236H1034.38C1031.28 236 1028.77 233.482 1028.77 230.386V223.368C1028.77 220.273 1031.28 217.754 1034.38 217.754H1043.36C1046.46 217.754 1048.98 220.273 1048.98 223.368V230.386C1048.98 233.482 1046.46 236 1043.36 236ZM1034.38 219.626C1032.32 219.626 1030.64 221.305 1030.64 223.368V230.386C1030.64 232.45 1032.32 234.129 1034.38 234.129H1043.36C1045.43 234.129 1047.1 232.45 1047.1 230.386V223.368C1047.1 221.305 1045.43 219.626 1043.36 219.626H1034.38ZM1041.45 224.678C1042.09 224.678 1042.62 224.155 1042.62 223.509C1042.62 222.863 1042.09 222.339 1041.45 222.339C1040.8 222.339 1040.28 222.863 1040.28 223.509C1040.28 224.155 1040.8 224.678 1041.45 224.678ZM1026.89 227.015V217.614C1026.89 215.55 1028.57 213.871 1030.64 213.871H1039.62C1040.84 213.871 1041.99 214.473 1042.69 215.481C1042.99 215.906 1043.57 216.011 1044 215.716C1044.42 215.421 1044.53 214.838 1044.23 214.413C1043.18 212.902 1041.46 212 1039.62 212H1030.64C1027.54 212 1025.02 214.518 1025.02 217.614V227.015C1025.02 227.532 1025.44 227.951 1025.96 227.951C1026.47 227.951 1026.89 227.532 1026.89 227.015ZM1034.12 230.283L1036.43 227.866C1036.94 227.429 1037.68 227.41 1038.21 227.825L1039.63 228.989C1039.63 228.992 1039.64 228.995 1039.64 228.998C1040.32 229.532 1041.05 229.802 1041.77 229.779C1042.33 229.76 1043.16 229.554 1043.96 228.672C1043.97 228.664 1043.98 228.657 1043.98 228.649L1045.34 227.058C1045.68 226.665 1045.63 226.074 1045.24 225.739C1044.84 225.403 1044.25 225.45 1043.92 225.844L1042.57 227.421C1042.01 228.03 1041.48 228.064 1040.81 227.535L1039.39 226.371C1039.38 226.368 1039.38 226.365 1039.37 226.362C1038.12 225.368 1036.34 225.425 1035.15 226.495C1035.13 226.511 1035.12 226.528 1035.1 226.546L1032.77 228.992C1032.41 229.366 1032.43 229.959 1032.8 230.315C1032.98 230.487 1033.22 230.573 1033.45 230.573C1033.69 230.573 1033.94 230.476 1034.12 230.283Z" fill="#ADABB5"/>
<path d="M641 111C636.192 111 631.672 109.128 628.272 105.728C624.872 102.328 623 97.808 623 93C623 88.192 624.872 83.6719 628.272 80.272C631.672 76.8724 636.192 75 641 75C645.808 75 650.328 76.8724 653.728 80.272C657.128 83.6719 659 88.192 659 93C659 97.808 657.128 102.328 653.728 105.728C650.328 109.128 645.808 111 641 111ZM641 77.8125C632.626 77.8125 625.812 84.6256 625.812 93C625.812 101.374 632.626 108.188 641 108.188C649.374 108.188 656.188 101.374 656.188 93C656.188 84.6256 649.374 77.8125 641 77.8125ZM647.591 96.107C646.936 95.6899 646.066 95.8831 645.65 96.5384C645.632 96.5656 643.882 99.2621 640.93 99.2621C637.977 99.2621 636.227 96.5656 636.21 96.5384C635.793 95.8832 634.924 95.69 634.268 96.107C633.613 96.5239 633.42 97.3931 633.837 98.0483C633.942 98.2127 636.451 102.075 640.93 102.075C645.409 102.075 647.918 98.2128 648.022 98.0483C648.439 97.3931 648.246 96.5239 647.591 96.107ZM634.812 86.6016C635.783 86.6016 636.57 87.3886 636.57 88.3594C636.57 89.3302 635.783 90.1172 634.812 90.1172C633.842 90.1172 633.055 89.3302 633.055 88.3594C633.055 87.3886 633.842 86.6016 634.812 86.6016ZM645.359 88.3594C645.359 89.3302 646.146 90.1172 647.117 90.1172C648.088 90.1172 648.875 89.3302 648.875 88.3594C648.875 87.3886 648.088 86.6016 647.117 86.6016C646.146 86.6016 645.359 87.3886 645.359 88.3594Z" fill="#ADABB5"/>
<path d="M1191.35 63.7535C1187.22 62.6466 1184.76 58.3866 1185.87 54.2558L1188.68 43.7689C1188.83 43.2166 1189.39 42.8901 1189.94 43.0378C1190.5 43.1855 1190.82 43.7518 1190.68 44.3041L1187.87 54.791C1187.05 57.8193 1188.86 60.9443 1191.89 61.7559C1194.92 62.5676 1198.04 60.763 1198.85 57.7347L1201.8 46.7484C1202.31 44.8209 1201.16 42.8328 1199.24 42.3163C1197.31 41.7998 1195.32 42.9476 1194.8 44.8751L1192.13 54.8628C1191.91 55.6886 1192.4 56.541 1193.22 56.7623C1194.05 56.9836 1194.9 56.4915 1195.12 55.6656L1197.67 46.1774C1197.81 45.6251 1198.38 45.2986 1198.93 45.4463C1199.48 45.594 1199.81 46.1604 1199.66 46.7126L1197.12 56.2008C1196.61 58.1284 1194.62 59.2762 1192.69 58.7597C1190.76 58.2432 1189.61 56.255 1190.13 54.3275L1192.81 44.3399C1193.62 41.3118 1196.74 39.507 1199.77 40.3187C1202.8 41.1304 1204.6 44.2556 1203.79 47.2837L1200.85 58.27C1199.74 62.4008 1195.48 64.8603 1191.35 63.7535Z" fill="#ADABB5"/>
<path d="M1173.24 213.733L1175.41 211.712C1175.69 211.453 1176.07 211.335 1176.45 211.387L1179.44 211.794C1181.95 212.135 1184.25 210.527 1184.68 208.135L1185.21 205.271C1185.27 204.905 1185.51 204.595 1185.85 204.421L1188.52 203.058C1190.75 201.92 1191.63 199.319 1190.52 197.138L1189.19 194.526C1189.02 194.192 1189.02 193.808 1189.19 193.474L1190.52 190.862C1191.63 188.681 1190.75 186.08 1188.52 184.942L1185.85 183.579C1185.51 183.405 1185.27 183.095 1185.21 182.729L1184.68 179.865C1184.25 177.473 1181.95 175.866 1179.44 176.206L1176.45 176.613C1176.07 176.665 1175.69 176.547 1175.41 176.288L1173.24 174.267C1171.42 172.578 1168.58 172.578 1166.76 174.267L1164.59 176.288C1164.31 176.547 1163.93 176.665 1163.55 176.613L1160.56 176.206C1158.05 175.865 1155.75 177.473 1155.32 179.865L1154.79 182.729C1154.73 183.095 1154.49 183.405 1154.15 183.579L1151.48 184.942C1149.25 186.08 1148.37 188.681 1149.48 190.862L1150.81 193.474C1150.98 193.808 1150.98 194.192 1150.81 194.526L1149.48 197.138C1148.37 199.32 1149.25 201.92 1151.48 203.058L1154.15 204.421C1154.49 204.595 1154.73 204.905 1154.79 205.271L1155.32 208.135C1155.71 210.313 1157.66 211.84 1159.89 211.84C1160.11 211.84 1160.33 211.825 1160.56 211.794L1163.55 211.387C1163.93 211.335 1164.31 211.453 1164.59 211.712L1166.76 213.733C1167.67 214.578 1168.83 215 1170 215C1171.17 215 1172.33 214.578 1173.24 213.733ZM1163.07 208.139L1160.08 208.547C1159.41 208.638 1158.8 208.208 1158.68 207.569L1158.16 204.705C1157.91 203.335 1157.03 202.176 1155.75 201.524L1153.08 200.161C1152.48 199.857 1152.25 199.161 1152.55 198.578L1153.87 195.966C1154.51 194.717 1154.51 193.284 1153.87 192.034L1152.55 189.422C1152.25 188.839 1152.48 188.143 1153.08 187.839L1155.75 186.476C1157.03 185.824 1157.91 184.665 1158.16 183.295L1158.68 180.431C1158.8 179.792 1159.41 179.363 1160.08 179.453L1163.07 179.861C1164.5 180.056 1165.92 179.612 1166.96 178.645L1169.14 176.624C1169.62 176.173 1170.38 176.173 1170.86 176.624L1173.04 178.645C1174.08 179.613 1175.5 180.055 1176.93 179.861L1179.92 179.454C1180.59 179.363 1181.2 179.792 1181.32 180.431L1181.84 183.295C1182.09 184.665 1182.97 185.825 1184.25 186.476L1186.92 187.839C1187.52 188.143 1187.75 188.839 1187.45 189.422L1186.13 192.034C1185.49 193.284 1185.49 194.717 1186.13 195.966L1187.45 198.578C1187.75 199.161 1187.52 199.857 1186.92 200.161L1184.25 201.524C1182.97 202.176 1182.09 203.335 1181.84 204.705L1181.32 207.569C1181.2 208.208 1180.59 208.637 1179.92 208.547L1176.93 208.14C1175.5 207.945 1174.08 208.388 1173.04 209.355L1170.86 211.377C1170.38 211.827 1169.62 211.827 1169.14 211.377L1166.96 209.355C1166.08 208.537 1164.93 208.094 1163.73 208.094C1163.51 208.094 1163.29 208.109 1163.07 208.139Z" fill="#ADABB5"/>
<path fill-rule="evenodd" clip-rule="evenodd" d="M1176.01 187.468C1176.31 187.169 1176.72 187.001 1177.14 187C1177.56 186.999 1177.97 187.165 1178.27 187.462C1178.57 187.759 1178.74 188.164 1178.75 188.589C1178.76 189.013 1178.6 189.423 1178.31 189.731L1169.75 200.483C1169.6 200.643 1169.42 200.771 1169.23 200.859C1169.03 200.948 1168.82 200.996 1168.6 201C1168.38 201.004 1168.17 200.964 1167.97 200.883C1167.77 200.801 1167.59 200.68 1167.43 200.527L1161.76 194.825C1161.6 194.677 1161.48 194.499 1161.39 194.3C1161.3 194.102 1161.25 193.888 1161.25 193.671C1161.25 193.454 1161.29 193.239 1161.37 193.037C1161.45 192.836 1161.57 192.653 1161.72 192.5C1161.87 192.346 1162.06 192.225 1162.26 192.144C1162.46 192.063 1162.67 192.023 1162.89 192.027C1163.1 192.031 1163.32 192.078 1163.51 192.166C1163.71 192.255 1163.89 192.382 1164.03 192.541L1168.52 197.051L1175.97 187.516C1175.98 187.499 1176 187.483 1176.01 187.468H1176.01Z" fill="#ADABB5"/>
</g>
</svg>
