<svg width="528" height="542" viewBox="0 0 528 542" fill="none" xmlns="http://www.w3.org/2000/svg">
<path fill-rule="evenodd" clip-rule="evenodd" d="M25.5352 185.342C25.5352 186.329 26.3356 187.13 27.323 187.13L133.403 187.13C137.682 187.13 141.15 190.598 141.15 194.877L141.15 286.654L132.616 286.654L142.938 304.533L153.26 286.654L144.726 286.654L144.726 194.877C144.726 188.624 139.656 183.554 133.403 183.554L27.323 183.554C26.3356 183.554 25.5352 184.355 25.5352 185.342Z" fill="#DADADA"/>
<path fill-rule="evenodd" clip-rule="evenodd" d="M145.321 406.441C146.308 406.441 147.109 407.241 147.109 408.229V473.784C147.109 478.063 150.578 481.531 154.856 481.531H251.401V472.997L269.28 483.319L251.401 493.641V485.107H154.856C148.603 485.107 143.533 480.037 143.533 473.784V408.229C143.533 407.241 144.334 406.441 145.321 406.441Z" fill="#DADADA"/>
<g filter="url(#filter0_d)">
<rect x="16" y="67.9388" width="254.342" height="158.964" rx="16" fill="white"/>
<rect x="16.5" y="68.4388" width="253.342" height="157.964" rx="15.5" stroke="#E4E4E4"/>
</g>
<rect x="55.4668" y="132.62" width="176.195" height="10.0494" rx="5.02471" fill="#ADABB5"/>
<rect x="80.6816" y="152.72" width="125.853" height="10.0494" rx="5.02471" fill="#DADADA"/>
<ellipse cx="143.578" cy="42.9087" rx="42.9529" ry="42.9087" fill="#FFB931"/>
<path fill-rule="evenodd" clip-rule="evenodd" d="M145.821 27.9189C147.292 27.0668 148.282 25.4747 148.282 23.6512C148.282 20.9299 146.078 18.7238 143.359 18.7238C140.64 18.7238 138.435 20.9299 138.435 23.6512C138.435 25.4755 139.426 27.0682 140.898 27.92V31.4084H131.588C125.862 31.4084 121.203 36.0711 121.203 41.8023V55.1429C121.203 60.8731 125.861 65.535 131.586 65.535H155.128C160.854 65.535 165.513 60.8724 165.513 55.1411V41.8023C165.513 36.0711 160.854 31.4084 155.128 31.4084H145.821V27.9189ZM131.588 34.873C127.771 34.873 124.665 37.9815 124.665 41.8023V55.1429C124.665 58.9627 127.77 62.0703 131.586 62.0703H155.128C158.945 62.0703 162.051 58.9619 162.051 55.1411V41.8023C162.051 37.9815 158.945 34.873 155.128 34.873H131.588Z" fill="white"/>
<path d="M152.528 44.9971V50.7522C152.528 51.709 151.753 52.4845 150.797 52.4845C149.841 52.4845 149.066 51.709 149.066 50.7522V44.9971C149.066 44.0403 149.841 43.2648 150.797 43.2648C151.753 43.2648 152.528 44.0403 152.528 44.9971Z" fill="white"/>
<path d="M139.436 44.9971V50.7522C139.436 51.709 138.661 52.4845 137.705 52.4845C136.75 52.4845 135.975 51.709 135.975 50.7522V44.9971C135.975 44.0403 136.75 43.2648 137.705 43.2648C138.661 43.2648 139.436 44.0403 139.436 44.9971Z" fill="white"/>
<path fill-rule="evenodd" clip-rule="evenodd" d="M473.231 303.138L483.593 284.121L493.955 303.138H485.388V349.411C485.388 356.062 480.299 361.454 474.021 361.454H399.242C394.946 361.454 391.464 365.144 391.464 369.695V423.575H387.875V369.695C387.875 363.043 392.964 357.651 399.242 357.651H474.021C478.316 357.651 481.798 353.962 481.798 349.411V303.138H473.231Z" fill="#DADADA"/>
<rect x="-0.5" y="0.5" width="204.008" height="126.534" rx="15.5" transform="matrix(-1 0 0 1 486.996 414.039)" fill="white" stroke="#E4E4E4"/>
<rect width="162.1" height="10.7272" rx="5.36359" transform="matrix(-1 0 0 1 466.541 461.716)" fill="#ADABB5"/>
<rect width="115.615" height="11.9191" rx="5.95954" transform="matrix(-1 0 0 1 443.895 483.17)" fill="#DADADA"/>
<rect x="49.873" y="313.972" width="187.564" height="116.304" rx="15.5" fill="white" stroke="#E4E4E4"/>
<rect x="69.1074" y="357.324" width="149.097" height="9.86671" rx="4.93336" fill="#ADABB5"/>
<rect x="89.9375" y="377.057" width="106.341" height="10.963" rx="5.48151" fill="#DADADA"/>
<ellipse cx="485.047" cy="219.311" rx="42.9529" ry="42.9087" fill="#FF316F"/>
<mask id="mask0" mask-type="alpha" maskUnits="userSpaceOnUse" x="442" y="176" width="86" height="87">
<ellipse cx="485.047" cy="219.311" rx="42.9529" ry="42.9087" fill="#FFB931"/>
</mask>
<g mask="url(#mask0)">
<path d="M452.262 264.214C464.059 246.899 484.931 246.46 484.931 246.46H494.006C538.814 250.405 523.197 278.497 510.001 291.174C509.358 302.169 507.8 325.103 506.711 328.873C505.35 333.585 460.202 330.188 457.934 329.859C456.299 329.622 459.082 302.189 462.386 281.662C462.7 279.71 460.287 278.485 458.912 279.906L447.157 292.05L433.658 287.557C436.192 282.479 446.982 271.963 452.262 264.214Z" fill="#77CCFC"/>
<path d="M488.335 209.966C477.887 210.017 472.789 206.051 470.251 201.735C469.071 199.73 472.97 197.402 475.29 197.582C486.066 199.336 484.478 195.719 493.893 196.158C500.191 196.451 497.523 202.076 501.607 202.185C505.691 202.295 503.989 212.487 503.422 219.83C502.855 227.172 500.586 232.323 496.956 233.419C493.099 227.282 496.035 218.647 496.502 216.542C498.204 208.87 496.389 208.87 496.048 208.87C494.914 208.87 490.83 209.857 488.335 209.966Z" fill="#301400"/>
<path d="M471.902 241.44C467.698 239.988 472.345 220.046 475.193 210.256C475.522 208.929 476.516 206.038 477.859 205.087C486.292 199.884 496.728 206.35 497.214 209.998C497.423 211.564 497.214 214.569 496.25 218.295C495.701 220.816 494.718 222.544 496.25 222.365C498.164 222.141 498.455 219.899 500.144 219.701C501.833 219.504 501.567 223.694 501.152 225.2C500.524 227.481 499.111 229.693 497.976 228.487C497.324 232.096 496.501 235.392 495.701 239.871C495.072 243.392 499.027 246.144 500.472 247.337C501.266 256.762 477.894 253.162 478.805 250.406C479.717 247.65 482.696 247.287 485.952 245.912C489.208 244.538 489.098 240.943 488.788 241.2C486.824 242.826 477.157 243.254 471.902 241.44Z" fill="#EEA982"/>
<path fill-rule="evenodd" clip-rule="evenodd" d="M479.587 223.908C479.699 223.962 479.744 224.093 479.688 224.202L479.463 224.636C479.269 225.055 479.586 225.528 480.062 225.528H481.3C481.426 225.528 481.527 225.626 481.527 225.747C481.527 225.869 481.426 225.967 481.3 225.967H480.062C479.255 225.967 478.718 225.161 479.052 224.451L479.258 224.542L479.056 224.444L479.282 224.006C479.338 223.897 479.475 223.853 479.587 223.908Z" fill="#301400"/>
<path d="M496.048 208.98C494.914 208.98 490.83 209.966 488.334 210.076C485.185 210.091 483.065 210.073 481.473 209.898C477.514 209.463 473.513 207.983 470.048 206.02C465.254 203.305 466.202 197.34 467.689 193.199C469.39 189.363 473.506 186.497 476.537 186.733C487.994 187.062 481.528 194.952 494.46 194.624C500.762 194.463 498.657 201.089 502.741 201.199C503.967 201.232 504.929 201.924 505.578 203.146C508.229 208.137 504.491 214.135 503.467 219.692L503.421 219.939C503.268 220.775 503.189 221.278 503.153 221.532C503.11 221.83 503.127 221.784 503.153 221.532C503.252 220.565 503.487 216.57 501.039 217.309C498.822 213.782 497.651 214.896 497.143 216.082C497.087 216.369 497.024 216.669 496.955 216.98C496.757 217.876 496.768 216.959 497.143 216.082C498.476 209.283 496.374 208.98 496.048 208.98Z" fill="#301400"/>
<path d="M442.25 240.809L411.288 231.561C406.157 230.028 400.998 233.871 400.998 239.226V273.42L447.961 289.42V248.475C447.961 244.938 445.639 241.821 442.25 240.809Z" fill="#38424F" stroke="#38424F"/>
<ellipse rx="0.906203" ry="1.97561" transform="matrix(0.98006 0.198704 -0.212267 0.977212 478.299 218.762)" fill="#301400"/>
<ellipse rx="0.906221" ry="1.97561" transform="matrix(0.98006 0.1987 -0.212272 0.977211 486.412 219.558)" fill="#301400"/>
<path fill-rule="evenodd" clip-rule="evenodd" d="M487.171 230.256C487.287 230.301 487.344 230.429 487.297 230.541C487.039 231.164 486.473 231.592 485.772 231.882C485.071 232.173 484.208 232.337 483.308 232.418C481.506 232.58 479.5 232.413 478.202 232.21C478.079 232.191 477.995 232.079 478.015 231.959C478.035 231.84 478.151 231.758 478.275 231.778C479.548 231.977 481.513 232.139 483.266 231.981C484.142 231.903 484.953 231.745 485.593 231.479C486.235 231.214 486.68 230.852 486.876 230.378C486.923 230.266 487.055 230.211 487.171 230.256Z" fill="#301400"/>
</g>
<defs>
<filter id="filter0_d" x="0" y="51.9388" width="286.342" height="190.964" filterUnits="userSpaceOnUse" color-interpolation-filters="sRGB">
<feFlood flood-opacity="0" result="BackgroundImageFix"/>
<feColorMatrix in="SourceAlpha" type="matrix" values="0 0 0 0 0 0 0 0 0 0 0 0 0 0 0 0 0 0 127 0"/>
<feOffset/>
<feGaussianBlur stdDeviation="8"/>
<feColorMatrix type="matrix" values="0 0 0 0 0.898039 0 0 0 0 0.898039 0 0 0 0 0.898039 0 0 0 0.4 0"/>
<feBlend mode="normal" in2="BackgroundImageFix" result="effect1_dropShadow"/>
<feBlend mode="normal" in="SourceGraphic" in2="effect1_dropShadow" result="shape"/>
</filter>
</defs>
</svg>
