<svg width="63" height="62" viewBox="0 0 63 62" fill="none" xmlns="http://www.w3.org/2000/svg">
<path d="M46.2072 41.7528C42.9388 41.7528 40.2798 39.1421 40.2798 35.9332C40.2798 32.7243 42.9388 30.1136 46.2072 30.1136C49.4756 30.1136 52.1347 32.7243 52.1347 35.9332C52.1347 39.1421 49.4756 41.7528 46.2072 41.7528ZM46.2072 33.6949C44.9502 33.6949 43.9275 34.699 43.9275 35.9332C43.9275 37.1674 44.9502 38.1715 46.2072 38.1715C47.4643 38.1715 48.487 37.1674 48.487 35.9332C48.487 34.699 47.4643 33.6949 46.2072 33.6949ZM31.2519 42.7376C27.9835 42.7376 25.3245 40.127 25.3245 36.9181C25.3245 33.7092 27.9835 31.0985 31.2519 31.0985C34.5203 31.0985 37.1793 33.7092 37.1793 36.9181C37.1793 40.127 34.5203 42.7376 31.2519 42.7376ZM31.2519 34.6798C29.9948 34.6798 28.9721 35.6839 28.9721 36.9181C28.9721 38.1523 29.9948 39.1564 31.2519 39.1564C32.509 39.1564 33.5317 38.1523 33.5317 36.9181C33.5317 35.6839 32.509 34.6798 31.2519 34.6798ZM26.5099 52.0489C26.5099 50.1236 28.1255 48.5572 30.1112 48.5572H33.2581C34.2654 48.5572 35.0819 47.7555 35.0819 46.7666C35.0819 45.7776 34.2654 44.9759 33.2581 44.9759H30.1112C26.1141 44.9759 22.8623 48.1488 22.8623 52.0489C22.8623 53.0379 23.6788 53.8396 24.6861 53.8396C25.6934 53.8396 26.5099 53.0379 26.5099 52.0489ZM16.4789 42.7376C13.2105 42.7376 10.5515 40.127 10.5515 36.9181C10.5515 33.7092 13.2105 31.0985 16.4789 31.0985C19.7473 31.0985 22.4063 33.7092 22.4063 36.9181C22.4063 40.127 19.7473 42.7376 16.4789 42.7376ZM16.4789 34.6798C15.2219 34.6798 14.1991 35.6839 14.1991 36.9181C14.1991 38.1523 15.2219 39.1564 16.4789 39.1564C17.736 39.1564 18.7587 38.1523 18.7587 36.9181C18.7587 35.6839 17.736 34.6798 16.4789 34.6798ZM12.1017 52.0489C12.1017 50.1236 13.7173 48.5572 15.703 48.5572H19.397C20.4043 48.5572 21.2209 47.7555 21.2209 46.7666C21.2209 45.7776 20.4043 44.9759 19.397 44.9759H15.703C11.7059 44.9759 8.4541 48.1488 8.4541 52.0489C8.4541 53.0379 9.27063 53.8396 10.2779 53.8396C11.2852 53.8396 12.1017 53.0379 12.1017 52.0489ZM40.645 27.8753C40.1703 27.8753 39.7039 27.6934 39.3549 27.3509L39.1901 27.189C38.3025 26.3177 36.9534 26.1 35.8327 26.6478C34.1664 27.4623 32.3661 27.8753 30.4818 27.8753H30.476H18.5763C12.9949 27.8753 8.4541 23.4172 8.4541 17.9373C8.4541 12.4574 12.9949 7.99927 18.5763 7.99927H32.3462C37.9276 7.99927 42.4684 12.4574 42.4684 17.9373V26.0847C42.4684 26.8089 42.024 27.4619 41.3425 27.7391C41.1169 27.8308 40.8798 27.8753 40.645 27.8753ZM18.5763 11.5805C15.0063 11.5805 12.1017 14.4322 12.1017 17.9373C12.1017 21.4424 15.0063 24.2941 18.5763 24.2941H30.4768H30.4809C31.7969 24.2941 33.0501 24.0074 34.2068 23.4419C35.673 22.7252 37.3126 22.5892 38.8207 22.9847V17.9373C38.8207 14.4322 35.9162 11.5805 32.3462 11.5805H18.5763ZM53.3201 53.8396C52.3128 53.8396 51.4963 53.0379 51.4963 52.0489C51.4963 49.4379 49.3192 47.3137 46.6431 47.3137H45.4066C42.7305 47.3137 40.5534 49.4379 40.5534 52.0489C40.5534 53.0379 39.7369 53.8396 38.7296 53.8396C37.7223 53.8396 36.9057 53.0379 36.9057 52.0489C36.9057 47.4632 40.7192 43.7324 45.4066 43.7324H46.6432C51.3305 43.7324 55.144 47.4632 55.144 52.0489C55.144 53.0379 54.3274 53.8396 53.3201 53.8396ZM15.7494 17.9373C15.7494 19.1735 16.7701 20.1756 18.0292 20.1756C19.2882 20.1756 20.3089 19.1735 20.3089 17.9373C20.3089 16.7011 19.2882 15.699 18.0292 15.699C16.7701 15.699 15.7494 16.7011 15.7494 17.9373ZM23.0447 17.9373C23.0447 19.1735 24.0654 20.1756 25.3245 20.1756C26.5835 20.1756 27.6042 19.1735 27.6042 17.9373C27.6042 16.7011 26.5835 15.699 25.3245 15.699C24.0654 15.699 23.0447 16.7011 23.0447 17.9373ZM30.34 17.9373C30.34 19.1735 31.3607 20.1756 32.6197 20.1756C33.8788 20.1756 34.8995 19.1735 34.8995 17.9373C34.8995 16.7011 33.8788 15.699 32.6197 15.699C31.3607 15.699 30.34 16.7011 30.34 17.9373Z" fill="#FF316F"/>
</svg>
