<svg width="541" height="498" viewBox="0 0 541 498" fill="none" xmlns="http://www.w3.org/2000/svg">
<g filter="url(#filter0_d)">
<rect x="42.9893" y="48" width="485.011" height="76.1404" rx="8" fill="white"/>
<rect opacity="0.1" x="42.9893" y="48" width="485.011" height="76.1404" rx="8" fill="#4882EB"/>
</g>
<path d="M378.955 91.2193C378.277 91.2193 377.704 90.9695 377.237 90.4698C376.77 89.9701 376.536 89.3594 376.536 88.6377C376.536 88.2157 376.614 87.8215 376.77 87.4551C376.925 87.0776 377.131 86.7556 377.387 86.4891C377.654 86.2115 377.965 85.995 378.321 85.8395C378.688 85.6729 379.077 85.5897 379.489 85.5897C379.789 85.5897 380.073 85.6396 380.34 85.7396C380.607 85.8284 380.84 85.9616 381.041 86.1393L381.107 85.8228H382.609L381.891 89.204C381.825 89.5038 381.858 89.7369 381.992 89.9035C382.125 90.059 382.336 90.1367 382.625 90.1367C383.148 90.1367 383.576 89.8924 383.91 89.4038C384.244 88.9042 384.411 88.2712 384.411 87.5051C384.411 86.9055 384.294 86.3503 384.06 85.8395C383.838 85.3287 383.521 84.8846 383.109 84.507C382.709 84.1295 382.231 83.8353 381.675 83.6243C381.118 83.4133 380.518 83.3078 379.873 83.3078C379.172 83.3078 378.516 83.4411 377.904 83.7076C377.292 83.9741 376.764 84.3405 376.319 84.8069C375.885 85.2621 375.541 85.8062 375.285 86.4391C375.029 87.072 374.901 87.7494 374.901 88.4711C374.901 89.1929 375.023 89.8535 375.268 90.4531C375.513 91.0527 375.858 91.5691 376.302 92.0021C376.747 92.4352 377.276 92.7683 377.887 93.0015C378.51 93.2457 379.189 93.3679 379.923 93.3679C380.434 93.3679 380.918 93.3179 381.374 93.218C381.841 93.118 382.275 92.9626 382.676 92.7516L383.109 93.6843C382.587 93.9286 382.064 94.1118 381.541 94.234C381.018 94.3561 380.479 94.4172 379.923 94.4172C379.044 94.4172 378.227 94.2673 377.47 93.9675C376.714 93.6788 376.063 93.2735 375.518 92.7516C374.973 92.2408 374.545 91.6246 374.234 90.9028C373.922 90.1811 373.767 89.4038 373.767 88.571C373.767 87.6827 373.922 86.8611 374.234 86.106C374.545 85.3398 374.973 84.6792 375.518 84.124C376.063 83.5688 376.714 83.1357 377.47 82.8248C378.227 82.5028 379.044 82.3418 379.923 82.3418C380.712 82.3418 381.452 82.4751 382.142 82.7415C382.831 82.9969 383.426 83.3523 383.927 83.8075C384.438 84.2628 384.839 84.8013 385.128 85.4231C385.417 86.0449 385.562 86.7112 385.562 87.4218C385.562 87.977 385.484 88.4878 385.328 88.9541C385.172 89.4205 384.956 89.8202 384.678 90.1533C384.399 90.4864 384.066 90.7474 383.677 90.9362C383.287 91.1249 382.865 91.2193 382.409 91.2193C382.008 91.2193 381.663 91.1582 381.374 91.0361C381.085 90.9139 380.863 90.7474 380.707 90.5364C380.451 90.7474 380.173 90.9139 379.873 91.0361C379.572 91.1582 379.267 91.2193 378.955 91.2193ZM377.971 88.5211C377.971 88.9541 378.093 89.3094 378.338 89.587C378.594 89.8535 378.916 89.9868 379.305 89.9868C379.506 89.9868 379.7 89.9535 379.889 89.8868C380.078 89.8091 380.251 89.6981 380.407 89.5537C380.407 89.4871 380.412 89.4094 380.423 89.3205C380.434 89.2206 380.451 89.1151 380.473 89.0041L380.774 87.4718C380.64 87.2719 380.468 87.122 380.256 87.0221C380.045 86.911 379.8 86.8555 379.522 86.8555C379.111 86.8555 378.749 87.0221 378.438 87.3552C378.127 87.6772 377.971 88.0658 377.971 88.5211Z" fill="#4882EB"/>
<path d="M386.731 87.6883C386.731 87.0554 386.848 86.4669 387.081 85.9228C387.326 85.3676 387.654 84.8901 388.066 84.4904C388.488 84.0796 388.983 83.7575 389.551 83.5244C390.118 83.2912 390.724 83.1746 391.369 83.1746C392.014 83.1746 392.62 83.2912 393.188 83.5244C393.755 83.7575 394.244 84.0796 394.656 84.4904C395.078 84.8901 395.406 85.3676 395.64 85.9228C395.885 86.4669 396.007 87.0554 396.007 87.6883C396.007 88.3212 395.885 88.9153 395.64 89.4704C395.406 90.0145 395.078 90.4864 394.656 90.8862C394.244 91.2859 393.755 91.6024 393.188 91.8356C392.62 92.0687 392.014 92.1853 391.369 92.1853C390.724 92.1853 390.118 92.0687 389.551 91.8356C388.983 91.6024 388.488 91.2859 388.066 90.8862C387.654 90.4864 387.326 90.0145 387.081 89.4704C386.848 88.9153 386.731 88.3212 386.731 87.6883ZM391.369 90.2033C392.036 90.2033 392.604 89.959 393.071 89.4704C393.538 88.9819 393.771 88.3878 393.771 87.6883C393.771 86.9776 393.538 86.378 393.071 85.8895C392.604 85.4009 392.036 85.1566 391.369 85.1566C390.702 85.1566 390.134 85.4009 389.667 85.8895C389.2 86.378 388.967 86.9776 388.967 87.6883C388.967 88.3878 389.2 88.9819 389.667 89.4704C390.134 89.959 390.702 90.2033 391.369 90.2033Z" fill="#4882EB"/>
<path d="M397.412 92.0188V83.3411H399.698V84.2905C399.976 83.913 400.309 83.6298 400.699 83.4411C401.099 83.2412 401.538 83.1413 402.017 83.1413C402.239 83.1524 402.423 83.1746 402.567 83.2079C402.723 83.2301 402.856 83.2745 402.968 83.3411V85.3398C402.801 85.2621 402.617 85.2066 402.417 85.1733C402.217 85.1289 402.011 85.1067 401.8 85.1067C401.355 85.1067 400.943 85.2177 400.565 85.4398C400.198 85.6618 399.909 85.9839 399.698 86.4058V92.0188H397.412Z" fill="#4882EB"/>
<path d="M407.786 92.0687C407.175 92.0687 406.596 91.9521 406.051 91.719C405.517 91.4858 405.05 91.1693 404.65 90.7696C404.261 90.3699 403.949 89.9035 403.716 89.3705C403.493 88.8264 403.382 88.2435 403.382 87.6217C403.382 87.011 403.499 86.4391 403.732 85.9061C403.966 85.362 404.283 84.8901 404.683 84.4904C405.084 84.0907 405.556 83.7797 406.101 83.5577C406.646 83.3245 407.23 83.2079 407.853 83.2079C408.287 83.2079 408.698 83.269 409.088 83.3911C409.488 83.5133 409.861 83.6854 410.205 83.9074V83.3411H412.458V92.0188C412.458 93.1625 412.085 94.0452 411.34 94.667C410.606 95.2888 409.544 95.5997 408.153 95.5997C407.486 95.5997 406.841 95.5331 406.218 95.3999C405.606 95.2666 405.045 95.0723 404.533 94.8169L405.334 93.0348C405.812 93.268 406.279 93.4401 406.735 93.5511C407.191 93.6732 407.647 93.7343 408.103 93.7343C408.782 93.7343 409.293 93.5844 409.638 93.2846C409.994 92.9959 410.172 92.5684 410.172 92.0021V91.2859C409.827 91.5413 409.449 91.7356 409.038 91.8689C408.637 92.0021 408.22 92.0687 407.786 92.0687ZM405.634 87.6217C405.634 88.3212 405.873 88.9153 406.352 89.4038C406.841 89.8924 407.436 90.1367 408.137 90.1367C408.548 90.1367 408.926 90.0701 409.271 89.9368C409.616 89.7925 409.916 89.5981 410.172 89.3539V85.9394C409.927 85.6952 409.627 85.5064 409.271 85.3731C408.915 85.2288 408.543 85.1566 408.153 85.1566C407.453 85.1566 406.858 85.3954 406.368 85.8728C405.879 86.3503 405.634 86.9332 405.634 87.6217Z" fill="#4882EB"/>
<path d="M417.011 92.1687C416.077 92.1687 415.315 91.9244 414.725 91.4358C414.136 90.9362 413.841 90.2921 413.841 89.5038C413.841 88.6821 414.158 88.0381 414.792 87.5717C415.426 87.1053 416.299 86.8722 417.411 86.8722C417.767 86.8722 418.123 86.8999 418.479 86.9554C418.835 87.011 419.185 87.0942 419.53 87.2053V86.589C419.53 86.0893 419.375 85.7118 419.063 85.4564C418.752 85.201 418.296 85.0733 417.695 85.0733C417.328 85.0733 416.928 85.1344 416.494 85.2566C416.071 85.3676 415.587 85.5453 415.042 85.7895L414.208 84.1073C414.887 83.7964 415.543 83.5632 416.177 83.4078C416.822 83.2523 417.456 83.1746 418.079 83.1746C419.247 83.1746 420.153 83.4577 420.798 84.024C421.454 84.5792 421.782 85.3676 421.782 86.3891V92.0188H419.53V91.4192C419.163 91.6746 418.774 91.8633 418.362 91.9855C417.962 92.1076 417.512 92.1687 417.011 92.1687ZM416.027 89.4538C416.027 89.7869 416.171 90.0534 416.46 90.2533C416.75 90.442 417.133 90.5364 417.612 90.5364C417.99 90.5364 418.335 90.492 418.646 90.4032C418.969 90.3032 419.263 90.1644 419.53 89.9868V88.6876C419.252 88.5766 418.957 88.4989 418.646 88.4544C418.346 88.3989 418.029 88.3712 417.695 88.3712C417.172 88.3712 416.761 88.4711 416.46 88.671C416.171 88.8597 416.027 89.1207 416.027 89.4538Z" fill="#4882EB"/>
<path d="M423.512 92.0188V83.3411H425.798V84.024C426.132 83.7464 426.499 83.5355 426.899 83.3911C427.311 83.2468 427.755 83.1746 428.234 83.1746C429.235 83.1746 430.058 83.4966 430.703 84.1406C431.348 84.7846 431.671 85.6119 431.671 86.6223V92.0188H429.385V86.9554C429.385 86.4114 429.218 85.9727 428.884 85.6396C428.562 85.3065 428.128 85.14 427.583 85.14C427.205 85.14 426.86 85.2177 426.549 85.3731C426.248 85.5175 425.998 85.7285 425.798 86.0061V92.0188H423.512Z" fill="#4882EB"/>
<path d="M434.536 82.3085C434.18 82.3085 433.875 82.1808 433.619 81.9254C433.363 81.67 433.235 81.3647 433.235 81.0094C433.235 80.654 433.363 80.3487 433.619 80.0933C433.875 79.8379 434.18 79.7102 434.536 79.7102C434.892 79.7102 435.198 79.8379 435.454 80.0933C435.71 80.3487 435.838 80.654 435.838 81.0094C435.838 81.3647 435.71 81.67 435.454 81.9254C435.198 82.1808 434.892 82.3085 434.536 82.3085ZM435.687 83.3411V92.0188H433.402V83.3411H435.687Z" fill="#4882EB"/>
<path d="M437.024 92.0188V90.4032L441.396 85.2566H437.058V83.3411H444.332V84.9568L439.927 90.1034H444.432V92.0188H437.024Z" fill="#4882EB"/>
<path d="M453.331 90.9362C452.797 91.3692 452.246 91.6857 451.679 91.8855C451.123 92.0854 450.5 92.1853 449.811 92.1853C449.154 92.1853 448.537 92.0687 447.959 91.8356C447.392 91.6024 446.897 91.2859 446.474 90.8862C446.062 90.4864 445.734 90.0145 445.49 89.4704C445.256 88.9153 445.139 88.3212 445.139 87.6883C445.139 87.0665 445.25 86.4835 445.473 85.9394C445.706 85.3842 446.023 84.9068 446.424 84.507C446.824 84.0962 447.297 83.7742 447.842 83.541C448.398 83.3078 448.988 83.1912 449.61 83.1912C450.222 83.1912 450.789 83.3134 451.312 83.5577C451.846 83.7909 452.302 84.1129 452.68 84.5237C453.069 84.9345 453.37 85.4287 453.581 86.0061C453.804 86.5724 453.915 87.1886 453.915 87.8548V88.4544H447.442C447.597 88.9985 447.898 89.4371 448.342 89.7703C448.787 90.1034 449.31 90.2699 449.911 90.2699C450.289 90.2699 450.645 90.2089 450.978 90.0867C451.312 89.9646 451.596 89.7925 451.829 89.5704L453.331 90.9362ZM449.56 85.0733C449.038 85.0733 448.587 85.2343 448.209 85.5564C447.831 85.8673 447.569 86.2892 447.425 86.8222H451.679C451.535 86.3114 451.268 85.895 450.878 85.573C450.5 85.2399 450.061 85.0733 449.56 85.0733Z" fill="#4882EB"/>
<path d="M455.315 92.0188V83.3411H457.601V84.2905C457.879 83.913 458.212 83.6298 458.602 83.4411C459.002 83.2412 459.441 83.1413 459.92 83.1413C460.142 83.1524 460.326 83.1746 460.47 83.2079C460.626 83.2301 460.759 83.2745 460.871 83.3411V85.3398C460.704 85.2621 460.52 85.2066 460.32 85.1733C460.12 85.1289 459.914 85.1067 459.703 85.1067C459.258 85.1067 458.846 85.2177 458.468 85.4398C458.101 85.6618 457.812 85.9839 457.601 86.4058V92.0188H455.315Z" fill="#4882EB"/>
<path d="M469.466 93.3512V94.9502H461.191V93.3512H469.466Z" fill="#4882EB"/>
<path d="M479.495 87.6883C479.495 88.3101 479.379 88.8931 479.145 89.4371C478.912 89.9812 478.595 90.4531 478.194 90.8529C477.794 91.2526 477.316 91.5691 476.759 91.8022C476.214 92.0243 475.63 92.1354 475.008 92.1354C474.574 92.1354 474.151 92.0743 473.74 91.9521C473.328 91.83 472.95 91.6579 472.605 91.4358V92.0188H470.353V80.3598L472.639 79.8601V84.024C472.983 83.7686 473.362 83.5743 473.773 83.4411C474.196 83.2967 474.629 83.2246 475.074 83.2246C475.686 83.2246 476.259 83.3411 476.793 83.5743C477.338 83.8075 477.81 84.124 478.211 84.5237C478.611 84.9234 478.923 85.3954 479.145 85.9394C479.379 86.4835 479.495 87.0665 479.495 87.6883ZM474.707 85.1733C474.296 85.1733 473.912 85.2455 473.556 85.3898C473.2 85.523 472.894 85.7229 472.639 85.9894V89.4038C472.883 89.6481 473.184 89.8424 473.539 89.9868C473.907 90.1311 474.296 90.2033 474.707 90.2033C475.419 90.2033 476.02 89.9646 476.509 89.4871C476.999 88.9985 477.243 88.3989 477.243 87.6883C477.243 86.9776 476.993 86.3836 476.492 85.9061C476.003 85.4176 475.408 85.1733 474.707 85.1733Z" fill="#4882EB"/>
<path d="M480.559 87.6883C480.559 87.0554 480.676 86.4669 480.909 85.9228C481.154 85.3676 481.482 84.8901 481.894 84.4904C482.316 84.0796 482.811 83.7575 483.378 83.5244C483.946 83.2912 484.552 83.1746 485.197 83.1746C485.842 83.1746 486.448 83.2912 487.015 83.5244C487.583 83.7575 488.072 84.0796 488.484 84.4904C488.906 84.8901 489.234 85.3676 489.468 85.9228C489.713 86.4669 489.835 87.0554 489.835 87.6883C489.835 88.3212 489.713 88.9153 489.468 89.4704C489.234 90.0145 488.906 90.4864 488.484 90.8862C488.072 91.2859 487.583 91.6024 487.015 91.8356C486.448 92.0687 485.842 92.1853 485.197 92.1853C484.552 92.1853 483.946 92.0687 483.378 91.8356C482.811 91.6024 482.316 91.2859 481.894 90.8862C481.482 90.4864 481.154 90.0145 480.909 89.4704C480.676 88.9153 480.559 88.3212 480.559 87.6883ZM485.197 90.2033C485.864 90.2033 486.431 89.959 486.899 89.4704C487.366 88.9819 487.599 88.3878 487.599 87.6883C487.599 86.9776 487.366 86.378 486.899 85.8895C486.431 85.4009 485.864 85.1566 485.197 85.1566C484.53 85.1566 483.962 85.4009 483.495 85.8895C483.028 86.378 482.794 86.9776 482.794 87.6883C482.794 88.3878 483.028 88.9819 483.495 89.4704C483.962 89.959 484.53 90.2033 485.197 90.2033Z" fill="#4882EB"/>
<path d="M492.001 89.5704V85.2566H490.216V83.3411H492.001V81.1259L494.286 80.6096V83.3411H496.756V85.2566H494.286V89.104C494.286 89.5149 494.375 89.8036 494.553 89.9701C494.731 90.1367 495.043 90.22 495.488 90.22C495.699 90.22 495.899 90.2089 496.088 90.1866C496.277 90.1533 496.483 90.0978 496.705 90.0201V91.8855C496.461 91.9633 496.166 92.0243 495.821 92.0687C495.476 92.1243 495.182 92.152 494.937 92.152C493.969 92.152 493.235 91.9355 492.735 91.5024C492.245 91.0583 492.001 90.4143 492.001 89.5704Z" fill="#4882EB"/>
<ellipse cx="95.4233" cy="86.0702" rx="23.8334" ry="23.7939" fill="#FFB931"/>
<rect x="128.789" y="71.7938" width="166.834" height="9.51755" rx="4.75877" fill="#ADABB5"/>
<rect x="128.789" y="90.829" width="119.167" height="9.51754" rx="4.75877" fill="#DADADA"/>
<g filter="url(#filter1_d)">
<rect x="16" y="143.175" width="454.378" height="71.3315" rx="8" fill="white"/>
</g>
<path d="M330.748 183.665C330.112 183.665 329.575 183.431 329.138 182.963C328.7 182.495 328.481 181.923 328.481 181.246C328.481 180.851 328.554 180.482 328.7 180.139C328.846 179.785 329.039 179.483 329.278 179.233C329.528 178.973 329.82 178.771 330.154 178.625C330.497 178.469 330.862 178.391 331.248 178.391C331.529 178.391 331.795 178.438 332.045 178.531C332.295 178.615 332.514 178.739 332.701 178.906L332.764 178.609H334.17L333.498 181.777C333.436 182.058 333.467 182.276 333.592 182.432C333.717 182.578 333.915 182.651 334.186 182.651C334.676 182.651 335.077 182.422 335.39 181.964C335.702 181.496 335.858 180.903 335.858 180.185C335.858 179.624 335.749 179.103 335.53 178.625C335.322 178.146 335.025 177.73 334.639 177.377C334.264 177.023 333.816 176.747 333.295 176.55C332.774 176.352 332.212 176.253 331.607 176.253C330.951 176.253 330.336 176.378 329.763 176.628C329.19 176.877 328.695 177.221 328.278 177.658C327.872 178.084 327.549 178.594 327.309 179.187C327.069 179.78 326.95 180.414 326.95 181.09C326.95 181.766 327.064 182.385 327.293 182.947C327.523 183.509 327.846 183.993 328.262 184.398C328.679 184.804 329.174 185.116 329.747 185.335C330.331 185.563 330.966 185.678 331.654 185.678C332.133 185.678 332.587 185.631 333.014 185.537C333.452 185.444 333.858 185.298 334.233 185.101L334.639 185.974C334.15 186.203 333.66 186.375 333.17 186.489C332.68 186.604 332.175 186.661 331.654 186.661C330.831 186.661 330.065 186.52 329.357 186.24C328.648 185.969 328.038 185.589 327.528 185.101C327.017 184.622 326.616 184.045 326.324 183.368C326.033 182.692 325.887 181.964 325.887 181.184C325.887 180.352 326.033 179.582 326.324 178.875C326.616 178.157 327.017 177.538 327.528 177.018C328.038 176.498 328.648 176.092 329.357 175.801C330.065 175.499 330.831 175.348 331.654 175.348C332.394 175.348 333.087 175.473 333.733 175.723C334.379 175.962 334.936 176.295 335.405 176.721C335.885 177.148 336.26 177.652 336.531 178.235C336.801 178.817 336.937 179.442 336.937 180.107C336.937 180.627 336.864 181.106 336.718 181.543C336.572 181.98 336.369 182.354 336.109 182.666C335.848 182.978 335.535 183.223 335.171 183.4C334.806 183.577 334.41 183.665 333.983 183.665C333.608 183.665 333.285 183.608 333.014 183.493C332.743 183.379 332.535 183.223 332.389 183.025C332.149 183.223 331.889 183.379 331.607 183.493C331.326 183.608 331.039 183.665 330.748 183.665ZM329.825 181.137C329.825 181.543 329.94 181.876 330.169 182.136C330.409 182.385 330.711 182.51 331.076 182.51C331.263 182.51 331.446 182.479 331.623 182.417C331.8 182.344 331.961 182.24 332.107 182.105C332.107 182.042 332.113 181.969 332.123 181.886C332.133 181.793 332.149 181.694 332.17 181.59L332.451 180.154C332.326 179.967 332.165 179.826 331.967 179.733C331.769 179.629 331.539 179.577 331.279 179.577C330.893 179.577 330.555 179.733 330.263 180.045C329.971 180.347 329.825 180.711 329.825 181.137Z" fill="#4882EB"/>
<path d="M339.487 182.12V178.079H337.814V176.284H339.487V174.209L341.628 173.725V176.284H343.941V178.079H341.628V181.683C341.628 182.068 341.711 182.339 341.878 182.495C342.045 182.651 342.336 182.729 342.753 182.729C342.951 182.729 343.139 182.718 343.316 182.698C343.493 182.666 343.686 182.614 343.894 182.541V184.289C343.665 184.362 343.389 184.419 343.066 184.461C342.743 184.513 342.467 184.539 342.237 184.539C341.331 184.539 340.643 184.336 340.174 183.93C339.716 183.514 339.487 182.911 339.487 182.12Z" fill="#4882EB"/>
<path d="M347.58 184.554C346.705 184.554 345.991 184.326 345.439 183.868C344.887 183.4 344.611 182.796 344.611 182.058C344.611 181.288 344.907 180.685 345.501 180.248C346.095 179.811 346.913 179.592 347.955 179.592C348.289 179.592 348.622 179.618 348.956 179.67C349.289 179.722 349.617 179.8 349.94 179.904V179.327C349.94 178.859 349.794 178.505 349.503 178.266C349.211 178.027 348.784 177.907 348.221 177.907C347.877 177.907 347.502 177.964 347.096 178.079C346.7 178.183 346.246 178.349 345.736 178.578L344.954 177.002C345.59 176.711 346.205 176.492 346.799 176.347C347.403 176.201 347.997 176.128 348.58 176.128C349.675 176.128 350.524 176.394 351.128 176.924C351.743 177.444 352.05 178.183 352.05 179.14V184.414H349.94V183.852C349.596 184.091 349.232 184.268 348.846 184.383C348.471 184.497 348.049 184.554 347.58 184.554ZM346.658 182.011C346.658 182.323 346.793 182.573 347.064 182.76C347.335 182.937 347.695 183.025 348.143 183.025C348.497 183.025 348.82 182.984 349.112 182.9C349.414 182.807 349.69 182.677 349.94 182.51V181.293C349.68 181.189 349.404 181.116 349.112 181.075C348.831 181.023 348.534 180.997 348.221 180.997C347.731 180.997 347.346 181.09 347.064 181.278C346.793 181.454 346.658 181.699 346.658 182.011Z" fill="#4882EB"/>
<path d="M353.671 184.414V176.284H355.812V177.174C356.073 176.82 356.385 176.555 356.75 176.378C357.125 176.191 357.537 176.097 357.985 176.097C358.193 176.108 358.365 176.128 358.5 176.16C358.646 176.18 358.771 176.222 358.876 176.284V178.157C358.719 178.084 358.547 178.032 358.36 178.001C358.172 177.959 357.979 177.938 357.781 177.938C357.365 177.938 356.979 178.042 356.625 178.25C356.281 178.459 356.01 178.76 355.812 179.155V184.414H353.671Z" fill="#4882EB"/>
<path d="M363.39 184.461C362.817 184.461 362.275 184.352 361.764 184.133C361.264 183.915 360.827 183.618 360.452 183.244C360.087 182.869 359.795 182.432 359.576 181.933C359.368 181.423 359.264 180.877 359.264 180.295C359.264 179.722 359.373 179.187 359.592 178.687C359.811 178.178 360.108 177.736 360.483 177.361C360.858 176.987 361.301 176.695 361.811 176.487C362.322 176.269 362.869 176.16 363.452 176.16C363.859 176.16 364.244 176.217 364.609 176.331C364.984 176.446 365.333 176.607 365.656 176.815V176.284H367.766V184.414C367.766 185.485 367.417 186.312 366.719 186.895C366.031 187.477 365.036 187.769 363.734 187.769C363.109 187.769 362.504 187.706 361.921 187.582C361.348 187.457 360.821 187.275 360.342 187.035L361.092 185.366C361.54 185.584 361.978 185.745 362.405 185.849C362.833 185.964 363.26 186.021 363.687 186.021C364.323 186.021 364.802 185.881 365.125 185.6C365.458 185.329 365.625 184.929 365.625 184.398V183.727C365.302 183.967 364.948 184.149 364.562 184.274C364.187 184.398 363.796 184.461 363.39 184.461ZM361.374 180.295C361.374 180.95 361.598 181.506 362.046 181.964C362.504 182.422 363.062 182.651 363.718 182.651C364.104 182.651 364.458 182.588 364.781 182.463C365.104 182.328 365.385 182.146 365.625 181.917V178.719C365.396 178.49 365.114 178.313 364.781 178.188C364.448 178.053 364.099 177.985 363.734 177.985C363.077 177.985 362.52 178.209 362.061 178.656C361.603 179.103 361.374 179.65 361.374 180.295Z" fill="#4882EB"/>
<path d="M376.752 183.4C376.252 183.805 375.736 184.102 375.205 184.289C374.684 184.476 374.1 184.57 373.454 184.57C372.84 184.57 372.261 184.461 371.72 184.242C371.188 184.024 370.724 183.727 370.328 183.353C369.943 182.978 369.636 182.536 369.406 182.027C369.188 181.506 369.078 180.95 369.078 180.357C369.078 179.774 369.182 179.228 369.391 178.719C369.61 178.198 369.906 177.751 370.282 177.377C370.657 176.992 371.1 176.69 371.61 176.472C372.131 176.253 372.683 176.144 373.267 176.144C373.84 176.144 374.371 176.258 374.861 176.487C375.361 176.706 375.788 177.007 376.143 177.392C376.507 177.777 376.789 178.24 376.987 178.781C377.195 179.312 377.299 179.889 377.299 180.513V181.075H371.235C371.381 181.584 371.662 181.995 372.079 182.307C372.496 182.62 372.986 182.776 373.548 182.776C373.902 182.776 374.236 182.718 374.548 182.604C374.861 182.489 375.127 182.328 375.346 182.12L376.752 183.4ZM373.22 177.907C372.73 177.907 372.308 178.058 371.954 178.36C371.6 178.651 371.355 179.046 371.219 179.546H375.205C375.069 179.067 374.819 178.677 374.455 178.375C374.1 178.063 373.689 177.907 373.22 177.907Z" fill="#4882EB"/>
<path d="M379.416 182.12V178.079H377.743V176.284H379.416V174.209L381.557 173.725V176.284H383.87V178.079H381.557V181.683C381.557 182.068 381.64 182.339 381.807 182.495C381.974 182.651 382.266 182.729 382.682 182.729C382.88 182.729 383.068 182.718 383.245 182.698C383.422 182.666 383.615 182.614 383.823 182.541V184.289C383.594 184.362 383.318 184.419 382.995 184.461C382.672 184.513 382.396 184.539 382.167 184.539C381.26 184.539 380.572 184.336 380.103 183.93C379.645 183.514 379.416 182.911 379.416 182.12Z" fill="#4882EB"/>
<path d="M391.823 185.662V187.16H384.071V185.662H391.823Z" fill="#4882EB"/>
<path d="M401.219 180.357C401.219 180.94 401.109 181.486 400.89 181.995C400.672 182.505 400.375 182.947 400 183.322C399.624 183.696 399.176 183.993 398.655 184.211C398.145 184.419 397.598 184.523 397.014 184.523C396.608 184.523 396.212 184.466 395.826 184.352C395.441 184.237 395.087 184.076 394.764 183.868V184.414H392.654V173.491L394.795 173.023V176.924C395.118 176.685 395.472 176.503 395.858 176.378C396.254 176.243 396.66 176.175 397.077 176.175C397.65 176.175 398.187 176.284 398.687 176.503C399.197 176.721 399.64 177.018 400.015 177.392C400.39 177.767 400.682 178.209 400.89 178.719C401.109 179.228 401.219 179.774 401.219 180.357ZM396.733 178.001C396.347 178.001 395.988 178.068 395.654 178.204C395.321 178.328 395.035 178.516 394.795 178.765V181.964C395.024 182.193 395.305 182.375 395.639 182.51C395.983 182.646 396.347 182.713 396.733 182.713C397.4 182.713 397.962 182.489 398.421 182.042C398.879 181.584 399.109 181.023 399.109 180.357C399.109 179.691 398.874 179.135 398.405 178.687C397.947 178.23 397.389 178.001 396.733 178.001Z" fill="#4882EB"/>
<path d="M402.215 180.357C402.215 179.764 402.324 179.213 402.543 178.703C402.772 178.183 403.08 177.736 403.465 177.361C403.861 176.976 404.325 176.674 404.856 176.456C405.388 176.238 405.956 176.128 406.56 176.128C407.164 176.128 407.732 176.238 408.264 176.456C408.795 176.674 409.254 176.976 409.639 177.361C410.035 177.736 410.342 178.183 410.561 178.703C410.79 179.213 410.905 179.764 410.905 180.357C410.905 180.95 410.79 181.506 410.561 182.027C410.342 182.536 410.035 182.978 409.639 183.353C409.254 183.727 408.795 184.024 408.264 184.242C407.732 184.461 407.164 184.57 406.56 184.57C405.956 184.57 405.388 184.461 404.856 184.242C404.325 184.024 403.861 183.727 403.465 183.353C403.08 182.978 402.772 182.536 402.543 182.027C402.324 181.506 402.215 180.95 402.215 180.357ZM406.56 182.713C407.185 182.713 407.717 182.484 408.154 182.027C408.592 181.569 408.811 181.012 408.811 180.357C408.811 179.691 408.592 179.129 408.154 178.672C407.717 178.214 407.185 177.985 406.56 177.985C405.935 177.985 405.403 178.214 404.966 178.672C404.528 179.129 404.309 179.691 404.309 180.357C404.309 181.012 404.528 181.569 404.966 182.027C405.403 182.484 405.935 182.713 406.56 182.713Z" fill="#4882EB"/>
<path d="M412.934 182.12V178.079H411.262V176.284H412.934V174.209L415.075 173.725V176.284H417.389V178.079H415.075V181.683C415.075 182.068 415.159 182.339 415.325 182.495C415.492 182.651 415.784 182.729 416.201 182.729C416.399 182.729 416.586 182.718 416.763 182.698C416.941 182.666 417.133 182.614 417.342 182.541V184.289C417.112 184.362 416.836 184.419 416.513 184.461C416.19 184.513 415.914 184.539 415.685 184.539C414.778 184.539 414.091 184.336 413.622 183.93C413.163 183.514 412.934 182.911 412.934 182.12Z" fill="#4882EB"/>
<ellipse cx="65.1221" cy="178.841" rx="22.3282" ry="22.2911" fill="#7F31FF"/>
<rect x="96.3809" y="165.467" width="156.297" height="8.91644" rx="4.45822" fill="#ADABB5"/>
<rect x="96.3809" y="183.299" width="111.641" height="8.91643" rx="4.45821" fill="#DADADA"/>
<g filter="url(#filter2_d)">
<rect x="16" y="321.504" width="454.378" height="71.3315" rx="8" fill="white"/>
</g>
<path d="M330.748 361.994C330.112 361.994 329.575 361.76 329.138 361.292C328.7 360.824 328.481 360.251 328.481 359.575C328.481 359.18 328.554 358.811 328.7 358.467C328.846 358.114 329.039 357.812 329.278 357.562C329.528 357.302 329.82 357.099 330.154 356.954C330.497 356.798 330.862 356.72 331.248 356.72C331.529 356.72 331.795 356.767 332.045 356.86C332.295 356.943 332.514 357.068 332.701 357.235L332.764 356.938H334.17L333.498 360.106C333.436 360.387 333.467 360.605 333.592 360.761C333.717 360.907 333.915 360.98 334.186 360.98C334.676 360.98 335.077 360.751 335.39 360.293C335.702 359.825 335.858 359.232 335.858 358.514C335.858 357.952 335.749 357.432 335.53 356.954C335.322 356.475 335.025 356.059 334.639 355.706C334.264 355.352 333.816 355.076 333.295 354.879C332.774 354.681 332.212 354.582 331.607 354.582C330.951 354.582 330.336 354.707 329.763 354.957C329.19 355.206 328.695 355.549 328.278 355.986C327.872 356.413 327.549 356.923 327.309 357.516C327.069 358.108 326.95 358.743 326.95 359.419C326.95 360.095 327.064 360.714 327.293 361.276C327.523 361.838 327.846 362.322 328.262 362.727C328.679 363.133 329.174 363.445 329.747 363.663C330.331 363.892 330.966 364.007 331.654 364.007C332.133 364.007 332.587 363.96 333.014 363.866C333.452 363.773 333.858 363.627 334.233 363.429L334.639 364.303C334.15 364.532 333.66 364.704 333.17 364.818C332.68 364.933 332.175 364.99 331.654 364.99C330.831 364.99 330.065 364.849 329.357 364.568C328.648 364.298 328.038 363.918 327.528 363.429C327.017 362.951 326.616 362.374 326.324 361.697C326.033 361.021 325.887 360.293 325.887 359.513C325.887 358.681 326.033 357.911 326.324 357.203C326.616 356.486 327.017 355.867 327.528 355.347C328.038 354.826 328.648 354.421 329.357 354.13C330.065 353.828 330.831 353.677 331.654 353.677C332.394 353.677 333.087 353.802 333.733 354.052C334.379 354.291 334.936 354.624 335.405 355.05C335.885 355.477 336.26 355.981 336.531 356.564C336.801 357.146 336.937 357.77 336.937 358.436C336.937 358.956 336.864 359.435 336.718 359.872C336.572 360.309 336.369 360.683 336.109 360.995C335.848 361.307 335.535 361.552 335.171 361.729C334.806 361.905 334.41 361.994 333.983 361.994C333.608 361.994 333.285 361.937 333.014 361.822C332.743 361.708 332.535 361.552 332.389 361.354C332.149 361.552 331.889 361.708 331.607 361.822C331.326 361.937 331.039 361.994 330.748 361.994ZM329.825 359.466C329.825 359.872 329.94 360.205 330.169 360.465C330.409 360.714 330.711 360.839 331.076 360.839C331.263 360.839 331.446 360.808 331.623 360.746C331.8 360.673 331.961 360.569 332.107 360.433C332.107 360.371 332.113 360.298 332.123 360.215C332.133 360.121 332.149 360.023 332.17 359.919L332.451 358.483C332.326 358.296 332.165 358.155 331.967 358.062C331.769 357.958 331.539 357.906 331.279 357.906C330.893 357.906 330.555 358.062 330.263 358.374C329.971 358.675 329.825 359.04 329.825 359.466Z" fill="#4882EB"/>
<path d="M339.487 360.449V356.408H337.814V354.613H339.487V352.538L341.628 352.054V354.613H343.941V356.408H341.628V360.012C341.628 360.397 341.711 360.668 341.878 360.824C342.045 360.98 342.336 361.058 342.753 361.058C342.951 361.058 343.139 361.047 343.316 361.026C343.493 360.995 343.686 360.943 343.894 360.87V362.618C343.665 362.691 343.389 362.748 343.066 362.79C342.743 362.842 342.467 362.868 342.237 362.868C341.331 362.868 340.643 362.665 340.174 362.259C339.716 361.843 339.487 361.24 339.487 360.449Z" fill="#4882EB"/>
<path d="M347.58 362.883C346.705 362.883 345.991 362.654 345.439 362.197C344.887 361.729 344.611 361.125 344.611 360.387C344.611 359.617 344.907 359.014 345.501 358.577C346.095 358.14 346.913 357.921 347.955 357.921C348.289 357.921 348.622 357.947 348.956 357.999C349.289 358.051 349.617 358.129 349.94 358.233V357.656C349.94 357.188 349.794 356.834 349.503 356.595C349.211 356.356 348.784 356.236 348.221 356.236C347.877 356.236 347.502 356.293 347.096 356.408C346.7 356.512 346.246 356.678 345.736 356.907L344.954 355.331C345.59 355.04 346.205 354.821 346.799 354.676C347.403 354.53 347.997 354.457 348.58 354.457C349.675 354.457 350.524 354.722 351.128 355.253C351.743 355.773 352.05 356.512 352.05 357.469V362.743H349.94V362.181C349.596 362.42 349.232 362.597 348.846 362.712C348.471 362.826 348.049 362.883 347.58 362.883ZM346.658 360.34C346.658 360.652 346.793 360.902 347.064 361.089C347.335 361.266 347.695 361.354 348.143 361.354C348.497 361.354 348.82 361.312 349.112 361.229C349.414 361.136 349.69 361.006 349.94 360.839V359.622C349.68 359.518 349.404 359.445 349.112 359.404C348.831 359.352 348.534 359.326 348.221 359.326C347.731 359.326 347.346 359.419 347.064 359.606C346.793 359.783 346.658 360.028 346.658 360.34Z" fill="#4882EB"/>
<path d="M353.671 362.743V354.613H355.812V355.503C356.073 355.149 356.385 354.884 356.75 354.707C357.125 354.52 357.537 354.426 357.985 354.426C358.193 354.436 358.365 354.457 358.5 354.488C358.646 354.509 358.771 354.551 358.876 354.613V356.486C358.719 356.413 358.547 356.361 358.36 356.33C358.172 356.288 357.979 356.267 357.781 356.267C357.365 356.267 356.979 356.371 356.625 356.579C356.281 356.787 356.01 357.089 355.812 357.484V362.743H353.671Z" fill="#4882EB"/>
<path d="M363.39 362.79C362.817 362.79 362.275 362.68 361.764 362.462C361.264 362.243 360.827 361.947 360.452 361.573C360.087 361.198 359.795 360.761 359.576 360.262C359.368 359.752 359.264 359.206 359.264 358.623C359.264 358.051 359.373 357.516 359.592 357.016C359.811 356.506 360.108 356.064 360.483 355.69C360.858 355.315 361.301 355.024 361.811 354.816C362.322 354.598 362.869 354.488 363.452 354.488C363.859 354.488 364.244 354.546 364.609 354.66C364.984 354.774 365.333 354.936 365.656 355.144V354.613H367.766V362.743C367.766 363.814 367.417 364.641 366.719 365.224C366.031 365.806 365.036 366.098 363.734 366.098C363.109 366.098 362.504 366.035 361.921 365.91C361.348 365.786 360.821 365.604 360.342 365.364L361.092 363.695C361.54 363.913 361.978 364.074 362.405 364.178C362.833 364.293 363.26 364.35 363.687 364.35C364.323 364.35 364.802 364.21 365.125 363.929C365.458 363.658 365.625 363.258 365.625 362.727V362.056C365.302 362.296 364.948 362.478 364.562 362.602C364.187 362.727 363.796 362.79 363.39 362.79ZM361.374 358.623C361.374 359.279 361.598 359.835 362.046 360.293C362.504 360.751 363.062 360.98 363.718 360.98C364.104 360.98 364.458 360.917 364.781 360.792C365.104 360.657 365.385 360.475 365.625 360.246V357.047C365.396 356.819 365.114 356.642 364.781 356.517C364.448 356.382 364.099 356.314 363.734 356.314C363.077 356.314 362.52 356.538 362.061 356.985C361.603 357.432 361.374 357.978 361.374 358.623Z" fill="#4882EB"/>
<path d="M376.752 361.729C376.252 362.134 375.736 362.431 375.205 362.618C374.684 362.805 374.1 362.899 373.454 362.899C372.84 362.899 372.261 362.79 371.72 362.571C371.188 362.353 370.724 362.056 370.328 361.682C369.943 361.307 369.636 360.865 369.406 360.355C369.188 359.835 369.078 359.279 369.078 358.686C369.078 358.103 369.182 357.557 369.391 357.047C369.61 356.527 369.906 356.08 370.282 355.706C370.657 355.321 371.1 355.019 371.61 354.8C372.131 354.582 372.683 354.473 373.267 354.473C373.84 354.473 374.371 354.587 374.861 354.816C375.361 355.035 375.788 355.336 376.143 355.721C376.507 356.106 376.789 356.569 376.987 357.11C377.195 357.64 377.299 358.218 377.299 358.842V359.404H371.235C371.381 359.913 371.662 360.324 372.079 360.636C372.496 360.948 372.986 361.104 373.548 361.104C373.902 361.104 374.236 361.047 374.548 360.933C374.861 360.818 375.127 360.657 375.346 360.449L376.752 361.729ZM373.22 356.236C372.73 356.236 372.308 356.387 371.954 356.689C371.6 356.98 371.355 357.375 371.219 357.874H375.205C375.069 357.396 374.819 357.006 374.455 356.704C374.1 356.392 373.689 356.236 373.22 356.236Z" fill="#4882EB"/>
<path d="M379.416 360.449V356.408H377.743V354.613H379.416V352.538L381.557 352.054V354.613H383.87V356.408H381.557V360.012C381.557 360.397 381.64 360.668 381.807 360.824C381.974 360.98 382.266 361.058 382.682 361.058C382.88 361.058 383.068 361.047 383.245 361.026C383.422 360.995 383.615 360.943 383.823 360.87V362.618C383.594 362.691 383.318 362.748 382.995 362.79C382.672 362.842 382.396 362.868 382.167 362.868C381.26 362.868 380.572 362.665 380.103 362.259C379.645 361.843 379.416 361.24 379.416 360.449Z" fill="#4882EB"/>
<path d="M391.823 363.991V365.489H384.071V363.991H391.823Z" fill="#4882EB"/>
<path d="M401.219 358.686C401.219 359.268 401.109 359.815 400.89 360.324C400.672 360.834 400.375 361.276 400 361.651C399.624 362.025 399.176 362.322 398.655 362.54C398.145 362.748 397.598 362.852 397.014 362.852C396.608 362.852 396.212 362.795 395.826 362.68C395.441 362.566 395.087 362.405 394.764 362.197V362.743H392.654V351.82L394.795 351.352V355.253C395.118 355.014 395.472 354.832 395.858 354.707C396.254 354.572 396.66 354.504 397.077 354.504C397.65 354.504 398.187 354.613 398.687 354.832C399.197 355.05 399.64 355.347 400.015 355.721C400.39 356.096 400.682 356.538 400.89 357.047C401.109 357.557 401.219 358.103 401.219 358.686ZM396.733 356.33C396.347 356.33 395.988 356.397 395.654 356.533C395.321 356.657 395.035 356.845 394.795 357.094V360.293C395.024 360.522 395.305 360.704 395.639 360.839C395.983 360.974 396.347 361.042 396.733 361.042C397.4 361.042 397.962 360.818 398.421 360.371C398.879 359.913 399.109 359.352 399.109 358.686C399.109 358.02 398.874 357.464 398.405 357.016C397.947 356.559 397.389 356.33 396.733 356.33Z" fill="#4882EB"/>
<path d="M402.215 358.686C402.215 358.093 402.324 357.542 402.543 357.032C402.772 356.512 403.08 356.064 403.465 355.69C403.861 355.305 404.325 355.003 404.856 354.785C405.388 354.566 405.956 354.457 406.56 354.457C407.164 354.457 407.732 354.566 408.264 354.785C408.795 355.003 409.254 355.305 409.639 355.69C410.035 356.064 410.342 356.512 410.561 357.032C410.79 357.542 410.905 358.093 410.905 358.686C410.905 359.279 410.79 359.835 410.561 360.355C410.342 360.865 410.035 361.307 409.639 361.682C409.254 362.056 408.795 362.353 408.264 362.571C407.732 362.79 407.164 362.899 406.56 362.899C405.956 362.899 405.388 362.79 404.856 362.571C404.325 362.353 403.861 362.056 403.465 361.682C403.08 361.307 402.772 360.865 402.543 360.355C402.324 359.835 402.215 359.279 402.215 358.686ZM406.56 361.042C407.185 361.042 407.717 360.813 408.154 360.355C408.592 359.898 408.811 359.341 408.811 358.686C408.811 358.02 408.592 357.458 408.154 357.001C407.717 356.543 407.185 356.314 406.56 356.314C405.935 356.314 405.403 356.543 404.966 357.001C404.528 357.458 404.309 358.02 404.309 358.686C404.309 359.341 404.528 359.898 404.966 360.355C405.403 360.813 405.935 361.042 406.56 361.042Z" fill="#4882EB"/>
<path d="M412.934 360.449V356.408H411.262V354.613H412.934V352.538L415.075 352.054V354.613H417.389V356.408H415.075V360.012C415.075 360.397 415.159 360.668 415.325 360.824C415.492 360.98 415.784 361.058 416.201 361.058C416.399 361.058 416.586 361.047 416.763 361.026C416.941 360.995 417.133 360.943 417.342 360.87V362.618C417.112 362.691 416.836 362.748 416.513 362.79C416.19 362.842 415.914 362.868 415.685 362.868C414.778 362.868 414.091 362.665 413.622 362.259C413.163 361.843 412.934 361.24 412.934 360.449Z" fill="#4882EB"/>
<ellipse cx="65.1221" cy="357.17" rx="22.3282" ry="22.2911" fill="#77CCFC"/>
<rect x="96.3809" y="343.795" width="156.297" height="8.91647" rx="4.45824" fill="#ADABB5"/>
<rect x="96.3809" y="361.628" width="111.641" height="8.91641" rx="4.45821" fill="#DADADA"/>
<g filter="url(#filter3_d)">
<rect x="43.2295" y="410.668" width="454.378" height="71.3315" rx="8" fill="white"/>
</g>
<path d="M357.977 451.158C357.341 451.158 356.805 450.924 356.367 450.456C355.93 449.988 355.711 449.416 355.711 448.739C355.711 448.344 355.784 447.975 355.93 447.632C356.075 447.278 356.268 446.976 356.508 446.727C356.758 446.466 357.05 446.264 357.383 446.118C357.727 445.962 358.092 445.884 358.477 445.884C358.759 445.884 359.024 445.931 359.274 446.024C359.524 446.108 359.743 446.232 359.931 446.399L359.993 446.102H361.4L360.728 449.27C360.665 449.551 360.697 449.769 360.822 449.925C360.947 450.071 361.145 450.144 361.416 450.144C361.905 450.144 362.306 449.915 362.619 449.457C362.932 448.989 363.088 448.396 363.088 447.678C363.088 447.117 362.979 446.597 362.76 446.118C362.551 445.639 362.254 445.223 361.869 444.87C361.494 444.516 361.046 444.24 360.525 444.043C360.004 443.845 359.441 443.746 358.837 443.746C358.18 443.746 357.565 443.871 356.992 444.121C356.419 444.37 355.924 444.714 355.508 445.151C355.101 445.577 354.778 446.087 354.539 446.68C354.299 447.273 354.179 447.907 354.179 448.583C354.179 449.26 354.294 449.879 354.523 450.44C354.752 451.002 355.075 451.486 355.492 451.891C355.909 452.297 356.404 452.609 356.977 452.828C357.56 453.057 358.196 453.171 358.884 453.171C359.363 453.171 359.816 453.124 360.243 453.03C360.681 452.937 361.087 452.791 361.462 452.594L361.869 453.467C361.379 453.696 360.889 453.868 360.4 453.982C359.91 454.097 359.405 454.154 358.884 454.154C358.06 454.154 357.295 454.014 356.586 453.733C355.877 453.462 355.268 453.083 354.757 452.594C354.247 452.115 353.846 451.538 353.554 450.862C353.262 450.185 353.116 449.457 353.116 448.677C353.116 447.845 353.262 447.075 353.554 446.368C353.846 445.65 354.247 445.031 354.757 444.511C355.268 443.991 355.877 443.585 356.586 443.294C357.295 442.992 358.06 442.841 358.884 442.841C359.623 442.841 360.316 442.966 360.962 443.216C361.608 443.455 362.166 443.788 362.635 444.214C363.114 444.641 363.489 445.145 363.76 445.728C364.031 446.31 364.166 446.935 364.166 447.6C364.166 448.12 364.093 448.599 363.948 449.036C363.802 449.473 363.599 449.847 363.338 450.159C363.078 450.471 362.765 450.716 362.4 450.893C362.036 451.07 361.64 451.158 361.212 451.158C360.837 451.158 360.514 451.101 360.243 450.986C359.972 450.872 359.764 450.716 359.618 450.518C359.379 450.716 359.118 450.872 358.837 450.986C358.555 451.101 358.269 451.158 357.977 451.158ZM357.055 448.63C357.055 449.036 357.17 449.369 357.399 449.629C357.638 449.879 357.941 450.003 358.305 450.003C358.493 450.003 358.675 449.972 358.852 449.91C359.029 449.837 359.191 449.733 359.337 449.598C359.337 449.535 359.342 449.462 359.352 449.379C359.363 449.286 359.379 449.187 359.399 449.083L359.681 447.647C359.556 447.46 359.394 447.319 359.196 447.226C358.998 447.122 358.769 447.07 358.508 447.07C358.123 447.07 357.784 447.226 357.493 447.538C357.201 447.84 357.055 448.204 357.055 448.63Z" fill="#4882EB"/>
<path d="M366.716 449.613V445.572H365.044V443.777H366.716V441.702L368.857 441.218V443.777H371.171V445.572H368.857V449.176C368.857 449.561 368.941 449.832 369.107 449.988C369.274 450.144 369.566 450.222 369.983 450.222C370.181 450.222 370.368 450.211 370.545 450.191C370.723 450.159 370.915 450.107 371.124 450.035V451.782C370.894 451.855 370.618 451.912 370.295 451.954C369.972 452.006 369.696 452.032 369.467 452.032C368.56 452.032 367.873 451.829 367.404 451.423C366.945 451.007 366.716 450.404 366.716 449.613Z" fill="#4882EB"/>
<path d="M374.81 452.047C373.934 452.047 373.221 451.819 372.668 451.361C372.116 450.893 371.84 450.289 371.84 449.551C371.84 448.781 372.137 448.178 372.731 447.741C373.325 447.304 374.143 447.085 375.185 447.085C375.518 447.085 375.852 447.111 376.185 447.163C376.519 447.215 376.847 447.293 377.17 447.398V446.82C377.17 446.352 377.024 445.998 376.732 445.759C376.44 445.52 376.013 445.4 375.45 445.4C375.107 445.4 374.732 445.457 374.325 445.572C373.929 445.676 373.476 445.842 372.965 446.071L372.184 444.495C372.819 444.204 373.434 443.985 374.028 443.84C374.633 443.694 375.226 443.621 375.81 443.621C376.904 443.621 377.753 443.887 378.358 444.417C378.972 444.937 379.28 445.676 379.28 446.633V451.907H377.17V451.345C376.826 451.585 376.461 451.761 376.076 451.876C375.701 451.99 375.279 452.047 374.81 452.047ZM373.888 449.504C373.888 449.816 374.023 450.066 374.294 450.253C374.565 450.43 374.924 450.518 375.372 450.518C375.727 450.518 376.05 450.477 376.341 450.393C376.644 450.3 376.92 450.17 377.17 450.003V448.786C376.909 448.682 376.633 448.609 376.341 448.568C376.06 448.516 375.763 448.49 375.45 448.49C374.961 448.49 374.575 448.583 374.294 448.771C374.023 448.947 373.888 449.192 373.888 449.504Z" fill="#4882EB"/>
<path d="M380.9 451.907V443.777H383.042V444.667C383.302 444.313 383.615 444.048 383.979 443.871C384.355 443.684 384.766 443.59 385.214 443.59C385.423 443.601 385.594 443.621 385.73 443.653C385.876 443.673 386.001 443.715 386.105 443.777V445.65C385.949 445.577 385.777 445.525 385.589 445.494C385.402 445.452 385.209 445.431 385.011 445.431C384.594 445.431 384.209 445.535 383.854 445.744C383.511 445.952 383.24 446.253 383.042 446.649V451.907H380.9Z" fill="#4882EB"/>
<path d="M390.619 451.954C390.046 451.954 389.505 451.845 388.994 451.626C388.494 451.408 388.056 451.111 387.681 450.737C387.316 450.362 387.025 449.925 386.806 449.426C386.597 448.916 386.493 448.37 386.493 447.788C386.493 447.215 386.603 446.68 386.821 446.18C387.04 445.671 387.337 445.229 387.712 444.854C388.087 444.48 388.53 444.188 389.041 443.98C389.551 443.762 390.098 443.653 390.682 443.653C391.088 443.653 391.474 443.71 391.839 443.824C392.214 443.939 392.563 444.1 392.886 444.308V443.777H394.996V451.907C394.996 452.978 394.647 453.805 393.949 454.388C393.261 454.971 392.266 455.262 390.963 455.262C390.338 455.262 389.734 455.199 389.15 455.075C388.577 454.95 388.051 454.768 387.572 454.528L388.322 452.859C388.77 453.077 389.208 453.239 389.635 453.343C390.062 453.457 390.489 453.514 390.916 453.514C391.552 453.514 392.031 453.374 392.354 453.093C392.688 452.822 392.855 452.422 392.855 451.891V451.22C392.532 451.46 392.177 451.642 391.792 451.767C391.417 451.891 391.026 451.954 390.619 451.954ZM388.603 447.788C388.603 448.443 388.827 449 389.275 449.457C389.734 449.915 390.291 450.144 390.948 450.144C391.333 450.144 391.688 450.081 392.011 449.957C392.334 449.821 392.615 449.639 392.855 449.41V446.212C392.625 445.983 392.344 445.806 392.011 445.681C391.677 445.546 391.328 445.478 390.963 445.478C390.307 445.478 389.749 445.702 389.291 446.149C388.832 446.597 388.603 447.143 388.603 447.788Z" fill="#4882EB"/>
<path d="M403.982 450.893C403.482 451.298 402.966 451.595 402.434 451.782C401.913 451.969 401.33 452.063 400.684 452.063C400.069 452.063 399.491 451.954 398.949 451.735C398.418 451.517 397.954 451.22 397.558 450.846C397.172 450.471 396.865 450.029 396.636 449.52C396.417 449 396.308 448.443 396.308 447.85C396.308 447.267 396.412 446.721 396.62 446.212C396.839 445.692 397.136 445.244 397.511 444.87C397.886 444.485 398.329 444.183 398.84 443.965C399.361 443.746 399.913 443.637 400.496 443.637C401.069 443.637 401.601 443.751 402.091 443.98C402.591 444.199 403.018 444.5 403.372 444.885C403.737 445.27 404.018 445.733 404.216 446.274C404.425 446.805 404.529 447.382 404.529 448.006V448.568H398.465C398.61 449.078 398.892 449.488 399.309 449.801C399.725 450.113 400.215 450.269 400.778 450.269C401.132 450.269 401.465 450.211 401.778 450.097C402.091 449.983 402.356 449.821 402.575 449.613L403.982 450.893ZM400.449 445.4C399.96 445.4 399.538 445.551 399.183 445.853C398.829 446.144 398.584 446.539 398.449 447.039H402.434C402.299 446.56 402.049 446.17 401.684 445.868C401.33 445.556 400.918 445.4 400.449 445.4Z" fill="#4882EB"/>
<path d="M406.645 449.613V445.572H404.973V443.777H406.645V441.702L408.786 441.218V443.777H411.1V445.572H408.786V449.176C408.786 449.561 408.87 449.832 409.037 449.988C409.203 450.144 409.495 450.222 409.912 450.222C410.11 450.222 410.297 450.211 410.474 450.191C410.652 450.159 410.844 450.107 411.053 450.035V451.782C410.824 451.855 410.547 451.912 410.224 451.954C409.901 452.006 409.625 452.032 409.396 452.032C408.49 452.032 407.802 451.829 407.333 451.423C406.874 451.007 406.645 450.404 406.645 449.613Z" fill="#4882EB"/>
<path d="M419.053 453.155V454.653H411.3V453.155H419.053Z" fill="#4882EB"/>
<path d="M428.448 447.85C428.448 448.433 428.339 448.979 428.12 449.488C427.901 449.998 427.604 450.44 427.229 450.815C426.854 451.189 426.406 451.486 425.885 451.704C425.374 451.912 424.827 452.016 424.244 452.016C423.837 452.016 423.441 451.959 423.056 451.845C422.67 451.73 422.316 451.569 421.993 451.361V451.907H419.883V440.984L422.024 440.516V444.417C422.347 444.178 422.702 443.996 423.087 443.871C423.483 443.736 423.89 443.668 424.306 443.668C424.879 443.668 425.416 443.777 425.916 443.996C426.427 444.214 426.87 444.511 427.245 444.885C427.62 445.26 427.912 445.702 428.12 446.212C428.339 446.721 428.448 447.267 428.448 447.85ZM423.962 445.494C423.577 445.494 423.217 445.561 422.884 445.697C422.551 445.822 422.264 446.009 422.024 446.258V449.457C422.254 449.686 422.535 449.868 422.868 450.003C423.212 450.139 423.577 450.206 423.962 450.206C424.629 450.206 425.192 449.983 425.65 449.535C426.109 449.078 426.338 448.516 426.338 447.85C426.338 447.184 426.104 446.628 425.635 446.18C425.176 445.723 424.619 445.494 423.962 445.494Z" fill="#4882EB"/>
<path d="M429.444 447.85C429.444 447.257 429.554 446.706 429.773 446.196C430.002 445.676 430.309 445.229 430.695 444.854C431.091 444.469 431.554 444.168 432.086 443.949C432.617 443.731 433.185 443.621 433.79 443.621C434.394 443.621 434.962 443.731 435.493 443.949C436.025 444.168 436.483 444.469 436.869 444.854C437.265 445.229 437.572 445.676 437.791 446.196C438.02 446.706 438.135 447.257 438.135 447.85C438.135 448.443 438.02 449 437.791 449.52C437.572 450.029 437.265 450.471 436.869 450.846C436.483 451.22 436.025 451.517 435.493 451.735C434.962 451.954 434.394 452.063 433.79 452.063C433.185 452.063 432.617 451.954 432.086 451.735C431.554 451.517 431.091 451.22 430.695 450.846C430.309 450.471 430.002 450.029 429.773 449.52C429.554 449 429.444 448.443 429.444 447.85ZM433.79 450.206C434.415 450.206 434.946 449.977 435.384 449.52C435.821 449.062 436.04 448.505 436.04 447.85C436.04 447.184 435.821 446.623 435.384 446.165C434.946 445.707 434.415 445.478 433.79 445.478C433.164 445.478 432.633 445.707 432.195 446.165C431.758 446.623 431.539 447.184 431.539 447.85C431.539 448.505 431.758 449.062 432.195 449.52C432.633 449.977 433.164 450.206 433.79 450.206Z" fill="#4882EB"/>
<path d="M440.164 449.613V445.572H438.491V443.777H440.164V441.702L442.305 441.218V443.777H444.618V445.572H442.305V449.176C442.305 449.561 442.388 449.832 442.555 449.988C442.722 450.144 443.013 450.222 443.43 450.222C443.628 450.222 443.816 450.211 443.993 450.191C444.17 450.159 444.363 450.107 444.571 450.035V451.782C444.342 451.855 444.066 451.912 443.743 451.954C443.42 452.006 443.144 452.032 442.914 452.032C442.008 452.032 441.32 451.829 440.851 451.423C440.393 451.007 440.164 450.404 440.164 449.613Z" fill="#4882EB"/>
<ellipse cx="92.3516" cy="446.334" rx="22.3282" ry="22.2911" fill="#46BF1B"/>
<rect x="123.61" y="432.96" width="156.297" height="8.91644" rx="4.45822" fill="#ADABB5"/>
<rect x="123.61" y="450.792" width="111.641" height="8.91644" rx="4.45822" fill="#DADADA"/>
<g filter="url(#filter4_d)">
<rect x="43.2295" y="232.34" width="454.378" height="71.3315" rx="8" fill="white"/>
</g>
<path d="M357.977 272.829C357.341 272.829 356.805 272.595 356.367 272.127C355.93 271.659 355.711 271.087 355.711 270.411C355.711 270.015 355.784 269.646 355.93 269.303C356.075 268.949 356.268 268.648 356.508 268.398C356.758 268.138 357.05 267.935 357.383 267.789C357.727 267.633 358.092 267.555 358.477 267.555C358.759 267.555 359.024 267.602 359.274 267.696C359.524 267.779 359.743 267.904 359.931 268.07L359.993 267.774H361.4L360.728 270.941C360.665 271.222 360.697 271.441 360.822 271.597C360.947 271.742 361.145 271.815 361.416 271.815C361.905 271.815 362.306 271.586 362.619 271.128C362.932 270.66 363.088 270.067 363.088 269.35C363.088 268.788 362.979 268.268 362.76 267.789C362.551 267.311 362.254 266.895 361.869 266.541C361.494 266.187 361.046 265.912 360.525 265.714C360.004 265.516 359.441 265.418 358.837 265.418C358.18 265.418 357.565 265.542 356.992 265.792C356.419 266.042 355.924 266.385 355.508 266.822C355.101 267.248 354.778 267.758 354.539 268.351C354.299 268.944 354.179 269.579 354.179 270.255C354.179 270.931 354.294 271.55 354.523 272.112C354.752 272.673 355.075 273.157 355.492 273.563C355.909 273.968 356.404 274.28 356.977 274.499C357.56 274.728 358.196 274.842 358.884 274.842C359.363 274.842 359.816 274.795 360.243 274.702C360.681 274.608 361.087 274.462 361.462 274.265L361.869 275.139C361.379 275.368 360.889 275.539 360.4 275.654C359.91 275.768 359.405 275.825 358.884 275.825C358.06 275.825 357.295 275.685 356.586 275.404C355.877 275.133 355.268 274.754 354.757 274.265C354.247 273.786 353.846 273.209 353.554 272.533C353.262 271.857 353.116 271.128 353.116 270.348C353.116 269.516 353.262 268.746 353.554 268.039C353.846 267.321 354.247 266.702 354.757 266.182C355.268 265.662 355.877 265.256 356.586 264.965C357.295 264.663 358.06 264.513 358.884 264.513C359.623 264.513 360.316 264.637 360.962 264.887C361.608 265.126 362.166 265.459 362.635 265.886C363.114 266.312 363.489 266.817 363.76 267.399C364.031 267.982 364.166 268.606 364.166 269.272C364.166 269.792 364.093 270.27 363.948 270.707C363.802 271.144 363.599 271.519 363.338 271.831C363.078 272.143 362.765 272.387 362.4 272.564C362.036 272.741 361.64 272.829 361.212 272.829C360.837 272.829 360.514 272.772 360.243 272.658C359.972 272.543 359.764 272.387 359.618 272.19C359.379 272.387 359.118 272.543 358.837 272.658C358.555 272.772 358.269 272.829 357.977 272.829ZM357.055 270.301C357.055 270.707 357.17 271.04 357.399 271.3C357.638 271.55 357.941 271.675 358.305 271.675C358.493 271.675 358.675 271.643 358.852 271.581C359.029 271.508 359.191 271.404 359.337 271.269C359.337 271.207 359.342 271.134 359.352 271.05C359.363 270.957 359.379 270.858 359.399 270.754L359.681 269.318C359.556 269.131 359.394 268.991 359.196 268.897C358.998 268.793 358.769 268.741 358.508 268.741C358.123 268.741 357.784 268.897 357.493 269.209C357.201 269.511 357.055 269.875 357.055 270.301Z" fill="#4882EB"/>
<path d="M365.262 269.521C365.262 268.928 365.371 268.377 365.59 267.867C365.819 267.347 366.127 266.9 366.512 266.525C366.908 266.141 367.372 265.839 367.903 265.62C368.435 265.402 369.003 265.293 369.607 265.293C370.211 265.293 370.779 265.402 371.311 265.62C371.842 265.839 372.3 266.141 372.686 266.525C373.082 266.9 373.389 267.347 373.608 267.867C373.837 268.377 373.952 268.928 373.952 269.521C373.952 270.114 373.837 270.671 373.608 271.191C373.389 271.701 373.082 272.143 372.686 272.517C372.3 272.892 371.842 273.188 371.311 273.407C370.779 273.625 370.211 273.734 369.607 273.734C369.003 273.734 368.435 273.625 367.903 273.407C367.372 273.188 366.908 272.892 366.512 272.517C366.127 272.143 365.819 271.701 365.59 271.191C365.371 270.671 365.262 270.114 365.262 269.521ZM369.607 271.877C370.232 271.877 370.764 271.649 371.201 271.191C371.639 270.733 371.858 270.177 371.858 269.521C371.858 268.856 371.639 268.294 371.201 267.836C370.764 267.378 370.232 267.15 369.607 267.15C368.982 267.15 368.45 267.378 368.013 267.836C367.575 268.294 367.356 268.856 367.356 269.521C367.356 270.177 367.575 270.733 368.013 271.191C368.45 271.649 368.982 271.877 369.607 271.877Z" fill="#4882EB"/>
<path d="M375.268 273.578V265.449H377.409V266.338C377.67 265.984 377.983 265.719 378.347 265.542C378.722 265.355 379.134 265.261 379.582 265.261C379.79 265.272 379.962 265.293 380.098 265.324C380.244 265.345 380.369 265.386 380.473 265.449V267.321C380.317 267.248 380.145 267.196 379.957 267.165C379.77 267.124 379.577 267.103 379.379 267.103C378.962 267.103 378.576 267.207 378.222 267.415C377.878 267.623 377.607 267.925 377.409 268.32V273.578H375.268Z" fill="#4882EB"/>
<path d="M384.987 273.625C384.414 273.625 383.872 273.516 383.362 273.297C382.862 273.079 382.424 272.782 382.049 272.408C381.684 272.034 381.392 271.597 381.174 271.097C380.965 270.588 380.861 270.041 380.861 269.459C380.861 268.887 380.97 268.351 381.189 267.852C381.408 267.342 381.705 266.9 382.08 266.525C382.455 266.151 382.898 265.86 383.409 265.652C383.919 265.433 384.466 265.324 385.05 265.324C385.456 265.324 385.842 265.381 386.206 265.496C386.582 265.61 386.931 265.771 387.254 265.979V265.449H389.364V273.578C389.364 274.65 389.015 275.477 388.316 276.059C387.629 276.642 386.634 276.933 385.331 276.933C384.706 276.933 384.102 276.871 383.518 276.746C382.945 276.621 382.419 276.439 381.939 276.2L382.69 274.53C383.138 274.749 383.575 274.91 384.003 275.014C384.43 275.128 384.857 275.185 385.284 275.185C385.92 275.185 386.399 275.045 386.722 274.764C387.056 274.494 387.222 274.093 387.222 273.563V272.892C386.899 273.131 386.545 273.313 386.16 273.438C385.784 273.563 385.394 273.625 384.987 273.625ZM382.971 269.459C382.971 270.114 383.195 270.671 383.643 271.128C384.102 271.586 384.659 271.815 385.316 271.815C385.701 271.815 386.055 271.753 386.378 271.628C386.701 271.493 386.983 271.311 387.222 271.082V267.883C386.993 267.654 386.712 267.477 386.378 267.352C386.045 267.217 385.696 267.15 385.331 267.15C384.675 267.15 384.117 267.373 383.659 267.821C383.2 268.268 382.971 268.814 382.971 269.459Z" fill="#4882EB"/>
<path d="M393.629 273.719C392.754 273.719 392.04 273.49 391.488 273.032C390.936 272.564 390.66 271.961 390.66 271.222C390.66 270.452 390.957 269.849 391.551 269.412C392.145 268.975 392.963 268.757 394.005 268.757C394.338 268.757 394.671 268.783 395.005 268.835C395.338 268.887 395.667 268.965 395.99 269.069V268.491C395.99 268.023 395.844 267.67 395.552 267.43C395.26 267.191 394.833 267.072 394.27 267.072C393.926 267.072 393.551 267.129 393.145 267.243C392.749 267.347 392.296 267.514 391.785 267.742L391.004 266.167C391.639 265.875 392.254 265.657 392.848 265.511C393.452 265.366 394.046 265.293 394.63 265.293C395.724 265.293 396.573 265.558 397.177 266.088C397.792 266.609 398.1 267.347 398.1 268.304V273.578H395.99V273.017C395.646 273.256 395.281 273.433 394.895 273.547C394.52 273.662 394.098 273.719 393.629 273.719ZM392.707 271.175C392.707 271.487 392.843 271.737 393.114 271.924C393.385 272.101 393.744 272.19 394.192 272.19C394.546 272.19 394.869 272.148 395.161 272.065C395.463 271.971 395.739 271.841 395.99 271.675V270.458C395.729 270.354 395.453 270.281 395.161 270.239C394.88 270.187 394.583 270.161 394.27 270.161C393.781 270.161 393.395 270.255 393.114 270.442C392.843 270.619 392.707 270.863 392.707 271.175Z" fill="#4882EB"/>
<path d="M399.72 273.578V265.449H401.861V266.088C402.174 265.828 402.518 265.631 402.893 265.496C403.279 265.36 403.695 265.293 404.143 265.293C405.081 265.293 405.852 265.594 406.457 266.198C407.061 266.801 407.363 267.576 407.363 268.523V273.578H405.222V268.835C405.222 268.325 405.066 267.914 404.753 267.602C404.451 267.29 404.044 267.134 403.534 267.134C403.18 267.134 402.857 267.207 402.565 267.352C402.283 267.488 402.049 267.685 401.861 267.945V273.578H399.72Z" fill="#4882EB"/>
<path d="M410.048 264.481C409.714 264.481 409.428 264.362 409.188 264.122C408.949 263.883 408.829 263.597 408.829 263.264C408.829 262.931 408.949 262.645 409.188 262.406C409.428 262.167 409.714 262.047 410.048 262.047C410.381 262.047 410.668 262.167 410.907 262.406C411.147 262.645 411.267 262.931 411.267 263.264C411.267 263.597 411.147 263.883 410.907 264.122C410.668 264.362 410.381 264.481 410.048 264.481ZM411.126 265.449V273.578H408.985V265.449H411.126Z" fill="#4882EB"/>
<path d="M412.379 273.578V272.065L416.474 267.243H412.41V265.449H419.225V266.962L415.098 271.784H419.318V273.578H412.379Z" fill="#4882EB"/>
<path d="M427.655 272.564C427.155 272.97 426.639 273.266 426.108 273.453C425.587 273.641 425.003 273.734 424.357 273.734C423.743 273.734 423.164 273.625 422.623 273.407C422.091 273.188 421.627 272.892 421.232 272.517C420.846 272.143 420.539 271.701 420.309 271.191C420.091 270.671 419.981 270.114 419.981 269.521C419.981 268.939 420.085 268.393 420.294 267.883C420.513 267.363 420.81 266.915 421.185 266.541C421.56 266.156 422.003 265.854 422.513 265.636C423.034 265.418 423.586 265.308 424.17 265.308C424.743 265.308 425.274 265.423 425.764 265.652C426.264 265.87 426.692 266.172 427.046 266.557C427.41 266.941 427.692 267.404 427.89 267.945C428.098 268.476 428.202 269.053 428.202 269.677V270.239H422.138C422.284 270.749 422.565 271.16 422.982 271.472C423.399 271.784 423.889 271.94 424.451 271.94C424.806 271.94 425.139 271.883 425.452 271.768C425.764 271.654 426.03 271.493 426.249 271.285L427.655 272.564ZM424.123 267.072C423.633 267.072 423.211 267.222 422.857 267.524C422.503 267.815 422.258 268.211 422.122 268.71H426.108C425.973 268.231 425.722 267.841 425.358 267.54C425.004 267.228 424.592 267.072 424.123 267.072Z" fill="#4882EB"/>
<path d="M429.514 273.578V265.449H431.656V266.338C431.916 265.984 432.229 265.719 432.593 265.542C432.968 265.355 433.38 265.261 433.828 265.261C434.037 265.272 434.208 265.293 434.344 265.324C434.49 265.345 434.615 265.386 434.719 265.449V267.321C434.563 267.248 434.391 267.196 434.203 267.165C434.016 267.124 433.823 267.103 433.625 267.103C433.208 267.103 432.823 267.207 432.468 267.415C432.124 267.623 431.854 267.925 431.656 268.32V273.578H429.514Z" fill="#4882EB"/>
<path d="M442.772 274.827V276.325H435.02V274.827H442.772Z" fill="#4882EB"/>
<path d="M452.168 269.521C452.168 270.104 452.058 270.65 451.839 271.16C451.62 271.669 451.324 272.112 450.948 272.486C450.573 272.861 450.125 273.157 449.604 273.375C449.094 273.583 448.547 273.688 447.963 273.688C447.557 273.688 447.161 273.63 446.775 273.516C446.39 273.401 446.035 273.24 445.712 273.032V273.578H443.602V262.656L445.744 262.188V266.088C446.067 265.849 446.421 265.667 446.807 265.542C447.202 265.407 447.609 265.34 448.026 265.34C448.599 265.34 449.135 265.449 449.635 265.667C450.146 265.886 450.589 266.182 450.964 266.557C451.339 266.931 451.631 267.373 451.839 267.883C452.058 268.393 452.168 268.939 452.168 269.521ZM447.682 267.165C447.296 267.165 446.937 267.233 446.603 267.368C446.27 267.493 445.983 267.68 445.744 267.93V271.128C445.973 271.357 446.254 271.539 446.588 271.675C446.932 271.81 447.296 271.877 447.682 271.877C448.349 271.877 448.911 271.654 449.37 271.207C449.828 270.749 450.058 270.187 450.058 269.521C450.058 268.856 449.823 268.299 449.354 267.852C448.896 267.394 448.338 267.165 447.682 267.165Z" fill="#4882EB"/>
<path d="M453.164 269.521C453.164 268.928 453.273 268.377 453.492 267.867C453.721 267.347 454.029 266.9 454.414 266.525C454.81 266.141 455.274 265.839 455.805 265.62C456.337 265.402 456.905 265.293 457.509 265.293C458.113 265.293 458.681 265.402 459.212 265.62C459.744 265.839 460.202 266.141 460.588 266.525C460.984 266.9 461.291 267.347 461.51 267.867C461.739 268.377 461.854 268.928 461.854 269.521C461.854 270.114 461.739 270.671 461.51 271.191C461.291 271.701 460.984 272.143 460.588 272.517C460.202 272.892 459.744 273.188 459.212 273.407C458.681 273.625 458.113 273.734 457.509 273.734C456.905 273.734 456.337 273.625 455.805 273.407C455.274 273.188 454.81 272.892 454.414 272.517C454.029 272.143 453.721 271.701 453.492 271.191C453.273 270.671 453.164 270.114 453.164 269.521ZM457.509 271.877C458.134 271.877 458.665 271.649 459.103 271.191C459.541 270.733 459.76 270.177 459.76 269.521C459.76 268.856 459.541 268.294 459.103 267.836C458.665 267.378 458.134 267.15 457.509 267.15C456.884 267.15 456.352 267.378 455.915 267.836C455.477 268.294 455.258 268.856 455.258 269.521C455.258 270.177 455.477 270.733 455.915 271.191C456.352 271.649 456.884 271.877 457.509 271.877Z" fill="#4882EB"/>
<path d="M463.883 271.285V267.243H462.211V265.449H463.883V263.373L466.024 262.89V265.449H468.337V267.243H466.024V270.848C466.024 271.233 466.108 271.503 466.274 271.659C466.441 271.815 466.733 271.893 467.15 271.893C467.348 271.893 467.535 271.883 467.712 271.862C467.889 271.831 468.082 271.779 468.291 271.706V273.453C468.061 273.526 467.785 273.583 467.462 273.625C467.139 273.677 466.863 273.703 466.634 273.703C465.727 273.703 465.04 273.5 464.571 273.095C464.112 272.678 463.883 272.075 463.883 271.285Z" fill="#4882EB"/>
<ellipse cx="92.3516" cy="268.006" rx="22.3282" ry="22.2911" fill="#FF316F"/>
<rect x="123.61" y="254.631" width="156.297" height="8.91644" rx="4.45822" fill="#ADABB5"/>
<rect x="123.61" y="272.464" width="111.641" height="8.91643" rx="4.45821" fill="#DADADA"/>
<path d="M538.301 131.723C537.791 132.03 537.206 132.216 536.583 132.254L533.354 132.453C533.011 132.474 532.7 132.662 532.521 132.955L530.833 135.715C530.081 136.944 528.723 137.629 527.289 137.503C525.866 137.379 524.663 136.477 524.148 135.151L522.985 132.155C522.864 131.845 522.597 131.614 522.269 131.539L519.124 130.815C517.729 130.493 516.662 129.43 516.34 128.04C516.015 126.644 516.508 125.209 517.625 124.297L520.135 122.247C520.401 122.03 520.543 121.7 520.516 121.364L520.26 118.156C520.147 116.732 520.84 115.387 522.071 114.646C523.301 113.906 524.815 113.923 526.02 114.69L528.734 116.418C529.019 116.6 529.377 116.629 529.693 116.496L532.68 115.237C534.009 114.678 535.507 114.914 536.589 115.855C537.666 116.791 538.106 118.231 537.737 119.614L536.904 122.732C536.817 123.057 536.895 123.401 537.113 123.653L539.215 126.084C540.146 127.16 540.379 128.645 539.823 129.961C539.505 130.713 538.968 131.322 538.301 131.723Z" fill="#FFB931"/>
<path d="M176.206 12.7033C175.943 12.5428 175.717 12.3185 175.549 12.0417L174.682 10.6053C174.59 10.4528 174.429 10.3547 174.252 10.3428L172.578 10.2302C171.832 10.1801 171.191 9.72069 170.905 9.0314C170.62 8.34749 170.745 7.57772 171.231 7.02249L172.328 5.76844C172.442 5.63844 172.484 5.46011 172.44 5.29151L172.017 3.67203C171.83 2.95395 172.062 2.20831 172.623 1.72601C173.187 1.2414 173.965 1.12318 174.652 1.41748L176.197 2.07881C176.361 2.14868 176.547 2.13481 176.695 2.04158L178.108 1.15329C178.735 0.758992 179.519 0.754821 180.155 1.14244C180.791 1.53006 181.147 2.22942 181.084 2.96749L180.942 4.63026C180.927 4.80472 180.999 4.9764 181.136 5.08952L182.432 6.15997C183.009 6.6363 183.26 7.38152 183.088 8.10484C182.916 8.8247 182.36 9.37282 181.636 9.53521L180.002 9.90151C179.832 9.93966 179.693 10.0584 179.629 10.2191L179.018 11.7689C178.747 12.4551 178.12 12.919 177.382 12.9796C176.96 13.0143 176.551 12.9136 176.206 12.7033Z" fill="#FFB931"/>
<path d="M40.9047 401.137C40.4478 401.303 39.9488 401.36 39.4435 401.293L36.8214 400.946C36.543 400.909 36.2637 401.01 36.074 401.217L34.2865 403.167C33.4906 404.035 32.2936 404.372 31.1628 404.046C30.0409 403.722 29.2166 402.81 29.0117 401.665L28.5489 399.079C28.5009 398.811 28.3224 398.584 28.0715 398.472L25.6617 397.397C24.5932 396.921 23.9042 395.9 23.8634 394.734C23.8224 393.563 24.4427 392.489 25.4822 391.933L27.8182 390.682C28.065 390.55 28.2312 390.308 28.2624 390.033L28.5606 387.419C28.693 386.259 29.4607 385.289 30.5642 384.888C31.6677 384.487 32.879 384.738 33.7253 385.543L35.6319 387.356C35.8319 387.546 36.115 387.626 36.3891 387.568L38.9831 387.028C40.1374 386.787 41.302 387.212 42.0226 388.137C42.7398 389.057 42.8665 390.282 42.353 391.333L41.1953 393.704C41.0748 393.951 41.0835 394.239 41.2188 394.476L42.5238 396.756C43.1016 397.765 43.0551 398.994 42.4025 399.962C42.0296 400.515 41.5033 400.919 40.9047 401.137Z" fill="#FFB931"/>
<path d="M492.782 492.382C492.315 492.245 491.879 491.996 491.512 491.642L489.606 489.808C489.404 489.614 489.118 489.53 488.843 489.584L486.248 490.095C485.092 490.323 483.928 489.885 483.211 488.952C482.499 488.026 482.376 486.803 482.889 485.759L484.049 483.402C484.169 483.158 484.16 482.869 484.024 482.631L482.72 480.337C482.142 479.32 482.191 478.089 482.85 477.126C483.511 476.158 484.647 475.661 485.814 475.829L488.436 476.206C488.714 476.246 488.991 476.149 489.179 475.947L490.968 474.018C491.762 473.162 492.956 472.835 494.082 473.166C495.208 473.497 496.036 474.417 496.24 475.567L496.702 478.157C496.75 478.429 496.931 478.661 497.186 478.777L499.595 479.879C500.668 480.369 501.354 481.402 501.386 482.574C501.419 483.74 500.795 484.801 499.758 485.344L497.421 486.568C497.177 486.695 497.013 486.933 496.982 487.203L496.682 489.813C496.549 490.968 495.784 491.93 494.684 492.324C494.056 492.548 493.393 492.562 492.782 492.382Z" fill="#FFB931"/>
<defs>
<filter id="filter0_d" x="34.9893" y="40" width="501.011" height="92.1404" filterUnits="userSpaceOnUse" color-interpolation-filters="sRGB">
<feFlood flood-opacity="0" result="BackgroundImageFix"/>
<feColorMatrix in="SourceAlpha" type="matrix" values="0 0 0 0 0 0 0 0 0 0 0 0 0 0 0 0 0 0 127 0"/>
<feOffset/>
<feGaussianBlur stdDeviation="4"/>
<feColorMatrix type="matrix" values="0 0 0 0 0.282353 0 0 0 0 0.509804 0 0 0 0 0.921569 0 0 0 0.2 0"/>
<feBlend mode="normal" in2="BackgroundImageFix" result="effect1_dropShadow"/>
<feBlend mode="normal" in="SourceGraphic" in2="effect1_dropShadow" result="shape"/>
</filter>
<filter id="filter1_d" x="0" y="127.175" width="486.378" height="103.331" filterUnits="userSpaceOnUse" color-interpolation-filters="sRGB">
<feFlood flood-opacity="0" result="BackgroundImageFix"/>
<feColorMatrix in="SourceAlpha" type="matrix" values="0 0 0 0 0 0 0 0 0 0 0 0 0 0 0 0 0 0 127 0"/>
<feOffset/>
<feGaussianBlur stdDeviation="8"/>
<feColorMatrix type="matrix" values="0 0 0 0 0.898039 0 0 0 0 0.898039 0 0 0 0 0.898039 0 0 0 0.4 0"/>
<feBlend mode="normal" in2="BackgroundImageFix" result="effect1_dropShadow"/>
<feBlend mode="normal" in="SourceGraphic" in2="effect1_dropShadow" result="shape"/>
</filter>
<filter id="filter2_d" x="0" y="305.504" width="486.378" height="103.332" filterUnits="userSpaceOnUse" color-interpolation-filters="sRGB">
<feFlood flood-opacity="0" result="BackgroundImageFix"/>
<feColorMatrix in="SourceAlpha" type="matrix" values="0 0 0 0 0 0 0 0 0 0 0 0 0 0 0 0 0 0 127 0"/>
<feOffset/>
<feGaussianBlur stdDeviation="8"/>
<feColorMatrix type="matrix" values="0 0 0 0 0.898039 0 0 0 0 0.898039 0 0 0 0 0.898039 0 0 0 0.4 0"/>
<feBlend mode="normal" in2="BackgroundImageFix" result="effect1_dropShadow"/>
<feBlend mode="normal" in="SourceGraphic" in2="effect1_dropShadow" result="shape"/>
</filter>
<filter id="filter3_d" x="27.2295" y="394.668" width="486.378" height="103.332" filterUnits="userSpaceOnUse" color-interpolation-filters="sRGB">
<feFlood flood-opacity="0" result="BackgroundImageFix"/>
<feColorMatrix in="SourceAlpha" type="matrix" values="0 0 0 0 0 0 0 0 0 0 0 0 0 0 0 0 0 0 127 0"/>
<feOffset/>
<feGaussianBlur stdDeviation="8"/>
<feColorMatrix type="matrix" values="0 0 0 0 0.898039 0 0 0 0 0.898039 0 0 0 0 0.898039 0 0 0 0.4 0"/>
<feBlend mode="normal" in2="BackgroundImageFix" result="effect1_dropShadow"/>
<feBlend mode="normal" in="SourceGraphic" in2="effect1_dropShadow" result="shape"/>
</filter>
<filter id="filter4_d" x="27.2295" y="216.34" width="486.378" height="103.331" filterUnits="userSpaceOnUse" color-interpolation-filters="sRGB">
<feFlood flood-opacity="0" result="BackgroundImageFix"/>
<feColorMatrix in="SourceAlpha" type="matrix" values="0 0 0 0 0 0 0 0 0 0 0 0 0 0 0 0 0 0 127 0"/>
<feOffset/>
<feGaussianBlur stdDeviation="8"/>
<feColorMatrix type="matrix" values="0 0 0 0 0.898039 0 0 0 0 0.898039 0 0 0 0 0.898039 0 0 0 0.4 0"/>
<feBlend mode="normal" in2="BackgroundImageFix" result="effect1_dropShadow"/>
<feBlend mode="normal" in="SourceGraphic" in2="effect1_dropShadow" result="shape"/>
</filter>
</defs>
</svg>
