<svg width="624" height="665" viewBox="0 0 624 665" fill="none" xmlns="http://www.w3.org/2000/svg">
<g clip-path="url(#clip0)">
<path d="M40.4944 204.782L1070.38 -158.74C1107.77 -172.635 1146.48 -141.267 1139.54 -102.587L956.541 639.781C945.673 700.965 873.409 729.712 822.2 693.417L502.379 451.357C463.864 423.985 420.956 403.143 375.446 389.323L43.1724 282.155C5.26926 270.763 3.54761 218.69 40.4944 204.782Z" fill="#FF316F"/>
<g filter="url(#filter0_d)">
<rect x="139" y="174" width="346" height="260" rx="8" fill="white"/>
<rect x="139.5" y="174.5" width="345" height="259" rx="7.5" stroke="#E4E4E4"/>
</g>
<path d="M328.664 254.762C324.884 254.762 321.809 251.686 321.809 247.906C321.809 244.126 324.884 241.051 328.664 241.051C332.444 241.051 335.519 244.126 335.519 247.906C335.519 251.686 332.444 254.762 328.664 254.762ZM328.664 245.27C327.21 245.27 326.027 246.452 326.027 247.906C326.027 249.36 327.21 250.543 328.664 250.543C330.118 250.543 331.301 249.36 331.301 247.906C331.301 246.452 330.118 245.27 328.664 245.27ZM311.367 255.922C307.587 255.922 304.512 252.847 304.512 249.066C304.512 245.286 307.587 242.211 311.367 242.211C315.147 242.211 318.223 245.286 318.223 249.066C318.223 252.847 315.147 255.922 311.367 255.922ZM311.367 246.43C309.913 246.43 308.73 247.613 308.73 249.066C308.73 250.52 309.913 251.703 311.367 251.703C312.821 251.703 314.004 250.52 314.004 249.066C314.004 247.613 312.821 246.43 311.367 246.43ZM305.883 266.891C305.883 264.623 307.751 262.777 310.048 262.777H313.687C314.852 262.777 315.797 261.833 315.797 260.668C315.797 259.503 314.852 258.559 313.687 258.559H310.048C305.425 258.559 301.664 262.296 301.664 266.891C301.664 268.056 302.608 269 303.773 269C304.938 269 305.883 268.056 305.883 266.891ZM294.281 255.922C290.501 255.922 287.426 252.847 287.426 249.066C287.426 245.286 290.501 242.211 294.281 242.211C298.061 242.211 301.137 245.286 301.137 249.066C301.137 252.847 298.061 255.922 294.281 255.922ZM294.281 246.43C292.827 246.43 291.645 247.613 291.645 249.066C291.645 250.52 292.827 251.703 294.281 251.703C295.735 251.703 296.918 250.52 296.918 249.066C296.918 247.613 295.735 246.43 294.281 246.43ZM289.219 266.891C289.219 264.623 291.087 262.777 293.384 262.777H297.656C298.821 262.777 299.766 261.833 299.766 260.668C299.766 259.503 298.821 258.559 297.656 258.559H293.384C288.761 258.559 285 262.296 285 266.891C285 268.056 285.944 269 287.109 269C288.274 269 289.219 268.056 289.219 266.891ZM322.231 238.414C321.682 238.414 321.142 238.2 320.739 237.796L320.548 237.606C319.522 236.579 317.961 236.323 316.665 236.968C314.738 237.928 312.656 238.414 310.476 238.414H310.47H296.707C290.252 238.414 285 233.162 285 226.707C285 220.252 290.252 215 296.707 215H312.633C319.088 215 324.34 220.252 324.34 226.707V236.305C324.34 237.158 323.826 237.927 323.038 238.254C322.777 238.362 322.503 238.414 322.231 238.414ZM296.707 219.219C292.578 219.219 289.219 222.578 289.219 226.707C289.219 230.836 292.578 234.195 296.707 234.195H310.471H310.475C311.998 234.195 313.447 233.858 314.785 233.191C316.48 232.347 318.377 232.187 320.121 232.653V226.707C320.121 222.578 316.762 219.219 312.633 219.219H296.707ZM336.891 269C335.726 269 334.781 268.056 334.781 266.891C334.781 263.815 332.263 261.312 329.168 261.312H327.738C324.643 261.312 322.125 263.815 322.125 266.891C322.125 268.056 321.181 269 320.016 269C318.851 269 317.906 268.056 317.906 266.891C317.906 261.489 322.317 257.094 327.738 257.094H329.168C334.589 257.094 339 261.489 339 266.891C339 268.056 338.056 269 336.891 269ZM293.437 226.707C293.437 228.163 294.618 229.344 296.074 229.344C297.53 229.344 298.711 228.163 298.711 226.707C298.711 225.251 297.53 224.07 296.074 224.07C294.618 224.07 293.437 225.251 293.437 226.707ZM301.875 226.707C301.875 228.163 303.055 229.344 304.512 229.344C305.968 229.344 307.148 228.163 307.148 226.707C307.148 225.251 305.968 224.07 304.512 224.07C303.055 224.07 301.875 225.251 301.875 226.707ZM310.312 226.707C310.312 228.163 311.493 229.344 312.949 229.344C314.405 229.344 315.586 228.163 315.586 226.707C315.586 225.251 314.405 224.07 312.949 224.07C311.493 224.07 310.312 225.251 310.312 226.707Z" fill="#38424F"/>
<path d="M264.026 333.64V330.183L274.143 321.288C275.292 320.256 276.111 319.355 276.599 318.587C277.088 317.795 277.332 316.979 277.332 316.139C277.332 315.034 276.893 314.122 276.013 313.402C275.133 312.681 274.033 312.321 272.714 312.321C271.492 312.321 270.343 312.561 269.268 313.042C268.217 313.522 267.069 314.314 265.822 315.418L263 312.105C264.491 310.785 266.067 309.789 267.729 309.116C269.39 308.444 271.101 308.108 272.86 308.108C274.229 308.108 275.487 308.3 276.636 308.684C277.809 309.044 278.799 309.56 279.605 310.233C280.436 310.905 281.071 311.721 281.511 312.681C281.975 313.642 282.208 314.686 282.208 315.814C282.208 317.255 281.841 318.587 281.108 319.812C280.375 321.036 279.104 322.44 277.296 324.025L271.028 329.499H282.538V333.64H264.026Z" fill="#38424F"/>
<path d="M288.045 328.13C288.876 328.13 289.584 328.418 290.171 328.994C290.757 329.571 291.051 330.267 291.051 331.083C291.051 331.875 290.757 332.56 290.171 333.136C289.584 333.712 288.876 334 288.045 334C287.238 334 286.542 333.712 285.955 333.136C285.369 332.56 285.076 331.875 285.076 331.083C285.076 330.267 285.369 329.571 285.955 328.994C286.542 328.418 287.238 328.13 288.045 328.13Z" fill="#38424F"/>
<path d="M302.441 308C304.127 308 305.667 308.312 307.06 308.936C308.453 309.536 309.638 310.389 310.616 311.493C311.618 312.573 312.387 313.882 312.925 315.418C313.487 316.955 313.768 318.647 313.768 320.496C313.768 322.512 313.462 324.361 312.852 326.042C312.241 327.698 311.385 329.114 310.286 330.291C309.186 331.467 307.854 332.38 306.29 333.028C304.726 333.676 303.003 334 301.122 334C299.729 334 298.348 333.784 296.98 333.352C295.611 332.896 294.463 332.295 293.534 331.551L296.393 328.022C297.151 328.598 297.945 329.018 298.776 329.283C299.607 329.547 300.511 329.679 301.488 329.679C303.688 329.679 305.41 328.946 306.657 327.482C307.927 325.994 308.624 323.893 308.746 321.18C307.915 322.092 306.889 322.813 305.667 323.341C304.445 323.845 303.15 324.097 301.782 324.097C300.486 324.097 299.289 323.905 298.189 323.521C297.09 323.137 296.137 322.608 295.33 321.936C294.548 321.24 293.937 320.424 293.497 319.488C293.057 318.527 292.838 317.483 292.838 316.355C292.838 315.154 293.082 314.05 293.571 313.042C294.059 312.009 294.719 311.121 295.55 310.377C296.405 309.633 297.419 309.056 298.592 308.648C299.79 308.216 301.073 308 302.441 308ZM302.588 320.208C303.736 320.208 304.8 319.968 305.777 319.488C306.779 319.007 307.671 318.323 308.453 317.435C308.062 315.85 307.353 314.578 306.327 313.618C305.3 312.657 304.079 312.177 302.661 312.177C301.268 312.177 300.095 312.561 299.142 313.33C298.214 314.098 297.749 315.07 297.749 316.247C297.749 317.423 298.201 318.383 299.106 319.127C300.01 319.848 301.171 320.208 302.588 320.208Z" fill="#38424F"/>
<path d="M325.673 308C327.36 308 328.899 308.312 330.292 308.936C331.685 309.536 332.87 310.389 333.848 311.493C334.85 312.573 335.619 313.882 336.157 315.418C336.719 316.955 337 318.647 337 320.496C337 322.512 336.695 324.361 336.084 326.042C335.473 327.698 334.617 329.114 333.518 330.291C332.418 331.467 331.086 332.38 329.522 333.028C327.958 333.676 326.235 334 324.354 334C322.961 334 321.58 333.784 320.212 333.352C318.843 332.896 317.695 332.295 316.766 331.551L319.625 328.022C320.383 328.598 321.177 329.018 322.008 329.283C322.839 329.547 323.743 329.679 324.72 329.679C326.92 329.679 328.642 328.946 329.889 327.482C331.16 325.994 331.856 323.893 331.978 321.18C331.147 322.092 330.121 322.813 328.899 323.341C327.677 323.845 326.382 324.097 325.014 324.097C323.718 324.097 322.521 323.905 321.421 323.521C320.322 323.137 319.369 322.608 318.562 321.936C317.78 321.24 317.169 320.424 316.729 319.488C316.289 318.527 316.07 317.483 316.07 316.355C316.07 315.154 316.314 314.05 316.803 313.042C317.291 312.009 317.951 311.121 318.782 310.377C319.637 309.633 320.652 309.056 321.825 308.648C323.022 308.216 324.305 308 325.673 308ZM325.82 320.208C326.969 320.208 328.032 319.968 329.009 319.488C330.011 319.007 330.903 318.323 331.685 317.435C331.294 315.85 330.585 314.578 329.559 313.618C328.533 312.657 327.311 312.177 325.893 312.177C324.5 312.177 323.327 312.561 322.374 313.33C321.446 314.098 320.981 315.07 320.981 316.247C320.981 317.423 321.434 318.383 322.338 319.127C323.242 319.848 324.403 320.208 325.82 320.208Z" fill="#38424F"/>
<path d="M349.481 328C347.953 328 346.538 327.82 345.236 327.46C343.959 327.076 342.857 326.56 341.93 325.911C341.004 325.263 340.277 324.483 339.751 323.571C339.25 322.658 339 321.65 339 320.546C339 319.249 339.413 318.073 340.24 317.017C341.091 315.96 342.193 315.168 343.546 314.64C342.444 314.04 341.555 313.259 340.878 312.299C340.202 311.339 339.864 310.271 339.864 309.094C339.864 308.086 340.102 307.15 340.578 306.285C341.079 305.421 341.755 304.677 342.606 304.053C343.458 303.404 344.472 302.9 345.649 302.54C346.852 302.18 348.129 302 349.481 302C350.834 302 352.098 302.18 353.275 302.54C354.478 302.9 355.504 303.404 356.356 304.053C357.233 304.677 357.909 305.421 358.385 306.285C358.886 307.15 359.136 308.086 359.136 309.094C359.136 310.271 358.798 311.351 358.122 312.335C357.445 313.295 356.556 314.064 355.454 314.64C356.807 315.168 357.896 315.96 358.723 317.017C359.574 318.073 360 319.249 360 320.546C360 321.65 359.737 322.658 359.211 323.571C358.71 324.483 357.996 325.263 357.07 325.911C356.143 326.56 355.029 327.076 353.726 327.46C352.449 327.82 351.034 328 349.481 328ZM349.481 312.803C350.784 312.803 351.873 312.479 352.75 311.831C353.651 311.183 354.102 310.379 354.102 309.418C354.102 308.458 353.664 307.654 352.787 307.006C351.911 306.333 350.809 305.997 349.481 305.997C348.179 305.997 347.089 306.333 346.213 307.006C345.336 307.654 344.898 308.458 344.898 309.418C344.898 310.379 345.336 311.183 346.213 311.831C347.114 312.479 348.204 312.803 349.481 312.803ZM349.481 323.967C351.034 323.967 352.311 323.619 353.313 322.922C354.34 322.226 354.853 321.338 354.853 320.258C354.853 319.201 354.34 318.325 353.313 317.629C352.311 316.909 351.034 316.548 349.481 316.548C347.953 316.548 346.676 316.909 345.649 317.629C344.648 318.325 344.147 319.201 344.147 320.258C344.147 321.338 344.648 322.226 345.649 322.922C346.676 323.619 347.953 323.967 349.481 323.967Z" fill="url(#paint0_linear)"/>
<path d="M349.636 334C351.327 334 352.872 334.312 354.27 334.936C355.667 335.536 356.856 336.389 357.837 337.493C358.842 338.573 359.615 339.882 360.154 341.418C360.718 342.955 361 344.647 361 346.496C361 348.512 360.694 350.361 360.081 352.042C359.468 353.698 358.609 355.114 357.506 356.291C356.403 357.467 355.067 358.38 353.497 359.028C351.928 359.676 350.2 360 348.312 360C346.914 360 345.529 359.784 344.156 359.352C342.783 358.896 341.63 358.295 340.699 357.551L343.567 354.022C344.327 354.598 345.124 355.018 345.958 355.283C346.792 355.547 347.699 355.679 348.68 355.679C350.886 355.679 352.615 354.946 353.865 353.482C355.14 351.994 355.839 349.893 355.961 347.18C355.128 348.092 354.098 348.813 352.872 349.341C351.646 349.845 350.347 350.097 348.974 350.097C347.674 350.097 346.473 349.905 345.37 349.521C344.266 349.137 343.31 348.608 342.501 347.936C341.716 347.24 341.103 346.424 340.662 345.488C340.221 344.527 340 343.483 340 342.355C340 341.154 340.245 340.05 340.736 339.042C341.226 338.009 341.888 337.121 342.722 336.377C343.58 335.633 344.597 335.056 345.774 334.648C346.975 334.216 348.263 334 349.636 334ZM349.783 346.208C350.935 346.208 352.002 345.968 352.982 345.488C353.988 345.007 354.883 344.323 355.667 343.435C355.275 341.85 354.564 340.578 353.534 339.618C352.504 338.657 351.278 338.177 349.856 338.177C348.459 338.177 347.282 338.561 346.326 339.33C345.394 340.098 344.928 341.07 344.928 342.247C344.928 343.423 345.382 344.383 346.289 345.127C347.196 345.848 348.361 346.208 349.783 346.208Z" fill="url(#paint1_linear)"/>
<path d="M224.437 395.1L219.505 385.002V396H218.209V383.4H220.153L224.455 392.346L228.739 383.4H230.683V396H229.369V384.984L224.437 395.1Z" fill="#ADABB5"/>
<path d="M233.449 396V383.4H242.467V384.624H234.835V389.034H239.821V390.24H234.835V394.776H242.539V396H233.449Z" fill="#ADABB5"/>
<path d="M250.769 395.1L245.837 385.002V396H244.541V383.4H246.485L250.787 392.346L255.071 383.4H257.015V396H255.701V384.984L250.769 395.1Z" fill="#ADABB5"/>
<path d="M259.781 383.4H264.893C266.105 383.4 267.071 383.694 267.791 384.282C268.511 384.87 268.871 385.656 268.871 386.64C268.871 387.288 268.697 387.852 268.349 388.332C268.013 388.812 267.545 389.178 266.945 389.43C267.701 389.658 268.295 390.042 268.727 390.582C269.171 391.11 269.393 391.734 269.393 392.454C269.393 393.534 268.997 394.398 268.205 395.046C267.425 395.682 266.393 396 265.109 396H259.781V383.4ZM264.821 384.606H261.167V388.89H264.821C265.637 388.89 266.285 388.698 266.765 388.314C267.257 387.918 267.503 387.396 267.503 386.748C267.503 386.1 267.257 385.584 266.765 385.2C266.285 384.804 265.637 384.606 264.821 384.606ZM265.001 394.794C265.901 394.794 266.621 394.578 267.161 394.146C267.713 393.714 267.989 393.138 267.989 392.418C267.989 391.698 267.713 391.122 267.161 390.69C266.621 390.258 265.901 390.042 265.001 390.042H261.167V394.794H265.001Z" fill="#ADABB5"/>
<path d="M271.611 396V383.4H277.011C278.235 383.4 279.225 383.736 279.981 384.408C280.737 385.068 281.115 385.938 281.115 387.018C281.115 387.846 280.869 388.56 280.377 389.16C279.897 389.76 279.249 390.174 278.433 390.402L281.259 396H279.729L277.029 390.582H272.997V396H271.611ZM276.921 384.642H272.997V389.412H276.921C277.761 389.412 278.439 389.196 278.955 388.764C279.471 388.32 279.729 387.738 279.729 387.018C279.729 386.298 279.471 385.722 278.955 385.29C278.439 384.858 277.761 384.642 276.921 384.642Z" fill="#ADABB5"/>
<path d="M295.597 389.7C295.597 390.6 295.429 391.452 295.093 392.256C294.757 393.048 294.295 393.738 293.707 394.326C293.131 394.902 292.447 395.358 291.655 395.694C290.863 396.03 290.017 396.198 289.117 396.198C288.217 396.198 287.365 396.03 286.561 395.694C285.769 395.358 285.079 394.902 284.491 394.326C283.915 393.738 283.459 393.048 283.123 392.256C282.787 391.452 282.619 390.6 282.619 389.7C282.619 388.8 282.787 387.954 283.123 387.162C283.459 386.358 283.915 385.668 284.491 385.092C285.079 384.504 285.769 384.042 286.561 383.706C287.365 383.37 288.217 383.202 289.117 383.202C290.017 383.202 290.863 383.37 291.655 383.706C292.447 384.042 293.131 384.504 293.707 385.092C294.295 385.668 294.757 386.358 295.093 387.162C295.429 387.954 295.597 388.8 295.597 389.7ZM294.193 389.7C294.193 388.968 294.061 388.284 293.797 387.648C293.533 387 293.173 386.448 292.717 385.992C292.273 385.524 291.739 385.158 291.115 384.894C290.491 384.618 289.825 384.48 289.117 384.48C288.397 384.48 287.725 384.618 287.101 384.894C286.477 385.158 285.937 385.524 285.481 385.992C285.037 386.448 284.683 387 284.419 387.648C284.155 388.284 284.023 388.968 284.023 389.7C284.023 390.432 284.155 391.116 284.419 391.752C284.683 392.388 285.037 392.94 285.481 393.408C285.937 393.876 286.477 394.248 287.101 394.524C287.725 394.788 288.397 394.92 289.117 394.92C289.825 394.92 290.491 394.788 291.115 394.524C291.739 394.248 292.273 393.876 292.717 393.408C293.173 392.94 293.533 392.388 293.797 391.752C294.061 391.116 294.193 390.432 294.193 389.7Z" fill="#ADABB5"/>
<path d="M296.58 393.84L297.498 392.886C298.146 393.57 298.836 394.092 299.568 394.452C300.312 394.8 301.092 394.974 301.908 394.974C302.892 394.974 303.702 394.74 304.338 394.272C304.974 393.804 305.292 393.21 305.292 392.49C305.292 391.842 305.064 391.344 304.608 390.996C304.164 390.648 303.426 390.39 302.394 390.222L300.576 389.934C299.364 389.742 298.47 389.388 297.894 388.872C297.318 388.344 297.03 387.636 297.03 386.748C297.03 385.704 297.438 384.858 298.254 384.21C299.07 383.562 300.138 383.238 301.458 383.238C302.334 383.238 303.204 383.382 304.068 383.67C304.932 383.958 305.718 384.372 306.426 384.912L305.634 385.992C304.95 385.476 304.254 385.086 303.546 384.822C302.838 384.558 302.124 384.426 301.404 384.426C300.504 384.426 299.772 384.636 299.208 385.056C298.656 385.464 298.38 385.992 298.38 386.64C298.38 387.228 298.578 387.678 298.974 387.99C299.37 388.302 300.024 388.53 300.936 388.674L302.736 388.962C304.104 389.19 305.1 389.58 305.724 390.132C306.36 390.684 306.678 391.446 306.678 392.418C306.678 392.97 306.558 393.48 306.318 393.948C306.09 394.404 305.76 394.8 305.328 395.136C304.908 395.46 304.398 395.718 303.798 395.91C303.21 396.09 302.562 396.18 301.854 396.18C300.858 396.18 299.898 395.982 298.974 395.586C298.062 395.178 297.264 394.596 296.58 393.84Z" fill="#ADABB5"/>
<path d="M312.428 383.4H313.814L321.392 393.624V383.4H322.706V396H321.482L313.742 385.506V396H312.428V383.4Z" fill="#ADABB5"/>
<path d="M337.855 389.7C337.855 390.6 337.687 391.452 337.351 392.256C337.015 393.048 336.553 393.738 335.965 394.326C335.389 394.902 334.705 395.358 333.913 395.694C333.121 396.03 332.275 396.198 331.375 396.198C330.475 396.198 329.623 396.03 328.819 395.694C328.027 395.358 327.337 394.902 326.749 394.326C326.173 393.738 325.717 393.048 325.381 392.256C325.045 391.452 324.877 390.6 324.877 389.7C324.877 388.8 325.045 387.954 325.381 387.162C325.717 386.358 326.173 385.668 326.749 385.092C327.337 384.504 328.027 384.042 328.819 383.706C329.623 383.37 330.475 383.202 331.375 383.202C332.275 383.202 333.121 383.37 333.913 383.706C334.705 384.042 335.389 384.504 335.965 385.092C336.553 385.668 337.015 386.358 337.351 387.162C337.687 387.954 337.855 388.8 337.855 389.7ZM336.451 389.7C336.451 388.968 336.319 388.284 336.055 387.648C335.791 387 335.431 386.448 334.975 385.992C334.531 385.524 333.997 385.158 333.373 384.894C332.749 384.618 332.083 384.48 331.375 384.48C330.655 384.48 329.983 384.618 329.359 384.894C328.735 385.158 328.195 385.524 327.739 385.992C327.295 386.448 326.941 387 326.677 387.648C326.413 388.284 326.281 388.968 326.281 389.7C326.281 390.432 326.413 391.116 326.677 391.752C326.941 392.388 327.295 392.94 327.739 393.408C328.195 393.876 328.735 394.248 329.359 394.524C329.983 394.788 330.655 394.92 331.375 394.92C332.083 394.92 332.749 394.788 333.373 394.524C333.997 394.248 334.531 393.876 334.975 393.408C335.431 392.94 335.791 392.388 336.055 391.752C336.319 391.116 336.451 390.432 336.451 389.7Z" fill="#ADABB5"/>
<path d="M355.935 389.97C355.935 390.846 355.779 391.668 355.467 392.436C355.155 393.192 354.723 393.846 354.171 394.398C353.619 394.95 352.971 395.388 352.227 395.712C351.483 396.036 350.679 396.198 349.815 396.198C348.915 396.198 348.063 396.03 347.259 395.694C346.467 395.346 345.777 394.884 345.189 394.308C344.613 393.72 344.151 393.03 343.803 392.238C343.467 391.446 343.299 390.6 343.299 389.7C343.299 388.8 343.467 387.954 343.803 387.162C344.139 386.37 344.595 385.686 345.171 385.11C345.759 384.522 346.449 384.06 347.241 383.724C348.045 383.376 348.897 383.202 349.797 383.202C350.769 383.202 351.687 383.388 352.551 383.76C353.415 384.12 354.153 384.624 354.765 385.272L353.829 386.226C353.349 385.674 352.749 385.248 352.029 384.948C351.309 384.636 350.565 384.48 349.797 384.48C349.077 384.48 348.405 384.618 347.781 384.894C347.157 385.158 346.617 385.524 346.161 385.992C345.717 386.448 345.363 387 345.099 387.648C344.835 388.284 344.703 388.968 344.703 389.7C344.703 390.432 344.835 391.122 345.099 391.77C345.363 392.406 345.717 392.958 346.161 393.426C346.617 393.882 347.157 394.248 347.781 394.524C348.405 394.788 349.077 394.92 349.797 394.92C350.433 394.92 351.027 394.812 351.579 394.596C352.143 394.38 352.629 394.086 353.037 393.714C353.457 393.33 353.799 392.874 354.063 392.346C354.327 391.818 354.483 391.248 354.531 390.636H350.013V389.412H355.935V389.97Z" fill="#ADABB5"/>
<path d="M358.078 396V383.4H363.478C364.702 383.4 365.692 383.736 366.448 384.408C367.204 385.068 367.582 385.938 367.582 387.018C367.582 387.846 367.336 388.56 366.844 389.16C366.364 389.76 365.716 390.174 364.9 390.402L367.726 396H366.196L363.496 390.582H359.464V396H358.078ZM363.388 384.642H359.464V389.412H363.388C364.228 389.412 364.906 389.196 365.422 388.764C365.938 388.32 366.196 387.738 366.196 387.018C366.196 386.298 365.938 385.722 365.422 385.29C364.906 384.858 364.228 384.642 363.388 384.642Z" fill="#ADABB5"/>
<path d="M379.832 390.672C379.832 392.352 379.358 393.696 378.41 394.704C377.474 395.7 376.214 396.198 374.63 396.198C373.034 396.198 371.768 395.7 370.832 394.704C369.896 393.708 369.428 392.364 369.428 390.672V383.4H370.814V390.672C370.814 391.956 371.162 392.988 371.858 393.768C372.554 394.536 373.478 394.92 374.63 394.92C375.782 394.92 376.706 394.536 377.402 393.768C378.098 392.988 378.446 391.956 378.446 390.672V383.4H379.832V390.672Z" fill="#ADABB5"/>
<path d="M382.354 396V383.4H387.826C389.05 383.4 390.034 383.736 390.778 384.408C391.522 385.068 391.894 385.944 391.894 387.036C391.894 388.128 391.516 389.01 390.76 389.682C390.016 390.354 389.038 390.69 387.826 390.69H383.74V396H382.354ZM387.718 384.642H383.74V389.484H387.718C388.57 389.484 389.248 389.268 389.752 388.836C390.256 388.392 390.508 387.798 390.508 387.054C390.508 386.31 390.256 385.722 389.752 385.29C389.248 384.858 388.57 384.642 387.718 384.642Z" fill="#ADABB5"/>
<path d="M406.392 389.7C406.392 390.6 406.224 391.452 405.888 392.256C405.552 393.048 405.09 393.738 404.502 394.326C403.926 394.902 403.242 395.358 402.45 395.694C401.658 396.03 400.812 396.198 399.912 396.198C399.012 396.198 398.16 396.03 397.356 395.694C396.564 395.358 395.874 394.902 395.286 394.326C394.71 393.738 394.254 393.048 393.918 392.256C393.582 391.452 393.414 390.6 393.414 389.7C393.414 388.8 393.582 387.954 393.918 387.162C394.254 386.358 394.71 385.668 395.286 385.092C395.874 384.504 396.564 384.042 397.356 383.706C398.16 383.37 399.012 383.202 399.912 383.202C400.812 383.202 401.658 383.37 402.45 383.706C403.242 384.042 403.926 384.504 404.502 385.092C405.09 385.668 405.552 386.358 405.888 387.162C406.224 387.954 406.392 388.8 406.392 389.7ZM404.988 389.7C404.988 388.968 404.856 388.284 404.592 387.648C404.328 387 403.968 386.448 403.512 385.992C403.068 385.524 402.534 385.158 401.91 384.894C401.286 384.618 400.62 384.48 399.912 384.48C399.192 384.48 398.52 384.618 397.896 384.894C397.272 385.158 396.732 385.524 396.276 385.992C395.832 386.448 395.478 387 395.214 387.648C394.95 388.284 394.818 388.968 394.818 389.7C394.818 390.432 394.95 391.116 395.214 391.752C395.478 392.388 395.832 392.94 396.276 393.408C396.732 393.876 397.272 394.248 397.896 394.524C398.52 394.788 399.192 394.92 399.912 394.92C400.62 394.92 401.286 394.788 401.91 394.524C402.534 394.248 403.068 393.876 403.512 393.408C403.968 392.94 404.328 392.388 404.592 391.752C404.856 391.116 404.988 390.432 404.988 389.7Z" fill="#ADABB5"/>
</g>
<defs>
<filter id="filter0_d" x="123" y="158" width="378" height="292" filterUnits="userSpaceOnUse" color-interpolation-filters="sRGB">
<feFlood flood-opacity="0" result="BackgroundImageFix"/>
<feColorMatrix in="SourceAlpha" type="matrix" values="0 0 0 0 0 0 0 0 0 0 0 0 0 0 0 0 0 0 127 0"/>
<feOffset/>
<feGaussianBlur stdDeviation="8"/>
<feColorMatrix type="matrix" values="0 0 0 0 0.898039 0 0 0 0 0.898039 0 0 0 0 0.898039 0 0 0 0.4 0"/>
<feBlend mode="normal" in2="BackgroundImageFix" result="effect1_dropShadow"/>
<feBlend mode="normal" in="SourceGraphic" in2="effect1_dropShadow" result="shape"/>
</filter>
<linearGradient id="paint0_linear" x1="349.5" y1="302" x2="349.5" y2="315.504" gradientUnits="userSpaceOnUse">
<stop stop-color="#38424F" stop-opacity="0"/>
<stop offset="1" stop-color="#38424F"/>
</linearGradient>
<linearGradient id="paint1_linear" x1="350.5" y1="331.749" x2="350.5" y2="356.507" gradientUnits="userSpaceOnUse">
<stop stop-color="#38424F"/>
<stop offset="1" stop-color="#38424F" stop-opacity="0"/>
</linearGradient>
<clipPath id="clip0">
<rect width="624" height="665" fill="white"/>
</clipPath>
</defs>
</svg>
