<svg width="791" height="662" viewBox="0 0 791 662" fill="none" xmlns="http://www.w3.org/2000/svg">
<g clip-path="url(#clip0)">
<path d="M83.4284 102.156L1014.83 -50.5178C1048.76 -56.6526 1076.91 -24.083 1065.13 7.76773L796.584 611.486C778.036 661.884 712.19 675.352 674.144 636.69L438.871 382.142C410.267 353.001 376.933 328.747 340.319 310.071L73.9431 168.385C43.4306 152.93 49.883 108.369 83.4284 102.156Z" fill="#4882EB"/>
<path d="M385.534 378.72C434.433 309.087 517.284 309.737 517.284 309.737L553.283 310.801C730.55 332.237 665.195 445.62 611.31 496.061C607.426 541.083 598.466 634.96 593.689 650.294C587.717 669.461 409.034 650.233 400.074 648.618C393.089 647.36 410.473 516.169 427.421 431.546C427.812 429.596 425.422 428.339 424.021 429.75L361.909 492.287L308.906 472.276C319.571 451.747 363.652 409.88 385.534 378.72Z" fill="#00BEF6"/>
<path d="M535.209 160.462C475.43 158.994 460.804 124.571 456.787 101.315C456.249 98.2024 461.21 96.2099 463.626 98.2442C469.616 103.285 477.382 107.306 484.962 108.142C527.498 116.598 521.637 101.579 558.933 104.481C583.878 106.422 572.615 129.178 588.801 130.106C604.987 131.035 597.002 172.636 593.862 202.684C590.721 232.732 581.097 253.591 566.564 257.66C552.009 232.038 564.703 196.968 566.811 188.389C574.491 157.125 567.291 156.912 565.941 156.872C561.441 156.739 545.122 160.306 535.209 160.462Z" fill="#301400"/>
<path d="M466.208 287.618C449.707 281.173 470.558 199.925 483.046 160.107C484.511 154.706 488.804 142.967 494.248 139.22C528.331 118.872 568.946 146.614 570.431 161.635C571.068 168.079 569.877 180.382 565.599 195.55C563.116 205.824 559.009 212.795 565.106 212.24C572.727 211.547 574.151 202.386 580.876 201.774C587.601 201.162 586.037 218.317 584.21 224.442C581.441 233.725 575.565 242.631 571.212 237.554C568.186 252.278 564.525 265.697 560.806 283.974C557.883 298.341 573.241 310.095 578.826 315.155C580.833 353.903 488.556 336.396 492.506 325.2C496.456 314.003 508.318 312.864 521.4 307.609C534.482 302.355 534.484 287.597 533.221 288.615C525.232 295.054 486.834 295.674 466.208 287.618Z" fill="#EEA982"/>
<path fill-rule="evenodd" clip-rule="evenodd" d="M498.821 216.614C499.259 216.85 499.424 217.395 499.188 217.832L498.243 219.588C497.423 221.282 498.623 223.261 500.51 223.317L505.422 223.462C505.919 223.477 506.31 223.892 506.296 224.388C506.281 224.884 505.866 225.275 505.369 225.26L500.456 225.115C497.256 225.02 495.223 221.653 496.634 218.782L497.442 219.178L496.649 218.752L497.602 216.981C497.837 216.543 498.383 216.379 498.821 216.614Z" fill="#301400"/>
<path d="M565.927 157.322C561.428 157.189 545.108 160.755 535.195 160.912C507.885 160.241 500.089 159.499 491.261 152.756C488.021 150.282 484.207 148.603 480.179 147.981C442.483 142.155 447.456 109.984 455.344 89.2721C462.559 73.7401 479.232 62.4669 491.227 63.7909C536.636 66.483 510.03 98.0866 561.368 98.2548C586.389 98.3368 577.234 125.266 593.42 126.194C604.08 126.806 609.309 140.261 607.264 160.961C606.72 166.459 604.138 171.511 601.787 176.511C597.516 185.592 595.06 197.286 593.848 203.134C593.14 206.546 592.766 208.598 592.591 209.634C592.386 210.854 592.458 210.667 592.591 209.634C593.102 205.68 594.516 189.323 584.717 192.067C576.352 177.341 571.568 181.772 569.412 186.576C569.154 187.749 568.869 188.97 568.557 190.24C567.661 193.888 567.817 190.13 569.412 186.576C575.522 158.848 567.223 157.36 565.927 157.322Z" fill="#301400"/>
<path d="M365.516 287.313L196.768 229.685C191.671 227.944 186.346 231.635 186.186 237.019L181.059 410.463L365.414 481.594L370.927 295.12C371.031 291.612 368.837 288.447 365.516 287.313Z" fill="#38424F" stroke="#38424F"/>
<path d="M250.856 340.301C240.649 344.318 246.094 359.204 250.139 364.572C256.609 374.211 273.988 365.277 268.55 351.171C266.905 345.874 261.064 336.284 250.856 340.301Z" fill="white"/>
<path d="M446.726 496.43L366.673 469.485C310.921 451.042 196.12 412.888 181.139 407.767C180.566 414.947 182.947 417.717 184.433 418.211C261.343 447.177 413.59 503.442 426.835 506.353C439.155 509.06 444.129 507.192 447.896 499.047C448.377 498.006 447.813 496.795 446.726 496.43Z" fill="#38424F" stroke="#38424F"/>
<path d="M250.573 400.824C234.513 408.777 236.548 423.714 239.573 430.188L287.778 431.613C287.608 423.45 293.049 417.462 280.274 408.944C273.411 400.298 262.098 395.117 250.573 400.824Z" fill="#EEA982"/>
<path d="M239.454 429.734C279.768 543.842 315.463 539.949 367.496 486.154L312.706 465.64C312.269 465.177 297.967 456.357 289.853 431.224L239.454 429.734Z" fill="#00BEF6"/>
<path d="M400.887 474.995C395.176 469.3 404.049 458.377 405.495 456.237C416.448 440.019 445.721 436.208 449.5 460.687C454.374 492.251 428.863 475.505 422.712 467.993C419.527 464.104 405.514 479.61 400.887 474.995Z" fill="#EEA982"/>
<path d="M442.409 441.583L447.619 478.626L578.432 502.287L586.567 425.151L545.388 462.172L442.409 441.583Z" fill="#00BEF6"/>
<g style="mix-blend-mode:multiply">
<path d="M527.848 516.087C561.051 526.426 590.194 509.533 599.531 498.412C590.481 509.991 563.448 530.635 527.715 520.582C491.982 510.528 459.325 487.819 447.463 477.721C460.423 486.202 494.645 505.748 527.848 516.087Z" fill="black" fill-opacity="0.1"/>
</g>
<g style="mix-blend-mode:multiply">
<path d="M578.798 429.253L614.3 394.93L581.618 429.253C559.578 452.399 526.819 461.951 495.794 454.277L442.689 441.141L499.425 452.527C528.1 458.282 557.771 449.581 578.798 429.253Z" fill="black" fill-opacity="0.1"/>
</g>
<ellipse rx="3.60131" ry="8.0944" transform="matrix(0.972239 0.23399 -0.23444 0.972131 494.33 195.36)" fill="#301400"/>
<ellipse rx="3.60132" ry="8.09441" transform="matrix(0.972239 0.23399 -0.234441 0.97213 526.42 199.574)" fill="#301400"/>
<path fill-rule="evenodd" clip-rule="evenodd" d="M528.132 243.542C528.588 243.74 528.797 244.27 528.599 244.726C527.501 247.249 525.202 248.939 522.387 250.047C519.569 251.156 516.127 251.728 512.545 251.954C505.377 252.408 497.442 251.489 492.318 250.505C491.83 250.411 491.51 249.94 491.604 249.452C491.698 248.964 492.17 248.645 492.658 248.739C497.685 249.704 505.461 250.6 512.431 250.159C515.918 249.939 519.153 249.386 521.727 248.373C524.304 247.359 526.113 245.926 526.948 244.009C527.146 243.553 527.676 243.344 528.132 243.542Z" fill="#301400"/>
<path d="M418.262 274.25C418.647 274.25 419.036 274.176 419.405 274.022C420.522 273.56 421.25 272.47 421.25 271.261L421.248 236.359C421.342 226.111 417.401 216.434 410.148 209.111C402.892 201.785 393.25 197.75 383 197.75C372.673 197.75 363.017 201.757 355.81 209.034C348.58 216.334 344.653 226.044 344.752 236.375C344.849 246.549 348.895 256.081 356.144 263.215C363.374 270.331 372.961 274.25 383.14 274.25C383.152 274.25 383.165 274.25 383.177 274.25C389.199 274.25 394.947 272.899 400.263 270.236C405.342 267.69 411.491 268.717 415.564 272.79L416.149 273.375C416.72 273.946 417.485 274.25 418.262 274.25ZM406.119 262.872C403.217 262.872 400.298 263.533 397.585 264.893C393.109 267.136 388.26 268.273 383.175 268.273C383.165 268.273 383.153 268.273 383.144 268.273C365.435 268.275 350.897 253.942 350.728 236.318C350.644 227.594 353.957 219.398 360.056 213.24C366.132 207.105 374.281 203.727 383 203.727C391.643 203.727 399.777 207.133 405.902 213.317C412.027 219.502 415.355 227.67 415.272 236.318C415.272 236.327 415.272 236.337 415.272 236.346L415.273 265.193C412.441 263.662 409.291 262.872 406.119 262.872Z" fill="white"/>
<path d="M405.312 226.992C405.312 225.461 404.123 224.22 402.656 224.22H378.352C376.885 224.22 375.695 225.461 375.695 226.992C375.695 228.523 376.885 229.764 378.352 229.764H402.656C404.123 229.764 405.312 228.523 405.312 226.992ZM405.312 238.079C405.312 236.548 404.123 235.307 402.656 235.307H366.531C365.064 235.307 363.875 236.548 363.875 238.079C363.875 239.61 365.064 240.851 366.531 240.851H402.656C404.123 240.851 405.312 239.61 405.312 238.079ZM378.75 249.166C378.75 247.635 377.561 246.394 376.094 246.394H366.531C365.064 246.394 363.875 247.635 363.875 249.166C363.875 250.697 365.064 251.938 366.531 251.938H376.094C377.561 251.938 378.75 250.697 378.75 249.166ZM363.875 226.715C363.875 228.628 365.362 230.179 367.195 230.179C369.029 230.179 370.516 228.628 370.516 226.715C370.516 224.801 369.029 223.25 367.195 223.25C365.362 223.25 363.875 224.801 363.875 226.715Z" fill="white"/>
</g>
<defs>
<clipPath id="clip0">
<rect width="791" height="662" fill="white"/>
</clipPath>
</defs>
</svg>
