<svg width="222" height="56" viewBox="0 0 222 56" fill="none" xmlns="http://www.w3.org/2000/svg">
<g clip-path="url(#clip0)">
<path d="M1.33946 20.6108L54.4234 0.199568C56.35 -0.577782 58.4097 1.00001 58.1043 3.0242L49.646 41.9456C49.1682 45.1473 45.4481 46.7482 42.7305 44.9318L25.7355 32.7867C23.6914 31.4167 21.428 30.3931 19.0393 29.7389L1.59008 24.6361C-0.399195 24.0973 -0.563662 21.3881 1.33946 20.6108Z" fill="#4882EB"/>
<path d="M43.6387 14.0074C43.6387 13.7303 43.4586 13.4378 43.1766 13.407C34.3345 12.5604 29.4945 20.357 29.4945 20.357L26.1112 21.3422C25.8214 21.4268 25.5708 21.5885 25.375 21.8117L22.7827 24.7594C22.6025 24.9673 22.8218 25.2751 23.0803 25.1751L26.8474 23.7974C26.8082 23.8513 25.2105 26.1756 26.307 27.8996C26.6281 27.5379 26.9492 27.1762 27.2781 26.8221C27.5366 26.5374 27.7715 26.2295 28.0221 25.9293C28.2727 25.6292 28.5469 25.3675 28.868 25.152C29.1891 24.9288 29.5258 24.7287 29.8939 24.5593C30.262 24.39 30.6458 24.2438 31.1 24.1591L31.2175 24.2823C31.1 24.721 30.9199 25.0827 30.7163 25.4367C30.5126 25.7831 30.2855 26.0986 30.0349 26.3911C29.7843 26.6836 29.4945 26.9453 29.1734 27.1608C28.8523 27.3763 28.5155 27.5841 28.2101 27.815C27.8342 28.0997 27.4504 28.3845 27.0588 28.6616C28.68 29.7237 31.0844 28.6154 31.0844 28.6154L29.2126 32.2944C29.0559 32.6022 29.424 32.9101 29.7138 32.71L33.2224 30.1778C33.52 29.9623 33.7393 29.6621 33.8411 29.3158L34.7026 26.4373C34.687 26.4373 43.6152 23.0277 43.6387 14.0074ZM37.8902 19.8875C36.8407 19.8568 36.0184 18.9947 36.0497 17.9634C36.081 16.9321 36.9582 16.1239 38.0077 16.1547C39.0571 16.1855 39.8795 17.0475 39.8481 18.0789C39.8168 19.1179 38.9396 19.926 37.8902 19.8875Z" fill="white"/>
<path d="M25.6107 33.0793C23.8877 34.6571 22.1412 36.9121 22.1412 36.9121C16.4945 44.6241 17.5675 54.1216 17.7946 55.684C17.8024 55.7533 17.7867 55.8148 17.7554 55.8687C17.7241 55.9226 17.6693 55.9688 17.6066 55.9919C17.45 56.0457 17.2855 55.9688 17.2307 55.8071C15.9619 51.8742 17.0976 47.3102 17.403 45.5784C17.6144 44.3624 17.8181 43.6235 17.1837 43.4773C16.0011 43.2002 15.4842 47.0639 15.3276 48.2338C15.3041 48.3954 15.1944 48.5185 15.0535 48.5724C14.9908 48.5955 14.9281 48.6032 14.8577 48.5955C14.6305 48.5724 14.4661 48.38 14.4739 48.1568C14.6227 44.8473 16.7686 39.6059 17.4578 37.9974C17.5126 37.8665 17.5126 37.728 17.4656 37.6048C17.4187 37.474 17.309 37.3585 17.168 37.3047C16.9018 37.1969 16.5963 37.3047 16.471 37.5587L15.7427 39.021C15.6957 39.1057 15.6252 39.1749 15.539 39.2057C15.4607 39.2365 15.3667 39.2365 15.2806 39.2057C15.0848 39.1364 14.983 38.9286 15.0535 38.7362C19.4158 26.6988 25.2426 28.2458 25.2426 28.2458C25.4541 28.3151 25.642 28.3921 25.8143 28.4767C25.783 28.5075 25.7517 28.546 25.7282 28.5768C25.227 29.1694 24.7336 29.7621 24.2558 30.3778L24.3733 30.5009C25.0312 30.0853 25.6734 29.6389 26.3156 29.2002C26.4096 29.1386 26.4957 29.0771 26.5897 29.0078C27.694 30.1161 26.9656 31.8401 25.6107 33.0793Z" fill="#00BEF6"/>
<path d="M64.252 37.5363L68.2618 19.0107H77.0413C78.8034 19.0107 80.2288 19.511 81.3331 20.5039C82.4374 21.5044 82.9856 22.7897 82.9856 24.3829C82.9856 25.776 82.5314 27.0228 81.6229 28.1157C80.7144 29.2086 79.5631 29.9706 78.1612 30.3939L81.0433 37.5363H76.2503L73.7989 30.7325H70.2511L68.7709 37.5363H64.252ZM76.2268 22.9052H71.9428L71.0578 27.0305H75.7725C76.5087 27.0305 77.1196 26.815 77.613 26.3917C78.1064 25.9684 78.357 25.4373 78.357 24.8062C78.357 24.2213 78.1612 23.7595 77.7775 23.4208C77.3937 23.0745 76.8768 22.9052 76.2268 22.9052Z" fill="white"/>
<path d="M83.2051 31.0556C83.2051 29.9935 83.4244 28.9929 83.8551 28.0386C84.2859 27.0842 84.8654 26.2607 85.5938 25.568C86.3221 24.8676 87.1758 24.3134 88.1626 23.8978C89.1494 23.4822 90.191 23.2744 91.2875 23.2744C92.29 23.2744 93.2376 23.4437 94.1148 23.7901C94.9919 24.1364 95.7516 24.6059 96.3782 25.2062C97.0047 25.8066 97.5059 26.5224 97.874 27.3459C98.2421 28.1771 98.4223 29.0622 98.4223 30.0166C98.4223 31.0787 98.203 32.0793 97.7722 33.0182C97.3415 33.9649 96.7619 34.7884 96.0336 35.4888C95.3052 36.1969 94.4515 36.751 93.4726 37.1667C92.4936 37.5823 91.4598 37.7901 90.3633 37.7901C89.3374 37.7901 88.3897 37.6208 87.5126 37.2744C86.6354 36.9281 85.8757 36.4586 85.2492 35.8583C84.6226 35.2579 84.1214 34.5421 83.7533 33.7186C83.3852 32.8951 83.2051 32.01 83.2051 31.0556ZM90.5513 34.0957C91.5538 34.0957 92.4153 33.7109 93.1358 32.9413C93.8563 32.1716 94.2166 31.2634 94.2166 30.2013C94.2166 29.27 93.919 28.4927 93.3316 27.8846C92.7442 27.2766 91.9845 26.9688 91.0682 26.9688C90.0657 26.9688 89.2042 27.3536 88.4837 28.1232C87.7632 28.8929 87.4029 29.8011 87.4029 30.8632C87.4029 31.8022 87.7005 32.5718 88.2879 33.1799C88.8753 33.7879 89.635 34.0957 90.5513 34.0957Z" fill="white"/>
<path d="M107.116 34.1265C107.672 34.1265 108.189 34.0188 108.666 33.7956C109.144 33.5724 109.622 33.2337 110.108 32.7796L112.316 35.5581C111.525 36.297 110.648 36.8665 109.677 37.2513C108.706 37.6362 107.703 37.8363 106.662 37.8363C105.675 37.8363 104.758 37.667 103.913 37.336C103.067 36.9974 102.338 36.5433 101.735 35.9583C101.124 35.3734 100.647 34.673 100.294 33.8572C99.9418 33.0336 99.7695 32.1485 99.7695 31.1942C99.7695 30.1012 99.9732 29.0699 100.388 28.1078C100.803 27.1458 101.359 26.3069 102.072 25.5911C102.785 24.8753 103.615 24.3134 104.578 23.8978C105.542 23.4822 106.56 23.2744 107.633 23.2744C108.87 23.2744 110.014 23.5361 111.063 24.0518C112.112 24.5751 112.958 25.2832 113.608 26.1837L110.703 28.7774C110.311 28.1771 109.857 27.7307 109.34 27.4382C108.831 27.1458 108.244 26.9995 107.578 26.9995C106.607 26.9995 105.777 27.3844 105.072 28.1617C104.375 28.9391 104.022 29.8627 104.022 30.9402C104.022 31.8945 104.312 32.6565 104.884 33.2414C105.455 33.8341 106.199 34.1265 107.116 34.1265Z" fill="white"/>
<path d="M113.146 37.536L117.155 19.0105L121.627 18.0869L119.152 29.5163L125.614 23.5361H130.814L122.841 30.5707L128.198 37.5283H123.053L118.714 31.5251L117.422 37.5283H113.146V37.536Z" fill="white"/>
<path d="M141.551 36.0044C140.651 36.6586 139.774 37.1281 138.896 37.4052C138.027 37.69 137.056 37.8285 135.975 37.8285C134.918 37.8285 133.939 37.6592 133.038 37.3282C132.137 36.9896 131.37 36.5278 130.72 35.9429C130.07 35.3502 129.569 34.6498 129.201 33.8263C128.832 33.0028 128.652 32.11 128.652 31.1402C128.652 30.0781 128.856 29.0776 129.271 28.1232C129.686 27.1688 130.242 26.3453 130.955 25.6372C131.668 24.9291 132.498 24.375 133.445 23.9594C134.393 23.5437 135.403 23.3359 136.461 23.3359C137.432 23.3359 138.317 23.5053 139.123 23.8362C139.93 24.1749 140.619 24.6367 141.199 25.237C141.771 25.8373 142.225 26.5531 142.546 27.392C142.867 28.2309 143.032 29.1468 143.032 30.132C143.032 30.3244 143.024 30.5476 143.008 30.7939C142.992 31.0402 142.945 31.4404 142.875 31.9868H132.905C133.124 32.6949 133.532 33.2568 134.127 33.6801C134.73 34.1034 135.458 34.3189 136.32 34.3189C136.876 34.3189 137.4 34.2342 137.878 34.0649C138.364 33.8956 138.787 33.657 139.147 33.3337L141.551 36.0044ZM136.273 26.8456C135.576 26.8456 134.949 27.0457 134.401 27.4382C133.853 27.8384 133.438 28.3618 133.148 29.016H139.014C138.834 28.3618 138.497 27.8384 138.004 27.4382C137.51 27.0457 136.938 26.8456 136.273 26.8456Z" fill="white"/>
<path d="M145.75 33.0412L147.042 27.1148H144.215L144.967 23.5436H147.794L148.577 19.9417L153.049 19.0181L152.054 23.5436H155.955L155.203 27.1148H151.303L150.144 32.3793C150.018 33.0181 150.089 33.4722 150.347 33.7569C150.606 34.0417 151.099 34.1802 151.812 34.1802C152.117 34.1802 152.407 34.1649 152.689 34.1264C152.971 34.0879 153.268 34.0417 153.59 33.9647L152.838 37.4051C152.493 37.4744 152.062 37.5436 151.53 37.6052C150.997 37.6668 150.512 37.6976 150.065 37.6976C148.358 37.6976 147.136 37.2896 146.392 36.4815C145.64 35.6657 145.429 34.5189 145.75 33.0412Z" fill="white"/>
<path d="M162.149 37.5898C161.248 37.5898 160.418 37.4282 159.642 37.0972C158.867 36.774 158.209 36.3199 157.653 35.7503C157.097 35.1808 156.658 34.4958 156.337 33.703C156.016 32.9103 155.852 32.056 155.852 31.1401C155.852 30.0626 156.055 29.0543 156.47 28.1077C156.886 27.161 157.449 26.3374 158.17 25.6371C158.891 24.929 159.729 24.3748 160.684 23.9669C161.647 23.559 162.673 23.3589 163.77 23.3589C164.561 23.3589 165.297 23.4666 165.994 23.6898C166.683 23.913 167.302 24.2132 167.834 24.6057L168.054 23.5436H172.306L169.181 38.1516C168.821 39.8295 168.046 41.1071 166.855 41.9999C165.665 42.8927 164.122 43.3391 162.235 43.3391C161.013 43.3391 159.791 43.1698 158.569 42.8388C157.348 42.5002 156.283 42.0384 155.366 41.4381L157.308 38.2594C158.084 38.752 158.883 39.1291 159.721 39.3985C160.559 39.6602 161.358 39.7987 162.133 39.7987C162.924 39.7987 163.558 39.6217 164.028 39.2676C164.506 38.9136 164.819 38.3825 164.984 37.6821L165.148 36.8894C164.702 37.1203 164.216 37.2973 163.707 37.4205C163.182 37.5282 162.665 37.5898 162.149 37.5898ZM160.042 30.763C160.042 31.7019 160.355 32.4716 160.974 33.095C161.592 33.7107 162.376 34.0186 163.331 34.0186C163.832 34.0186 164.302 33.9493 164.733 33.8031C165.164 33.6646 165.571 33.449 165.947 33.1643L167.028 28.1615C166.652 27.8075 166.19 27.5227 165.657 27.3149C165.125 27.1071 164.545 26.9993 163.934 26.9993C162.853 26.9993 161.945 27.3688 161.185 28.1C160.426 28.8388 160.042 29.7239 160.042 30.763Z" fill="white"/>
<path d="M171.947 37.5361L174.963 23.5361H179.246L178.98 24.7829C179.497 24.2904 180.069 23.9132 180.688 23.6592C181.306 23.4053 181.956 23.2744 182.638 23.2744C183.029 23.2744 183.397 23.3129 183.726 23.3899C184.055 23.4668 184.314 23.5823 184.494 23.7208L183.711 27.4228C183.53 27.2843 183.225 27.1612 182.779 27.0534C182.34 26.9457 181.925 26.8918 181.526 26.8918C180.876 26.8918 180.265 27.0303 179.685 27.3151C179.098 27.5999 178.596 27.9847 178.166 28.4773L176.223 37.5284H171.947V37.5361Z" fill="white"/>
<path d="M188.237 37.6672C186.765 37.6672 185.59 37.3131 184.721 36.6051C183.852 35.897 183.413 34.958 183.413 33.7727C183.413 32.3412 183.953 31.2175 185.026 30.3863C186.107 29.555 187.587 29.1394 189.467 29.1394C190.078 29.1394 190.689 29.1856 191.308 29.2856C191.926 29.3857 192.521 29.5165 193.101 29.6936L193.179 29.2933C193.359 28.4621 193.219 27.8464 192.764 27.4308C192.31 27.0152 191.542 26.8074 190.462 26.8074C189.976 26.8074 189.42 26.8766 188.794 27.0229C188.167 27.1614 187.407 27.3769 186.53 27.6617L185.504 24.483C186.585 24.0982 187.619 23.798 188.613 23.5979C189.608 23.3978 190.548 23.29 191.425 23.29C193.665 23.29 195.325 23.8211 196.39 24.8909C197.456 25.9607 197.792 27.4154 197.401 29.2703L195.639 37.5363H191.409L191.574 36.7667C191.018 37.0822 190.47 37.3131 189.929 37.4517C189.389 37.5902 188.825 37.6672 188.237 37.6672ZM187.454 33.4341C187.454 33.8189 187.658 34.1345 188.073 34.3577C188.488 34.5886 189.052 34.704 189.773 34.704C190.203 34.704 190.618 34.6578 191.01 34.5578C191.402 34.4577 191.785 34.3269 192.138 34.1499L192.545 32.3258C192.13 32.2026 191.691 32.1026 191.229 32.0179C190.759 31.941 190.313 31.9025 189.882 31.9025C189.107 31.9025 188.512 32.0333 188.089 32.3027C187.666 32.5644 187.454 32.9415 187.454 33.4341Z" fill="white"/>
<path d="M198.168 37.5359L201.183 23.5359H205.467L205.248 24.4903C205.788 24.1055 206.352 23.813 206.947 23.6206C207.543 23.4282 208.138 23.3281 208.749 23.3281C209.626 23.3281 210.401 23.5205 211.075 23.8977C211.748 24.2748 212.265 24.7905 212.625 25.4447C213.307 24.7597 214.066 24.2286 214.897 23.8669C215.735 23.5051 216.604 23.3281 217.52 23.3281C218.311 23.3281 219.016 23.4821 219.635 23.7745C220.254 24.0747 220.755 24.4826 221.146 25.006C221.53 25.5293 221.789 26.1451 221.914 26.8685C222.039 27.592 222.016 28.3694 221.836 29.2006L220.034 37.5359H215.75L217.473 29.6008C217.638 28.8235 217.544 28.1923 217.207 27.6921C216.862 27.1995 216.338 26.9532 215.617 26.9532C215.171 26.9532 214.74 27.0532 214.341 27.2457C213.933 27.4381 213.557 27.7305 213.197 28.1154C213.181 28.2924 213.158 28.4694 213.127 28.6541C213.095 28.8388 213.072 29.0236 213.033 29.1929L211.231 37.5282H206.947L208.67 29.5931C208.835 28.8004 208.741 28.1616 208.404 27.6767C208.06 27.1918 207.535 26.9455 206.814 26.9455C206.399 26.9455 206 27.0302 205.616 27.2072C205.232 27.3842 204.856 27.6382 204.496 27.9768L202.452 37.5359H198.168Z" fill="white"/>
</g>
<defs>
<clipPath id="clip0">
<rect width="222" height="56" fill="white"/>
</clipPath>
</defs>
</svg>
