<svg width="127" height="32" viewBox="0 0 127 32" fill="none" xmlns="http://www.w3.org/2000/svg">
<g clip-path="url(#clip0)">
<path d="M0.766688 11.7776L31.1345 0.114061C32.2367 -0.33014 33.415 0.571455 33.2403 1.72813L28.4015 23.9689C28.1282 25.7985 26 26.7133 24.4453 25.6754L14.723 18.7353C13.5536 17.9524 12.2588 17.3675 10.8923 16.9937L0.910059 14.0778C-0.22795 13.7699 -0.322038 12.2218 0.766688 11.7776Z" fill="#4882EB"/>
<path d="M24.9649 8.00438C24.9649 7.84605 24.8619 7.67892 24.7006 7.66133C19.6423 7.17755 16.8734 11.6327 16.8734 11.6327L14.9379 12.1957C14.7721 12.2441 14.6288 12.3364 14.5168 12.464L13.0338 14.1484C12.9307 14.2672 13.0562 14.4431 13.204 14.3859L15.3591 13.5987C15.3367 13.6295 14.4227 14.9577 15.0499 15.9428C15.2336 15.7361 15.4173 15.5294 15.6055 15.3271C15.7533 15.1644 15.8878 14.9884 16.0311 14.8169C16.1745 14.6454 16.3313 14.4959 16.515 14.3727C16.6987 14.2452 16.8914 14.1308 17.1019 14.0341C17.3125 13.9373 17.532 13.8538 17.7919 13.8054L17.8591 13.8757C17.7919 14.1264 17.6889 14.3331 17.5724 14.5354C17.4559 14.7334 17.3259 14.9137 17.1826 15.0808C17.0392 15.2479 16.8734 15.3975 16.6897 15.5206C16.506 15.6437 16.3134 15.7625 16.1387 15.8944C15.9236 16.0572 15.7041 16.2199 15.48 16.3782C16.4075 16.9851 17.7829 16.3518 17.7829 16.3518L16.7121 18.4541C16.6225 18.63 16.8331 18.8059 16.9989 18.6916L19.0061 17.2446C19.1763 17.1215 19.3018 16.95 19.36 16.752L19.8529 15.1072C19.8439 15.1072 24.9515 13.1589 24.9649 8.00438ZM21.6764 11.3645C21.076 11.3469 20.6056 10.8543 20.6235 10.265C20.6414 9.67563 21.1432 9.21384 21.7436 9.23143C22.3439 9.24902 22.8144 9.7416 22.7965 10.3309C22.7785 10.9247 22.2767 11.3865 21.6764 11.3645Z" fill="white"/>
<path d="M14.6515 18.9026C13.6658 19.8042 12.6667 21.0929 12.6667 21.0929C9.43636 25.4997 10.0502 30.9268 10.1801 31.8196C10.1846 31.8592 10.1756 31.8944 10.1577 31.9252C10.1398 31.956 10.1084 31.9824 10.0726 31.9956C9.98296 32.0264 9.88887 31.9824 9.85751 31.89C9.13169 29.6426 9.78134 27.0346 9.95608 26.045C10.077 25.3502 10.1935 24.9279 9.83063 24.8444C9.15409 24.6861 8.85839 26.8939 8.76878 27.5624C8.75534 27.6547 8.69262 27.7251 8.61197 27.7559C8.57613 27.7691 8.54029 27.7735 8.49996 27.7691C8.37003 27.7559 8.27595 27.6459 8.28043 27.5184C8.36555 25.6272 9.59317 22.6322 9.98744 21.713C10.0188 21.6382 10.0188 21.5591 9.99192 21.4887C9.96504 21.4139 9.90231 21.348 9.82167 21.3172C9.66934 21.2556 9.4946 21.3172 9.42292 21.4623L9.00624 22.2979C8.97936 22.3463 8.93904 22.3859 8.88975 22.4035C8.84495 22.4211 8.79119 22.4211 8.7419 22.4035C8.62989 22.3639 8.57165 22.2451 8.61197 22.1352C11.1075 15.2567 14.4409 16.1407 14.4409 16.1407C14.5619 16.1803 14.6694 16.2243 14.768 16.2726C14.7501 16.2902 14.7321 16.3122 14.7187 16.3298C14.4319 16.6685 14.1497 17.0071 13.8764 17.3589L13.9436 17.4293C14.3199 17.1918 14.6873 16.9367 15.0547 16.686C15.1085 16.6509 15.1578 16.6157 15.2115 16.5761C15.8433 17.2094 15.4266 18.1946 14.6515 18.9026Z" fill="#00BEF6"/>
<path d="M36.7568 21.4491L39.0508 10.8631H44.0733C45.0813 10.8631 45.8968 11.149 46.5285 11.7163C47.1602 12.2881 47.4738 13.0226 47.4738 13.9329C47.4738 14.729 47.214 15.4415 46.6943 16.066C46.1745 16.6905 45.5159 17.1259 44.7139 17.3678L46.3627 21.4491H43.6207L42.2184 17.5613H40.1888L39.342 21.4491H36.7568ZM43.6073 13.0885H41.1565L40.6503 15.4459H43.3474C43.7686 15.4459 44.1181 15.3227 44.4003 15.0808C44.6826 14.8389 44.826 14.5355 44.826 14.1748C44.826 13.8406 44.7139 13.5767 44.4944 13.3832C44.2749 13.1853 43.9792 13.0885 43.6073 13.0885Z" fill="#38424F"/>
<path d="M47.5996 17.746C47.5996 17.1391 47.7251 16.5674 47.9715 16.022C48.2179 15.4766 48.5494 15.0061 48.9661 14.6102C49.3828 14.21 49.8711 13.8934 50.4357 13.6559C51.0002 13.4184 51.5961 13.2996 52.2233 13.2996C52.7968 13.2996 53.3389 13.3964 53.8407 13.5943C54.3425 13.7922 54.7771 14.0605 55.1356 14.4035C55.494 14.7466 55.7807 15.1556 55.9913 15.6262C56.2019 16.1012 56.3049 16.6069 56.3049 17.1523C56.3049 17.7592 56.1795 18.331 55.9331 18.8675C55.6867 19.4085 55.3551 19.8791 54.9384 20.2793C54.5218 20.6839 54.0334 21.0006 53.4734 21.238C52.9133 21.4755 52.3219 21.5943 51.6947 21.5943C51.1077 21.5943 50.5656 21.4975 50.0638 21.2996C49.562 21.1017 49.1274 20.8334 48.769 20.4904C48.4106 20.1473 48.1238 19.7383 47.9132 19.2677C47.7027 18.7971 47.5996 18.2914 47.5996 17.746ZM51.8022 19.4832C52.3757 19.4832 52.8685 19.2633 53.2807 18.8235C53.6929 18.3837 53.899 17.8648 53.899 17.2578C53.899 16.7257 53.7287 16.2815 53.3927 15.934C53.0567 15.5866 52.6221 15.4107 52.0979 15.4107C51.5244 15.4107 51.0316 15.6306 50.6194 16.0704C50.2072 16.5102 50.0011 17.0291 50.0011 17.6361C50.0011 18.1726 50.1713 18.6124 50.5074 18.9599C50.8434 19.3073 51.278 19.4832 51.8022 19.4832Z" fill="#38424F"/>
<path d="M61.2778 19.5008C61.5959 19.5008 61.8916 19.4393 62.1649 19.3117C62.4382 19.1842 62.7115 18.9907 62.9893 18.7312L64.2527 20.3189C63.8002 20.7411 63.2984 21.0665 62.7428 21.2864C62.1873 21.5063 61.6138 21.6207 61.0179 21.6207C60.4534 21.6207 59.9292 21.5239 59.4453 21.3348C58.9614 21.1413 58.5448 20.8818 58.1998 20.5476C57.8503 20.2133 57.577 19.8131 57.3754 19.3469C57.1738 18.8763 57.0752 18.3705 57.0752 17.8252C57.0752 17.2007 57.1917 16.6113 57.4291 16.0616C57.6666 15.5118 57.9847 15.0324 58.3924 14.6234C58.8001 14.2144 59.2751 13.8934 59.8261 13.6559C60.3772 13.4184 60.9597 13.2996 61.5735 13.2996C62.2814 13.2996 62.9355 13.4492 63.5359 13.7438C64.1362 14.0429 64.6201 14.4475 64.992 14.9621L63.3298 16.4442C63.1058 16.1012 62.8459 15.8461 62.5502 15.679C62.259 15.5118 61.9229 15.4283 61.5421 15.4283C60.9865 15.4283 60.5116 15.6482 60.1084 16.0924C59.7096 16.5366 59.508 17.0643 59.508 17.6801C59.508 18.2254 59.6738 18.6608 60.0009 18.9951C60.3279 19.3337 60.7536 19.5008 61.2778 19.5008Z" fill="#38424F"/>
<path d="M64.7275 21.4491L67.0215 10.8631L69.5797 10.3354L68.164 16.8664L71.8602 13.4492H74.8352L70.2742 17.4689L73.3387 21.4447H70.3952L67.9131 18.0143L67.1738 21.4447H64.7275V21.4491Z" fill="#38424F"/>
<path d="M80.9778 20.5739C80.4625 20.9478 79.9607 21.216 79.4589 21.3744C78.9616 21.5371 78.406 21.6163 77.7878 21.6163C77.1829 21.6163 76.6229 21.5195 76.1076 21.3304C75.5924 21.1369 75.1533 20.873 74.7814 20.5387C74.4096 20.2001 74.1228 19.7999 73.9123 19.3293C73.7017 18.8587 73.5986 18.3485 73.5986 17.7944C73.5986 17.1874 73.7151 16.6157 73.9526 16.0703C74.19 15.525 74.5081 15.0544 74.9159 14.6498C75.3236 14.2452 75.7985 13.9285 76.3406 13.691C76.8827 13.4535 77.4607 13.3348 78.0655 13.3348C78.6211 13.3348 79.1274 13.4315 79.5889 13.6206C80.0503 13.8142 80.4446 14.078 80.7762 14.4211C81.1032 14.7641 81.3631 15.1732 81.5468 15.6525C81.7305 16.1319 81.8246 16.6553 81.8246 17.2182C81.8246 17.3282 81.8201 17.4557 81.8111 17.5965C81.8022 17.7372 81.7753 17.9659 81.735 18.2782H76.0315C76.1569 18.6828 76.3899 19.0038 76.7304 19.2457C77.0754 19.4876 77.4921 19.6108 77.9849 19.6108C78.303 19.6108 78.6032 19.5624 78.8765 19.4656C79.1543 19.3689 79.3962 19.2325 79.6023 19.0478L80.9778 20.5739ZM77.958 15.3403C77.5593 15.3403 77.2008 15.4546 76.8872 15.6789C76.5736 15.9076 76.3361 16.2067 76.1704 16.5805H79.5261C79.4231 16.2067 79.2304 15.9076 78.9482 15.6789C78.6659 15.4546 78.3388 15.3403 77.958 15.3403Z" fill="#38424F"/>
<path d="M83.3791 18.8807L84.1184 15.4942H82.501L82.9311 13.4536H84.5485L84.9965 11.3953L87.5548 10.8675L86.9858 13.4536H89.217L88.7869 15.4942H86.5557L85.8926 18.5025C85.8209 18.8675 85.8612 19.127 86.0091 19.2897C86.1569 19.4525 86.4392 19.5316 86.8469 19.5316C87.0216 19.5316 87.1874 19.5228 87.3487 19.5008C87.51 19.4788 87.6803 19.4525 87.8639 19.4085L87.4338 21.3744C87.2367 21.414 86.9903 21.4536 86.6856 21.4887C86.381 21.5239 86.1032 21.5415 85.8478 21.5415C84.8711 21.5415 84.1721 21.3084 83.7465 20.8466C83.3164 20.3804 83.1954 19.7251 83.3791 18.8807Z" fill="#38424F"/>
<path d="M92.7608 21.4799C92.2456 21.4799 91.7707 21.3876 91.3271 21.1985C90.8836 21.0137 90.5072 20.7543 90.1891 20.4288C89.871 20.1034 89.6201 19.7119 89.4364 19.2589C89.2527 18.8059 89.1586 18.3178 89.1586 17.7944C89.1586 17.1787 89.2751 16.6025 89.5126 16.0616C89.75 15.5206 90.0726 15.05 90.4848 14.6498C90.897 14.2452 91.3764 13.9285 91.923 13.6954C92.4741 13.4623 93.061 13.348 93.6883 13.348C94.1408 13.348 94.5619 13.4096 94.9607 13.5371C95.355 13.6646 95.7089 13.8362 96.0136 14.0605L96.139 13.4535H98.5719L96.7842 21.801C96.5781 22.7598 96.1346 23.4898 95.4535 24C94.7725 24.5102 93.8899 24.7653 92.8101 24.7653C92.1112 24.7653 91.4123 24.6685 90.7133 24.4794C90.0144 24.2859 89.4051 24.022 88.8809 23.6789L89.992 21.8626C90.4355 22.144 90.8925 22.3595 91.3719 22.5135C91.8513 22.663 92.3083 22.7422 92.7519 22.7422C93.2044 22.7422 93.5673 22.641 93.8361 22.4387C94.1094 22.2364 94.2887 21.9329 94.3827 21.5327L94.4768 21.0797C94.2214 21.2117 93.9437 21.3128 93.6524 21.3832C93.3523 21.4447 93.0565 21.4799 92.7608 21.4799ZM91.5556 17.5789C91.5556 18.1154 91.7348 18.5552 92.0888 18.9115C92.4427 19.2633 92.8908 19.4393 93.4374 19.4393C93.7241 19.4393 93.9929 19.3997 94.2394 19.3161C94.4858 19.2369 94.7188 19.1138 94.9338 18.9511L95.5521 16.0924C95.337 15.89 95.0727 15.7273 94.768 15.6086C94.4634 15.4898 94.1318 15.4283 93.7824 15.4283C93.1641 15.4283 92.6444 15.6394 92.2098 16.0572C91.7752 16.4794 91.5556 16.9852 91.5556 17.5789Z" fill="#38424F"/>
<path d="M98.3662 21.4492L100.091 13.4492H102.542L102.39 14.1616C102.685 13.8802 103.012 13.6647 103.366 13.5195C103.72 13.3744 104.092 13.2996 104.482 13.2996C104.706 13.2996 104.916 13.3216 105.105 13.3656C105.293 13.4096 105.441 13.4755 105.544 13.5547L105.096 15.6702C104.993 15.591 104.818 15.5206 104.563 15.459C104.312 15.3975 104.074 15.3667 103.846 15.3667C103.474 15.3667 103.124 15.4459 102.793 15.6086C102.457 15.7713 102.17 15.9912 101.924 16.2727L100.812 21.4448H98.3662V21.4492Z" fill="#38424F"/>
<path d="M107.686 21.5239C106.843 21.5239 106.171 21.3216 105.674 20.917C105.177 20.5124 104.926 19.9758 104.926 19.2985C104.926 18.4805 105.235 17.8384 105.849 17.3634C106.467 16.8884 107.314 16.6509 108.389 16.6509C108.739 16.6509 109.088 16.6773 109.442 16.7345C109.796 16.7916 110.136 16.8664 110.468 16.9676L110.513 16.7389C110.616 16.2639 110.535 15.912 110.275 15.6745C110.015 15.4371 109.576 15.3183 108.958 15.3183C108.68 15.3183 108.362 15.3579 108.004 15.4415C107.645 15.5206 107.211 15.6438 106.709 15.8065L106.122 13.9901C106.74 13.7702 107.332 13.5987 107.901 13.4843C108.47 13.37 109.007 13.3084 109.509 13.3084C110.791 13.3084 111.74 13.6119 112.35 14.2232C112.959 14.8345 113.152 15.6658 112.928 16.7257L111.92 21.4492H109.5L109.594 21.0094C109.276 21.1897 108.963 21.3216 108.653 21.4008C108.344 21.4799 108.022 21.5239 107.686 21.5239ZM107.238 19.105C107.238 19.3249 107.354 19.5052 107.592 19.6328C107.829 19.7647 108.152 19.8307 108.564 19.8307C108.81 19.8307 109.048 19.8043 109.272 19.7471C109.496 19.6899 109.715 19.6152 109.917 19.514L110.15 18.4717C109.912 18.4013 109.662 18.3442 109.397 18.2958C109.128 18.2518 108.873 18.2298 108.627 18.2298C108.183 18.2298 107.843 18.3046 107.601 18.4585C107.359 18.608 107.238 18.8235 107.238 19.105Z" fill="#38424F"/>
<path d="M113.366 21.4492L115.091 13.4492H117.542L117.416 13.9945C117.726 13.7746 118.048 13.6075 118.389 13.4975C118.729 13.3876 119.07 13.3304 119.419 13.3304C119.921 13.3304 120.365 13.4404 120.75 13.6559C121.135 13.8714 121.431 14.166 121.637 14.5399C122.027 14.1484 122.461 13.845 122.936 13.6383C123.416 13.4316 123.913 13.3304 124.437 13.3304C124.89 13.3304 125.293 13.4184 125.647 13.5855C126.001 13.757 126.288 13.9901 126.512 14.2892C126.731 14.5882 126.879 14.9401 126.951 15.3535C127.022 15.7669 127.009 16.2111 126.906 16.6861L125.875 21.4492H123.425L124.41 16.9148C124.504 16.4706 124.451 16.11 124.258 15.8241C124.061 15.5426 123.761 15.4019 123.348 15.4019C123.093 15.4019 122.847 15.4591 122.618 15.569C122.385 15.679 122.17 15.8461 121.964 16.066C121.955 16.1671 121.942 16.2683 121.924 16.3738C121.906 16.4794 121.892 16.5849 121.87 16.6817L120.839 21.4448H118.389L119.374 16.9104C119.468 16.4574 119.415 16.0924 119.222 15.8153C119.025 15.5382 118.725 15.3975 118.313 15.3975C118.075 15.3975 117.847 15.4459 117.627 15.547C117.407 15.6482 117.192 15.7933 116.986 15.9868L115.817 21.4492H113.366Z" fill="#38424F"/>
</g>
<defs>
<clipPath id="clip0">
<rect width="127" height="32" fill="white"/>
</clipPath>
</defs>
</svg>
