<svg width="544" height="464" viewBox="0 0 544 464" fill="none" xmlns="http://www.w3.org/2000/svg">
<g filter="url(#filter0_d)">
<rect x="16" y="8" width="467.229" height="73.3333" rx="8" fill="white"/>
<rect opacity="0.1" x="16" y="8" width="467.229" height="73.3333" rx="8" fill="#4882EB"/>
</g>
<g filter="url(#filter1_d)">
<rect x="16" y="99.6666" width="467.229" height="73.3333" rx="8" fill="white"/>
</g>
<g filter="url(#filter2_d)">
<rect x="16" y="283" width="467.229" height="73.3333" rx="8" fill="white"/>
</g>
<g filter="url(#filter3_d)">
<rect x="16" y="374.667" width="467.229" height="73.3333" rx="8" fill="white"/>
</g>
<g filter="url(#filter4_d)">
<rect x="16" y="191.333" width="467.229" height="73.3333" rx="8" fill="white"/>
</g>
<path d="M339.649 49.6259C338.995 49.6259 338.443 49.3853 337.993 48.9041C337.543 48.4228 337.318 47.8346 337.318 47.1395C337.318 46.7331 337.393 46.3534 337.543 46.0005C337.693 45.6369 337.892 45.3268 338.138 45.0701C338.395 44.8027 338.695 44.5942 339.038 44.4445C339.392 44.2841 339.767 44.2038 340.163 44.2038C340.452 44.2038 340.726 44.252 340.983 44.3482C341.24 44.4338 341.465 44.5621 341.658 44.7332L341.722 44.4284H343.168L342.477 47.6849C342.413 47.9736 342.445 48.1982 342.574 48.3586C342.702 48.5084 342.906 48.5832 343.184 48.5832C343.688 48.5832 344.101 48.3479 344.422 47.8774C344.743 47.3961 344.904 46.7866 344.904 46.0486C344.904 45.4711 344.792 44.9364 344.567 44.4445C344.352 43.9525 344.047 43.5247 343.651 43.1611C343.265 42.7975 342.804 42.5141 342.268 42.3109C341.733 42.1077 341.154 42.0061 340.533 42.0061C339.858 42.0061 339.225 42.1345 338.636 42.3911C338.047 42.6478 337.538 43.0007 337.109 43.4499C336.692 43.8884 336.359 44.4124 336.113 45.022C335.866 45.6316 335.743 46.2839 335.743 46.9791C335.743 47.6742 335.861 48.3105 336.097 48.888C336.333 49.4655 336.665 49.9628 337.093 50.3799C337.522 50.797 338.031 51.1178 338.62 51.3424C339.22 51.5777 339.874 51.6953 340.581 51.6953C341.074 51.6953 341.54 51.6472 341.979 51.5509C342.429 51.4547 342.847 51.305 343.233 51.1018L343.651 52.0001C343.147 52.2354 342.643 52.4118 342.14 52.5295C341.636 52.6471 341.117 52.7059 340.581 52.7059C339.734 52.7059 338.947 52.5616 338.218 52.2728C337.49 51.9948 336.863 51.6044 336.338 51.1018C335.813 50.6098 335.4 50.0163 335.1 49.3211C334.8 48.626 334.65 47.8774 334.65 47.0753C334.65 46.2197 334.8 45.4284 335.1 44.7011C335.4 43.9632 335.813 43.3269 336.338 42.7922C336.863 42.2575 337.49 41.8404 338.218 41.5409C338.947 41.2308 339.734 41.0757 340.581 41.0757C341.342 41.0757 342.054 41.2041 342.718 41.4607C343.383 41.7067 343.956 42.0489 344.438 42.4874C344.931 42.9259 345.317 43.4445 345.595 44.0434C345.874 44.6423 346.013 45.284 346.013 45.9684C346.013 46.5032 345.938 46.9951 345.788 47.4443C345.638 47.8934 345.429 48.2784 345.161 48.5993C344.893 48.9201 344.572 49.1714 344.197 49.3532C343.822 49.535 343.415 49.6259 342.976 49.6259C342.59 49.6259 342.258 49.5671 341.979 49.4495C341.701 49.3318 341.486 49.1714 341.336 48.9682C341.09 49.1714 340.822 49.3318 340.533 49.4495C340.243 49.5671 339.949 49.6259 339.649 49.6259ZM338.7 47.0272C338.7 47.4443 338.818 47.7865 339.054 48.0538C339.3 48.3105 339.611 48.4388 339.986 48.4388C340.179 48.4388 340.367 48.4068 340.549 48.3426C340.731 48.2677 340.897 48.1608 341.047 48.0218C341.047 47.9576 341.052 47.8827 341.063 47.7972C341.074 47.7009 341.09 47.5993 341.111 47.4924L341.401 46.0166C341.272 45.8241 341.106 45.6797 340.902 45.5834C340.699 45.4765 340.463 45.423 340.195 45.423C339.799 45.423 339.45 45.5834 339.15 45.9043C338.85 46.2144 338.7 46.5887 338.7 47.0272Z" fill="#4882EB"/>
<path d="M347.14 46.2251C347.14 45.6155 347.252 45.0487 347.477 44.5247C347.713 43.99 348.029 43.5301 348.425 43.1451C348.832 42.7494 349.309 42.4393 349.856 42.2147C350.402 41.9901 350.986 41.8778 351.607 41.8778C352.229 41.8778 352.813 41.9901 353.359 42.2147C353.906 42.4393 354.377 42.7494 354.774 43.1451C355.181 43.5301 355.497 43.99 355.722 44.5247C355.958 45.0487 356.075 45.6155 356.075 46.2251C356.075 46.8347 355.958 47.4068 355.722 47.9416C355.497 48.4656 355.181 48.9201 354.774 49.3051C354.377 49.6901 353.906 49.9949 353.359 50.2195C352.813 50.4441 352.229 50.5563 351.607 50.5563C350.986 50.5563 350.402 50.4441 349.856 50.2195C349.309 49.9949 348.832 49.6901 348.425 49.3051C348.029 48.9201 347.713 48.4656 347.477 47.9416C347.252 47.4068 347.14 46.8347 347.14 46.2251ZM351.607 48.6474C352.25 48.6474 352.797 48.4121 353.247 47.9416C353.697 47.471 353.922 46.8988 353.922 46.2251C353.922 45.5407 353.697 44.9632 353.247 44.4926C352.797 44.022 352.25 43.7868 351.607 43.7868C350.965 43.7868 350.418 44.022 349.968 44.4926C349.518 44.9632 349.293 45.5407 349.293 46.2251C349.293 46.8988 349.518 47.471 349.968 47.9416C350.418 48.4121 350.965 48.6474 351.607 48.6474Z" fill="#4882EB"/>
<path d="M357.429 50.3959V42.0382H359.631V42.9526C359.899 42.589 360.22 42.3163 360.595 42.1345C360.981 41.942 361.404 41.8457 361.865 41.8457C362.079 41.8564 362.256 41.8778 362.395 41.9099C362.545 41.9313 362.674 41.9741 362.781 42.0382V43.9632C362.62 43.8884 362.443 43.8349 362.25 43.8028C362.057 43.76 361.859 43.7386 361.656 43.7386C361.227 43.7386 360.831 43.8456 360.466 44.0595C360.113 44.2734 359.834 44.5835 359.631 44.9899V50.3959H357.429Z" fill="#4882EB"/>
<path d="M367.423 50.4441C366.834 50.4441 366.276 50.3318 365.751 50.1072C365.237 49.8826 364.787 49.5778 364.401 49.1928C364.026 48.8078 363.726 48.3586 363.501 47.8453C363.287 47.3213 363.18 46.7598 363.18 46.1609C363.18 45.5727 363.292 45.022 363.517 44.5086C363.742 43.9846 364.048 43.5301 364.433 43.1451C364.819 42.7601 365.275 42.4607 365.8 42.2468C366.325 42.0222 366.887 41.9099 367.487 41.9099C367.905 41.9099 368.301 41.9687 368.676 42.0863C369.062 42.204 369.421 42.3697 369.753 42.5836V42.0382H371.923V50.3959C371.923 51.4975 371.564 52.3477 370.846 52.9466C370.139 53.5454 369.116 53.8449 367.776 53.8449C367.134 53.8449 366.512 53.7807 365.912 53.6524C365.323 53.5241 364.782 53.3369 364.289 53.0909L365.06 51.3745C365.521 51.5991 365.971 51.7648 366.41 51.8718C366.85 51.9894 367.289 52.0482 367.728 52.0482C368.382 52.0482 368.875 51.9038 369.207 51.6151C369.55 51.337 369.721 50.9253 369.721 50.3799V49.6901C369.389 49.9361 369.025 50.1232 368.628 50.2516C368.242 50.3799 367.841 50.4441 367.423 50.4441ZM365.35 46.1609C365.35 46.8347 365.58 47.4068 366.041 47.8774C366.512 48.3479 367.085 48.5832 367.76 48.5832C368.157 48.5832 368.521 48.5191 368.853 48.3907C369.185 48.2517 369.475 48.0645 369.721 47.8293V44.5407C369.485 44.3054 369.196 44.1236 368.853 43.9953C368.51 43.8563 368.151 43.7868 367.776 43.7868C367.101 43.7868 366.528 44.0167 366.057 44.4766C365.585 44.9364 365.35 45.4979 365.35 46.1609Z" fill="#4882EB"/>
<path d="M376.309 50.5403C375.409 50.5403 374.675 50.305 374.108 49.8345C373.54 49.3532 373.256 48.7329 373.256 47.9736C373.256 47.1823 373.561 46.562 374.172 46.1128C374.783 45.6636 375.624 45.4391 376.695 45.4391C377.038 45.4391 377.381 45.4658 377.724 45.5193C378.067 45.5727 378.404 45.6529 378.736 45.7599V45.1663C378.736 44.6851 378.586 44.3215 378.286 44.0755C377.986 43.8295 377.547 43.7066 376.968 43.7066C376.615 43.7066 376.229 43.7654 375.811 43.883C375.404 43.99 374.938 44.1611 374.413 44.3963L373.609 42.7761C374.263 42.4767 374.895 42.2521 375.506 42.1024C376.127 41.9527 376.738 41.8778 377.338 41.8778C378.463 41.8778 379.336 42.1505 379.958 42.6959C380.59 43.2307 380.906 43.99 380.906 44.9738V50.3959H378.736V49.8184C378.383 50.0644 378.008 50.2462 377.611 50.3638C377.225 50.4815 376.792 50.5403 376.309 50.5403ZM375.361 47.9255C375.361 48.2463 375.5 48.503 375.779 48.6955C376.058 48.8773 376.427 48.9682 376.888 48.9682C377.252 48.9682 377.584 48.9254 377.884 48.8399C378.195 48.7436 378.479 48.61 378.736 48.4388V47.1876C378.468 47.0807 378.184 47.0058 377.884 46.963C377.595 46.9095 377.29 46.8828 376.968 46.8828C376.465 46.8828 376.068 46.9791 375.779 47.1716C375.5 47.3534 375.361 47.6047 375.361 47.9255Z" fill="#4882EB"/>
<path d="M382.572 50.3959V42.0382H384.774V42.6959C385.096 42.4286 385.449 42.2254 385.835 42.0863C386.231 41.9473 386.66 41.8778 387.121 41.8778C388.085 41.8778 388.878 42.1879 389.499 42.8082C390.121 43.4285 390.431 44.2252 390.431 45.1984V50.3959H388.23V45.5193C388.23 44.9952 388.069 44.5728 387.747 44.252C387.437 43.9311 387.019 43.7707 386.494 43.7707C386.13 43.7707 385.797 43.8456 385.497 43.9953C385.208 44.1343 384.967 44.3375 384.774 44.6049V50.3959H382.572Z" fill="#4882EB"/>
<path d="M393.192 41.0436C392.849 41.0436 392.555 40.9207 392.308 40.6747C392.062 40.4287 391.938 40.1346 391.938 39.7924C391.938 39.4502 392.062 39.1561 392.308 38.9101C392.555 38.6641 392.849 38.5411 393.192 38.5411C393.535 38.5411 393.83 38.6641 394.076 38.9101C394.322 39.1561 394.446 39.4502 394.446 39.7924C394.446 40.1346 394.322 40.4287 394.076 40.6747C393.83 40.9207 393.535 41.0436 393.192 41.0436ZM394.301 42.0382V50.3959H392.099V42.0382H394.301Z" fill="#4882EB"/>
<path d="M395.589 50.3959V48.8399L399.8 43.883H395.621V42.0382H402.628V43.5943L398.386 48.5511H402.725V50.3959H395.589Z" fill="#4882EB"/>
<path d="M411.298 49.3532C410.783 49.7703 410.253 50.0751 409.706 50.2676C409.171 50.4601 408.571 50.5563 407.906 50.5563C407.274 50.5563 406.68 50.4441 406.122 50.2195C405.576 49.9949 405.099 49.6901 404.692 49.3051C404.296 48.9201 403.98 48.4656 403.744 47.9416C403.519 47.4068 403.406 46.8347 403.406 46.2251C403.406 45.6262 403.513 45.0647 403.728 44.5407C403.953 44.006 404.258 43.5461 404.644 43.1611C405.03 42.7654 405.485 42.4553 406.01 42.2307C406.546 42.0061 407.114 41.8938 407.714 41.8938C408.303 41.8938 408.849 42.0115 409.353 42.2468C409.867 42.4713 410.306 42.7815 410.671 43.1772C411.046 43.5729 411.335 44.0488 411.539 44.6049C411.753 45.1503 411.86 45.7438 411.86 46.3855V46.963H405.624C405.774 47.487 406.064 47.9095 406.492 48.2303C406.921 48.5511 407.424 48.7116 408.003 48.7116C408.367 48.7116 408.71 48.6527 409.031 48.5351C409.353 48.4175 409.626 48.2517 409.851 48.0378L411.298 49.3532ZM407.665 43.7066C407.162 43.7066 406.728 43.8616 406.364 44.1718C405.999 44.4712 405.747 44.8776 405.608 45.3909H409.706C409.567 44.899 409.31 44.4979 408.935 44.1878C408.571 43.867 408.147 43.7066 407.665 43.7066Z" fill="#4882EB"/>
<path d="M413.209 50.3959V42.0382H415.411V42.9526C415.679 42.589 416 42.3163 416.375 42.1345C416.761 41.942 417.184 41.8457 417.645 41.8457C417.859 41.8564 418.036 41.8778 418.175 41.9099C418.325 41.9313 418.454 41.9741 418.561 42.0382V43.9632C418.4 43.8884 418.223 43.8349 418.031 43.8028C417.838 43.76 417.64 43.7386 417.436 43.7386C417.007 43.7386 416.611 43.8456 416.247 44.0595C415.893 44.2734 415.614 44.5835 415.411 44.9899V50.3959H413.209Z" fill="#4882EB"/>
<path d="M426.842 51.6793V53.2193H418.87V51.6793H426.842Z" fill="#4882EB"/>
<path d="M436.503 46.2251C436.503 46.824 436.39 47.3854 436.165 47.9095C435.94 48.4335 435.635 48.888 435.249 49.273C434.864 49.658 434.403 49.9628 433.867 50.1874C433.342 50.4013 432.78 50.5082 432.18 50.5082C431.762 50.5082 431.355 50.4494 430.958 50.3318C430.562 50.2141 430.197 50.0484 429.865 49.8345V50.3959H427.696V39.1668L429.897 38.6855V42.6959C430.23 42.45 430.594 42.2628 430.99 42.1345C431.397 41.9954 431.815 41.9259 432.244 41.9259C432.833 41.9259 433.385 42.0382 433.899 42.2628C434.424 42.4874 434.88 42.7922 435.265 43.1772C435.651 43.5622 435.951 44.0167 436.165 44.5407C436.39 45.0647 436.503 45.6262 436.503 46.2251ZM431.89 43.8028C431.494 43.8028 431.124 43.8723 430.781 44.0113C430.439 44.1397 430.144 44.3322 429.897 44.5888V47.8774C430.133 48.1127 430.422 48.2998 430.765 48.4388C431.119 48.5779 431.494 48.6474 431.89 48.6474C432.576 48.6474 433.155 48.4175 433.626 47.9576C434.098 47.487 434.333 46.9095 434.333 46.2251C434.333 45.5407 434.092 44.9685 433.61 44.5086C433.139 44.0381 432.565 43.8028 431.89 43.8028Z" fill="#4882EB"/>
<path d="M437.527 46.2251C437.527 45.6155 437.64 45.0487 437.865 44.5247C438.101 43.99 438.417 43.5301 438.813 43.1451C439.22 42.7494 439.697 42.4393 440.244 42.2147C440.79 41.9901 441.374 41.8778 441.995 41.8778C442.617 41.8778 443.201 41.9901 443.747 42.2147C444.294 42.4393 444.765 42.7494 445.161 43.1451C445.569 43.5301 445.885 43.99 446.11 44.5247C446.345 45.0487 446.463 45.6155 446.463 46.2251C446.463 46.8347 446.345 47.4068 446.11 47.9416C445.885 48.4656 445.569 48.9201 445.161 49.3051C444.765 49.6901 444.294 49.9949 443.747 50.2195C443.201 50.4441 442.617 50.5563 441.995 50.5563C441.374 50.5563 440.79 50.4441 440.244 50.2195C439.697 49.9949 439.22 49.6901 438.813 49.3051C438.417 48.9201 438.101 48.4656 437.865 47.9416C437.64 47.4068 437.527 46.8347 437.527 46.2251ZM441.995 48.6474C442.638 48.6474 443.185 48.4121 443.635 47.9416C444.085 47.471 444.31 46.8988 444.31 46.2251C444.31 45.5407 444.085 44.9632 443.635 44.4926C443.185 44.022 442.638 43.7868 441.995 43.7868C441.352 43.7868 440.806 44.022 440.356 44.4926C439.906 44.9632 439.681 45.5407 439.681 46.2251C439.681 46.8988 439.906 47.471 440.356 47.9416C440.806 48.4121 441.352 48.6474 441.995 48.6474Z" fill="#4882EB"/>
<path d="M448.55 48.0378V43.883H446.83V42.0382H448.55V39.9047L450.752 39.4074V42.0382H453.13V43.883H450.752V47.5886C450.752 47.9843 450.837 48.2624 451.009 48.4228C451.18 48.5832 451.48 48.6634 451.909 48.6634C452.112 48.6634 452.305 48.6527 452.487 48.6313C452.669 48.5993 452.868 48.5458 453.082 48.4709V50.2676C452.846 50.3425 452.562 50.4013 452.23 50.4441C451.898 50.4975 451.614 50.5243 451.378 50.5243C450.446 50.5243 449.739 50.3157 449.257 49.8986C448.785 49.4709 448.55 48.8506 448.55 48.0378Z" fill="#4882EB"/>
<path d="M339.649 141.292C338.995 141.292 338.443 141.052 337.993 140.571C337.543 140.089 337.318 139.501 337.318 138.806C337.318 138.4 337.393 138.02 337.543 137.667C337.693 137.303 337.892 136.993 338.138 136.737C338.395 136.469 338.695 136.261 339.038 136.111C339.392 135.951 339.767 135.87 340.163 135.87C340.452 135.87 340.726 135.919 340.983 136.015C341.24 136.1 341.465 136.229 341.658 136.4L341.722 136.095H343.168L342.477 139.351C342.413 139.64 342.445 139.865 342.574 140.025C342.702 140.175 342.906 140.25 343.184 140.25C343.688 140.25 344.101 140.014 344.422 139.544C344.743 139.063 344.904 138.453 344.904 137.715C344.904 137.138 344.792 136.603 344.567 136.111C344.352 135.619 344.047 135.191 343.651 134.828C343.265 134.464 342.804 134.181 342.268 133.977C341.733 133.774 341.154 133.673 340.533 133.673C339.858 133.673 339.225 133.801 338.636 134.058C338.047 134.314 337.538 134.667 337.109 135.116C336.692 135.555 336.359 136.079 336.113 136.689C335.866 137.298 335.743 137.95 335.743 138.646C335.743 139.341 335.861 139.977 336.097 140.555C336.333 141.132 336.665 141.629 337.093 142.046C337.522 142.464 338.031 142.784 338.62 143.009C339.22 143.244 339.874 143.362 340.581 143.362C341.074 143.362 341.54 143.314 341.979 143.217C342.429 143.121 342.847 142.971 343.233 142.768L343.651 143.667C343.147 143.902 342.643 144.078 342.14 144.196C341.636 144.314 341.117 144.372 340.581 144.372C339.734 144.372 338.947 144.228 338.218 143.939C337.49 143.661 336.863 143.271 336.338 142.768C335.813 142.276 335.4 141.683 335.1 140.988C334.8 140.293 334.65 139.544 334.65 138.742C334.65 137.886 334.8 137.095 335.1 136.368C335.4 135.63 335.813 134.993 336.338 134.459C336.863 133.924 337.49 133.507 338.218 133.207C338.947 132.897 339.734 132.742 340.581 132.742C341.342 132.742 342.054 132.871 342.718 133.127C343.383 133.373 343.956 133.715 344.438 134.154C344.931 134.592 345.317 135.111 345.595 135.71C345.874 136.309 346.013 136.951 346.013 137.635C346.013 138.17 345.938 138.662 345.788 139.111C345.638 139.56 345.429 139.945 345.161 140.266C344.893 140.587 344.572 140.838 344.197 141.02C343.822 141.202 343.415 141.292 342.976 141.292C342.59 141.292 342.258 141.234 341.979 141.116C341.701 140.998 341.486 140.838 341.336 140.635C341.09 140.838 340.822 140.998 340.533 141.116C340.243 141.234 339.949 141.292 339.649 141.292ZM338.7 138.694C338.7 139.111 338.818 139.453 339.054 139.72C339.3 139.977 339.611 140.105 339.986 140.105C340.179 140.105 340.367 140.073 340.549 140.009C340.731 139.934 340.897 139.827 341.047 139.688C341.047 139.624 341.052 139.549 341.063 139.464C341.074 139.367 341.09 139.266 341.111 139.159L341.401 137.683C341.272 137.491 341.106 137.346 340.902 137.25C340.699 137.143 340.463 137.09 340.195 137.09C339.799 137.09 339.45 137.25 339.15 137.571C338.85 137.881 338.7 138.255 338.7 138.694Z" fill="#4882EB"/>
<path d="M348.635 139.704V135.55H346.915V133.705H348.635V131.571L350.837 131.074V133.705H353.215V135.55H350.837V139.255C350.837 139.651 350.922 139.929 351.094 140.089C351.265 140.25 351.565 140.33 351.994 140.33C352.198 140.33 352.39 140.319 352.573 140.298C352.755 140.266 352.953 140.212 353.167 140.137V141.934C352.931 142.009 352.648 142.068 352.315 142.111C351.983 142.164 351.699 142.191 351.464 142.191C350.531 142.191 349.824 141.982 349.342 141.565C348.871 141.137 348.635 140.517 348.635 139.704Z" fill="#4882EB"/>
<path d="M356.957 142.207C356.057 142.207 355.323 141.972 354.756 141.501C354.188 141.02 353.904 140.399 353.904 139.64C353.904 138.849 354.209 138.229 354.82 137.779C355.431 137.33 356.272 137.106 357.343 137.106C357.686 137.106 358.029 137.132 358.372 137.186C358.715 137.239 359.052 137.319 359.384 137.426V136.833C359.384 136.352 359.234 135.988 358.934 135.742C358.634 135.496 358.195 135.373 357.616 135.373C357.263 135.373 356.877 135.432 356.459 135.55C356.052 135.656 355.586 135.828 355.061 136.063L354.257 134.443C354.911 134.143 355.543 133.919 356.154 133.769C356.775 133.619 357.386 133.544 357.986 133.544C359.111 133.544 359.984 133.817 360.606 134.362C361.238 134.897 361.554 135.656 361.554 136.64V142.062H359.384V141.485C359.031 141.731 358.656 141.913 358.259 142.03C357.873 142.148 357.439 142.207 356.957 142.207ZM356.009 139.592C356.009 139.913 356.148 140.17 356.427 140.362C356.706 140.544 357.075 140.635 357.536 140.635C357.9 140.635 358.232 140.592 358.532 140.506C358.843 140.41 359.127 140.276 359.384 140.105V138.854C359.116 138.747 358.832 138.672 358.532 138.63C358.243 138.576 357.938 138.549 357.616 138.549C357.113 138.549 356.716 138.646 356.427 138.838C356.148 139.02 356.009 139.271 356.009 139.592Z" fill="#4882EB"/>
<path d="M363.22 142.062V133.705H365.422V134.619C365.69 134.256 366.011 133.983 366.386 133.801C366.772 133.609 367.195 133.512 367.656 133.512C367.87 133.523 368.047 133.544 368.186 133.576C368.336 133.598 368.465 133.641 368.572 133.705V135.63C368.411 135.555 368.235 135.501 368.042 135.469C367.849 135.427 367.651 135.405 367.447 135.405C367.019 135.405 366.622 135.512 366.258 135.726C365.904 135.94 365.626 136.25 365.422 136.656V142.062H363.22Z" fill="#4882EB"/>
<path d="M373.214 142.111C372.625 142.111 372.068 141.998 371.543 141.774C371.029 141.549 370.579 141.244 370.193 140.859C369.818 140.474 369.518 140.025 369.293 139.512C369.078 138.988 368.971 138.426 368.971 137.827C368.971 137.239 369.084 136.689 369.309 136.175C369.534 135.651 369.839 135.197 370.225 134.812C370.611 134.427 371.066 134.127 371.591 133.913C372.116 133.689 372.679 133.576 373.279 133.576C373.696 133.576 374.093 133.635 374.468 133.753C374.854 133.871 375.213 134.036 375.545 134.25V133.705H377.714V142.062C377.714 143.164 377.355 144.014 376.638 144.613C375.93 145.212 374.907 145.511 373.568 145.511C372.925 145.511 372.304 145.447 371.704 145.319C371.114 145.191 370.573 145.003 370.08 144.757L370.852 143.041C371.312 143.266 371.762 143.431 372.202 143.538C372.641 143.656 373.08 143.715 373.52 143.715C374.173 143.715 374.666 143.57 374.998 143.282C375.341 143.004 375.513 142.592 375.513 142.046V141.357C375.18 141.603 374.816 141.79 374.42 141.918C374.034 142.046 373.632 142.111 373.214 142.111ZM371.141 137.827C371.141 138.501 371.371 139.073 371.832 139.544C372.304 140.014 372.877 140.25 373.552 140.25C373.948 140.25 374.313 140.186 374.645 140.057C374.977 139.918 375.266 139.731 375.513 139.496V136.207C375.277 135.972 374.988 135.79 374.645 135.662C374.302 135.523 373.943 135.453 373.568 135.453C372.893 135.453 372.32 135.683 371.848 136.143C371.377 136.603 371.141 137.164 371.141 137.827Z" fill="#4882EB"/>
<path d="M386.954 141.02C386.44 141.437 385.91 141.742 385.363 141.934C384.828 142.127 384.228 142.223 383.563 142.223C382.931 142.223 382.337 142.111 381.779 141.886C381.233 141.661 380.756 141.357 380.349 140.972C379.953 140.587 379.636 140.132 379.401 139.608C379.176 139.073 379.063 138.501 379.063 137.892C379.063 137.293 379.17 136.731 379.385 136.207C379.61 135.673 379.915 135.213 380.301 134.828C380.687 134.432 381.142 134.122 381.667 133.897C382.203 133.673 382.77 133.56 383.37 133.56C383.96 133.56 384.506 133.678 385.01 133.913C385.524 134.138 385.963 134.448 386.328 134.844C386.703 135.239 386.992 135.715 387.196 136.271C387.41 136.817 387.517 137.41 387.517 138.052V138.63H381.281C381.431 139.154 381.72 139.576 382.149 139.897C382.578 140.218 383.081 140.378 383.66 140.378C384.024 140.378 384.367 140.319 384.688 140.202C385.01 140.084 385.283 139.918 385.508 139.704L386.954 141.02ZM383.322 135.373C382.819 135.373 382.385 135.528 382.02 135.838C381.656 136.138 381.404 136.544 381.265 137.057H385.363C385.224 136.566 384.967 136.164 384.592 135.854C384.228 135.534 383.804 135.373 383.322 135.373Z" fill="#4882EB"/>
<path d="M389.693 139.704V135.55H387.974V133.705H389.693V131.571L391.895 131.074V133.705H394.274V135.55H391.895V139.255C391.895 139.651 391.981 139.929 392.152 140.089C392.324 140.25 392.624 140.33 393.052 140.33C393.256 140.33 393.449 140.319 393.631 140.298C393.813 140.266 394.011 140.212 394.225 140.137V141.934C393.99 142.009 393.706 142.068 393.374 142.111C393.042 142.164 392.758 142.191 392.522 142.191C391.59 142.191 390.883 141.982 390.4 141.565C389.929 141.137 389.693 140.517 389.693 139.704Z" fill="#4882EB"/>
<path d="M402.451 143.346V144.886H394.48V143.346H402.451Z" fill="#4882EB"/>
<path d="M412.113 137.892C412.113 138.491 412 139.052 411.775 139.576C411.55 140.1 411.245 140.555 410.859 140.94C410.473 141.325 410.013 141.629 409.477 141.854C408.952 142.068 408.39 142.175 407.79 142.175C407.372 142.175 406.964 142.116 406.568 141.998C406.172 141.881 405.807 141.715 405.475 141.501V142.062H403.305V130.833L405.507 130.352V134.362C405.839 134.116 406.204 133.929 406.6 133.801C407.007 133.662 407.425 133.592 407.854 133.592C408.443 133.592 408.995 133.705 409.509 133.929C410.034 134.154 410.49 134.459 410.875 134.844C411.261 135.229 411.561 135.683 411.775 136.207C412 136.731 412.113 137.293 412.113 137.892ZM407.5 135.469C407.104 135.469 406.734 135.539 406.391 135.678C406.048 135.806 405.754 135.999 405.507 136.255V139.544C405.743 139.779 406.032 139.966 406.375 140.105C406.729 140.244 407.104 140.314 407.5 140.314C408.186 140.314 408.765 140.084 409.236 139.624C409.707 139.154 409.943 138.576 409.943 137.892C409.943 137.207 409.702 136.635 409.22 136.175C408.748 135.705 408.175 135.469 407.5 135.469Z" fill="#4882EB"/>
<path d="M413.137 137.892C413.137 137.282 413.25 136.715 413.475 136.191C413.71 135.656 414.027 135.197 414.423 134.812C414.83 134.416 415.307 134.106 415.853 133.881C416.4 133.657 416.984 133.544 417.605 133.544C418.227 133.544 418.811 133.657 419.357 133.881C419.903 134.106 420.375 134.416 420.771 134.812C421.178 135.197 421.495 135.656 421.72 136.191C421.955 136.715 422.073 137.282 422.073 137.892C422.073 138.501 421.955 139.073 421.72 139.608C421.495 140.132 421.178 140.587 420.771 140.972C420.375 141.357 419.903 141.661 419.357 141.886C418.811 142.111 418.227 142.223 417.605 142.223C416.984 142.223 416.4 142.111 415.853 141.886C415.307 141.661 414.83 141.357 414.423 140.972C414.027 140.587 413.71 140.132 413.475 139.608C413.25 139.073 413.137 138.501 413.137 137.892ZM417.605 140.314C418.248 140.314 418.795 140.079 419.245 139.608C419.695 139.138 419.92 138.565 419.92 137.892C419.92 137.207 419.695 136.63 419.245 136.159C418.795 135.689 418.248 135.453 417.605 135.453C416.962 135.453 416.416 135.689 415.966 136.159C415.516 136.63 415.291 137.207 415.291 137.892C415.291 138.565 415.516 139.138 415.966 139.608C416.416 140.079 416.962 140.314 417.605 140.314Z" fill="#4882EB"/>
<path d="M424.16 139.704V135.55H422.44V133.705H424.16V131.571L426.361 131.074V133.705H428.74V135.55H426.361V139.255C426.361 139.651 426.447 139.929 426.619 140.089C426.79 140.25 427.09 140.33 427.519 140.33C427.722 140.33 427.915 140.319 428.097 140.298C428.279 140.266 428.478 140.212 428.692 140.137V141.934C428.456 142.009 428.172 142.068 427.84 142.111C427.508 142.164 427.224 142.191 426.988 142.191C426.056 142.191 425.349 141.982 424.867 141.565C424.395 141.137 424.16 140.517 424.16 139.704Z" fill="#4882EB"/>
<path d="M339.649 324.626C338.995 324.626 338.443 324.385 337.993 323.904C337.543 323.423 337.318 322.835 337.318 322.139C337.318 321.733 337.393 321.353 337.543 321C337.693 320.637 337.892 320.327 338.138 320.07C338.395 319.803 338.695 319.594 339.038 319.444C339.392 319.284 339.767 319.204 340.163 319.204C340.452 319.204 340.726 319.252 340.983 319.348C341.24 319.434 341.465 319.562 341.658 319.733L341.722 319.428H343.168L342.477 322.685C342.413 322.974 342.445 323.198 342.574 323.359C342.702 323.508 342.906 323.583 343.184 323.583C343.688 323.583 344.101 323.348 344.422 322.877C344.743 322.396 344.904 321.786 344.904 321.049C344.904 320.471 344.792 319.936 344.567 319.444C344.352 318.952 344.047 318.525 343.651 318.161C343.265 317.797 342.804 317.514 342.268 317.311C341.733 317.108 341.154 317.006 340.533 317.006C339.858 317.006 339.225 317.134 338.636 317.391C338.047 317.648 337.538 318.001 337.109 318.45C336.692 318.888 336.359 319.412 336.113 320.022C335.866 320.631 335.743 321.284 335.743 321.979C335.743 322.674 335.861 323.31 336.097 323.888C336.333 324.465 336.665 324.963 337.093 325.38C337.522 325.797 338.031 326.118 338.62 326.342C339.22 326.578 339.874 326.695 340.581 326.695C341.074 326.695 341.54 326.647 341.979 326.551C342.429 326.455 342.847 326.305 343.233 326.102L343.651 327C343.147 327.235 342.643 327.412 342.14 327.529C341.636 327.647 341.117 327.706 340.581 327.706C339.734 327.706 338.947 327.561 338.218 327.273C337.49 326.995 336.863 326.604 336.338 326.102C335.813 325.61 335.4 325.016 335.1 324.321C334.8 323.626 334.65 322.877 334.65 322.075C334.65 321.22 334.8 320.428 335.1 319.701C335.4 318.963 335.813 318.327 336.338 317.792C336.863 317.257 337.49 316.84 338.218 316.541C338.947 316.231 339.734 316.076 340.581 316.076C341.342 316.076 342.054 316.204 342.718 316.461C343.383 316.707 343.956 317.049 344.438 317.487C344.931 317.926 345.317 318.444 345.595 319.043C345.874 319.642 346.013 320.284 346.013 320.968C346.013 321.503 345.938 321.995 345.788 322.444C345.638 322.893 345.429 323.278 345.161 323.599C344.893 323.92 344.572 324.171 344.197 324.353C343.822 324.535 343.415 324.626 342.976 324.626C342.59 324.626 342.258 324.567 341.979 324.449C341.701 324.332 341.486 324.171 341.336 323.968C341.09 324.171 340.822 324.332 340.533 324.449C340.243 324.567 339.949 324.626 339.649 324.626ZM338.7 322.027C338.7 322.444 338.818 322.786 339.054 323.054C339.3 323.31 339.611 323.439 339.986 323.439C340.179 323.439 340.367 323.407 340.549 323.343C340.731 323.268 340.897 323.161 341.047 323.022C341.047 322.958 341.052 322.883 341.063 322.797C341.074 322.701 341.09 322.599 341.111 322.492L341.401 321.016C341.272 320.824 341.106 320.68 340.902 320.583C340.699 320.476 340.463 320.423 340.195 320.423C339.799 320.423 339.45 320.583 339.15 320.904C338.85 321.214 338.7 321.589 338.7 322.027Z" fill="#4882EB"/>
<path d="M348.635 323.038V318.883H346.915V317.038H348.635V314.905L350.837 314.407V317.038H353.215V318.883H350.837V322.589C350.837 322.984 350.922 323.262 351.094 323.423C351.265 323.583 351.565 323.663 351.994 323.663C352.198 323.663 352.39 323.653 352.573 323.631C352.755 323.599 352.953 323.546 353.167 323.471V325.267C352.931 325.342 352.648 325.401 352.315 325.444C351.983 325.497 351.699 325.524 351.464 325.524C350.531 325.524 349.824 325.316 349.342 324.899C348.871 324.471 348.635 323.85 348.635 323.038Z" fill="#4882EB"/>
<path d="M356.957 325.54C356.057 325.54 355.323 325.305 354.756 324.834C354.188 324.353 353.904 323.733 353.904 322.974C353.904 322.182 354.209 321.562 354.82 321.113C355.431 320.664 356.272 320.439 357.343 320.439C357.686 320.439 358.029 320.466 358.372 320.519C358.715 320.573 359.052 320.653 359.384 320.76V320.166C359.384 319.685 359.234 319.321 358.934 319.075C358.634 318.829 358.195 318.706 357.616 318.706C357.263 318.706 356.877 318.765 356.459 318.883C356.052 318.99 355.586 319.161 355.061 319.396L354.257 317.776C354.911 317.477 355.543 317.252 356.154 317.102C356.775 316.953 357.386 316.878 357.986 316.878C359.111 316.878 359.984 317.15 360.606 317.696C361.238 318.231 361.554 318.99 361.554 319.974V325.396H359.384V324.818C359.031 325.064 358.656 325.246 358.259 325.364C357.873 325.481 357.439 325.54 356.957 325.54ZM356.009 322.925C356.009 323.246 356.148 323.503 356.427 323.695C356.706 323.877 357.075 323.968 357.536 323.968C357.9 323.968 358.232 323.925 358.532 323.84C358.843 323.744 359.127 323.61 359.384 323.439V322.188C359.116 322.081 358.832 322.006 358.532 321.963C358.243 321.909 357.938 321.883 357.616 321.883C357.113 321.883 356.716 321.979 356.427 322.171C356.148 322.353 356.009 322.605 356.009 322.925Z" fill="#4882EB"/>
<path d="M363.22 325.396V317.038H365.422V317.953C365.69 317.589 366.011 317.316 366.386 317.134C366.772 316.942 367.195 316.846 367.656 316.846C367.87 316.856 368.047 316.878 368.186 316.91C368.336 316.931 368.465 316.974 368.572 317.038V318.963C368.411 318.888 368.235 318.835 368.042 318.803C367.849 318.76 367.651 318.739 367.447 318.739C367.019 318.739 366.622 318.845 366.258 319.059C365.904 319.273 365.626 319.583 365.422 319.99V325.396H363.22Z" fill="#4882EB"/>
<path d="M373.214 325.444C372.625 325.444 372.068 325.332 371.543 325.107C371.029 324.882 370.579 324.578 370.193 324.193C369.818 323.808 369.518 323.359 369.293 322.845C369.078 322.321 368.971 321.76 368.971 321.161C368.971 320.573 369.084 320.022 369.309 319.509C369.534 318.985 369.839 318.53 370.225 318.145C370.611 317.76 371.066 317.461 371.591 317.247C372.116 317.022 372.679 316.91 373.279 316.91C373.696 316.91 374.093 316.969 374.468 317.086C374.854 317.204 375.213 317.37 375.545 317.584V317.038H377.714V325.396C377.714 326.497 377.355 327.348 376.638 327.946C375.93 328.545 374.907 328.845 373.568 328.845C372.925 328.845 372.304 328.781 371.704 328.652C371.114 328.524 370.573 328.337 370.08 328.091L370.852 326.374C371.312 326.599 371.762 326.765 372.202 326.872C372.641 326.989 373.08 327.048 373.52 327.048C374.173 327.048 374.666 326.904 374.998 326.615C375.341 326.337 375.513 325.925 375.513 325.38V324.69C375.18 324.936 374.816 325.123 374.42 325.251C374.034 325.38 373.632 325.444 373.214 325.444ZM371.141 321.161C371.141 321.835 371.371 322.407 371.832 322.877C372.304 323.348 372.877 323.583 373.552 323.583C373.948 323.583 374.313 323.519 374.645 323.391C374.977 323.252 375.266 323.064 375.513 322.829V319.541C375.277 319.305 374.988 319.124 374.645 318.995C374.302 318.856 373.943 318.787 373.568 318.787C372.893 318.787 372.32 319.017 371.848 319.476C371.377 319.936 371.141 320.498 371.141 321.161Z" fill="#4882EB"/>
<path d="M386.954 324.353C386.44 324.77 385.91 325.075 385.363 325.267C384.828 325.46 384.228 325.556 383.563 325.556C382.931 325.556 382.337 325.444 381.779 325.219C381.233 324.995 380.756 324.69 380.349 324.305C379.953 323.92 379.636 323.465 379.401 322.941C379.176 322.407 379.063 321.835 379.063 321.225C379.063 320.626 379.17 320.065 379.385 319.541C379.61 319.006 379.915 318.546 380.301 318.161C380.687 317.765 381.142 317.455 381.667 317.231C382.203 317.006 382.77 316.894 383.37 316.894C383.96 316.894 384.506 317.011 385.01 317.247C385.524 317.471 385.963 317.781 386.328 318.177C386.703 318.573 386.992 319.049 387.196 319.605C387.41 320.15 387.517 320.744 387.517 321.385V321.963H381.281C381.431 322.487 381.72 322.909 382.149 323.23C382.578 323.551 383.081 323.711 383.66 323.711C384.024 323.711 384.367 323.653 384.688 323.535C385.01 323.417 385.283 323.252 385.508 323.038L386.954 324.353ZM383.322 318.706C382.819 318.706 382.385 318.862 382.02 319.172C381.656 319.471 381.404 319.878 381.265 320.391H385.363C385.224 319.899 384.967 319.498 384.592 319.188C384.228 318.867 383.804 318.706 383.322 318.706Z" fill="#4882EB"/>
<path d="M389.693 323.038V318.883H387.974V317.038H389.693V314.905L391.895 314.407V317.038H394.274V318.883H391.895V322.589C391.895 322.984 391.981 323.262 392.152 323.423C392.324 323.583 392.624 323.663 393.052 323.663C393.256 323.663 393.449 323.653 393.631 323.631C393.813 323.599 394.011 323.546 394.225 323.471V325.267C393.99 325.342 393.706 325.401 393.374 325.444C393.042 325.497 392.758 325.524 392.522 325.524C391.59 325.524 390.883 325.316 390.4 324.899C389.929 324.471 389.693 323.85 389.693 323.038Z" fill="#4882EB"/>
<path d="M402.451 326.679V328.219H394.48V326.679H402.451Z" fill="#4882EB"/>
<path d="M412.113 321.225C412.113 321.824 412 322.385 411.775 322.909C411.55 323.433 411.245 323.888 410.859 324.273C410.473 324.658 410.013 324.963 409.477 325.187C408.952 325.401 408.39 325.508 407.79 325.508C407.372 325.508 406.964 325.449 406.568 325.332C406.172 325.214 405.807 325.048 405.475 324.834V325.396H403.305V314.167L405.507 313.685V317.696C405.839 317.45 406.204 317.263 406.6 317.134C407.007 316.995 407.425 316.926 407.854 316.926C408.443 316.926 408.995 317.038 409.509 317.263C410.034 317.487 410.49 317.792 410.875 318.177C411.261 318.562 411.561 319.017 411.775 319.541C412 320.065 412.113 320.626 412.113 321.225ZM407.5 318.803C407.104 318.803 406.734 318.872 406.391 319.011C406.048 319.14 405.754 319.332 405.507 319.589V322.877C405.743 323.113 406.032 323.3 406.375 323.439C406.729 323.578 407.104 323.647 407.5 323.647C408.186 323.647 408.765 323.417 409.236 322.958C409.707 322.487 409.943 321.909 409.943 321.225C409.943 320.541 409.702 319.968 409.22 319.509C408.748 319.038 408.175 318.803 407.5 318.803Z" fill="#4882EB"/>
<path d="M413.137 321.225C413.137 320.615 413.25 320.049 413.475 319.525C413.71 318.99 414.027 318.53 414.423 318.145C414.83 317.749 415.307 317.439 415.853 317.215C416.4 316.99 416.984 316.878 417.605 316.878C418.227 316.878 418.811 316.99 419.357 317.215C419.903 317.439 420.375 317.749 420.771 318.145C421.178 318.53 421.495 318.99 421.72 319.525C421.955 320.049 422.073 320.615 422.073 321.225C422.073 321.835 421.955 322.407 421.72 322.941C421.495 323.465 421.178 323.92 420.771 324.305C420.375 324.69 419.903 324.995 419.357 325.219C418.811 325.444 418.227 325.556 417.605 325.556C416.984 325.556 416.4 325.444 415.853 325.219C415.307 324.995 414.83 324.69 414.423 324.305C414.027 323.92 413.71 323.465 413.475 322.941C413.25 322.407 413.137 321.835 413.137 321.225ZM417.605 323.647C418.248 323.647 418.795 323.412 419.245 322.941C419.695 322.471 419.92 321.899 419.92 321.225C419.92 320.541 419.695 319.963 419.245 319.493C418.795 319.022 418.248 318.787 417.605 318.787C416.962 318.787 416.416 319.022 415.966 319.493C415.516 319.963 415.291 320.541 415.291 321.225C415.291 321.899 415.516 322.471 415.966 322.941C416.416 323.412 416.962 323.647 417.605 323.647Z" fill="#4882EB"/>
<path d="M424.16 323.038V318.883H422.44V317.038H424.16V314.905L426.361 314.407V317.038H428.74V318.883H426.361V322.589C426.361 322.984 426.447 323.262 426.619 323.423C426.79 323.583 427.09 323.663 427.519 323.663C427.722 323.663 427.915 323.653 428.097 323.631C428.279 323.599 428.478 323.546 428.692 323.471V325.267C428.456 325.342 428.172 325.401 427.84 325.444C427.508 325.497 427.224 325.524 426.988 325.524C426.056 325.524 425.349 325.316 424.867 324.899C424.395 324.471 424.16 323.85 424.16 323.038Z" fill="#4882EB"/>
<path d="M339.649 416.292C338.995 416.292 338.443 416.052 337.993 415.571C337.543 415.089 337.318 414.501 337.318 413.806C337.318 413.4 337.393 413.02 337.543 412.667C337.693 412.303 337.892 411.993 338.138 411.737C338.395 411.469 338.695 411.261 339.038 411.111C339.392 410.951 339.767 410.87 340.163 410.87C340.452 410.87 340.726 410.919 340.983 411.015C341.24 411.1 341.465 411.229 341.658 411.4L341.722 411.095H343.168L342.477 414.351C342.413 414.64 342.445 414.865 342.574 415.025C342.702 415.175 342.906 415.25 343.184 415.25C343.688 415.25 344.101 415.014 344.422 414.544C344.743 414.063 344.904 413.453 344.904 412.715C344.904 412.138 344.792 411.603 344.567 411.111C344.352 410.619 344.047 410.191 343.651 409.828C343.265 409.464 342.804 409.181 342.268 408.977C341.733 408.774 341.154 408.673 340.533 408.673C339.858 408.673 339.225 408.801 338.636 409.058C338.047 409.314 337.538 409.667 337.109 410.116C336.692 410.555 336.359 411.079 336.113 411.689C335.866 412.298 335.743 412.95 335.743 413.646C335.743 414.341 335.861 414.977 336.097 415.555C336.333 416.132 336.665 416.629 337.093 417.046C337.522 417.464 338.031 417.784 338.62 418.009C339.22 418.244 339.874 418.362 340.581 418.362C341.074 418.362 341.54 418.314 341.979 418.217C342.429 418.121 342.847 417.972 343.233 417.768L343.651 418.667C343.147 418.902 342.643 419.078 342.14 419.196C341.636 419.314 341.117 419.372 340.581 419.372C339.734 419.372 338.947 419.228 338.218 418.939C337.49 418.661 336.863 418.271 336.338 417.768C335.813 417.276 335.4 416.683 335.1 415.988C334.8 415.293 334.65 414.544 334.65 413.742C334.65 412.886 334.8 412.095 335.1 411.368C335.4 410.63 335.813 409.993 336.338 409.459C336.863 408.924 337.49 408.507 338.218 408.207C338.947 407.897 339.734 407.742 340.581 407.742C341.342 407.742 342.054 407.871 342.718 408.127C343.383 408.373 343.956 408.715 344.438 409.154C344.931 409.592 345.317 410.111 345.595 410.71C345.874 411.309 346.013 411.951 346.013 412.635C346.013 413.17 345.938 413.662 345.788 414.111C345.638 414.56 345.429 414.945 345.161 415.266C344.893 415.587 344.572 415.838 344.197 416.02C343.822 416.202 343.415 416.292 342.976 416.292C342.59 416.292 342.258 416.234 341.979 416.116C341.701 415.998 341.486 415.838 341.336 415.635C341.09 415.838 340.822 415.998 340.533 416.116C340.243 416.234 339.949 416.292 339.649 416.292ZM338.7 413.694C338.7 414.111 338.818 414.453 339.054 414.72C339.3 414.977 339.611 415.105 339.986 415.105C340.179 415.105 340.367 415.073 340.549 415.009C340.731 414.934 340.897 414.827 341.047 414.688C341.047 414.624 341.052 414.549 341.063 414.464C341.074 414.367 341.09 414.266 341.111 414.159L341.401 412.683C341.272 412.491 341.106 412.346 340.902 412.25C340.699 412.143 340.463 412.09 340.195 412.09C339.799 412.09 339.45 412.25 339.15 412.571C338.85 412.881 338.7 413.255 338.7 413.694Z" fill="#4882EB"/>
<path d="M348.635 414.704V410.55H346.915V408.705H348.635V406.571L350.837 406.074V408.705H353.215V410.55H350.837V414.255C350.837 414.651 350.922 414.929 351.094 415.089C351.265 415.25 351.565 415.33 351.994 415.33C352.198 415.33 352.39 415.319 352.573 415.298C352.755 415.266 352.953 415.212 353.167 415.137V416.934C352.931 417.009 352.648 417.068 352.315 417.111C351.983 417.164 351.699 417.191 351.464 417.191C350.531 417.191 349.824 416.982 349.342 416.565C348.871 416.137 348.635 415.517 348.635 414.704Z" fill="#4882EB"/>
<path d="M356.957 417.207C356.057 417.207 355.323 416.972 354.756 416.501C354.188 416.02 353.904 415.399 353.904 414.64C353.904 413.849 354.209 413.229 354.82 412.779C355.431 412.33 356.272 412.106 357.343 412.106C357.686 412.106 358.029 412.132 358.372 412.186C358.715 412.239 359.052 412.319 359.384 412.426V411.833C359.384 411.352 359.234 410.988 358.934 410.742C358.634 410.496 358.195 410.373 357.616 410.373C357.263 410.373 356.877 410.432 356.459 410.55C356.052 410.657 355.586 410.828 355.061 411.063L354.257 409.443C354.911 409.143 355.543 408.919 356.154 408.769C356.775 408.619 357.386 408.544 357.986 408.544C359.111 408.544 359.984 408.817 360.606 409.362C361.238 409.897 361.554 410.657 361.554 411.64V417.062H359.384V416.485C359.031 416.731 358.656 416.913 358.259 417.03C357.873 417.148 357.439 417.207 356.957 417.207ZM356.009 414.592C356.009 414.913 356.148 415.17 356.427 415.362C356.706 415.544 357.075 415.635 357.536 415.635C357.9 415.635 358.232 415.592 358.532 415.506C358.843 415.41 359.127 415.277 359.384 415.105V413.854C359.116 413.747 358.832 413.672 358.532 413.63C358.243 413.576 357.938 413.549 357.616 413.549C357.113 413.549 356.716 413.646 356.427 413.838C356.148 414.02 356.009 414.271 356.009 414.592Z" fill="#4882EB"/>
<path d="M363.22 417.062V408.705H365.422V409.619C365.69 409.256 366.011 408.983 366.386 408.801C366.772 408.609 367.195 408.512 367.656 408.512C367.87 408.523 368.047 408.544 368.186 408.576C368.336 408.598 368.465 408.641 368.572 408.705V410.63C368.411 410.555 368.235 410.501 368.042 410.469C367.849 410.427 367.651 410.405 367.447 410.405C367.019 410.405 366.622 410.512 366.258 410.726C365.904 410.94 365.626 411.25 365.422 411.656V417.062H363.22Z" fill="#4882EB"/>
<path d="M373.214 417.111C372.625 417.111 372.068 416.998 371.543 416.774C371.029 416.549 370.579 416.244 370.193 415.859C369.818 415.474 369.518 415.025 369.293 414.512C369.078 413.988 368.971 413.426 368.971 412.827C368.971 412.239 369.084 411.689 369.309 411.175C369.534 410.651 369.839 410.197 370.225 409.812C370.611 409.427 371.066 409.127 371.591 408.913C372.116 408.689 372.679 408.576 373.279 408.576C373.696 408.576 374.093 408.635 374.468 408.753C374.854 408.871 375.213 409.036 375.545 409.25V408.705H377.714V417.062C377.714 418.164 377.355 419.014 376.638 419.613C375.93 420.212 374.907 420.511 373.568 420.511C372.925 420.511 372.304 420.447 371.704 420.319C371.114 420.191 370.573 420.003 370.08 419.757L370.852 418.041C371.312 418.266 371.762 418.431 372.202 418.538C372.641 418.656 373.08 418.715 373.52 418.715C374.173 418.715 374.666 418.57 374.998 418.282C375.341 418.004 375.513 417.592 375.513 417.046V416.357C375.18 416.603 374.816 416.79 374.42 416.918C374.034 417.046 373.632 417.111 373.214 417.111ZM371.141 412.827C371.141 413.501 371.371 414.073 371.832 414.544C372.304 415.014 372.877 415.25 373.552 415.25C373.948 415.25 374.313 415.186 374.645 415.057C374.977 414.918 375.266 414.731 375.513 414.496V411.207C375.277 410.972 374.988 410.79 374.645 410.662C374.302 410.523 373.943 410.453 373.568 410.453C372.893 410.453 372.32 410.683 371.848 411.143C371.377 411.603 371.141 412.164 371.141 412.827Z" fill="#4882EB"/>
<path d="M386.954 416.02C386.44 416.437 385.91 416.742 385.363 416.934C384.828 417.127 384.228 417.223 383.563 417.223C382.931 417.223 382.337 417.111 381.779 416.886C381.233 416.661 380.756 416.357 380.349 415.972C379.953 415.587 379.636 415.132 379.401 414.608C379.176 414.073 379.063 413.501 379.063 412.892C379.063 412.293 379.17 411.731 379.385 411.207C379.61 410.673 379.915 410.213 380.301 409.828C380.687 409.432 381.142 409.122 381.667 408.897C382.203 408.673 382.77 408.56 383.37 408.56C383.96 408.56 384.506 408.678 385.01 408.913C385.524 409.138 385.963 409.448 386.328 409.844C386.703 410.239 386.992 410.715 387.196 411.271C387.41 411.817 387.517 412.41 387.517 413.052V413.63H381.281C381.431 414.154 381.72 414.576 382.149 414.897C382.578 415.218 383.081 415.378 383.66 415.378C384.024 415.378 384.367 415.319 384.688 415.202C385.01 415.084 385.283 414.918 385.508 414.704L386.954 416.02ZM383.322 410.373C382.819 410.373 382.385 410.528 382.02 410.838C381.656 411.138 381.404 411.544 381.265 412.057H385.363C385.224 411.566 384.967 411.164 384.592 410.854C384.228 410.534 383.804 410.373 383.322 410.373Z" fill="#4882EB"/>
<path d="M389.693 414.704V410.55H387.974V408.705H389.693V406.571L391.895 406.074V408.705H394.274V410.55H391.895V414.255C391.895 414.651 391.981 414.929 392.152 415.089C392.324 415.25 392.624 415.33 393.052 415.33C393.256 415.33 393.449 415.319 393.631 415.298C393.813 415.266 394.011 415.212 394.225 415.137V416.934C393.99 417.009 393.706 417.068 393.374 417.111C393.042 417.164 392.758 417.191 392.522 417.191C391.59 417.191 390.883 416.982 390.4 416.565C389.929 416.137 389.693 415.517 389.693 414.704Z" fill="#4882EB"/>
<path d="M402.451 418.346V419.886H394.48V418.346H402.451Z" fill="#4882EB"/>
<path d="M412.113 412.892C412.113 413.491 412 414.052 411.775 414.576C411.55 415.1 411.245 415.555 410.859 415.94C410.473 416.325 410.013 416.629 409.477 416.854C408.952 417.068 408.39 417.175 407.79 417.175C407.372 417.175 406.964 417.116 406.568 416.998C406.172 416.881 405.807 416.715 405.475 416.501V417.062H403.305V405.833L405.507 405.352V409.362C405.839 409.116 406.204 408.929 406.6 408.801C407.007 408.662 407.425 408.592 407.854 408.592C408.443 408.592 408.995 408.705 409.509 408.929C410.034 409.154 410.49 409.459 410.875 409.844C411.261 410.229 411.561 410.683 411.775 411.207C412 411.731 412.113 412.293 412.113 412.892ZM407.5 410.469C407.104 410.469 406.734 410.539 406.391 410.678C406.048 410.806 405.754 410.999 405.507 411.255V414.544C405.743 414.779 406.032 414.966 406.375 415.105C406.729 415.244 407.104 415.314 407.5 415.314C408.186 415.314 408.765 415.084 409.236 414.624C409.707 414.154 409.943 413.576 409.943 412.892C409.943 412.207 409.702 411.635 409.22 411.175C408.748 410.705 408.175 410.469 407.5 410.469Z" fill="#4882EB"/>
<path d="M413.137 412.892C413.137 412.282 413.25 411.715 413.475 411.191C413.71 410.657 414.027 410.197 414.423 409.812C414.83 409.416 415.307 409.106 415.853 408.881C416.4 408.657 416.984 408.544 417.605 408.544C418.227 408.544 418.811 408.657 419.357 408.881C419.903 409.106 420.375 409.416 420.771 409.812C421.178 410.197 421.495 410.657 421.72 411.191C421.955 411.715 422.073 412.282 422.073 412.892C422.073 413.501 421.955 414.073 421.72 414.608C421.495 415.132 421.178 415.587 420.771 415.972C420.375 416.357 419.903 416.661 419.357 416.886C418.811 417.111 418.227 417.223 417.605 417.223C416.984 417.223 416.4 417.111 415.853 416.886C415.307 416.661 414.83 416.357 414.423 415.972C414.027 415.587 413.71 415.132 413.475 414.608C413.25 414.073 413.137 413.501 413.137 412.892ZM417.605 415.314C418.248 415.314 418.795 415.079 419.245 414.608C419.695 414.138 419.92 413.565 419.92 412.892C419.92 412.207 419.695 411.63 419.245 411.159C418.795 410.689 418.248 410.453 417.605 410.453C416.962 410.453 416.416 410.689 415.966 411.159C415.516 411.63 415.291 412.207 415.291 412.892C415.291 413.565 415.516 414.138 415.966 414.608C416.416 415.079 416.962 415.314 417.605 415.314Z" fill="#4882EB"/>
<path d="M424.16 414.704V410.55H422.44V408.705H424.16V406.571L426.361 406.074V408.705H428.74V410.55H426.361V414.255C426.361 414.651 426.447 414.929 426.619 415.089C426.79 415.25 427.09 415.33 427.519 415.33C427.722 415.33 427.915 415.319 428.097 415.298C428.279 415.266 428.478 415.212 428.692 415.137V416.934C428.456 417.009 428.172 417.068 427.84 417.111C427.508 417.164 427.224 417.191 426.988 417.191C426.056 417.191 425.349 416.982 424.867 416.565C424.395 416.137 424.16 415.517 424.16 414.704Z" fill="#4882EB"/>
<path d="M339.649 232.959C338.995 232.959 338.443 232.719 337.993 232.237C337.543 231.756 337.318 231.168 337.318 230.473C337.318 230.066 337.393 229.687 337.543 229.334C337.693 228.97 337.892 228.66 338.138 228.403C338.395 228.136 338.695 227.927 339.038 227.778C339.392 227.617 339.767 227.537 340.163 227.537C340.452 227.537 340.726 227.585 340.983 227.681C341.24 227.767 341.465 227.895 341.658 228.066L341.722 227.762H343.168L342.477 231.018C342.413 231.307 342.445 231.531 342.574 231.692C342.702 231.842 342.906 231.916 343.184 231.916C343.688 231.916 344.101 231.681 344.422 231.211C344.743 230.729 344.904 230.12 344.904 229.382C344.904 228.804 344.792 228.27 344.567 227.778C344.352 227.286 344.047 226.858 343.651 226.494C343.265 226.131 342.804 225.847 342.268 225.644C341.733 225.441 341.154 225.339 340.533 225.339C339.858 225.339 339.225 225.468 338.636 225.724C338.047 225.981 337.538 226.334 337.109 226.783C336.692 227.222 336.359 227.746 336.113 228.355C335.866 228.965 335.743 229.617 335.743 230.312C335.743 231.007 335.861 231.644 336.097 232.221C336.333 232.799 336.665 233.296 337.093 233.713C337.522 234.13 338.031 234.451 338.62 234.676C339.22 234.911 339.874 235.029 340.581 235.029C341.074 235.029 341.54 234.98 341.979 234.884C342.429 234.788 342.847 234.638 343.233 234.435L343.651 235.333C343.147 235.569 342.643 235.745 342.14 235.863C341.636 235.98 341.117 236.039 340.581 236.039C339.734 236.039 338.947 235.895 338.218 235.606C337.49 235.328 336.863 234.938 336.338 234.435C335.813 233.943 335.4 233.35 335.1 232.654C334.8 231.959 334.65 231.211 334.65 230.409C334.65 229.553 334.8 228.762 335.1 228.034C335.4 227.296 335.813 226.66 336.338 226.125C336.863 225.591 337.49 225.174 338.218 224.874C338.947 224.564 339.734 224.409 340.581 224.409C341.342 224.409 342.054 224.537 342.718 224.794C343.383 225.04 343.956 225.382 344.438 225.821C344.931 226.259 345.317 226.778 345.595 227.377C345.874 227.976 346.013 228.617 346.013 229.302C346.013 229.836 345.938 230.328 345.788 230.778C345.638 231.227 345.429 231.612 345.161 231.933C344.893 232.253 344.572 232.505 344.197 232.686C343.822 232.868 343.415 232.959 342.976 232.959C342.59 232.959 342.258 232.9 341.979 232.783C341.701 232.665 341.486 232.505 341.336 232.301C341.09 232.505 340.822 232.665 340.533 232.783C340.243 232.9 339.949 232.959 339.649 232.959ZM338.7 230.36C338.7 230.778 338.818 231.12 339.054 231.387C339.3 231.644 339.611 231.772 339.986 231.772C340.179 231.772 340.367 231.74 340.549 231.676C340.731 231.601 340.897 231.494 341.047 231.355C341.047 231.291 341.052 231.216 341.063 231.13C341.074 231.034 341.09 230.933 341.111 230.826L341.401 229.35C341.272 229.157 341.106 229.013 340.902 228.917C340.699 228.81 340.463 228.756 340.195 228.756C339.799 228.756 339.45 228.917 339.15 229.238C338.85 229.548 338.7 229.922 338.7 230.36Z" fill="#4882EB"/>
<path d="M347.14 229.558C347.14 228.949 347.252 228.382 347.477 227.858C347.713 227.323 348.029 226.863 348.425 226.478C348.832 226.083 349.309 225.773 349.856 225.548C350.402 225.323 350.986 225.211 351.607 225.211C352.229 225.211 352.813 225.323 353.359 225.548C353.906 225.773 354.377 226.083 354.774 226.478C355.181 226.863 355.497 227.323 355.722 227.858C355.958 228.382 356.075 228.949 356.075 229.558C356.075 230.168 355.958 230.74 355.722 231.275C355.497 231.799 355.181 232.253 354.774 232.638C354.377 233.023 353.906 233.328 353.359 233.553C352.813 233.777 352.229 233.89 351.607 233.89C350.986 233.89 350.402 233.777 349.856 233.553C349.309 233.328 348.832 233.023 348.425 232.638C348.029 232.253 347.713 231.799 347.477 231.275C347.252 230.74 347.14 230.168 347.14 229.558ZM351.607 231.981C352.25 231.981 352.797 231.745 353.247 231.275C353.697 230.804 353.922 230.232 353.922 229.558C353.922 228.874 353.697 228.296 353.247 227.826C352.797 227.355 352.25 227.12 351.607 227.12C350.965 227.12 350.418 227.355 349.968 227.826C349.518 228.296 349.293 228.874 349.293 229.558C349.293 230.232 349.518 230.804 349.968 231.275C350.418 231.745 350.965 231.981 351.607 231.981Z" fill="#4882EB"/>
<path d="M357.429 233.729V225.371H359.631V226.286C359.899 225.922 360.22 225.65 360.595 225.468C360.981 225.275 361.404 225.179 361.865 225.179C362.079 225.19 362.256 225.211 362.395 225.243C362.545 225.265 362.674 225.307 362.781 225.371V227.296C362.62 227.222 362.443 227.168 362.25 227.136C362.057 227.093 361.859 227.072 361.656 227.072C361.227 227.072 360.831 227.179 360.466 227.393C360.113 227.607 359.834 227.917 359.631 228.323V233.729H357.429Z" fill="#4882EB"/>
<path d="M367.423 233.777C366.834 233.777 366.276 233.665 365.751 233.44C365.237 233.216 364.787 232.911 364.401 232.526C364.026 232.141 363.726 231.692 363.501 231.179C363.287 230.655 363.18 230.093 363.18 229.494C363.18 228.906 363.292 228.355 363.517 227.842C363.742 227.318 364.048 226.863 364.433 226.478C364.819 226.093 365.275 225.794 365.8 225.58C366.325 225.355 366.887 225.243 367.487 225.243C367.905 225.243 368.301 225.302 368.676 225.42C369.062 225.537 369.421 225.703 369.753 225.917V225.371H371.923V233.729C371.923 234.831 371.564 235.681 370.846 236.28C370.139 236.879 369.116 237.178 367.776 237.178C367.134 237.178 366.512 237.114 365.912 236.986C365.323 236.857 364.782 236.67 364.289 236.424L365.06 234.708C365.521 234.932 365.971 235.098 366.41 235.205C366.85 235.323 367.289 235.381 367.728 235.381C368.382 235.381 368.875 235.237 369.207 234.948C369.55 234.67 369.721 234.259 369.721 233.713V233.023C369.389 233.269 369.025 233.456 368.628 233.585C368.242 233.713 367.841 233.777 367.423 233.777ZM365.35 229.494C365.35 230.168 365.58 230.74 366.041 231.211C366.512 231.681 367.085 231.916 367.76 231.916C368.157 231.916 368.521 231.852 368.853 231.724C369.185 231.585 369.475 231.398 369.721 231.163V227.874C369.485 227.639 369.196 227.457 368.853 227.329C368.51 227.19 368.151 227.12 367.776 227.12C367.101 227.12 366.528 227.35 366.057 227.81C365.585 228.27 365.35 228.831 365.35 229.494Z" fill="#4882EB"/>
<path d="M376.309 233.874C375.409 233.874 374.675 233.638 374.108 233.168C373.54 232.686 373.256 232.066 373.256 231.307C373.256 230.515 373.561 229.895 374.172 229.446C374.783 228.997 375.624 228.772 376.695 228.772C377.038 228.772 377.381 228.799 377.724 228.853C378.067 228.906 378.404 228.986 378.736 229.093V228.5C378.736 228.018 378.586 227.655 378.286 227.409C377.986 227.163 377.547 227.04 376.968 227.04C376.615 227.04 376.229 227.099 375.811 227.216C375.404 227.323 374.938 227.494 374.413 227.73L373.609 226.109C374.263 225.81 374.895 225.585 375.506 225.436C376.127 225.286 376.738 225.211 377.338 225.211C378.463 225.211 379.336 225.484 379.958 226.029C380.59 226.564 380.906 227.323 380.906 228.307V233.729H378.736V233.152C378.383 233.398 378.008 233.579 377.611 233.697C377.225 233.815 376.792 233.874 376.309 233.874ZM375.361 231.259C375.361 231.58 375.5 231.836 375.779 232.029C376.058 232.211 376.427 232.301 376.888 232.301C377.252 232.301 377.584 232.259 377.884 232.173C378.195 232.077 378.479 231.943 378.736 231.772V230.521C378.468 230.414 378.184 230.339 377.884 230.296C377.595 230.243 377.29 230.216 376.968 230.216C376.465 230.216 376.068 230.312 375.779 230.505C375.5 230.687 375.361 230.938 375.361 231.259Z" fill="#4882EB"/>
<path d="M382.572 233.729V225.371H384.774V226.029C385.096 225.762 385.449 225.559 385.835 225.42C386.231 225.281 386.66 225.211 387.121 225.211C388.085 225.211 388.878 225.521 389.499 226.141C390.121 226.762 390.431 227.558 390.431 228.532V233.729H388.23V228.853C388.23 228.328 388.069 227.906 387.747 227.585C387.437 227.264 387.019 227.104 386.494 227.104C386.13 227.104 385.797 227.179 385.497 227.329C385.208 227.468 384.967 227.671 384.774 227.938V233.729H382.572Z" fill="#4882EB"/>
<path d="M393.192 224.377C392.849 224.377 392.555 224.254 392.308 224.008C392.062 223.762 391.938 223.468 391.938 223.126C391.938 222.783 392.062 222.489 392.308 222.243C392.555 221.997 392.849 221.874 393.192 221.874C393.535 221.874 393.83 221.997 394.076 222.243C394.322 222.489 394.446 222.783 394.446 223.126C394.446 223.468 394.322 223.762 394.076 224.008C393.83 224.254 393.535 224.377 393.192 224.377ZM394.301 225.371V233.729H392.099V225.371H394.301Z" fill="#4882EB"/>
<path d="M395.589 233.729V232.173L399.8 227.216H395.621V225.371H402.628V226.928L398.386 231.884H402.725V233.729H395.589Z" fill="#4882EB"/>
<path d="M411.298 232.686C410.783 233.104 410.253 233.408 409.706 233.601C409.171 233.793 408.571 233.89 407.906 233.89C407.274 233.89 406.68 233.777 406.122 233.553C405.576 233.328 405.099 233.023 404.692 232.638C404.296 232.253 403.98 231.799 403.744 231.275C403.519 230.74 403.406 230.168 403.406 229.558C403.406 228.959 403.513 228.398 403.728 227.874C403.953 227.339 404.258 226.879 404.644 226.494C405.03 226.099 405.485 225.789 406.01 225.564C406.546 225.339 407.114 225.227 407.714 225.227C408.303 225.227 408.849 225.345 409.353 225.58C409.867 225.805 410.306 226.115 410.671 226.51C411.046 226.906 411.335 227.382 411.539 227.938C411.753 228.484 411.86 229.077 411.86 229.719V230.296H405.624C405.774 230.82 406.064 231.243 406.492 231.564C406.921 231.884 407.424 232.045 408.003 232.045C408.367 232.045 408.71 231.986 409.031 231.868C409.353 231.751 409.626 231.585 409.851 231.371L411.298 232.686ZM407.665 227.04C407.162 227.04 406.728 227.195 406.364 227.505C405.999 227.804 405.747 228.211 405.608 228.724H409.706C409.567 228.232 409.31 227.831 408.935 227.521C408.571 227.2 408.147 227.04 407.665 227.04Z" fill="#4882EB"/>
<path d="M413.209 233.729V225.371H415.411V226.286C415.679 225.922 416 225.65 416.375 225.468C416.761 225.275 417.184 225.179 417.645 225.179C417.859 225.19 418.036 225.211 418.175 225.243C418.325 225.265 418.454 225.307 418.561 225.371V227.296C418.4 227.222 418.223 227.168 418.031 227.136C417.838 227.093 417.64 227.072 417.436 227.072C417.007 227.072 416.611 227.179 416.247 227.393C415.893 227.607 415.614 227.917 415.411 228.323V233.729H413.209Z" fill="#4882EB"/>
<path d="M426.842 235.013V236.553H418.87V235.013H426.842Z" fill="#4882EB"/>
<path d="M436.503 229.558C436.503 230.157 436.39 230.719 436.165 231.243C435.94 231.767 435.635 232.221 435.249 232.606C434.864 232.991 434.403 233.296 433.867 233.521C433.342 233.735 432.78 233.841 432.18 233.841C431.762 233.841 431.355 233.783 430.958 233.665C430.562 233.547 430.197 233.382 429.865 233.168V233.729H427.696V222.5L429.897 222.019V226.029C430.23 225.783 430.594 225.596 430.99 225.468C431.397 225.329 431.815 225.259 432.244 225.259C432.833 225.259 433.385 225.371 433.899 225.596C434.424 225.821 434.88 226.125 435.265 226.51C435.651 226.895 435.951 227.35 436.165 227.874C436.39 228.398 436.503 228.959 436.503 229.558ZM431.89 227.136C431.494 227.136 431.124 227.206 430.781 227.345C430.439 227.473 430.144 227.665 429.897 227.922V231.211C430.133 231.446 430.422 231.633 430.765 231.772C431.119 231.911 431.494 231.981 431.89 231.981C432.576 231.981 433.155 231.751 433.626 231.291C434.098 230.82 434.333 230.243 434.333 229.558C434.333 228.874 434.092 228.302 433.61 227.842C433.139 227.371 432.565 227.136 431.89 227.136Z" fill="#4882EB"/>
<path d="M437.527 229.558C437.527 228.949 437.64 228.382 437.865 227.858C438.101 227.323 438.417 226.863 438.813 226.478C439.22 226.083 439.697 225.773 440.244 225.548C440.79 225.323 441.374 225.211 441.995 225.211C442.617 225.211 443.201 225.323 443.747 225.548C444.294 225.773 444.765 226.083 445.161 226.478C445.569 226.863 445.885 227.323 446.11 227.858C446.345 228.382 446.463 228.949 446.463 229.558C446.463 230.168 446.345 230.74 446.11 231.275C445.885 231.799 445.569 232.253 445.161 232.638C444.765 233.023 444.294 233.328 443.747 233.553C443.201 233.777 442.617 233.89 441.995 233.89C441.374 233.89 440.79 233.777 440.244 233.553C439.697 233.328 439.22 233.023 438.813 232.638C438.417 232.253 438.101 231.799 437.865 231.275C437.64 230.74 437.527 230.168 437.527 229.558ZM441.995 231.981C442.638 231.981 443.185 231.745 443.635 231.275C444.085 230.804 444.31 230.232 444.31 229.558C444.31 228.874 444.085 228.296 443.635 227.826C443.185 227.355 442.638 227.12 441.995 227.12C441.352 227.12 440.806 227.355 440.356 227.826C439.906 228.296 439.681 228.874 439.681 229.558C439.681 230.232 439.906 230.804 440.356 231.275C440.806 231.745 441.352 231.981 441.995 231.981Z" fill="#4882EB"/>
<path d="M448.55 231.371V227.216H446.83V225.371H448.55V223.238L450.752 222.741V225.371H453.13V227.216H450.752V230.922C450.752 231.318 450.837 231.596 451.009 231.756C451.18 231.916 451.48 231.997 451.909 231.997C452.112 231.997 452.305 231.986 452.487 231.965C452.669 231.933 452.868 231.879 453.082 231.804V233.601C452.846 233.676 452.562 233.735 452.23 233.777C451.898 233.831 451.614 233.858 451.378 233.858C450.446 233.858 449.739 233.649 449.257 233.232C448.785 232.804 448.55 232.184 448.55 231.371Z" fill="#4882EB"/>
<ellipse cx="66.5114" cy="44.6667" rx="22.9596" ry="22.9167" fill="#FFB931"/>
<ellipse cx="66.5114" cy="136.333" rx="22.9596" ry="22.9167" fill="#7F31FF"/>
<ellipse cx="66.5114" cy="319.667" rx="22.9596" ry="22.9167" fill="#77CCFC"/>
<ellipse cx="66.5114" cy="411.333" rx="22.9596" ry="22.9167" fill="#46BF1B"/>
<ellipse cx="66.5114" cy="228" rx="22.9596" ry="22.9167" fill="#FF316F"/>
<rect x="98.6543" y="30.9166" width="160.717" height="9.16667" rx="4.58333" fill="#ADABB5"/>
<rect x="98.6543" y="122.583" width="160.717" height="9.16667" rx="4.58334" fill="#ADABB5"/>
<rect x="98.6543" y="305.917" width="160.717" height="9.16669" rx="4.58334" fill="#ADABB5"/>
<rect x="98.6543" y="397.583" width="160.717" height="9.16666" rx="4.58333" fill="#ADABB5"/>
<rect x="98.6543" y="214.25" width="160.717" height="9.16667" rx="4.58334" fill="#ADABB5"/>
<rect x="98.6543" y="49.25" width="114.798" height="9.16667" rx="4.58333" fill="#DADADA"/>
<rect x="98.6543" y="140.917" width="114.798" height="9.16666" rx="4.58333" fill="#DADADA"/>
<rect x="98.6543" y="324.25" width="114.798" height="9.16666" rx="4.58333" fill="#DADADA"/>
<rect x="98.6543" y="415.917" width="114.798" height="9.16669" rx="4.58334" fill="#DADADA"/>
<rect x="98.6543" y="232.583" width="114.798" height="9.16666" rx="4.58333" fill="#DADADA"/>
<g filter="url(#filter5_d)">
<rect x="312.18" y="65.2916" width="215.821" height="167.292" rx="8" fill="white"/>
<rect x="312.68" y="65.7916" width="214.821" height="166.292" rx="7.5" stroke="#E4E4E4"/>
</g>
<path d="M406.395 180.104H411.682C412.807 180.104 413.723 180.393 414.43 180.97C415.138 181.537 415.491 182.275 415.491 183.184C415.491 183.676 415.368 184.125 415.121 184.532C414.875 184.938 414.538 185.275 414.109 185.542C414.645 185.799 415.073 186.152 415.395 186.601C415.716 187.039 415.877 187.531 415.877 188.077C415.877 189.05 415.513 189.836 414.784 190.435C414.066 191.034 413.118 191.333 411.939 191.333H406.395V180.104ZM411.537 182.029H408.725V184.692H411.537C412.03 184.692 412.427 184.574 412.727 184.339C413.027 184.093 413.177 183.767 413.177 183.361C413.177 182.954 413.027 182.633 412.727 182.398C412.427 182.152 412.03 182.029 411.537 182.029ZM411.762 189.408C412.298 189.408 412.727 189.28 413.048 189.023C413.37 188.756 413.53 188.398 413.53 187.948C413.53 187.521 413.37 187.173 413.048 186.906C412.727 186.638 412.298 186.505 411.762 186.505H408.725V189.408H411.762Z" fill="#71D74D"/>
<path d="M416.976 187.162C416.976 186.553 417.089 185.986 417.314 185.462C417.549 184.927 417.866 184.467 418.262 184.082C418.669 183.687 419.146 183.377 419.692 183.152C420.239 182.927 420.823 182.815 421.444 182.815C422.066 182.815 422.65 182.927 423.196 183.152C423.742 183.377 424.214 183.687 424.61 184.082C425.017 184.467 425.334 184.927 425.559 185.462C425.794 185.986 425.912 186.553 425.912 187.162C425.912 187.772 425.794 188.344 425.559 188.879C425.334 189.403 425.017 189.857 424.61 190.242C424.214 190.627 423.742 190.932 423.196 191.157C422.65 191.381 422.066 191.494 421.444 191.494C420.823 191.494 420.239 191.381 419.692 191.157C419.146 190.932 418.669 190.627 418.262 190.242C417.866 189.857 417.549 189.403 417.314 188.879C417.089 188.344 416.976 187.772 416.976 187.162ZM421.444 189.585C422.087 189.585 422.634 189.349 423.084 188.879C423.534 188.408 423.759 187.836 423.759 187.162C423.759 186.478 423.534 185.901 423.084 185.43C422.634 184.959 422.087 184.724 421.444 184.724C420.801 184.724 420.255 184.959 419.805 185.43C419.355 185.901 419.13 186.478 419.13 187.162C419.13 187.836 419.355 188.408 419.805 188.879C420.255 189.349 420.801 189.585 421.444 189.585Z" fill="#71D74D"/>
<path d="M429.996 191.478C429.096 191.478 428.362 191.242 427.794 190.772C427.226 190.291 426.942 189.67 426.942 188.911C426.942 188.12 427.248 187.499 427.858 187.05C428.469 186.601 429.31 186.376 430.382 186.376C430.724 186.376 431.067 186.403 431.41 186.457C431.753 186.51 432.091 186.59 432.423 186.697V186.104C432.423 185.622 432.273 185.259 431.973 185.013C431.673 184.767 431.233 184.644 430.655 184.644C430.301 184.644 429.916 184.703 429.498 184.82C429.091 184.927 428.624 185.098 428.099 185.334L427.296 183.713C427.949 183.414 428.582 183.189 429.192 183.04C429.814 182.89 430.424 182.815 431.024 182.815C432.15 182.815 433.023 183.088 433.644 183.633C434.276 184.168 434.592 184.927 434.592 185.911V191.333H432.423V190.756C432.069 191.002 431.694 191.184 431.298 191.301C430.912 191.419 430.478 191.478 429.996 191.478ZM429.048 188.863C429.048 189.184 429.187 189.44 429.466 189.633C429.744 189.815 430.114 189.906 430.574 189.906C430.939 189.906 431.271 189.863 431.571 189.777C431.882 189.681 432.166 189.547 432.423 189.376V188.125C432.155 188.018 431.871 187.943 431.571 187.9C431.282 187.847 430.976 187.82 430.655 187.82C430.151 187.82 429.755 187.916 429.466 188.109C429.187 188.291 429.048 188.542 429.048 188.863Z" fill="#71D74D"/>
<path d="M340.48 208.292C340.48 208.979 340.352 209.63 340.094 210.244C339.837 210.849 339.484 211.376 339.034 211.825C338.593 212.265 338.069 212.614 337.463 212.87C336.857 213.127 336.21 213.255 335.521 213.255C334.832 213.255 334.18 213.127 333.565 212.87C332.959 212.614 332.431 212.265 331.981 211.825C331.54 211.376 331.191 210.849 330.934 210.244C330.676 209.63 330.548 208.979 330.548 208.292C330.548 207.604 330.676 206.958 330.934 206.353C331.191 205.739 331.54 205.212 331.981 204.772C332.431 204.323 332.959 203.97 333.565 203.713C334.18 203.456 334.832 203.328 335.521 203.328C336.21 203.328 336.857 203.456 337.463 203.713C338.069 203.97 338.593 204.323 339.034 204.772C339.484 205.212 339.837 205.739 340.094 206.353C340.352 206.958 340.48 207.604 340.48 208.292ZM339.406 208.292C339.406 207.733 339.305 207.21 339.103 206.724C338.901 206.229 338.625 205.808 338.276 205.459C337.936 205.102 337.528 204.822 337.05 204.62C336.572 204.41 336.063 204.304 335.521 204.304C334.97 204.304 334.456 204.41 333.978 204.62C333.5 204.822 333.087 205.102 332.738 205.459C332.398 205.808 332.127 206.229 331.925 206.724C331.723 207.21 331.622 207.733 331.622 208.292C331.622 208.851 331.723 209.373 331.925 209.859C332.127 210.345 332.398 210.767 332.738 211.124C333.087 211.482 333.5 211.766 333.978 211.977C334.456 212.178 334.97 212.279 335.521 212.279C336.063 212.279 336.572 212.178 337.05 211.977C337.528 211.766 337.936 211.482 338.276 211.124C338.625 210.767 338.901 210.345 339.103 209.859C339.305 209.373 339.406 208.851 339.406 208.292ZM336.072 200.523H337.381L335.672 202.118H334.777L336.072 200.523Z" fill="#ADABB5"/>
<path d="M342.803 211.564V207.082H341.315V206.215H342.803V204.469L343.808 204.208V206.215H345.888V207.082H343.808V211.303C343.808 211.67 343.891 211.935 344.056 212.1C344.222 212.256 344.493 212.334 344.869 212.334C345.062 212.334 345.232 212.32 345.379 212.293C345.535 212.265 345.7 212.22 345.875 212.155V213.049C345.7 213.113 345.503 213.159 345.282 213.187C345.071 213.214 344.864 213.228 344.662 213.228C344.065 213.228 343.606 213.086 343.285 212.802C342.963 212.518 342.803 212.105 342.803 211.564Z" fill="#ADABB5"/>
<path d="M347.49 204.895C347.306 204.895 347.145 204.827 347.008 204.689C346.87 204.552 346.801 204.391 346.801 204.208C346.801 204.015 346.87 203.855 347.008 203.727C347.145 203.589 347.306 203.52 347.49 203.52C347.683 203.52 347.843 203.589 347.972 203.727C348.11 203.855 348.178 204.015 348.178 204.208C348.178 204.391 348.11 204.552 347.972 204.689C347.843 204.827 347.683 204.895 347.49 204.895ZM347.999 206.215V213.104H346.98V206.215H347.999Z" fill="#ADABB5"/>
<path d="M349.738 213.104V206.215H350.757V206.972C351.014 206.678 351.313 206.458 351.653 206.312C351.992 206.156 352.369 206.078 352.782 206.078C353.26 206.078 353.687 206.193 354.063 206.422C354.449 206.642 354.748 206.944 354.959 207.329C355.244 206.908 355.583 206.596 355.978 206.394C356.382 206.183 356.832 206.078 357.328 206.078C358.072 206.078 358.678 206.325 359.147 206.82C359.624 207.315 359.863 207.957 359.863 208.745V213.104H358.857V208.952C358.857 208.347 358.697 207.865 358.375 207.508C358.054 207.15 357.618 206.972 357.067 206.972C356.69 206.972 356.346 207.068 356.033 207.26C355.721 207.453 355.455 207.733 355.234 208.099C355.253 208.2 355.267 208.305 355.276 208.415C355.294 208.516 355.303 208.626 355.303 208.745V213.104H354.298V208.952C354.298 208.347 354.137 207.865 353.815 207.508C353.494 207.15 353.062 206.972 352.521 206.972C352.153 206.972 351.818 207.059 351.515 207.233C351.221 207.398 350.968 207.645 350.757 207.975V213.104H349.738Z" fill="#ADABB5"/>
<path d="M361.26 209.653C361.26 209.158 361.351 208.69 361.535 208.25C361.719 207.81 361.967 207.43 362.279 207.109C362.6 206.788 362.977 206.536 363.409 206.353C363.84 206.17 364.299 206.078 364.786 206.078C365.273 206.078 365.728 206.17 366.15 206.353C366.582 206.536 366.954 206.788 367.266 207.109C367.587 207.43 367.84 207.81 368.023 208.25C368.207 208.69 368.299 209.158 368.299 209.653C368.299 210.157 368.207 210.629 368.023 211.069C367.84 211.509 367.587 211.89 367.266 212.21C366.954 212.531 366.582 212.783 366.15 212.967C365.728 213.15 365.273 213.242 364.786 213.242C364.299 213.242 363.84 213.15 363.409 212.967C362.977 212.783 362.6 212.531 362.279 212.21C361.967 211.89 361.719 211.509 361.535 211.069C361.351 210.629 361.26 210.157 361.26 209.653ZM364.786 212.334C365.135 212.334 365.461 212.265 365.764 212.128C366.076 211.99 366.343 211.803 366.563 211.564C366.793 211.317 366.972 211.033 367.101 210.712C367.229 210.382 367.293 210.029 367.293 209.653C367.293 209.277 367.229 208.929 367.101 208.608C366.972 208.278 366.793 207.994 366.563 207.755C366.343 207.517 366.076 207.329 365.764 207.192C365.461 207.054 365.135 206.985 364.786 206.985C364.437 206.985 364.107 207.054 363.794 207.192C363.491 207.329 363.225 207.517 362.995 207.755C362.775 207.994 362.596 208.278 362.458 208.608C362.329 208.929 362.265 209.277 362.265 209.653C362.265 210.029 362.329 210.382 362.458 210.712C362.587 211.033 362.761 211.317 362.982 211.564C363.211 211.803 363.482 211.99 363.794 212.128C364.107 212.265 364.437 212.334 364.786 212.334Z" fill="#ADABB5"/>
<path d="M369.798 210.437L369.674 203.245H370.735L370.611 210.437H369.798ZM370.211 213.187C370.018 213.187 369.853 213.118 369.715 212.98C369.578 212.843 369.509 212.678 369.509 212.485C369.509 212.293 369.578 212.128 369.715 211.99C369.853 211.853 370.018 211.784 370.211 211.784C370.404 211.784 370.57 211.853 370.707 211.99C370.845 212.128 370.914 212.293 370.914 212.485C370.914 212.678 370.845 212.843 370.707 212.98C370.57 213.118 370.404 213.187 370.211 213.187Z" fill="#ADABB5"/>
<path d="M374.69 211.454L375.392 210.725C375.888 211.248 376.416 211.647 376.976 211.922C377.546 212.188 378.143 212.32 378.767 212.32C379.52 212.32 380.14 212.142 380.627 211.784C381.114 211.427 381.357 210.973 381.357 210.423C381.357 209.928 381.183 209.548 380.834 209.282C380.494 209.016 379.929 208.819 379.139 208.69L377.748 208.47C376.82 208.324 376.136 208.053 375.695 207.659C375.254 207.256 375.034 206.715 375.034 206.037C375.034 205.239 375.346 204.593 375.971 204.098C376.595 203.603 377.413 203.355 378.423 203.355C379.093 203.355 379.759 203.465 380.42 203.685C381.082 203.905 381.683 204.222 382.225 204.634L381.619 205.459C381.095 205.065 380.563 204.767 380.021 204.565C379.479 204.364 378.933 204.263 378.382 204.263C377.693 204.263 377.133 204.423 376.701 204.744C376.278 205.056 376.067 205.459 376.067 205.954C376.067 206.403 376.219 206.747 376.522 206.985C376.825 207.224 377.325 207.398 378.023 207.508L379.401 207.728C380.448 207.902 381.21 208.2 381.688 208.622C382.175 209.043 382.418 209.625 382.418 210.368C382.418 210.79 382.326 211.179 382.142 211.537C381.968 211.885 381.715 212.188 381.385 212.444C381.063 212.692 380.673 212.889 380.214 213.035C379.764 213.173 379.268 213.242 378.726 213.242C377.964 213.242 377.229 213.09 376.522 212.788C375.824 212.476 375.213 212.032 374.69 211.454Z" fill="#ADABB5"/>
<path d="M389.614 212.375C389.228 212.66 388.824 212.875 388.402 213.022C387.988 213.159 387.534 213.228 387.038 213.228C386.542 213.228 386.074 213.136 385.633 212.953C385.201 212.77 384.825 212.518 384.503 212.197C384.191 211.876 383.943 211.5 383.759 211.069C383.576 210.629 383.484 210.157 383.484 209.653C383.484 209.158 383.571 208.695 383.746 208.264C383.929 207.833 384.173 207.458 384.476 207.137C384.779 206.816 385.137 206.564 385.55 206.38C385.973 206.197 386.418 206.105 386.886 206.105C387.346 206.105 387.773 206.197 388.168 206.38C388.572 206.564 388.916 206.816 389.201 207.137C389.495 207.458 389.724 207.833 389.89 208.264C390.064 208.695 390.151 209.158 390.151 209.653V209.969H384.489C384.563 210.648 384.843 211.211 385.33 211.66C385.816 212.11 386.4 212.334 387.079 212.334C387.437 212.334 387.786 212.279 388.126 212.169C388.466 212.059 388.751 211.903 388.98 211.702L389.614 212.375ZM386.859 206.999C386.262 206.999 385.743 207.201 385.302 207.604C384.871 208.008 384.609 208.525 384.517 209.158H389.132C389.04 208.553 388.778 208.044 388.347 207.632C387.924 207.21 387.428 206.999 386.859 206.999Z" fill="#ADABB5"/>
<path d="M392.554 206.215V210.368C392.554 210.973 392.729 211.454 393.078 211.812C393.427 212.169 393.895 212.348 394.483 212.348C394.896 212.348 395.264 212.256 395.585 212.073C395.916 211.88 396.182 211.615 396.384 211.275V206.215H397.404V213.104H396.384V212.307C396.118 212.618 395.801 212.852 395.434 213.008C395.075 213.164 394.671 213.242 394.221 213.242C393.432 213.242 392.789 212.994 392.293 212.499C391.797 212.004 391.549 211.363 391.549 210.574V206.215H392.554Z" fill="#ADABB5"/>
<path d="M408.805 209.653C408.805 210.148 408.714 210.615 408.53 211.055C408.355 211.495 408.112 211.876 407.8 212.197C407.488 212.508 407.116 212.756 406.684 212.939C406.261 213.123 405.807 213.214 405.32 213.214C404.916 213.214 404.521 213.145 404.135 213.008C403.759 212.87 403.414 212.673 403.102 212.417V213.104H402.097V203.479L403.116 203.245V206.944C403.401 206.669 403.731 206.463 404.108 206.325C404.494 206.179 404.902 206.105 405.334 206.105C405.821 206.105 406.275 206.197 406.698 206.38C407.12 206.564 407.488 206.816 407.8 207.137C408.112 207.448 408.355 207.824 408.53 208.264C408.714 208.695 408.805 209.158 408.805 209.653ZM405.237 206.999C404.806 206.999 404.402 207.086 404.025 207.26C403.658 207.425 403.355 207.659 403.116 207.962V211.372C403.355 211.665 403.662 211.899 404.039 212.073C404.416 212.238 404.815 212.32 405.237 212.32C405.963 212.32 406.569 212.068 407.056 211.564C407.552 211.051 407.8 210.418 407.8 209.667C407.8 209.291 407.731 208.943 407.593 208.622C407.465 208.292 407.285 208.008 407.056 207.769C406.826 207.531 406.555 207.343 406.243 207.205C405.931 207.068 405.596 206.999 405.237 206.999Z" fill="#ADABB5"/>
<path d="M409.919 209.653C409.919 209.158 410.011 208.69 410.194 208.25C410.378 207.81 410.626 207.43 410.938 207.109C411.26 206.788 411.636 206.536 412.068 206.353C412.499 206.17 412.959 206.078 413.445 206.078C413.932 206.078 414.387 206.17 414.809 206.353C415.241 206.536 415.613 206.788 415.925 207.109C416.246 207.43 416.499 207.81 416.683 208.25C416.866 208.69 416.958 209.158 416.958 209.653C416.958 210.157 416.866 210.629 416.683 211.069C416.499 211.509 416.246 211.89 415.925 212.21C415.613 212.531 415.241 212.783 414.809 212.967C414.387 213.15 413.932 213.242 413.445 213.242C412.959 213.242 412.499 213.15 412.068 212.967C411.636 212.783 411.26 212.531 410.938 212.21C410.626 211.89 410.378 211.509 410.194 211.069C410.011 210.629 409.919 210.157 409.919 209.653ZM413.445 212.334C413.794 212.334 414.12 212.265 414.423 212.128C414.736 211.99 415.002 211.803 415.222 211.564C415.452 211.317 415.631 211.033 415.76 210.712C415.888 210.382 415.953 210.029 415.953 209.653C415.953 209.277 415.888 208.929 415.76 208.608C415.631 208.278 415.452 207.994 415.222 207.755C415.002 207.517 414.736 207.329 414.423 207.192C414.12 207.054 413.794 206.985 413.445 206.985C413.096 206.985 412.766 207.054 412.454 207.192C412.15 207.329 411.884 207.517 411.655 207.755C411.434 207.994 411.255 208.278 411.117 208.608C410.989 208.929 410.924 209.277 410.924 209.653C410.924 210.029 410.989 210.382 411.117 210.712C411.246 211.033 411.42 211.317 411.641 211.564C411.87 211.803 412.141 211.99 412.454 212.128C412.766 212.265 413.096 212.334 413.445 212.334Z" fill="#ADABB5"/>
<path d="M418.731 211.564V207.082H417.243V206.215H418.731V204.469L419.737 204.208V206.215H421.817V207.082H419.737V211.303C419.737 211.67 419.819 211.935 419.985 212.1C420.15 212.256 420.421 212.334 420.797 212.334C420.99 212.334 421.16 212.32 421.307 212.293C421.463 212.265 421.628 212.22 421.803 212.155V213.049C421.628 213.113 421.431 213.159 421.211 213.187C420.999 213.214 420.793 213.228 420.591 213.228C419.994 213.228 419.535 213.086 419.213 212.802C418.892 212.518 418.731 212.105 418.731 211.564Z" fill="#ADABB5"/>
<path d="M431.681 212.375C431.296 212.66 430.891 212.875 430.469 213.022C430.056 213.159 429.601 213.228 429.105 213.228C428.609 213.228 428.141 213.136 427.7 212.953C427.268 212.77 426.892 212.518 426.57 212.197C426.258 211.876 426.01 211.5 425.827 211.069C425.643 210.629 425.551 210.157 425.551 209.653C425.551 209.158 425.638 208.695 425.813 208.264C425.996 207.833 426.24 207.458 426.543 207.137C426.846 206.816 427.204 206.564 427.617 206.38C428.04 206.197 428.485 206.105 428.954 206.105C429.413 206.105 429.84 206.197 430.235 206.38C430.639 206.564 430.983 206.816 431.268 207.137C431.562 207.458 431.791 207.833 431.957 208.264C432.131 208.695 432.219 209.158 432.219 209.653V209.969H426.557C426.63 210.648 426.91 211.211 427.397 211.66C427.884 212.11 428.467 212.334 429.147 212.334C429.505 212.334 429.854 212.279 430.193 212.169C430.533 212.059 430.818 211.903 431.048 211.702L431.681 212.375ZM428.926 206.999C428.329 206.999 427.81 207.201 427.369 207.604C426.938 208.008 426.676 208.525 426.584 209.158H431.199C431.107 208.553 430.846 208.044 430.414 207.632C429.991 207.21 429.496 206.999 428.926 206.999Z" fill="#ADABB5"/>
<path d="M433.008 212.155L433.628 211.495C433.941 211.789 434.29 212.018 434.675 212.183C435.07 212.339 435.47 212.417 435.874 212.417C436.425 212.417 436.875 212.302 437.224 212.073C437.573 211.844 437.747 211.546 437.747 211.179C437.747 210.886 437.642 210.657 437.43 210.492C437.228 210.318 436.907 210.198 436.466 210.134L435.268 209.969C434.579 209.868 434.065 209.667 433.725 209.364C433.394 209.053 433.229 208.635 433.229 208.113C433.229 207.535 433.472 207.059 433.959 206.683C434.446 206.298 435.066 206.105 435.819 206.105C436.315 206.105 436.783 206.179 437.224 206.325C437.674 206.472 438.11 206.701 438.532 207.013L437.995 207.7C437.609 207.444 437.233 207.251 436.866 207.123C436.507 206.995 436.14 206.93 435.764 206.93C435.295 206.93 434.909 207.036 434.606 207.247C434.312 207.458 434.166 207.733 434.166 208.072C434.166 208.365 434.267 208.594 434.469 208.759C434.671 208.915 434.997 209.025 435.447 209.089L436.645 209.254C437.334 209.346 437.848 209.552 438.188 209.873C438.537 210.185 438.712 210.602 438.712 211.124C438.712 211.418 438.638 211.697 438.491 211.963C438.353 212.22 438.156 212.444 437.899 212.637C437.651 212.82 437.357 212.967 437.017 213.077C436.677 213.178 436.31 213.228 435.915 213.228C435.346 213.228 434.808 213.136 434.303 212.953C433.807 212.76 433.376 212.495 433.008 212.155Z" fill="#ADABB5"/>
<path d="M440.578 211.564V207.082H439.091V206.215H440.578V204.469L441.584 204.208V206.215H443.664V207.082H441.584V211.303C441.584 211.67 441.667 211.935 441.832 212.1C441.997 212.256 442.268 212.334 442.645 212.334C442.838 212.334 443.008 212.32 443.155 212.293C443.311 212.265 443.476 212.22 443.65 212.155V213.049C443.476 213.113 443.279 213.159 443.058 213.187C442.847 213.214 442.64 213.228 442.438 213.228C441.841 213.228 441.382 213.086 441.061 212.802C440.739 212.518 440.578 212.105 440.578 211.564Z" fill="#ADABB5"/>
<path d="M446.932 213.228C446.179 213.228 445.564 213.035 445.086 212.65C444.618 212.265 444.384 211.766 444.384 211.152C444.384 210.51 444.632 210.001 445.128 209.625C445.624 209.24 446.294 209.048 447.139 209.048C447.506 209.048 447.86 209.089 448.2 209.172C448.549 209.254 448.87 209.369 449.164 209.515V208.608C449.164 208.058 449.008 207.645 448.696 207.37C448.383 207.086 447.929 206.944 447.332 206.944C446.992 206.944 446.648 206.995 446.299 207.095C445.959 207.187 445.582 207.338 445.169 207.549L444.783 206.765C445.279 206.527 445.738 206.353 446.161 206.243C446.583 206.133 447.006 206.078 447.428 206.078C448.301 206.078 448.971 206.284 449.44 206.697C449.917 207.109 450.156 207.7 450.156 208.47V213.104H449.164V212.43C448.852 212.696 448.507 212.898 448.131 213.035C447.763 213.164 447.364 213.228 446.932 213.228ZM445.362 211.124C445.362 211.509 445.523 211.825 445.844 212.073C446.175 212.311 446.597 212.43 447.111 212.43C447.525 212.43 447.901 212.366 448.241 212.238C448.581 212.11 448.889 211.908 449.164 211.633V210.34C448.879 210.148 448.572 210.01 448.241 209.928C447.92 209.836 447.561 209.79 447.167 209.79C446.616 209.79 446.175 209.914 445.844 210.162C445.523 210.4 445.362 210.721 445.362 211.124ZM447.869 203.259H449.178L447.47 204.854H446.574L447.869 203.259Z" fill="#ADABB5"/>
<path d="M454.116 212.155L454.736 211.495C455.048 211.789 455.397 212.018 455.783 212.183C456.178 212.339 456.577 212.417 456.981 212.417C457.532 212.417 457.982 212.302 458.331 212.073C458.68 211.844 458.855 211.546 458.855 211.179C458.855 210.886 458.749 210.657 458.538 210.492C458.336 210.318 458.015 210.198 457.574 210.134L456.375 209.969C455.686 209.868 455.172 209.667 454.832 209.364C454.502 209.053 454.336 208.635 454.336 208.113C454.336 207.535 454.58 207.059 455.067 206.683C455.553 206.298 456.173 206.105 456.926 206.105C457.422 206.105 457.891 206.179 458.331 206.325C458.781 206.472 459.218 206.701 459.64 207.013L459.103 207.7C458.717 207.444 458.341 207.251 457.973 207.123C457.615 206.995 457.248 206.93 456.871 206.93C456.403 206.93 456.017 207.036 455.714 207.247C455.42 207.458 455.273 207.733 455.273 208.072C455.273 208.365 455.374 208.594 455.576 208.759C455.778 208.915 456.104 209.025 456.554 209.089L457.753 209.254C458.442 209.346 458.956 209.552 459.296 209.873C459.645 210.185 459.819 210.602 459.819 211.124C459.819 211.418 459.746 211.697 459.599 211.963C459.461 212.22 459.264 212.444 459.006 212.637C458.758 212.82 458.465 212.967 458.125 213.077C457.785 213.178 457.418 213.228 457.023 213.228C456.453 213.228 455.916 213.136 455.411 212.953C454.915 212.76 454.483 212.495 454.116 212.155Z" fill="#ADABB5"/>
<path d="M463.21 213.228C462.457 213.228 461.842 213.035 461.364 212.65C460.896 212.265 460.662 211.766 460.662 211.152C460.662 210.51 460.91 210.001 461.406 209.625C461.902 209.24 462.572 209.048 463.417 209.048C463.784 209.048 464.138 209.089 464.478 209.172C464.827 209.254 465.148 209.369 465.442 209.515V208.608C465.442 208.058 465.286 207.645 464.974 207.37C464.661 207.086 464.207 206.944 463.61 206.944C463.27 206.944 462.926 206.995 462.577 207.095C462.237 207.187 461.86 207.338 461.447 207.549L461.061 206.765C461.557 206.527 462.016 206.353 462.439 206.243C462.861 206.133 463.284 206.078 463.706 206.078C464.579 206.078 465.249 206.284 465.718 206.697C466.195 207.109 466.434 207.7 466.434 208.47V213.104H465.442V212.43C465.13 212.696 464.785 212.898 464.409 213.035C464.042 213.164 463.642 213.228 463.21 213.228ZM461.64 211.124C461.64 211.509 461.801 211.825 462.122 212.073C462.453 212.311 462.875 212.43 463.389 212.43C463.803 212.43 464.179 212.366 464.519 212.238C464.859 212.11 465.167 211.908 465.442 211.633V210.34C465.157 210.148 464.85 210.01 464.519 209.928C464.198 209.836 463.839 209.79 463.445 209.79C462.894 209.79 462.453 209.914 462.122 210.162C461.801 210.4 461.64 210.721 461.64 211.124Z" fill="#ADABB5"/>
<path d="M469.048 206.215V210.368C469.048 210.973 469.222 211.454 469.571 211.812C469.92 212.169 470.389 212.348 470.976 212.348C471.39 212.348 471.757 212.256 472.078 212.073C472.409 211.88 472.675 211.615 472.877 211.275V206.215H473.897V213.104H472.877V212.307C472.611 212.618 472.294 212.852 471.927 213.008C471.569 213.164 471.165 213.242 470.715 213.242C469.925 213.242 469.282 212.994 468.786 212.499C468.29 212.004 468.042 211.363 468.042 210.574V206.215H469.048Z" fill="#ADABB5"/>
<path d="M481.017 213.104V212.375C480.723 212.65 480.383 212.861 479.997 213.008C479.621 213.145 479.217 213.214 478.785 213.214C478.298 213.214 477.844 213.123 477.421 212.939C476.999 212.756 476.631 212.508 476.319 212.197C476.007 211.876 475.759 211.495 475.575 211.055C475.401 210.615 475.313 210.148 475.313 209.653C475.313 209.158 475.401 208.695 475.575 208.264C475.759 207.824 476.007 207.448 476.319 207.137C476.631 206.816 476.999 206.564 477.421 206.38C477.853 206.197 478.312 206.105 478.799 206.105C479.194 206.105 479.579 206.174 479.956 206.312C480.342 206.44 480.691 206.633 481.003 206.889V203.479L482.022 203.245V213.104H481.017ZM476.319 209.639C476.319 210.015 476.383 210.368 476.512 210.698C476.65 211.028 476.833 211.312 477.063 211.55C477.292 211.789 477.563 211.977 477.876 212.114C478.188 212.252 478.523 212.32 478.881 212.32C479.313 212.32 479.712 212.238 480.08 212.073C480.456 211.899 480.764 211.66 481.003 211.358V207.948C480.764 207.655 480.456 207.425 480.08 207.26C479.703 207.086 479.304 206.999 478.881 206.999C478.165 206.999 477.559 207.251 477.063 207.755C476.567 208.26 476.319 208.888 476.319 209.639Z" fill="#ADABB5"/>
<path d="M485.932 213.228C485.179 213.228 484.564 213.035 484.086 212.65C483.618 212.265 483.384 211.766 483.384 211.152C483.384 210.51 483.632 210.001 484.128 209.625C484.624 209.24 485.294 209.048 486.139 209.048C486.506 209.048 486.86 209.089 487.2 209.172C487.549 209.254 487.87 209.369 488.164 209.515V208.608C488.164 208.058 488.008 207.645 487.696 207.37C487.383 207.086 486.929 206.944 486.332 206.944C485.992 206.944 485.648 206.995 485.299 207.095C484.959 207.187 484.582 207.338 484.169 207.549L483.783 206.765C484.279 206.527 484.738 206.353 485.161 206.243C485.583 206.133 486.006 206.078 486.428 206.078C487.301 206.078 487.971 206.284 488.44 206.697C488.917 207.109 489.156 207.7 489.156 208.47V213.104H488.164V212.43C487.852 212.696 487.507 212.898 487.131 213.035C486.764 213.164 486.364 213.228 485.932 213.228ZM484.362 211.124C484.362 211.509 484.523 211.825 484.844 212.073C485.175 212.311 485.597 212.43 486.111 212.43C486.525 212.43 486.901 212.366 487.241 212.238C487.581 212.11 487.889 211.908 488.164 211.633V210.34C487.879 210.148 487.572 210.01 487.241 209.928C486.92 209.836 486.561 209.79 486.167 209.79C485.616 209.79 485.175 209.914 484.844 210.162C484.523 210.4 484.362 210.721 484.362 211.124ZM486.869 203.259H488.178L486.47 204.854H485.574L486.869 203.259Z" fill="#ADABB5"/>
<path d="M492.686 213.104L489.697 206.215H490.826L493.182 211.784L495.538 206.215H496.626L493.65 213.104H492.686Z" fill="#ADABB5"/>
<path d="M503.103 212.375C502.717 212.66 502.313 212.875 501.891 213.022C501.477 213.159 501.023 213.228 500.527 213.228C500.031 213.228 499.562 213.136 499.122 212.953C498.69 212.77 498.313 212.518 497.992 212.197C497.68 211.876 497.432 211.5 497.248 211.069C497.064 210.629 496.973 210.157 496.973 209.653C496.973 209.158 497.06 208.695 497.234 208.264C497.418 207.833 497.661 207.458 497.964 207.137C498.268 206.816 498.626 206.564 499.039 206.38C499.461 206.197 499.907 206.105 500.375 206.105C500.834 206.105 501.261 206.197 501.656 206.38C502.06 206.564 502.405 206.816 502.69 207.137C502.983 207.458 503.213 207.833 503.378 208.264C503.553 208.695 503.64 209.158 503.64 209.653V209.969H497.978C498.052 210.648 498.332 211.211 498.819 211.66C499.305 212.11 499.888 212.334 500.568 212.334C500.926 212.334 501.275 212.279 501.615 212.169C501.955 212.059 502.24 211.903 502.469 211.702L503.103 212.375ZM500.348 206.999C499.751 206.999 499.232 207.201 498.791 207.604C498.359 208.008 498.098 208.525 498.006 209.158H502.621C502.529 208.553 502.267 208.044 501.835 207.632C501.413 207.21 500.917 206.999 500.348 206.999Z" fill="#ADABB5"/>
<path d="M506.085 203.245V213.104H505.065V203.479L506.085 203.245Z" fill="#ADABB5"/>
<path d="M508.319 211.784C508.512 211.784 508.677 211.853 508.815 211.99C508.953 212.128 509.022 212.293 509.022 212.485C509.022 212.678 508.953 212.843 508.815 212.98C508.677 213.118 508.512 213.187 508.319 213.187C508.126 213.187 507.961 213.118 507.823 212.98C507.685 212.843 507.616 212.678 507.616 212.485C507.616 212.293 507.685 212.128 507.823 211.99C507.961 211.853 508.126 211.784 508.319 211.784Z" fill="#ADABB5"/>
<path d="M456.122 120.292C456.122 139.988 440.125 155.958 420.387 155.958C400.649 155.958 384.651 139.988 384.651 120.292C384.651 100.595 400.649 84.625 420.387 84.625C440.125 84.625 456.122 100.595 456.122 120.292Z" stroke="#71D74D" stroke-width="2"/>
<path d="M426.871 122.313V126.371C426.871 127.045 426.323 127.592 425.647 127.592C424.972 127.592 424.424 127.045 424.424 126.371V122.313C424.424 121.639 424.972 121.092 425.647 121.092C426.323 121.092 426.871 121.639 426.871 122.313Z" fill="#38424F"/>
<path d="M417.613 122.313V126.371C417.613 127.045 417.065 127.592 416.39 127.592C415.714 127.592 415.166 127.045 415.166 126.371V122.313C415.166 121.639 415.714 121.092 416.39 121.092C417.065 121.092 417.613 121.639 417.613 122.313Z" fill="#38424F"/>
<path fill-rule="evenodd" clip-rule="evenodd" d="M422.127 110.274C423.167 109.673 423.866 108.551 423.866 107.265C423.866 105.347 422.308 103.792 420.386 103.792C418.464 103.792 416.906 105.347 416.906 107.265C416.906 108.551 417.606 109.674 418.646 110.274V112.734H412.067C408.019 112.734 404.726 116.021 404.726 120.061V129.465C404.726 133.505 408.018 136.792 412.065 136.792H428.706C432.754 136.792 436.047 133.505 436.047 129.464V120.061C436.047 116.021 432.754 112.734 428.706 112.734H422.127V110.274ZM412.067 115.176C409.368 115.176 407.173 117.367 407.173 120.061V129.465C407.173 132.158 409.368 134.349 412.065 134.349H428.706C431.405 134.349 433.6 132.158 433.6 129.464V120.061C433.6 117.367 431.405 115.176 428.706 115.176H412.067Z" fill="#38424F"/>
<defs>
<filter id="filter0_d" x="8" y="0" width="483.229" height="89.3333" filterUnits="userSpaceOnUse" color-interpolation-filters="sRGB">
<feFlood flood-opacity="0" result="BackgroundImageFix"/>
<feColorMatrix in="SourceAlpha" type="matrix" values="0 0 0 0 0 0 0 0 0 0 0 0 0 0 0 0 0 0 127 0"/>
<feOffset/>
<feGaussianBlur stdDeviation="4"/>
<feColorMatrix type="matrix" values="0 0 0 0 0.282353 0 0 0 0 0.509804 0 0 0 0 0.921569 0 0 0 0.2 0"/>
<feBlend mode="normal" in2="BackgroundImageFix" result="effect1_dropShadow"/>
<feBlend mode="normal" in="SourceGraphic" in2="effect1_dropShadow" result="shape"/>
</filter>
<filter id="filter1_d" x="0" y="83.6666" width="499.229" height="105.333" filterUnits="userSpaceOnUse" color-interpolation-filters="sRGB">
<feFlood flood-opacity="0" result="BackgroundImageFix"/>
<feColorMatrix in="SourceAlpha" type="matrix" values="0 0 0 0 0 0 0 0 0 0 0 0 0 0 0 0 0 0 127 0"/>
<feOffset/>
<feGaussianBlur stdDeviation="8"/>
<feColorMatrix type="matrix" values="0 0 0 0 0.898039 0 0 0 0 0.898039 0 0 0 0 0.898039 0 0 0 0.4 0"/>
<feBlend mode="normal" in2="BackgroundImageFix" result="effect1_dropShadow"/>
<feBlend mode="normal" in="SourceGraphic" in2="effect1_dropShadow" result="shape"/>
</filter>
<filter id="filter2_d" x="0" y="267" width="499.229" height="105.333" filterUnits="userSpaceOnUse" color-interpolation-filters="sRGB">
<feFlood flood-opacity="0" result="BackgroundImageFix"/>
<feColorMatrix in="SourceAlpha" type="matrix" values="0 0 0 0 0 0 0 0 0 0 0 0 0 0 0 0 0 0 127 0"/>
<feOffset/>
<feGaussianBlur stdDeviation="8"/>
<feColorMatrix type="matrix" values="0 0 0 0 0.898039 0 0 0 0 0.898039 0 0 0 0 0.898039 0 0 0 0.4 0"/>
<feBlend mode="normal" in2="BackgroundImageFix" result="effect1_dropShadow"/>
<feBlend mode="normal" in="SourceGraphic" in2="effect1_dropShadow" result="shape"/>
</filter>
<filter id="filter3_d" x="0" y="358.667" width="499.229" height="105.333" filterUnits="userSpaceOnUse" color-interpolation-filters="sRGB">
<feFlood flood-opacity="0" result="BackgroundImageFix"/>
<feColorMatrix in="SourceAlpha" type="matrix" values="0 0 0 0 0 0 0 0 0 0 0 0 0 0 0 0 0 0 127 0"/>
<feOffset/>
<feGaussianBlur stdDeviation="8"/>
<feColorMatrix type="matrix" values="0 0 0 0 0.898039 0 0 0 0 0.898039 0 0 0 0 0.898039 0 0 0 0.4 0"/>
<feBlend mode="normal" in2="BackgroundImageFix" result="effect1_dropShadow"/>
<feBlend mode="normal" in="SourceGraphic" in2="effect1_dropShadow" result="shape"/>
</filter>
<filter id="filter4_d" x="0" y="175.333" width="499.229" height="105.333" filterUnits="userSpaceOnUse" color-interpolation-filters="sRGB">
<feFlood flood-opacity="0" result="BackgroundImageFix"/>
<feColorMatrix in="SourceAlpha" type="matrix" values="0 0 0 0 0 0 0 0 0 0 0 0 0 0 0 0 0 0 127 0"/>
<feOffset/>
<feGaussianBlur stdDeviation="8"/>
<feColorMatrix type="matrix" values="0 0 0 0 0.898039 0 0 0 0 0.898039 0 0 0 0 0.898039 0 0 0 0.4 0"/>
<feBlend mode="normal" in2="BackgroundImageFix" result="effect1_dropShadow"/>
<feBlend mode="normal" in="SourceGraphic" in2="effect1_dropShadow" result="shape"/>
</filter>
<filter id="filter5_d" x="296.18" y="49.2916" width="247.821" height="199.292" filterUnits="userSpaceOnUse" color-interpolation-filters="sRGB">
<feFlood flood-opacity="0" result="BackgroundImageFix"/>
<feColorMatrix in="SourceAlpha" type="matrix" values="0 0 0 0 0 0 0 0 0 0 0 0 0 0 0 0 0 0 127 0"/>
<feOffset/>
<feGaussianBlur stdDeviation="8"/>
<feColorMatrix type="matrix" values="0 0 0 0 0.898039 0 0 0 0 0.898039 0 0 0 0 0.898039 0 0 0 0.4 0"/>
<feBlend mode="normal" in2="BackgroundImageFix" result="effect1_dropShadow"/>
<feBlend mode="normal" in="SourceGraphic" in2="effect1_dropShadow" result="shape"/>
</filter>
</defs>
</svg>
