<svg width="657" height="639" viewBox="0 0 657 639" fill="none" xmlns="http://www.w3.org/2000/svg">
<g clip-path="url(#clip0)">
<path d="M66.724 209.191L1283.58 -220.329C1327.77 -236.746 1373.5 -199.684 1365.31 -153.982L1149.08 723.164C1136.24 795.456 1050.85 829.422 990.349 786.537L612.464 500.531C566.957 468.19 516.258 443.564 462.486 427.235L69.8883 300.611C25.1038 287.15 23.0696 225.623 66.724 209.191Z" fill="#7F31FF"/>
<path d="M107.724 194.191L1324.58 -235.329C1368.77 -251.746 1414.5 -214.684 1406.31 -168.982L1190.08 708.164C1177.24 780.456 1091.85 814.422 1031.35 771.537L653.464 485.531C607.957 453.19 557.258 428.564 503.486 412.235L110.888 285.611C66.1038 272.15 64.0696 210.623 107.724 194.191Z" fill="#71D74D"/>
<g filter="url(#filter0_d)">
<rect x="65" y="108" width="255" height="106" rx="5.15" fill="white"/>
<rect x="65.6438" y="108.644" width="253.712" height="104.713" rx="4.50625" stroke="#E4E4E4" stroke-width="1.2875"/>
</g>
<g filter="url(#filter1_d)">
<rect x="157" y="254" width="266" height="106" rx="5.15" fill="white"/>
<rect x="157.644" y="254.644" width="264.712" height="104.713" rx="4.50625" stroke="#E4E4E4" stroke-width="1.2875"/>
</g>
<g filter="url(#filter2_d)">
<rect x="320" y="400" width="257" height="106" rx="5.15" fill="white"/>
<rect x="320.644" y="400.644" width="255.712" height="104.713" rx="4.50625" stroke="#E4E4E4" stroke-width="1.2875"/>
</g>
<path d="M183.837 142.777V159H180.662V145.999L177.487 147.297V144.539L181.82 142.777H183.837ZM185.96 159V156.775L192.357 151.051C193.083 150.387 193.6 149.807 193.909 149.313C194.218 148.803 194.373 148.278 194.373 147.737C194.373 147.026 194.095 146.439 193.538 145.976C192.982 145.512 192.287 145.28 191.453 145.28C190.68 145.28 189.954 145.435 189.274 145.744C188.61 146.053 187.884 146.563 187.096 147.273L185.311 145.141C186.254 144.292 187.25 143.65 188.301 143.218C189.351 142.785 190.433 142.569 191.545 142.569C192.411 142.569 193.206 142.693 193.932 142.94C194.674 143.171 195.3 143.504 195.81 143.936C196.335 144.369 196.737 144.894 197.015 145.512C197.308 146.13 197.455 146.802 197.455 147.528C197.455 148.455 197.223 149.313 196.76 150.101C196.296 150.889 195.493 151.793 194.35 152.812L190.387 156.335H197.664V159H185.96Z" fill="#38424F"/>
<path d="M276.837 289.777V306H273.662V292.999L270.487 294.297V291.539L274.82 289.777H276.837ZM280.861 302.454C281.386 302.454 281.834 302.64 282.205 303.01C282.576 303.381 282.761 303.829 282.761 304.355C282.761 304.864 282.576 305.305 282.205 305.676C281.834 306.046 281.386 306.232 280.861 306.232C280.351 306.232 279.91 306.046 279.54 305.676C279.169 305.305 278.983 304.864 278.983 304.355C278.983 303.829 279.169 303.381 279.54 303.01C279.91 302.64 280.351 302.454 280.861 302.454ZM290.653 306.255C289.711 306.255 288.838 306.139 288.035 305.907C287.247 305.66 286.567 305.328 285.995 304.911C285.424 304.494 284.976 303.992 284.651 303.404C284.342 302.817 284.188 302.168 284.188 301.458C284.188 300.623 284.443 299.866 284.952 299.187C285.478 298.507 286.158 297.997 286.992 297.657C286.312 297.271 285.764 296.769 285.346 296.151C284.929 295.533 284.721 294.845 284.721 294.088C284.721 293.439 284.867 292.837 285.161 292.28C285.47 291.724 285.887 291.245 286.412 290.844C286.938 290.426 287.563 290.102 288.29 289.87C289.031 289.638 289.819 289.523 290.653 289.523C291.488 289.523 292.268 289.638 292.994 289.87C293.736 290.102 294.369 290.426 294.894 290.844C295.435 291.245 295.852 291.724 296.146 292.28C296.455 292.837 296.609 293.439 296.609 294.088C296.609 294.845 296.401 295.54 295.984 296.174C295.567 296.792 295.018 297.286 294.338 297.657C295.173 297.997 295.845 298.507 296.355 299.187C296.88 299.866 297.142 300.623 297.142 301.458C297.142 302.168 296.98 302.817 296.656 303.404C296.347 303.992 295.906 304.494 295.335 304.911C294.763 305.328 294.076 305.66 293.272 305.907C292.484 306.139 291.611 306.255 290.653 306.255ZM290.653 296.475C291.457 296.475 292.129 296.266 292.67 295.849C293.226 295.432 293.504 294.915 293.504 294.297C293.504 293.679 293.234 293.161 292.693 292.744C292.152 292.311 291.472 292.095 290.653 292.095C289.85 292.095 289.178 292.311 288.637 292.744C288.096 293.161 287.826 293.679 287.826 294.297C287.826 294.915 288.096 295.432 288.637 295.849C289.193 296.266 289.866 296.475 290.653 296.475ZM290.653 303.659C291.611 303.659 292.399 303.435 293.017 302.987C293.651 302.539 293.967 301.968 293.967 301.272C293.967 300.592 293.651 300.029 293.017 299.581C292.399 299.117 291.611 298.885 290.653 298.885C289.711 298.885 288.923 299.117 288.29 299.581C287.672 300.029 287.363 300.592 287.363 301.272C287.363 301.968 287.672 302.539 288.29 302.987C288.923 303.435 289.711 303.659 290.653 303.659ZM305.876 306.232C304.81 306.232 303.837 306.031 302.956 305.629C302.075 305.227 301.326 304.664 300.708 303.937C300.09 303.211 299.603 302.331 299.248 301.295C298.908 300.26 298.738 299.117 298.738 297.866C298.738 296.63 298.908 295.494 299.248 294.459C299.603 293.424 300.09 292.543 300.708 291.817C301.342 291.091 302.099 290.527 302.979 290.125C303.86 289.723 304.826 289.523 305.876 289.523C306.942 289.523 307.916 289.723 308.796 290.125C309.677 290.527 310.426 291.091 311.044 291.817C311.662 292.543 312.141 293.424 312.481 294.459C312.836 295.494 313.014 296.63 313.014 297.866C313.014 299.117 312.844 300.26 312.504 301.295C312.164 302.331 311.678 303.211 311.044 303.937C310.426 304.664 309.677 305.227 308.796 305.629C307.916 306.031 306.942 306.232 305.876 306.232ZM305.876 303.474C307.128 303.474 308.116 302.972 308.843 301.968C309.569 300.963 309.932 299.596 309.932 297.866C309.932 296.166 309.561 294.814 308.819 293.81C308.093 292.79 307.112 292.28 305.876 292.28C304.64 292.28 303.659 292.79 302.933 293.81C302.207 294.814 301.844 296.166 301.844 297.866C301.844 299.596 302.207 300.963 302.933 301.968C303.659 302.972 304.64 303.474 305.876 303.474ZM321.741 306.232C320.675 306.232 319.702 306.031 318.821 305.629C317.94 305.227 317.191 304.664 316.573 303.937C315.955 303.211 315.468 302.331 315.113 301.295C314.773 300.26 314.603 299.117 314.603 297.866C314.603 296.63 314.773 295.494 315.113 294.459C315.468 293.424 315.955 292.543 316.573 291.817C317.207 291.091 317.964 290.527 318.844 290.125C319.725 289.723 320.69 289.523 321.741 289.523C322.807 289.523 323.78 289.723 324.661 290.125C325.542 290.527 326.291 291.091 326.909 291.817C327.527 292.543 328.006 293.424 328.346 294.459C328.701 295.494 328.879 296.63 328.879 297.866C328.879 299.117 328.709 300.26 328.369 301.295C328.029 302.331 327.543 303.211 326.909 303.937C326.291 304.664 325.542 305.227 324.661 305.629C323.78 306.031 322.807 306.232 321.741 306.232ZM321.741 303.474C322.993 303.474 323.981 302.972 324.707 301.968C325.434 300.963 325.797 299.596 325.797 297.866C325.797 296.166 325.426 294.814 324.684 293.81C323.958 292.79 322.977 292.28 321.741 292.28C320.505 292.28 319.524 292.79 318.798 293.81C318.072 294.814 317.709 296.166 317.709 297.866C317.709 299.596 318.072 300.963 318.798 301.968C319.524 302.972 320.505 303.474 321.741 303.474Z" fill="#38424F"/>
<path d="M440.323 451.255C439.381 451.255 438.508 451.139 437.705 450.907C436.917 450.66 436.237 450.328 435.665 449.911C435.093 449.494 434.645 448.992 434.321 448.404C434.012 447.817 433.857 447.168 433.857 446.458C433.857 445.623 434.112 444.866 434.622 444.187C435.148 443.507 435.827 442.997 436.662 442.657C435.982 442.271 435.433 441.769 435.016 441.151C434.599 440.533 434.391 439.845 434.391 439.088C434.391 438.439 434.537 437.837 434.831 437.28C435.14 436.724 435.557 436.245 436.082 435.844C436.608 435.426 437.233 435.102 437.959 434.87C438.701 434.638 439.489 434.523 440.323 434.523C441.158 434.523 441.938 434.638 442.664 434.87C443.406 435.102 444.039 435.426 444.564 435.844C445.105 436.245 445.522 436.724 445.816 437.28C446.125 437.837 446.279 438.439 446.279 439.088C446.279 439.845 446.071 440.54 445.654 441.174C445.236 441.792 444.688 442.286 444.008 442.657C444.842 442.997 445.515 443.507 446.024 444.187C446.55 444.866 446.812 445.623 446.812 446.458C446.812 447.168 446.65 447.817 446.326 448.404C446.017 448.992 445.576 449.494 445.005 449.911C444.433 450.328 443.745 450.66 442.942 450.907C442.154 451.139 441.281 451.255 440.323 451.255ZM440.323 441.475C441.127 441.475 441.799 441.266 442.34 440.849C442.896 440.432 443.174 439.915 443.174 439.297C443.174 438.679 442.903 438.161 442.363 437.744C441.822 437.311 441.142 437.095 440.323 437.095C439.52 437.095 438.848 437.311 438.307 437.744C437.766 438.161 437.496 438.679 437.496 439.297C437.496 439.915 437.766 440.432 438.307 440.849C438.863 441.266 439.535 441.475 440.323 441.475ZM440.323 448.659C441.281 448.659 442.069 448.435 442.687 447.987C443.321 447.539 443.637 446.968 443.637 446.272C443.637 445.592 443.321 445.029 442.687 444.581C442.069 444.117 441.281 443.885 440.323 443.885C439.381 443.885 438.593 444.117 437.959 444.581C437.341 445.029 437.032 445.592 437.032 446.272C437.032 446.968 437.341 447.539 437.959 447.987C438.593 448.435 439.381 448.659 440.323 448.659Z" fill="#38424F"/>
<path d="M177.263 172.251V171.185H186.27V172.251H182.361V182H181.172V172.251H177.263ZM185.328 178.122C185.328 177.566 185.431 177.041 185.637 176.546C185.843 176.052 186.121 175.624 186.471 175.264C186.832 174.903 187.254 174.62 187.738 174.414C188.222 174.208 188.737 174.105 189.283 174.105C189.829 174.105 190.339 174.208 190.813 174.414C191.297 174.62 191.714 174.903 192.064 175.264C192.425 175.624 192.708 176.052 192.914 176.546C193.12 177.041 193.223 177.566 193.223 178.122C193.223 178.689 193.12 179.219 192.914 179.713C192.708 180.208 192.425 180.635 192.064 180.996C191.714 181.356 191.297 181.639 190.813 181.845C190.339 182.052 189.829 182.155 189.283 182.155C188.737 182.155 188.222 182.052 187.738 181.845C187.254 181.639 186.832 181.356 186.471 180.996C186.121 180.635 185.843 180.208 185.637 179.713C185.431 179.219 185.328 178.689 185.328 178.122ZM189.283 181.135C189.675 181.135 190.04 181.058 190.38 180.903C190.73 180.749 191.029 180.537 191.276 180.27C191.534 179.991 191.735 179.672 191.879 179.312C192.023 178.941 192.095 178.544 192.095 178.122C192.095 177.7 192.023 177.308 191.879 176.948C191.735 176.577 191.534 176.258 191.276 175.99C191.029 175.722 190.73 175.511 190.38 175.356C190.04 175.202 189.675 175.125 189.283 175.125C188.892 175.125 188.521 175.202 188.171 175.356C187.831 175.511 187.532 175.722 187.275 175.99C187.027 176.258 186.827 176.577 186.672 176.948C186.528 177.308 186.456 177.7 186.456 178.122C186.456 178.544 186.528 178.941 186.672 179.312C186.816 179.672 187.012 179.991 187.259 180.27C187.517 180.537 187.821 180.749 188.171 180.903C188.521 181.058 188.892 181.135 189.283 181.135ZM195.211 180.27V175.233H193.542V174.26H195.211V172.297L196.339 172.004V174.26H198.672V175.233H196.339V179.976C196.339 180.388 196.432 180.687 196.617 180.872C196.802 181.047 197.106 181.135 197.529 181.135C197.745 181.135 197.935 181.119 198.1 181.088C198.275 181.058 198.461 181.006 198.656 180.934V181.938C198.461 182.01 198.239 182.062 197.992 182.093C197.755 182.124 197.523 182.139 197.297 182.139C196.627 182.139 196.112 181.979 195.752 181.66C195.391 181.341 195.211 180.877 195.211 180.27ZM202.337 182.139C201.493 182.139 200.802 181.923 200.267 181.49C199.742 181.058 199.479 180.496 199.479 179.806C199.479 179.085 199.757 178.513 200.313 178.091C200.869 177.659 201.621 177.442 202.569 177.442C202.981 177.442 203.377 177.489 203.759 177.581C204.15 177.674 204.51 177.803 204.84 177.968V176.948C204.84 176.33 204.665 175.866 204.315 175.557C203.965 175.238 203.455 175.078 202.785 175.078C202.404 175.078 202.018 175.135 201.626 175.248C201.245 175.351 200.823 175.521 200.36 175.758L199.927 174.878C200.483 174.61 200.998 174.414 201.472 174.29C201.946 174.167 202.42 174.105 202.893 174.105C203.872 174.105 204.624 174.337 205.149 174.8C205.685 175.264 205.952 175.928 205.952 176.793V182H204.84V181.243C204.49 181.542 204.104 181.768 203.681 181.923C203.269 182.067 202.821 182.139 202.337 182.139ZM200.576 179.775C200.576 180.208 200.756 180.563 201.117 180.841C201.487 181.109 201.961 181.243 202.538 181.243C203.002 181.243 203.424 181.171 203.805 181.027C204.186 180.882 204.531 180.656 204.84 180.347V178.895C204.521 178.678 204.176 178.524 203.805 178.431C203.444 178.328 203.043 178.277 202.6 178.277C201.982 178.277 201.487 178.416 201.117 178.694C200.756 178.961 200.576 179.322 200.576 179.775ZM209.006 170.922V182H207.862V171.185L209.006 170.922ZM220.316 182V181.181C219.986 181.49 219.605 181.727 219.172 181.892C218.75 182.046 218.297 182.124 217.813 182.124C217.267 182.124 216.757 182.021 216.283 181.815C215.81 181.609 215.398 181.33 215.047 180.98C214.697 180.62 214.419 180.192 214.213 179.698C214.017 179.204 213.919 178.678 213.919 178.122C213.919 177.566 214.017 177.046 214.213 176.562C214.419 176.067 214.697 175.645 215.047 175.295C215.398 174.934 215.81 174.651 216.283 174.445C216.767 174.239 217.282 174.136 217.828 174.136C218.271 174.136 218.704 174.213 219.126 174.368C219.559 174.512 219.95 174.728 220.3 175.017V171.185L221.444 170.922V182H220.316ZM215.047 178.107C215.047 178.529 215.119 178.925 215.264 179.296C215.418 179.667 215.624 179.986 215.882 180.254C216.139 180.522 216.443 180.733 216.793 180.888C217.143 181.042 217.519 181.119 217.921 181.119C218.405 181.119 218.853 181.027 219.265 180.841C219.687 180.646 220.033 180.378 220.3 180.038V176.206C220.033 175.877 219.687 175.619 219.265 175.434C218.843 175.238 218.395 175.14 217.921 175.14C217.118 175.14 216.438 175.423 215.882 175.99C215.325 176.556 215.047 177.262 215.047 178.107ZM229.908 181.181C229.475 181.5 229.022 181.742 228.548 181.907C228.085 182.062 227.575 182.139 227.019 182.139C226.462 182.139 225.937 182.036 225.443 181.83C224.959 181.624 224.536 181.341 224.176 180.98C223.826 180.62 223.548 180.197 223.342 179.713C223.136 179.219 223.033 178.689 223.033 178.122C223.033 177.566 223.13 177.046 223.326 176.562C223.532 176.077 223.805 175.655 224.145 175.295C224.485 174.934 224.887 174.651 225.35 174.445C225.824 174.239 226.323 174.136 226.849 174.136C227.364 174.136 227.843 174.239 228.286 174.445C228.739 174.651 229.125 174.934 229.444 175.295C229.774 175.655 230.031 176.077 230.217 176.562C230.413 177.046 230.51 177.566 230.51 178.122V178.477H224.16C224.243 179.24 224.557 179.873 225.103 180.378C225.649 180.882 226.303 181.135 227.065 181.135C227.467 181.135 227.858 181.073 228.239 180.949C228.62 180.826 228.94 180.651 229.197 180.424L229.908 181.181ZM226.818 175.14C226.148 175.14 225.566 175.367 225.072 175.82C224.588 176.273 224.294 176.855 224.191 177.566H229.367C229.264 176.886 228.971 176.314 228.486 175.851C228.013 175.377 227.456 175.14 226.818 175.14ZM238.935 182.062C238.4 182.062 237.895 181.959 237.421 181.753C236.958 181.547 236.551 181.269 236.201 180.919C235.85 180.558 235.572 180.136 235.366 179.652C235.171 179.167 235.073 178.647 235.073 178.091C235.073 177.535 235.171 177.015 235.366 176.531C235.572 176.047 235.85 175.629 236.201 175.279C236.551 174.919 236.963 174.635 237.437 174.429C237.91 174.223 238.42 174.12 238.966 174.12C239.409 174.12 239.836 174.203 240.248 174.368C240.671 174.522 241.057 174.744 241.407 175.032V174.26H242.535V182.185C242.535 183.174 242.247 183.931 241.67 184.457C241.093 184.992 240.269 185.26 239.198 185.26C238.662 185.26 238.132 185.188 237.606 185.044C237.081 184.91 236.602 184.714 236.17 184.457L236.664 183.56C237.128 183.808 237.555 183.988 237.946 184.101C238.348 184.215 238.75 184.271 239.151 184.271C239.883 184.271 240.439 184.096 240.82 183.746C241.201 183.396 241.392 182.881 241.392 182.201V181.166C241.042 181.454 240.655 181.676 240.233 181.83C239.821 181.985 239.388 182.062 238.935 182.062ZM236.201 178.091C236.201 178.503 236.273 178.895 236.417 179.265C236.561 179.626 236.757 179.94 237.004 180.208C237.261 180.465 237.565 180.671 237.915 180.826C238.266 180.98 238.636 181.058 239.028 181.058C239.522 181.058 239.975 180.965 240.387 180.779C240.799 180.594 241.134 180.331 241.392 179.991V176.191C241.134 175.861 240.794 175.604 240.372 175.418C239.96 175.233 239.512 175.14 239.028 175.14C238.626 175.14 238.25 175.217 237.9 175.372C237.56 175.516 237.261 175.722 237.004 175.99C236.757 176.258 236.561 176.572 236.417 176.932C236.273 177.293 236.201 177.679 236.201 178.091ZM244.481 182V174.26H245.624V175.356C245.851 174.955 246.149 174.646 246.52 174.429C246.891 174.203 247.313 174.09 247.787 174.09C247.931 174.09 248.06 174.1 248.173 174.12C248.287 174.131 248.4 174.157 248.513 174.198V175.248C248.379 175.207 248.245 175.176 248.112 175.156C247.978 175.125 247.844 175.109 247.71 175.109C247.236 175.109 246.819 175.248 246.458 175.526C246.098 175.794 245.82 176.186 245.624 176.701V182H244.481ZM250.798 174.26V178.925C250.798 179.605 250.994 180.146 251.385 180.548C251.777 180.949 252.302 181.15 252.961 181.15C253.425 181.15 253.837 181.047 254.197 180.841C254.568 180.625 254.867 180.326 255.093 179.945V174.26H256.237V182H255.093V181.104C254.795 181.454 254.439 181.717 254.027 181.892C253.625 182.067 253.172 182.155 252.668 182.155C251.782 182.155 251.061 181.876 250.505 181.32C249.948 180.764 249.67 180.043 249.67 179.157V174.26H250.798ZM258.181 185.167V174.26H259.308V175.094C259.638 174.775 260.014 174.538 260.436 174.383C260.869 174.218 261.327 174.136 261.811 174.136C262.357 174.136 262.867 174.239 263.341 174.445C263.815 174.651 264.227 174.934 264.577 175.295C264.927 175.645 265.2 176.067 265.396 176.562C265.602 177.046 265.705 177.566 265.705 178.122C265.705 178.678 265.602 179.204 265.396 179.698C265.2 180.192 264.927 180.62 264.577 180.98C264.227 181.33 263.81 181.609 263.325 181.815C262.852 182.021 262.342 182.124 261.796 182.124C261.343 182.124 260.905 182.046 260.483 181.892C260.06 181.737 259.674 181.516 259.324 181.227V185.167H258.181ZM261.703 175.14C261.219 175.14 260.766 175.238 260.344 175.434C259.932 175.619 259.592 175.882 259.324 176.222V180.053C259.592 180.383 259.937 180.646 260.359 180.841C260.781 181.027 261.229 181.119 261.703 181.119C262.517 181.119 263.197 180.836 263.743 180.27C264.299 179.693 264.577 178.982 264.577 178.138C264.577 177.715 264.5 177.324 264.345 176.963C264.201 176.592 264 176.273 263.743 176.005C263.485 175.738 263.181 175.526 262.831 175.372C262.481 175.217 262.105 175.14 261.703 175.14ZM266.953 178.122C266.953 177.566 267.056 177.041 267.262 176.546C267.468 176.052 267.746 175.624 268.097 175.264C268.457 174.903 268.879 174.62 269.364 174.414C269.848 174.208 270.363 174.105 270.909 174.105C271.454 174.105 271.964 174.208 272.438 174.414C272.922 174.62 273.339 174.903 273.69 175.264C274.05 175.624 274.333 176.052 274.539 176.546C274.745 177.041 274.848 177.566 274.848 178.122C274.848 178.689 274.745 179.219 274.539 179.713C274.333 180.208 274.05 180.635 273.69 180.996C273.339 181.356 272.922 181.639 272.438 181.845C271.964 182.052 271.454 182.155 270.909 182.155C270.363 182.155 269.848 182.052 269.364 181.845C268.879 181.639 268.457 181.356 268.097 180.996C267.746 180.635 267.468 180.208 267.262 179.713C267.056 179.219 266.953 178.689 266.953 178.122ZM270.909 181.135C271.3 181.135 271.666 181.058 272.006 180.903C272.356 180.749 272.654 180.537 272.902 180.27C273.159 179.991 273.36 179.672 273.504 179.312C273.648 178.941 273.72 178.544 273.72 178.122C273.72 177.7 273.648 177.308 273.504 176.948C273.36 176.577 273.159 176.258 272.902 175.99C272.654 175.722 272.356 175.511 272.006 175.356C271.666 175.202 271.3 175.125 270.909 175.125C270.517 175.125 270.146 175.202 269.796 175.356C269.456 175.511 269.158 175.722 268.9 175.99C268.653 176.258 268.452 176.577 268.298 176.948C268.153 177.308 268.081 177.7 268.081 178.122C268.081 178.544 268.153 178.941 268.298 179.312C268.442 179.672 268.637 179.991 268.885 180.27C269.142 180.537 269.446 180.749 269.796 180.903C270.146 181.058 270.517 181.135 270.909 181.135ZM275.649 180.934L276.344 180.192C276.694 180.522 277.086 180.779 277.518 180.965C277.961 181.14 278.409 181.227 278.863 181.227C279.481 181.227 279.985 181.099 280.377 180.841C280.768 180.584 280.964 180.249 280.964 179.837C280.964 179.507 280.845 179.25 280.608 179.064C280.382 178.869 280.021 178.735 279.527 178.663L278.183 178.477C277.41 178.364 276.833 178.137 276.452 177.798C276.082 177.447 275.896 176.979 275.896 176.392C275.896 175.743 276.169 175.207 276.715 174.785C277.261 174.352 277.956 174.136 278.801 174.136C279.357 174.136 279.882 174.218 280.377 174.383C280.881 174.548 281.371 174.805 281.844 175.156L281.242 175.928C280.809 175.64 280.387 175.423 279.975 175.279C279.573 175.135 279.161 175.063 278.739 175.063C278.214 175.063 277.781 175.181 277.441 175.418C277.112 175.655 276.947 175.964 276.947 176.345C276.947 176.675 277.06 176.932 277.287 177.118C277.513 177.293 277.879 177.416 278.384 177.489L279.728 177.674C280.5 177.777 281.077 178.009 281.458 178.369C281.85 178.719 282.045 179.188 282.045 179.775C282.045 180.105 281.963 180.419 281.798 180.718C281.644 181.006 281.422 181.258 281.134 181.475C280.856 181.681 280.526 181.845 280.145 181.969C279.764 182.082 279.352 182.139 278.909 182.139C278.27 182.139 277.668 182.036 277.101 181.83C276.545 181.614 276.061 181.315 275.649 180.934Z" fill="#ADABB5"/>
<path d="M270.263 322.251V321.185H279.27V322.251H275.361V332H274.172V322.251H270.263ZM278.328 328.122C278.328 327.566 278.431 327.041 278.637 326.546C278.843 326.052 279.121 325.624 279.471 325.264C279.832 324.903 280.254 324.62 280.738 324.414C281.222 324.208 281.737 324.105 282.283 324.105C282.829 324.105 283.339 324.208 283.813 324.414C284.297 324.62 284.714 324.903 285.064 325.264C285.425 325.624 285.708 326.052 285.914 326.546C286.12 327.041 286.223 327.566 286.223 328.122C286.223 328.689 286.12 329.219 285.914 329.713C285.708 330.208 285.425 330.635 285.064 330.996C284.714 331.356 284.297 331.639 283.813 331.845C283.339 332.052 282.829 332.155 282.283 332.155C281.737 332.155 281.222 332.052 280.738 331.845C280.254 331.639 279.832 331.356 279.471 330.996C279.121 330.635 278.843 330.208 278.637 329.713C278.431 329.219 278.328 328.689 278.328 328.122ZM282.283 331.135C282.675 331.135 283.04 331.058 283.38 330.903C283.73 330.749 284.029 330.537 284.276 330.27C284.534 329.991 284.735 329.672 284.879 329.312C285.023 328.941 285.095 328.544 285.095 328.122C285.095 327.7 285.023 327.308 284.879 326.948C284.735 326.577 284.534 326.258 284.276 325.99C284.029 325.722 283.73 325.511 283.38 325.356C283.04 325.202 282.675 325.125 282.283 325.125C281.892 325.125 281.521 325.202 281.171 325.356C280.831 325.511 280.532 325.722 280.275 325.99C280.027 326.258 279.827 326.577 279.672 326.948C279.528 327.308 279.456 327.7 279.456 328.122C279.456 328.544 279.528 328.941 279.672 329.312C279.816 329.672 280.012 329.991 280.259 330.27C280.517 330.537 280.821 330.749 281.171 330.903C281.521 331.058 281.892 331.135 282.283 331.135ZM288.211 330.27V325.233H286.542V324.26H288.211V322.297L289.339 322.004V324.26H291.672V325.233H289.339V329.976C289.339 330.388 289.432 330.687 289.617 330.872C289.802 331.047 290.106 331.135 290.529 331.135C290.745 331.135 290.935 331.119 291.1 331.088C291.275 331.058 291.461 331.006 291.656 330.934V331.938C291.461 332.01 291.239 332.062 290.992 332.093C290.755 332.124 290.523 332.139 290.297 332.139C289.627 332.139 289.112 331.979 288.752 331.66C288.391 331.341 288.211 330.877 288.211 330.27ZM295.337 332.139C294.493 332.139 293.802 331.923 293.267 331.49C292.742 331.058 292.479 330.496 292.479 329.806C292.479 329.085 292.757 328.513 293.313 328.091C293.869 327.659 294.621 327.442 295.569 327.442C295.981 327.442 296.377 327.489 296.759 327.581C297.15 327.674 297.51 327.803 297.84 327.968V326.948C297.84 326.33 297.665 325.866 297.315 325.557C296.965 325.238 296.455 325.078 295.785 325.078C295.404 325.078 295.018 325.135 294.626 325.248C294.245 325.351 293.823 325.521 293.36 325.758L292.927 324.878C293.483 324.61 293.998 324.414 294.472 324.29C294.946 324.167 295.42 324.105 295.893 324.105C296.872 324.105 297.624 324.337 298.149 324.8C298.685 325.264 298.952 325.928 298.952 326.793V332H297.84V331.243C297.49 331.542 297.104 331.768 296.681 331.923C296.269 332.067 295.821 332.139 295.337 332.139ZM293.576 329.775C293.576 330.208 293.756 330.563 294.117 330.841C294.487 331.109 294.961 331.243 295.538 331.243C296.002 331.243 296.424 331.171 296.805 331.027C297.186 330.882 297.531 330.656 297.84 330.347V328.895C297.521 328.678 297.176 328.524 296.805 328.431C296.444 328.328 296.043 328.277 295.6 328.277C294.982 328.277 294.487 328.416 294.117 328.694C293.756 328.961 293.576 329.322 293.576 329.775ZM302.006 320.922V332H300.862V321.185L302.006 320.922ZM313.316 332V331.181C312.986 331.49 312.605 331.727 312.172 331.892C311.75 332.046 311.297 332.124 310.813 332.124C310.267 332.124 309.757 332.021 309.283 331.815C308.81 331.609 308.398 331.33 308.047 330.98C307.697 330.62 307.419 330.192 307.213 329.698C307.017 329.204 306.919 328.678 306.919 328.122C306.919 327.566 307.017 327.046 307.213 326.562C307.419 326.067 307.697 325.645 308.047 325.295C308.398 324.934 308.81 324.651 309.283 324.445C309.767 324.239 310.282 324.136 310.828 324.136C311.271 324.136 311.704 324.213 312.126 324.368C312.559 324.512 312.95 324.728 313.3 325.017V321.185L314.444 320.922V332H313.316ZM308.047 328.107C308.047 328.529 308.119 328.925 308.264 329.296C308.418 329.667 308.624 329.986 308.882 330.254C309.139 330.522 309.443 330.733 309.793 330.888C310.143 331.042 310.519 331.119 310.921 331.119C311.405 331.119 311.853 331.027 312.265 330.841C312.687 330.646 313.033 330.378 313.3 330.038V326.206C313.033 325.877 312.687 325.619 312.265 325.434C311.843 325.238 311.395 325.14 310.921 325.14C310.118 325.14 309.438 325.423 308.882 325.99C308.325 326.556 308.047 327.262 308.047 328.107ZM322.908 331.181C322.475 331.5 322.022 331.742 321.548 331.907C321.085 332.062 320.575 332.139 320.019 332.139C319.462 332.139 318.937 332.036 318.443 331.83C317.959 331.624 317.536 331.341 317.176 330.98C316.826 330.62 316.548 330.197 316.342 329.713C316.136 329.219 316.033 328.689 316.033 328.122C316.033 327.566 316.13 327.046 316.326 326.562C316.532 326.077 316.805 325.655 317.145 325.295C317.485 324.934 317.887 324.651 318.35 324.445C318.824 324.239 319.323 324.136 319.849 324.136C320.364 324.136 320.843 324.239 321.286 324.445C321.739 324.651 322.125 324.934 322.444 325.295C322.774 325.655 323.031 326.077 323.217 326.562C323.413 327.046 323.51 327.566 323.51 328.122V328.477H317.16C317.243 329.24 317.557 329.873 318.103 330.378C318.649 330.882 319.303 331.135 320.065 331.135C320.467 331.135 320.858 331.073 321.239 330.949C321.62 330.826 321.94 330.651 322.197 330.424L322.908 331.181ZM319.818 325.14C319.148 325.14 318.566 325.367 318.072 325.82C317.588 326.273 317.294 326.855 317.191 327.566H322.367C322.264 326.886 321.971 326.314 321.486 325.851C321.013 325.377 320.456 325.14 319.818 325.14ZM328.428 332V324.26H329.571V325.109C329.86 324.78 330.194 324.532 330.576 324.368C330.957 324.193 331.379 324.105 331.842 324.105C332.378 324.105 332.857 324.234 333.279 324.491C333.712 324.738 334.047 325.078 334.284 325.511C334.603 325.037 334.984 324.687 335.427 324.46C335.88 324.223 336.385 324.105 336.941 324.105C337.775 324.105 338.455 324.383 338.98 324.939C339.516 325.496 339.784 326.217 339.784 327.102V332H338.656V327.334C338.656 326.654 338.476 326.114 338.115 325.712C337.755 325.31 337.265 325.109 336.647 325.109C336.225 325.109 335.839 325.217 335.489 325.434C335.138 325.65 334.84 325.964 334.593 326.376C334.613 326.489 334.629 326.608 334.639 326.732C334.66 326.845 334.67 326.968 334.67 327.102V332H333.542V327.334C333.542 326.654 333.362 326.114 333.001 325.712C332.641 325.31 332.157 325.109 331.549 325.109C331.137 325.109 330.761 325.207 330.421 325.403C330.091 325.588 329.808 325.866 329.571 326.237V332H328.428ZM348.225 331.181C347.793 331.5 347.339 331.742 346.866 331.907C346.402 332.062 345.892 332.139 345.336 332.139C344.78 332.139 344.255 332.036 343.76 331.83C343.276 331.624 342.854 331.341 342.493 330.98C342.143 330.62 341.865 330.197 341.659 329.713C341.453 329.219 341.35 328.689 341.35 328.122C341.35 327.566 341.448 327.046 341.644 326.562C341.85 326.077 342.123 325.655 342.462 325.295C342.802 324.934 343.204 324.651 343.668 324.445C344.141 324.239 344.641 324.136 345.166 324.136C345.681 324.136 346.16 324.239 346.603 324.445C347.056 324.651 347.442 324.934 347.762 325.295C348.091 325.655 348.349 326.077 348.534 326.562C348.73 327.046 348.828 327.566 348.828 328.122V328.477H342.478C342.56 329.24 342.874 329.873 343.42 330.378C343.966 330.882 344.62 331.135 345.382 331.135C345.784 331.135 346.176 331.073 346.557 330.949C346.938 330.826 347.257 330.651 347.515 330.424L348.225 331.181ZM345.135 325.14C344.466 325.14 343.884 325.367 343.389 325.82C342.905 326.273 342.612 326.855 342.509 327.566H347.685C347.582 326.886 347.288 326.314 346.804 325.851C346.33 325.377 345.774 325.14 345.135 325.14ZM350.426 332V324.26H351.569V325.109C351.858 324.78 352.193 324.532 352.574 324.368C352.955 324.193 353.377 324.105 353.841 324.105C354.376 324.105 354.855 324.234 355.277 324.491C355.71 324.738 356.045 325.078 356.282 325.511C356.601 325.037 356.982 324.687 357.425 324.46C357.878 324.223 358.383 324.105 358.939 324.105C359.773 324.105 360.453 324.383 360.979 324.939C361.514 325.496 361.782 326.217 361.782 327.102V332H360.654V327.334C360.654 326.654 360.474 326.114 360.113 325.712C359.753 325.31 359.264 325.109 358.646 325.109C358.223 325.109 357.837 325.217 357.487 325.434C357.137 325.65 356.838 325.964 356.591 326.376C356.611 326.489 356.627 326.608 356.637 326.732C356.658 326.845 356.668 326.968 356.668 327.102V332H355.54V327.334C355.54 326.654 355.36 326.114 354.999 325.712C354.639 325.31 354.155 325.109 353.547 325.109C353.135 325.109 352.759 325.207 352.419 325.403C352.09 325.588 351.806 325.866 351.569 326.237V332H350.426ZM371.228 328.122C371.228 328.678 371.125 329.204 370.919 329.698C370.723 330.192 370.45 330.62 370.1 330.98C369.75 331.33 369.332 331.609 368.848 331.815C368.375 332.021 367.865 332.124 367.319 332.124C366.866 332.124 366.423 332.046 365.99 331.892C365.568 331.737 365.182 331.516 364.831 331.227V332H363.704V321.185L364.847 320.922V325.078C365.166 324.769 365.537 324.538 365.959 324.383C366.392 324.218 366.85 324.136 367.334 324.136C367.88 324.136 368.39 324.239 368.864 324.445C369.338 324.651 369.75 324.934 370.1 325.295C370.45 325.645 370.723 326.067 370.919 326.562C371.125 327.046 371.228 327.566 371.228 328.122ZM367.226 325.14C366.742 325.14 366.289 325.238 365.867 325.434C365.455 325.619 365.115 325.882 364.847 326.222V330.053C365.115 330.383 365.46 330.646 365.882 330.841C366.304 331.027 366.752 331.119 367.226 331.119C368.04 331.119 368.72 330.836 369.266 330.27C369.822 329.693 370.1 328.982 370.1 328.138C370.1 327.715 370.023 327.324 369.868 326.963C369.724 326.592 369.523 326.273 369.266 326.005C369.008 325.738 368.704 325.526 368.354 325.372C368.004 325.217 367.628 325.14 367.226 325.14ZM372.817 332V324.26H373.96V325.356C374.187 324.955 374.485 324.646 374.856 324.429C375.227 324.203 375.649 324.09 376.123 324.09C376.267 324.09 376.396 324.1 376.509 324.12C376.622 324.131 376.736 324.157 376.849 324.198V325.248C376.715 325.207 376.581 325.176 376.447 325.156C376.313 325.125 376.18 325.109 376.046 325.109C375.572 325.109 375.155 325.248 374.794 325.526C374.434 325.794 374.156 326.186 373.96 326.701V332H372.817ZM377.244 328.122C377.244 327.566 377.347 327.041 377.553 326.546C377.759 326.052 378.037 325.624 378.387 325.264C378.748 324.903 379.17 324.62 379.654 324.414C380.138 324.208 380.653 324.105 381.199 324.105C381.745 324.105 382.255 324.208 382.729 324.414C383.213 324.62 383.63 324.903 383.98 325.264C384.341 325.624 384.624 326.052 384.83 326.546C385.036 327.041 385.139 327.566 385.139 328.122C385.139 328.689 385.036 329.219 384.83 329.713C384.624 330.208 384.341 330.635 383.98 330.996C383.63 331.356 383.213 331.639 382.729 331.845C382.255 332.052 381.745 332.155 381.199 332.155C380.653 332.155 380.138 332.052 379.654 331.845C379.17 331.639 378.748 331.356 378.387 330.996C378.037 330.635 377.759 330.208 377.553 329.713C377.347 329.219 377.244 328.689 377.244 328.122ZM381.199 331.135C381.591 331.135 381.956 331.058 382.296 330.903C382.646 330.749 382.945 330.537 383.192 330.27C383.45 329.991 383.651 329.672 383.795 329.312C383.939 328.941 384.011 328.544 384.011 328.122C384.011 327.7 383.939 327.308 383.795 326.948C383.651 326.577 383.45 326.258 383.192 325.99C382.945 325.722 382.646 325.511 382.296 325.356C381.956 325.202 381.591 325.125 381.199 325.125C380.808 325.125 380.437 325.202 380.087 325.356C379.747 325.511 379.448 325.722 379.191 325.99C378.944 326.258 378.743 326.577 378.588 326.948C378.444 327.308 378.372 327.7 378.372 328.122C378.372 328.544 378.444 328.941 378.588 329.312C378.732 329.672 378.928 329.991 379.175 330.27C379.433 330.537 379.737 330.749 380.087 330.903C380.437 331.058 380.808 331.135 381.199 331.135ZM385.94 330.934L386.635 330.192C386.985 330.522 387.377 330.779 387.809 330.965C388.252 331.14 388.7 331.227 389.153 331.227C389.771 331.227 390.276 331.099 390.667 330.841C391.059 330.584 391.254 330.249 391.254 329.837C391.254 329.507 391.136 329.25 390.899 329.064C390.673 328.869 390.312 328.735 389.818 328.663L388.473 328.477C387.701 328.364 387.124 328.137 386.743 327.798C386.372 327.447 386.187 326.979 386.187 326.392C386.187 325.743 386.46 325.207 387.006 324.785C387.552 324.352 388.247 324.136 389.091 324.136C389.648 324.136 390.173 324.218 390.667 324.383C391.172 324.548 391.661 324.805 392.135 325.156L391.533 325.928C391.1 325.64 390.678 325.423 390.266 325.279C389.864 325.135 389.452 325.063 389.03 325.063C388.504 325.063 388.072 325.181 387.732 325.418C387.402 325.655 387.237 325.964 387.237 326.345C387.237 326.675 387.351 326.932 387.577 327.118C387.804 327.293 388.17 327.416 388.674 327.489L390.018 327.674C390.791 327.777 391.368 328.009 391.749 328.369C392.14 328.719 392.336 329.188 392.336 329.775C392.336 330.105 392.254 330.419 392.089 330.718C391.934 331.006 391.713 331.258 391.424 331.475C391.146 331.681 390.817 331.845 390.436 331.969C390.055 332.082 389.643 332.139 389.2 332.139C388.561 332.139 387.958 332.036 387.392 331.83C386.836 331.614 386.352 331.315 385.94 330.934Z" fill="#ADABB5"/>
<path d="M433.062 474L437.558 463.185H438.995L443.429 474H442.131L440.771 470.601H435.673L434.298 474H433.062ZM436.09 469.581H440.354L438.238 464.297L436.09 469.581ZM444.459 474V466.26H445.603V467.171C445.901 466.821 446.257 466.558 446.669 466.383C447.081 466.198 447.539 466.105 448.044 466.105C448.919 466.105 449.635 466.383 450.191 466.939C450.748 467.496 451.026 468.217 451.026 469.102V474H449.898V469.334C449.898 468.654 449.702 468.114 449.311 467.712C448.919 467.31 448.394 467.109 447.735 467.109C447.271 467.109 446.854 467.212 446.483 467.418C446.123 467.624 445.829 467.918 445.603 468.299V474H444.459ZM453.96 466.26V470.925C453.96 471.605 454.156 472.146 454.547 472.548C454.939 472.949 455.464 473.15 456.123 473.15C456.587 473.15 456.999 473.047 457.359 472.841C457.73 472.625 458.029 472.326 458.255 471.945V466.26H459.399V474H458.255V473.104C457.957 473.454 457.601 473.717 457.189 473.892C456.788 474.067 456.334 474.155 455.83 474.155C454.944 474.155 454.223 473.876 453.667 473.32C453.111 472.764 452.832 472.043 452.832 471.157V466.26H453.96ZM456.757 462.938H458.225L456.309 464.73H455.304L456.757 462.938ZM461.343 474V466.26H462.486V467.171C462.785 466.821 463.14 466.558 463.552 466.383C463.964 466.198 464.422 466.105 464.927 466.105C465.803 466.105 466.519 466.383 467.075 466.939C467.631 467.496 467.909 468.217 467.909 469.102V474H466.781V469.334C466.781 468.654 466.585 468.114 466.194 467.712C465.803 467.31 465.277 467.109 464.618 467.109C464.155 467.109 463.738 467.212 463.367 467.418C463.006 467.624 462.713 467.918 462.486 468.299V474H461.343ZM473.437 473.104C473.849 473.104 474.246 473.021 474.627 472.857C475.008 472.692 475.364 472.45 475.693 472.131L476.404 472.903C475.992 473.294 475.528 473.598 475.013 473.815C474.498 474.031 473.963 474.139 473.407 474.139C472.861 474.139 472.346 474.036 471.862 473.83C471.377 473.624 470.96 473.341 470.61 472.98C470.26 472.62 469.982 472.192 469.776 471.698C469.57 471.204 469.467 470.678 469.467 470.122C469.467 469.566 469.57 469.046 469.776 468.562C469.982 468.067 470.26 467.64 470.61 467.279C470.96 466.919 471.377 466.635 471.862 466.429C472.346 466.213 472.861 466.105 473.407 466.105C473.963 466.105 474.504 466.213 475.029 466.429C475.564 466.646 476.033 466.944 476.435 467.326L475.709 468.16C475.4 467.841 475.044 467.593 474.643 467.418C474.241 467.243 473.834 467.156 473.422 467.156C473.031 467.156 472.66 467.233 472.31 467.387C471.959 467.542 471.656 467.753 471.398 468.021C471.151 468.289 470.955 468.603 470.811 468.963C470.667 469.324 470.595 469.71 470.595 470.122C470.595 470.544 470.667 470.941 470.811 471.312C470.965 471.672 471.166 471.986 471.414 472.254C471.671 472.512 471.975 472.718 472.325 472.872C472.675 473.027 473.046 473.104 473.437 473.104ZM478.315 464.776C478.109 464.776 477.929 464.699 477.774 464.545C477.62 464.39 477.542 464.21 477.542 464.004C477.542 463.788 477.62 463.607 477.774 463.463C477.929 463.309 478.109 463.231 478.315 463.231C478.531 463.231 478.712 463.309 478.856 463.463C479.01 463.607 479.087 463.788 479.087 464.004C479.087 464.21 479.01 464.39 478.856 464.545C478.712 464.699 478.531 464.776 478.315 464.776ZM478.887 466.26V474H477.743V466.26H478.887ZM480.481 470.122C480.481 469.566 480.584 469.041 480.79 468.546C480.996 468.052 481.274 467.624 481.624 467.264C481.985 466.903 482.407 466.62 482.891 466.414C483.375 466.208 483.89 466.105 484.436 466.105C484.982 466.105 485.492 466.208 485.966 466.414C486.45 466.62 486.867 466.903 487.217 467.264C487.578 467.624 487.861 468.052 488.067 468.546C488.273 469.041 488.376 469.566 488.376 470.122C488.376 470.689 488.273 471.219 488.067 471.713C487.861 472.208 487.578 472.635 487.217 472.996C486.867 473.356 486.45 473.639 485.966 473.845C485.492 474.052 484.982 474.155 484.436 474.155C483.89 474.155 483.375 474.052 482.891 473.845C482.407 473.639 481.985 473.356 481.624 472.996C481.274 472.635 480.996 472.208 480.79 471.713C480.584 471.219 480.481 470.689 480.481 470.122ZM484.436 473.135C484.828 473.135 485.193 473.058 485.533 472.903C485.883 472.749 486.182 472.537 486.429 472.27C486.687 471.991 486.888 471.672 487.032 471.312C487.176 470.941 487.248 470.544 487.248 470.122C487.248 469.7 487.176 469.308 487.032 468.948C486.888 468.577 486.687 468.258 486.429 467.99C486.182 467.722 485.883 467.511 485.533 467.356C485.193 467.202 484.828 467.125 484.436 467.125C484.045 467.125 483.674 467.202 483.324 467.356C482.984 467.511 482.685 467.722 482.428 467.99C482.18 468.258 481.98 468.577 481.825 468.948C481.681 469.308 481.609 469.7 481.609 470.122C481.609 470.544 481.681 470.941 481.825 471.312C481.969 471.672 482.165 471.991 482.412 472.27C482.67 472.537 482.974 472.749 483.324 472.903C483.674 473.058 484.045 473.135 484.436 473.135ZM489.177 472.934L489.872 472.192C490.222 472.522 490.613 472.779 491.046 472.965C491.489 473.14 491.937 473.227 492.39 473.227C493.008 473.227 493.513 473.099 493.904 472.841C494.296 472.584 494.491 472.249 494.491 471.837C494.491 471.507 494.373 471.25 494.136 471.064C493.909 470.869 493.549 470.735 493.055 470.663L491.71 470.477C490.938 470.364 490.361 470.137 489.98 469.798C489.609 469.447 489.424 468.979 489.424 468.392C489.424 467.743 489.697 467.207 490.243 466.785C490.789 466.352 491.484 466.136 492.328 466.136C492.885 466.136 493.41 466.218 493.904 466.383C494.409 466.548 494.898 466.805 495.372 467.156L494.769 467.928C494.337 467.64 493.915 467.423 493.503 467.279C493.101 467.135 492.689 467.063 492.267 467.063C491.741 467.063 491.309 467.181 490.969 467.418C490.639 467.655 490.474 467.964 490.474 468.345C490.474 468.675 490.588 468.932 490.814 469.118C491.041 469.293 491.407 469.416 491.911 469.489L493.255 469.674C494.028 469.777 494.605 470.009 494.986 470.369C495.377 470.719 495.573 471.188 495.573 471.775C495.573 472.105 495.49 472.419 495.326 472.718C495.171 473.006 494.95 473.258 494.661 473.475C494.383 473.681 494.054 473.845 493.673 473.969C493.291 474.082 492.879 474.139 492.437 474.139C491.798 474.139 491.195 474.036 490.629 473.83C490.073 473.614 489.589 473.315 489.177 472.934ZM502.62 474.139C501.776 474.139 501.085 473.923 500.55 473.49C500.025 473.058 499.762 472.496 499.762 471.806C499.762 471.085 500.04 470.513 500.596 470.091C501.152 469.659 501.904 469.442 502.852 469.442C503.264 469.442 503.66 469.489 504.042 469.581C504.433 469.674 504.793 469.803 505.123 469.968V468.948C505.123 468.33 504.948 467.866 504.598 467.557C504.248 467.238 503.738 467.078 503.068 467.078C502.687 467.078 502.301 467.135 501.909 467.248C501.528 467.351 501.106 467.521 500.643 467.758L500.21 466.878C500.766 466.61 501.281 466.414 501.755 466.29C502.229 466.167 502.703 466.105 503.176 466.105C504.155 466.105 504.907 466.337 505.432 466.8C505.968 467.264 506.235 467.928 506.235 468.793V474H505.123V473.243C504.773 473.542 504.387 473.768 503.964 473.923C503.552 474.067 503.104 474.139 502.62 474.139ZM500.859 471.775C500.859 472.208 501.039 472.563 501.4 472.841C501.77 473.109 502.244 473.243 502.821 473.243C503.284 473.243 503.707 473.171 504.088 473.027C504.469 472.882 504.814 472.656 505.123 472.347V470.895C504.804 470.678 504.459 470.524 504.088 470.431C503.727 470.328 503.326 470.277 502.883 470.277C502.265 470.277 501.77 470.416 501.4 470.694C501.039 470.961 500.859 471.322 500.859 471.775ZM508.802 472.27V467.233H507.133V466.26H508.802V464.297L509.929 464.004V466.26H512.262V467.233H509.929V471.976C509.929 472.388 510.022 472.687 510.208 472.872C510.393 473.047 510.697 473.135 511.119 473.135C511.335 473.135 511.526 473.119 511.691 473.088C511.866 473.058 512.051 473.006 512.247 472.934V473.938C512.051 474.01 511.83 474.062 511.583 474.093C511.346 474.124 511.114 474.139 510.887 474.139C510.218 474.139 509.703 473.979 509.342 473.66C508.982 473.341 508.802 472.877 508.802 472.27ZM514.058 464.776C513.852 464.776 513.672 464.699 513.517 464.545C513.363 464.39 513.286 464.21 513.286 464.004C513.286 463.788 513.363 463.607 513.517 463.463C513.672 463.309 513.852 463.231 514.058 463.231C514.274 463.231 514.455 463.309 514.599 463.463C514.753 463.607 514.831 463.788 514.831 464.004C514.831 464.21 514.753 464.39 514.599 464.545C514.455 464.699 514.274 464.776 514.058 464.776ZM514.63 466.26V474H513.487V466.26H514.63ZM519.036 474L515.683 466.26H516.95L519.592 472.517L522.234 466.26H523.455L520.118 474H519.036ZM523.844 470.122C523.844 469.566 523.947 469.041 524.153 468.546C524.359 468.052 524.637 467.624 524.987 467.264C525.347 466.903 525.77 466.62 526.254 466.414C526.738 466.208 527.253 466.105 527.799 466.105C528.345 466.105 528.855 466.208 529.328 466.414C529.812 466.62 530.23 466.903 530.58 467.264C530.94 467.624 531.224 468.052 531.43 468.546C531.636 469.041 531.739 469.566 531.739 470.122C531.739 470.689 531.636 471.219 531.43 471.713C531.224 472.208 530.94 472.635 530.58 472.996C530.23 473.356 529.812 473.639 529.328 473.845C528.855 474.052 528.345 474.155 527.799 474.155C527.253 474.155 526.738 474.052 526.254 473.845C525.77 473.639 525.347 473.356 524.987 472.996C524.637 472.635 524.359 472.208 524.153 471.713C523.947 471.219 523.844 470.689 523.844 470.122ZM527.799 473.135C528.19 473.135 528.556 473.058 528.896 472.903C529.246 472.749 529.545 472.537 529.792 472.27C530.049 471.991 530.25 471.672 530.394 471.312C530.539 470.941 530.611 470.544 530.611 470.122C530.611 469.7 530.539 469.308 530.394 468.948C530.25 468.577 530.049 468.258 529.792 467.99C529.545 467.722 529.246 467.511 528.896 467.356C528.556 467.202 528.19 467.125 527.799 467.125C527.407 467.125 527.037 467.202 526.686 467.356C526.346 467.511 526.048 467.722 525.79 467.99C525.543 468.258 525.342 468.577 525.188 468.948C525.044 469.308 524.971 469.7 524.971 470.122C524.971 470.544 525.044 470.941 525.188 471.312C525.332 471.672 525.528 471.991 525.775 472.27C526.032 472.537 526.336 472.749 526.686 472.903C527.037 473.058 527.407 473.135 527.799 473.135ZM532.539 472.934L533.234 472.192C533.585 472.522 533.976 472.779 534.409 472.965C534.852 473.14 535.3 473.227 535.753 473.227C536.371 473.227 536.875 473.099 537.267 472.841C537.658 472.584 537.854 472.249 537.854 471.837C537.854 471.507 537.736 471.25 537.499 471.064C537.272 470.869 536.912 470.735 536.417 470.663L535.073 470.477C534.3 470.364 533.724 470.137 533.343 469.798C532.972 469.447 532.786 468.979 532.786 468.392C532.786 467.743 533.059 467.207 533.605 466.785C534.151 466.352 534.846 466.136 535.691 466.136C536.247 466.136 536.772 466.218 537.267 466.383C537.772 466.548 538.261 466.805 538.735 467.156L538.132 467.928C537.699 467.64 537.277 467.423 536.865 467.279C536.463 467.135 536.051 467.063 535.629 467.063C535.104 467.063 534.671 467.181 534.331 467.418C534.002 467.655 533.837 467.964 533.837 468.345C533.837 468.675 533.95 468.932 534.177 469.118C534.403 469.293 534.769 469.416 535.274 469.489L536.618 469.674C537.39 469.777 537.967 470.009 538.348 470.369C538.74 470.719 538.935 471.188 538.935 471.775C538.935 472.105 538.853 472.419 538.688 472.718C538.534 473.006 538.312 473.258 538.024 473.475C537.746 473.681 537.416 473.845 537.035 473.969C536.654 474.082 536.242 474.139 535.799 474.139C535.161 474.139 534.558 474.036 533.991 473.83C533.435 473.614 532.951 473.315 532.539 472.934Z" fill="#ADABB5"/>
<path d="M140.351 171.989C137.095 171.989 134.447 169.341 134.447 166.086C134.447 162.831 137.095 160.183 140.351 160.183C143.606 160.183 146.254 162.831 146.254 166.086C146.254 169.341 143.606 171.989 140.351 171.989ZM140.351 163.815C139.099 163.815 138.08 164.834 138.08 166.086C138.08 167.338 139.099 168.356 140.351 168.356C141.602 168.356 142.621 167.338 142.621 166.086C142.621 164.834 141.602 163.815 140.351 163.815ZM125.456 172.988C122.201 172.988 119.553 170.34 119.553 167.085C119.553 163.83 122.201 161.182 125.456 161.182C128.711 161.182 131.359 163.83 131.359 167.085C131.359 170.34 128.711 172.988 125.456 172.988ZM125.456 164.814C124.204 164.814 123.186 165.833 123.186 167.085C123.186 168.337 124.204 169.355 125.456 169.355C126.708 169.355 127.727 168.337 127.727 167.085C127.727 165.833 126.708 164.814 125.456 164.814ZM120.733 182.434C120.733 180.481 122.342 178.892 124.32 178.892H127.454C128.457 178.892 129.27 178.078 129.27 177.075C129.27 176.072 128.457 175.259 127.454 175.259H124.32C120.339 175.259 117.101 178.477 117.101 182.434C117.101 183.437 117.914 184.25 118.917 184.25C119.92 184.25 120.733 183.437 120.733 182.434ZM110.743 172.988C107.488 172.988 104.84 170.34 104.84 167.085C104.84 163.83 107.488 161.182 110.743 161.182C113.998 161.182 116.646 163.83 116.646 167.085C116.646 170.34 113.998 172.988 110.743 172.988ZM110.743 164.814C109.491 164.814 108.473 165.833 108.473 167.085C108.473 168.337 109.491 169.355 110.743 169.355C111.995 169.355 113.014 168.337 113.014 167.085C113.014 165.833 111.995 164.814 110.743 164.814ZM106.384 182.434C106.384 180.481 107.993 178.892 109.97 178.892H113.649C114.653 178.892 115.466 178.078 115.466 177.075C115.466 176.072 114.653 175.259 113.649 175.259H109.97C105.99 175.259 102.751 178.477 102.751 182.434C102.751 183.437 103.564 184.25 104.567 184.25C105.571 184.25 106.384 183.437 106.384 182.434ZM134.811 157.912C134.338 157.912 133.874 157.728 133.526 157.38L133.362 157.216C132.478 156.332 131.134 156.111 130.018 156.667C128.359 157.493 126.566 157.912 124.689 157.912H124.683H112.832C107.273 157.912 102.751 153.39 102.751 147.831C102.751 142.272 107.273 137.75 112.832 137.75H126.546C132.105 137.75 136.627 142.272 136.627 147.831V156.096C136.627 156.83 136.184 157.493 135.506 157.774C135.281 157.867 135.045 157.912 134.811 157.912ZM112.832 141.383C109.276 141.383 106.384 144.276 106.384 147.831C106.384 151.387 109.276 154.279 112.832 154.279H124.684H124.688C125.999 154.279 127.247 153.989 128.399 153.415C129.859 152.688 131.492 152.55 132.994 152.951V147.831C132.994 144.276 130.101 141.383 126.546 141.383H112.832ZM147.434 184.25C146.431 184.25 145.618 183.437 145.618 182.434C145.618 179.785 143.45 177.63 140.785 177.63H139.553C136.888 177.63 134.72 179.785 134.72 182.434C134.72 183.437 133.906 184.25 132.903 184.25C131.9 184.25 131.087 183.437 131.087 182.434C131.087 177.782 134.885 173.997 139.553 173.997H140.785C145.453 173.997 149.251 177.782 149.251 182.434C149.251 183.437 148.438 184.25 147.434 184.25ZM110.017 147.831C110.017 149.085 111.033 150.102 112.287 150.102C113.541 150.102 114.558 149.085 114.558 147.831C114.558 146.577 113.541 145.561 112.287 145.561C111.033 145.561 110.017 146.577 110.017 147.831ZM117.282 147.831C117.282 149.085 118.299 150.102 119.553 150.102C120.807 150.102 121.823 149.085 121.823 147.831C121.823 146.577 120.807 145.561 119.553 145.561C118.299 145.561 117.282 146.577 117.282 147.831ZM124.548 147.831C124.548 149.085 125.564 150.102 126.818 150.102C128.072 150.102 129.089 149.085 129.089 147.831C129.089 146.577 128.072 145.561 126.818 145.561C125.564 145.561 124.548 146.577 124.548 147.831Z" fill="#FFB931"/>
<path d="M364.289 461.172C360.683 461.172 357.75 464.105 357.75 467.711C357.75 471.317 360.683 474.25 364.289 474.25C367.895 474.25 370.828 471.317 370.828 467.711C370.828 464.105 367.895 461.172 364.289 461.172ZM364.289 470.617C362.687 470.617 361.383 469.314 361.383 467.711C361.383 466.108 362.687 464.805 364.289 464.805C365.892 464.805 367.195 466.108 367.195 467.711C367.195 469.314 365.892 470.617 364.289 470.617Z" fill="#00BEF6"/>
<path d="M381.318 440.465C380.939 440.465 379.642 440.341 378.22 439.776C377.288 439.406 376.232 439.861 375.861 440.793C375.491 441.725 375.946 442.781 376.878 443.152C377.71 443.482 378.535 443.711 379.275 443.861V444.098C379.275 445.101 380.088 445.914 381.091 445.914C382.095 445.914 382.908 445.101 382.908 444.098V443.816C384.656 443.175 385.905 441.508 385.905 439.557C385.905 438.318 385.355 437.121 384.396 436.271C383.483 435.461 382.277 435.016 381 435.016C380.12 435.016 379.456 434.625 379.456 434.107C379.456 433.607 379.864 433.199 380.365 433.199C381.01 433.199 381.795 433.272 383.158 433.802C384.093 434.166 385.145 433.703 385.509 432.768C385.872 431.833 385.409 430.78 384.474 430.417C383.892 430.19 383.374 430.024 382.908 429.901V429.566C382.908 428.563 382.094 427.75 381.091 427.75C380.088 427.75 379.275 428.563 379.275 429.566V429.7C377.296 430.189 375.824 431.979 375.824 434.107C375.824 436.696 378.049 438.648 381 438.648C381.69 438.648 382.272 439.064 382.272 439.557C382.272 440.049 381.835 440.465 381.318 440.465Z" fill="#00BEF6"/>
<path d="M381.091 448.639C380.088 448.639 379.274 449.452 379.274 450.455V455.995C379.274 456.998 380.088 457.812 381.091 457.812C382.094 457.812 382.907 456.998 382.907 455.995V450.455C382.907 449.452 382.094 448.639 381.091 448.639Z" fill="#00BEF6"/>
<path d="M381.091 461.172C377.485 461.172 374.552 464.105 374.552 467.711C374.552 471.317 377.485 474.25 381.091 474.25C384.696 474.25 387.63 471.317 387.63 467.711C387.63 464.105 384.696 461.172 381.091 461.172ZM381.091 470.617C379.488 470.617 378.185 469.314 378.185 467.711C378.185 466.108 379.488 464.805 381.091 464.805C382.693 464.805 383.997 466.108 383.997 467.711C383.997 469.314 382.693 470.617 381.091 470.617Z" fill="#00BEF6"/>
<path d="M397.711 461.172C394.105 461.172 391.172 464.105 391.172 467.711C391.172 471.317 394.105 474.25 397.711 474.25C401.317 474.25 404.25 471.317 404.25 467.711C404.25 464.105 401.317 461.172 397.711 461.172ZM397.711 470.617C396.108 470.617 394.805 469.314 394.805 467.711C394.805 466.108 396.108 464.805 397.711 464.805C399.313 464.805 400.617 466.108 400.617 467.711C400.617 469.314 399.313 470.617 397.711 470.617Z" fill="#00BEF6"/>
<path d="M370.794 437.278C368.417 437.811 366.259 439.152 364.718 441.055C363.153 442.986 362.291 445.421 362.291 447.91V456.177C362.291 457.18 363.104 457.993 364.107 457.993C365.111 457.993 365.924 457.18 365.924 456.177V447.91C365.924 444.54 368.306 441.559 371.589 440.823C372.568 440.603 373.183 439.631 372.964 438.653C372.744 437.674 371.772 437.058 370.794 437.278Z" fill="#00BEF6"/>
<path d="M395.986 447.91V456.177C395.986 457.18 396.799 457.993 397.802 457.993C398.805 457.993 399.619 457.18 399.619 456.177V447.91C399.619 445.42 398.757 442.986 397.192 441.054C395.651 439.152 393.493 437.811 391.116 437.278C390.137 437.058 389.165 437.674 388.946 438.653C388.726 439.631 389.342 440.603 390.321 440.823C393.603 441.559 395.986 444.54 395.986 447.91Z" fill="#00BEF6"/>
<path d="M236.91 319.597C232.546 325.641 225.477 329.25 218 329.25C211.79 329.25 205.951 326.832 201.56 322.44C197.168 318.049 194.75 312.21 194.75 306C194.75 299.79 197.168 293.951 201.56 289.56C205.951 285.168 211.79 282.75 218 282.75C225.477 282.75 232.546 286.359 236.91 292.403C237.497 293.217 237.314 294.352 236.501 294.939C235.687 295.527 234.552 295.343 233.965 294.53C230.282 289.429 224.313 286.383 218 286.383C207.183 286.383 198.383 295.183 198.383 306C198.383 316.817 207.183 325.617 218 325.617C224.313 325.617 230.282 322.571 233.965 317.47C234.552 316.657 235.687 316.473 236.501 317.06C237.314 317.648 237.497 318.783 236.91 319.597ZM218 297.372C220.321 297.372 222.502 298.305 224.143 299.998C224.84 300.719 225.99 300.737 226.711 300.039C227.432 299.341 227.45 298.191 226.752 297.471C224.421 295.064 221.313 293.739 218 293.739C211.239 293.739 205.739 299.239 205.739 306C205.739 312.761 211.239 318.261 218 318.261C221.313 318.261 224.421 316.936 226.752 314.529C227.45 313.809 227.431 312.659 226.711 311.961C225.99 311.263 224.84 311.281 224.143 312.002C222.502 313.695 220.321 314.628 218 314.628C213.243 314.628 209.372 310.757 209.372 306C209.372 301.243 213.243 297.372 218 297.372ZM238.569 307.847C238.073 307.353 237.799 306.697 237.799 306C237.799 305.303 238.073 304.647 238.569 304.153L240.714 302.021C241.426 301.313 241.429 300.163 240.722 299.452C240.014 298.74 238.864 298.737 238.153 299.444L236.008 301.576C235.264 302.316 234.73 303.209 234.434 304.184H218C216.997 304.184 216.184 304.997 216.184 306C216.184 307.003 216.997 307.816 218 307.816H234.434C234.73 308.791 235.264 309.684 236.008 310.424L238.153 312.556C238.507 312.908 238.97 313.084 239.434 313.084C239.9 313.084 240.367 312.905 240.722 312.548C241.429 311.837 241.426 310.687 240.714 309.979L238.569 307.847Z" fill="#FF316F"/>
</g>
<defs>
<filter id="filter0_d" x="44.4" y="87.4" width="296.2" height="147.2" filterUnits="userSpaceOnUse" color-interpolation-filters="sRGB">
<feFlood flood-opacity="0" result="BackgroundImageFix"/>
<feColorMatrix in="SourceAlpha" type="matrix" values="0 0 0 0 0 0 0 0 0 0 0 0 0 0 0 0 0 0 127 0"/>
<feOffset/>
<feGaussianBlur stdDeviation="10.3"/>
<feColorMatrix type="matrix" values="0 0 0 0 0.898039 0 0 0 0 0.898039 0 0 0 0 0.898039 0 0 0 0.4 0"/>
<feBlend mode="normal" in2="BackgroundImageFix" result="effect1_dropShadow"/>
<feBlend mode="normal" in="SourceGraphic" in2="effect1_dropShadow" result="shape"/>
</filter>
<filter id="filter1_d" x="136.4" y="233.4" width="307.2" height="147.2" filterUnits="userSpaceOnUse" color-interpolation-filters="sRGB">
<feFlood flood-opacity="0" result="BackgroundImageFix"/>
<feColorMatrix in="SourceAlpha" type="matrix" values="0 0 0 0 0 0 0 0 0 0 0 0 0 0 0 0 0 0 127 0"/>
<feOffset/>
<feGaussianBlur stdDeviation="10.3"/>
<feColorMatrix type="matrix" values="0 0 0 0 0.898039 0 0 0 0 0.898039 0 0 0 0 0.898039 0 0 0 0.4 0"/>
<feBlend mode="normal" in2="BackgroundImageFix" result="effect1_dropShadow"/>
<feBlend mode="normal" in="SourceGraphic" in2="effect1_dropShadow" result="shape"/>
</filter>
<filter id="filter2_d" x="299.4" y="379.4" width="298.2" height="147.2" filterUnits="userSpaceOnUse" color-interpolation-filters="sRGB">
<feFlood flood-opacity="0" result="BackgroundImageFix"/>
<feColorMatrix in="SourceAlpha" type="matrix" values="0 0 0 0 0 0 0 0 0 0 0 0 0 0 0 0 0 0 127 0"/>
<feOffset/>
<feGaussianBlur stdDeviation="10.3"/>
<feColorMatrix type="matrix" values="0 0 0 0 0.898039 0 0 0 0 0.898039 0 0 0 0 0.898039 0 0 0 0.4 0"/>
<feBlend mode="normal" in2="BackgroundImageFix" result="effect1_dropShadow"/>
<feBlend mode="normal" in="SourceGraphic" in2="effect1_dropShadow" result="shape"/>
</filter>
<clipPath id="clip0">
<rect width="657" height="639" fill="white"/>
</clipPath>
</defs>
</svg>
