<svg width="536" height="458" viewBox="0 0 536 458" fill="none" xmlns="http://www.w3.org/2000/svg">
<g filter="url(#filter0_d)">
<rect x="42.9893" y="8" width="485.011" height="76.1404" rx="8" fill="white"/>
<rect opacity="0.1" x="42.9893" y="8" width="485.011" height="76.1404" rx="8" fill="#4882EB"/>
<path d="M139.602 36.104C139.602 36.86 139.476 37.556 139.224 38.192C138.972 38.816 138.618 39.35 138.162 39.794C137.718 40.238 137.172 40.58 136.524 40.82C135.888 41.06 135.18 41.18 134.4 41.18C133.152 41.18 132.084 40.862 131.196 40.226C130.308 39.59 129.678 38.678 129.306 37.49L131.718 36.572C131.982 37.328 132.336 37.892 132.78 38.264C133.224 38.636 133.77 38.822 134.418 38.822C135.186 38.822 135.804 38.564 136.272 38.048C136.752 37.532 136.992 36.86 136.992 36.032V28.4H139.602V36.104Z" fill="#38424F"/>
<path d="M141.52 41V28.4L143.986 27.86V32.36C144.346 32.06 144.742 31.832 145.174 31.676C145.618 31.52 146.098 31.442 146.614 31.442C147.694 31.442 148.582 31.79 149.278 32.486C149.974 33.182 150.322 34.076 150.322 35.168V41H147.856V35.528C147.856 34.94 147.676 34.466 147.316 34.106C146.968 33.746 146.5 33.566 145.912 33.566C145.504 33.566 145.132 33.65 144.796 33.818C144.472 33.974 144.202 34.202 143.986 34.502V41H141.52Z" fill="#38424F"/>
<path d="M151.758 36.32C151.758 35.636 151.884 35 152.136 34.412C152.4 33.812 152.754 33.296 153.198 32.864C153.654 32.42 154.188 32.072 154.8 31.82C155.412 31.568 156.066 31.442 156.762 31.442C157.458 31.442 158.112 31.568 158.724 31.82C159.336 32.072 159.864 32.42 160.308 32.864C160.764 33.296 161.118 33.812 161.37 34.412C161.634 35 161.766 35.636 161.766 36.32C161.766 37.004 161.634 37.646 161.37 38.246C161.118 38.834 160.764 39.344 160.308 39.776C159.864 40.208 159.336 40.55 158.724 40.802C158.112 41.054 157.458 41.18 156.762 41.18C156.066 41.18 155.412 41.054 154.8 40.802C154.188 40.55 153.654 40.208 153.198 39.776C152.754 39.344 152.4 38.834 152.136 38.246C151.884 37.646 151.758 37.004 151.758 36.32ZM156.762 39.038C157.482 39.038 158.094 38.774 158.598 38.246C159.102 37.718 159.354 37.076 159.354 36.32C159.354 35.552 159.102 34.904 158.598 34.376C158.094 33.848 157.482 33.584 156.762 33.584C156.042 33.584 155.43 33.848 154.926 34.376C154.422 34.904 154.17 35.552 154.17 36.32C154.17 37.076 154.422 37.718 154.926 38.246C155.43 38.774 156.042 39.038 156.762 39.038Z" fill="#38424F"/>
<path d="M163.282 41V31.622H165.748V32.36C166.108 32.06 166.504 31.832 166.936 31.676C167.38 31.52 167.86 31.442 168.376 31.442C169.456 31.442 170.344 31.79 171.04 32.486C171.736 33.182 172.084 34.076 172.084 35.168V41H169.618V35.528C169.618 34.94 169.438 34.466 169.078 34.106C168.73 33.746 168.262 33.566 167.674 33.566C167.266 33.566 166.894 33.65 166.558 33.818C166.234 33.974 165.964 34.202 165.748 34.502V41H163.282Z" fill="#38424F"/>
<path d="M177.735 41V28.4H182.577C183.513 28.4 184.389 28.562 185.205 28.886C186.021 29.21 186.723 29.654 187.311 30.218C187.911 30.782 188.379 31.454 188.715 32.234C189.063 33.014 189.237 33.848 189.237 34.736C189.237 35.612 189.063 36.434 188.715 37.202C188.379 37.97 187.911 38.636 187.311 39.2C186.723 39.752 186.021 40.19 185.205 40.514C184.389 40.838 183.513 41 182.577 41H177.735ZM182.559 30.722H180.345V38.678H182.559C183.111 38.678 183.627 38.576 184.107 38.372C184.599 38.168 185.025 37.892 185.385 37.544C185.745 37.184 186.027 36.764 186.231 36.284C186.435 35.804 186.537 35.288 186.537 34.736C186.537 34.172 186.435 33.644 186.231 33.152C186.027 32.66 185.745 32.234 185.385 31.874C185.025 31.514 184.599 31.232 184.107 31.028C183.627 30.824 183.111 30.722 182.559 30.722Z" fill="#38424F"/>
<path d="M190.43 36.32C190.43 35.636 190.556 35 190.808 34.412C191.072 33.812 191.426 33.296 191.87 32.864C192.326 32.42 192.86 32.072 193.472 31.82C194.084 31.568 194.738 31.442 195.434 31.442C196.13 31.442 196.784 31.568 197.396 31.82C198.008 32.072 198.536 32.42 198.98 32.864C199.436 33.296 199.79 33.812 200.042 34.412C200.306 35 200.438 35.636 200.438 36.32C200.438 37.004 200.306 37.646 200.042 38.246C199.79 38.834 199.436 39.344 198.98 39.776C198.536 40.208 198.008 40.55 197.396 40.802C196.784 41.054 196.13 41.18 195.434 41.18C194.738 41.18 194.084 41.054 193.472 40.802C192.86 40.55 192.326 40.208 191.87 39.776C191.426 39.344 191.072 38.834 190.808 38.246C190.556 37.646 190.43 37.004 190.43 36.32ZM195.434 39.038C196.154 39.038 196.766 38.774 197.27 38.246C197.774 37.718 198.026 37.076 198.026 36.32C198.026 35.552 197.774 34.904 197.27 34.376C196.766 33.848 196.154 33.584 195.434 33.584C194.714 33.584 194.102 33.848 193.598 34.376C193.094 34.904 192.842 35.552 192.842 36.32C192.842 37.076 193.094 37.718 193.598 38.246C194.102 38.774 194.714 39.038 195.434 39.038Z" fill="#38424F"/>
<path d="M210.43 39.83C209.854 40.298 209.26 40.64 208.648 40.856C208.048 41.072 207.376 41.18 206.632 41.18C205.924 41.18 205.258 41.054 204.634 40.802C204.022 40.55 203.488 40.208 203.032 39.776C202.588 39.344 202.234 38.834 201.97 38.246C201.718 37.646 201.592 37.004 201.592 36.32C201.592 35.648 201.712 35.018 201.952 34.43C202.204 33.83 202.546 33.314 202.978 32.882C203.41 32.438 203.92 32.09 204.508 31.838C205.108 31.586 205.744 31.46 206.416 31.46C207.076 31.46 207.688 31.592 208.252 31.856C208.828 32.108 209.32 32.456 209.728 32.9C210.148 33.344 210.472 33.878 210.7 34.502C210.94 35.114 211.06 35.78 211.06 36.5V37.148H204.076C204.244 37.736 204.568 38.21 205.048 38.57C205.528 38.93 206.092 39.11 206.74 39.11C207.148 39.11 207.532 39.044 207.892 38.912C208.252 38.78 208.558 38.594 208.81 38.354L210.43 39.83ZM206.362 33.494C205.798 33.494 205.312 33.668 204.904 34.016C204.496 34.352 204.214 34.808 204.058 35.384H208.648C208.492 34.832 208.204 34.382 207.784 34.034C207.376 33.674 206.902 33.494 206.362 33.494Z" fill="#38424F"/>
<path d="M134.712 61.184C134.061 61.184 133.517 60.9546 133.08 60.496C132.643 60.0266 132.424 59.4506 132.424 58.768C132.424 58.3733 132.493 58.0053 132.632 57.664C132.771 57.3226 132.963 57.024 133.208 56.768C133.453 56.512 133.741 56.3093 134.072 56.16C134.403 56.0106 134.755 55.936 135.128 55.936C135.437 55.936 135.731 55.9893 136.008 56.096C136.296 56.2026 136.541 56.3573 136.744 56.56L136.824 56.144H137.72L137.096 59.216C137.021 59.6 137.059 59.8986 137.208 60.112C137.368 60.3146 137.629 60.416 137.992 60.416C138.547 60.416 139.011 60.16 139.384 59.648C139.768 59.1253 139.96 58.4853 139.96 57.728C139.96 57.12 139.843 56.56 139.608 56.048C139.373 55.5253 139.048 55.0773 138.632 54.704C138.227 54.32 137.741 54.0213 137.176 53.808C136.621 53.5946 136.019 53.488 135.368 53.488C134.685 53.488 134.045 53.6213 133.448 53.888C132.851 54.1546 132.333 54.5226 131.896 54.992C131.459 55.4506 131.112 55.9946 130.856 56.624C130.611 57.2533 130.488 57.9306 130.488 58.656C130.488 59.36 130.611 60.016 130.856 60.624C131.112 61.232 131.459 61.7546 131.896 62.192C132.344 62.6293 132.872 62.9706 133.48 63.216C134.099 63.4613 134.771 63.584 135.496 63.584C135.987 63.584 136.461 63.5253 136.92 63.408C137.389 63.3013 137.821 63.1413 138.216 62.928L138.504 63.584C138.045 63.8186 137.555 63.9946 137.032 64.112C136.52 64.24 135.992 64.304 135.448 64.304C134.637 64.304 133.875 64.16 133.16 63.872C132.456 63.5946 131.848 63.2053 131.336 62.704C130.835 62.2026 130.435 61.6106 130.136 60.928C129.848 60.2346 129.704 59.488 129.704 58.688C129.704 57.856 129.848 57.0773 130.136 56.352C130.424 55.6266 130.819 55.0026 131.32 54.48C131.832 53.9466 132.435 53.5306 133.128 53.232C133.832 52.9333 134.589 52.784 135.4 52.784C136.147 52.784 136.845 52.912 137.496 53.168C138.147 53.4133 138.712 53.7546 139.192 54.192C139.672 54.6293 140.045 55.152 140.312 55.76C140.589 56.3573 140.728 57.0026 140.728 57.696C140.728 58.1866 140.653 58.6453 140.504 59.072C140.365 59.488 140.168 59.8506 139.912 60.16C139.667 60.4586 139.368 60.6933 139.016 60.864C138.675 61.0346 138.301 61.12 137.896 61.12C137.555 61.12 137.256 61.0613 137 60.944C136.744 60.8266 136.547 60.6666 136.408 60.464C136.141 60.6986 135.864 60.88 135.576 61.008C135.288 61.1253 135 61.184 134.712 61.184ZM133.304 58.704C133.304 59.216 133.453 59.632 133.752 59.952C134.051 60.272 134.435 60.432 134.904 60.432C135.139 60.432 135.368 60.384 135.592 60.288C135.816 60.192 136.019 60.0533 136.2 59.872C136.189 59.7653 136.184 59.6533 136.184 59.536C136.184 59.408 136.2 59.2746 136.232 59.136L136.568 57.44C136.419 57.2053 136.211 57.024 135.944 56.896C135.688 56.768 135.411 56.704 135.112 56.704C134.621 56.704 134.195 56.9013 133.832 57.296C133.48 57.6906 133.304 58.16 133.304 58.704Z" fill="#ADABB5"/>
<path d="M143.022 52.448C142.809 52.448 142.622 52.368 142.462 52.208C142.302 52.048 142.222 51.8613 142.222 51.648C142.222 51.424 142.302 51.2373 142.462 51.088C142.622 50.928 142.809 50.848 143.022 50.848C143.246 50.848 143.433 50.928 143.582 51.088C143.742 51.2373 143.822 51.424 143.822 51.648C143.822 51.8613 143.742 52.048 143.582 52.208C143.433 52.368 143.246 52.448 143.022 52.448ZM141.55 65.328C141.401 65.328 141.262 65.3173 141.134 65.296C141.006 65.2746 140.899 65.2533 140.814 65.232V64.24C140.91 64.2613 141.006 64.2773 141.102 64.288C141.187 64.2986 141.289 64.304 141.406 64.304C141.769 64.304 142.03 64.2186 142.19 64.048C142.35 63.8773 142.43 63.6 142.43 63.216V53.984H143.614V63.312C143.614 63.952 143.433 64.448 143.07 64.8C142.707 65.152 142.201 65.328 141.55 65.328Z" fill="#ADABB5"/>
<path d="M145.633 62V50.8L146.817 50.528V54.928C147.126 54.5653 147.494 54.2933 147.921 54.112C148.348 53.92 148.822 53.824 149.345 53.824C150.252 53.824 150.993 54.112 151.569 54.688C152.145 55.264 152.433 56.0106 152.433 56.928V62H151.265V57.168C151.265 56.464 151.062 55.904 150.657 55.488C150.252 55.072 149.708 54.864 149.025 54.864C148.545 54.864 148.113 54.9706 147.729 55.184C147.356 55.3973 147.052 55.7013 146.817 56.096V62H145.633Z" fill="#ADABB5"/>
<path d="M154.046 57.984C154.046 57.408 154.153 56.864 154.366 56.352C154.58 55.84 154.868 55.3973 155.23 55.024C155.604 54.6506 156.041 54.3573 156.542 54.144C157.044 53.9306 157.577 53.824 158.142 53.824C158.708 53.824 159.236 53.9306 159.726 54.144C160.228 54.3573 160.66 54.6506 161.022 55.024C161.396 55.3973 161.689 55.84 161.902 56.352C162.116 56.864 162.222 57.408 162.222 57.984C162.222 58.5706 162.116 59.12 161.902 59.632C161.689 60.144 161.396 60.5866 161.022 60.96C160.66 61.3333 160.228 61.6266 159.726 61.84C159.236 62.0533 158.708 62.16 158.142 62.16C157.577 62.16 157.044 62.0533 156.542 61.84C156.041 61.6266 155.604 61.3333 155.23 60.96C154.868 60.5866 154.58 60.144 154.366 59.632C154.153 59.12 154.046 58.5706 154.046 57.984ZM158.142 61.104C158.548 61.104 158.926 61.024 159.278 60.864C159.641 60.704 159.95 60.4853 160.206 60.208C160.473 59.92 160.681 59.5893 160.83 59.216C160.98 58.832 161.054 58.4213 161.054 57.984C161.054 57.5466 160.98 57.1413 160.83 56.768C160.681 56.384 160.473 56.0533 160.206 55.776C159.95 55.4986 159.641 55.28 159.278 55.12C158.926 54.96 158.548 54.88 158.142 54.88C157.737 54.88 157.353 54.96 156.99 55.12C156.638 55.28 156.329 55.4986 156.062 55.776C155.806 56.0533 155.598 56.384 155.438 56.768C155.289 57.1413 155.214 57.5466 155.214 57.984C155.214 58.4213 155.289 58.832 155.438 59.216C155.588 59.5893 155.79 59.92 156.046 60.208C156.313 60.4853 156.628 60.704 156.99 60.864C157.353 61.024 157.737 61.104 158.142 61.104Z" fill="#ADABB5"/>
<path d="M163.867 62V53.984H165.051V54.928C165.361 54.5653 165.729 54.2933 166.155 54.112C166.582 53.92 167.057 53.824 167.579 53.824C168.486 53.824 169.227 54.112 169.803 54.688C170.379 55.264 170.667 56.0106 170.667 56.928V62H169.499V57.168C169.499 56.464 169.297 55.904 168.891 55.488C168.486 55.072 167.942 54.864 167.259 54.864C166.779 54.864 166.347 54.9706 165.963 55.184C165.59 55.3973 165.286 55.7013 165.051 56.096V62H163.867Z" fill="#ADABB5"/>
<path d="M178.905 62V61.152C178.563 61.472 178.169 61.7173 177.721 61.888C177.283 62.048 176.814 62.128 176.313 62.128C175.747 62.128 175.219 62.0213 174.729 61.808C174.238 61.5946 173.811 61.3066 173.449 60.944C173.086 60.5706 172.798 60.128 172.585 59.616C172.382 59.104 172.281 58.56 172.281 57.984C172.281 57.408 172.382 56.8693 172.585 56.368C172.798 55.856 173.086 55.4186 173.449 55.056C173.811 54.6826 174.238 54.3893 174.729 54.176C175.23 53.9626 175.763 53.856 176.329 53.856C176.787 53.856 177.235 53.936 177.673 54.096C178.121 54.2453 178.526 54.4693 178.889 54.768V50.8L180.073 50.528V62H178.905ZM173.449 57.968C173.449 58.4053 173.523 58.816 173.673 59.2C173.833 59.584 174.046 59.9146 174.313 60.192C174.579 60.4693 174.894 60.688 175.257 60.848C175.619 61.008 176.009 61.088 176.425 61.088C176.926 61.088 177.39 60.992 177.817 60.8C178.254 60.5973 178.611 60.32 178.889 59.968V56C178.611 55.6586 178.254 55.392 177.817 55.2C177.379 54.9973 176.915 54.896 176.425 54.896C175.593 54.896 174.889 55.1893 174.313 55.776C173.737 56.3626 173.449 57.0933 173.449 57.968Z" fill="#ADABB5"/>
<path d="M181.718 57.984C181.718 57.408 181.825 56.864 182.038 56.352C182.252 55.84 182.54 55.3973 182.902 55.024C183.276 54.6506 183.713 54.3573 184.214 54.144C184.716 53.9306 185.249 53.824 185.814 53.824C186.38 53.824 186.908 53.9306 187.398 54.144C187.9 54.3573 188.332 54.6506 188.694 55.024C189.068 55.3973 189.361 55.84 189.574 56.352C189.788 56.864 189.894 57.408 189.894 57.984C189.894 58.5706 189.788 59.12 189.574 59.632C189.361 60.144 189.068 60.5866 188.694 60.96C188.332 61.3333 187.9 61.6266 187.398 61.84C186.908 62.0533 186.38 62.16 185.814 62.16C185.249 62.16 184.716 62.0533 184.214 61.84C183.713 61.6266 183.276 61.3333 182.902 60.96C182.54 60.5866 182.252 60.144 182.038 59.632C181.825 59.12 181.718 58.5706 181.718 57.984ZM185.814 61.104C186.22 61.104 186.598 61.024 186.95 60.864C187.313 60.704 187.622 60.4853 187.878 60.208C188.145 59.92 188.353 59.5893 188.502 59.216C188.652 58.832 188.726 58.4213 188.726 57.984C188.726 57.5466 188.652 57.1413 188.502 56.768C188.353 56.384 188.145 56.0533 187.878 55.776C187.622 55.4986 187.313 55.28 186.95 55.12C186.598 54.96 186.22 54.88 185.814 54.88C185.409 54.88 185.025 54.96 184.662 55.12C184.31 55.28 184.001 55.4986 183.734 55.776C183.478 56.0533 183.27 56.384 183.11 56.768C182.961 57.1413 182.886 57.5466 182.886 57.984C182.886 58.4213 182.961 58.832 183.11 59.216C183.26 59.5893 183.462 59.92 183.718 60.208C183.985 60.4853 184.3 60.704 184.662 60.864C185.025 61.024 185.409 61.104 185.814 61.104Z" fill="#ADABB5"/>
<path d="M198.307 61.152C197.859 61.4826 197.39 61.7333 196.899 61.904C196.419 62.064 195.891 62.144 195.315 62.144C194.739 62.144 194.195 62.0373 193.683 61.824C193.182 61.6106 192.744 61.3173 192.371 60.944C192.008 60.5706 191.72 60.1333 191.507 59.632C191.294 59.12 191.187 58.5706 191.187 57.984C191.187 57.408 191.288 56.8693 191.491 56.368C191.704 55.8666 191.987 55.4293 192.339 55.056C192.691 54.6826 193.107 54.3893 193.587 54.176C194.078 53.9626 194.595 53.856 195.139 53.856C195.672 53.856 196.168 53.9626 196.627 54.176C197.096 54.3893 197.496 54.6826 197.827 55.056C198.168 55.4293 198.435 55.8666 198.627 56.368C198.83 56.8693 198.931 57.408 198.931 57.984V58.352H192.355C192.44 59.1413 192.766 59.7973 193.331 60.32C193.896 60.8426 194.574 61.104 195.363 61.104C195.779 61.104 196.184 61.04 196.579 60.912C196.974 60.784 197.304 60.6026 197.571 60.368L198.307 61.152ZM195.107 54.896C194.414 54.896 193.811 55.1306 193.299 55.6C192.798 56.0693 192.494 56.672 192.387 57.408H197.747C197.64 56.704 197.336 56.112 196.835 55.632C196.344 55.1413 195.768 54.896 195.107 54.896Z" fill="#ADABB5"/>
<path d="M324.897 35.758C324.897 36.4207 324.794 37.0273 324.589 37.578C324.383 38.1193 324.089 38.5813 323.707 38.964C323.333 39.3373 322.876 39.6267 322.335 39.832C321.803 40.0373 321.21 40.14 320.557 40.14C319.894 40.14 319.292 40.0373 318.751 39.832C318.219 39.6267 317.766 39.3373 317.393 38.964C317.019 38.5813 316.73 38.1193 316.525 37.578C316.319 37.0367 316.217 36.43 316.217 35.758V30.2H318.247V35.758C318.247 36.514 318.457 37.1207 318.877 37.578C319.306 38.0353 319.871 38.264 320.571 38.264C321.271 38.264 321.826 38.0353 322.237 37.578C322.657 37.1207 322.867 36.514 322.867 35.758V30.2H324.897V35.758ZM320.851 27.162H323.035L321.145 28.982H319.591L320.851 27.162Z" fill="#ADABB5"/>
<path d="M328.307 29.78V40H326.389V30.2L328.307 29.78Z" fill="#ADABB5"/>
<path d="M330.801 37.942V34.316H329.303V32.706H330.801V30.844L332.719 30.41V32.706H334.791V34.316H332.719V37.55C332.719 37.8953 332.794 38.138 332.943 38.278C333.093 38.418 333.354 38.488 333.727 38.488C333.905 38.488 334.073 38.4787 334.231 38.46C334.39 38.432 334.563 38.3853 334.749 38.32V39.888C334.544 39.9533 334.297 40.0047 334.007 40.042C333.718 40.0887 333.471 40.112 333.265 40.112C332.453 40.112 331.837 39.93 331.417 39.566C331.007 39.1927 330.801 38.6513 330.801 37.942Z" fill="#ADABB5"/>
<path d="M336.693 31.838C336.394 31.838 336.138 31.7307 335.923 31.516C335.708 31.3013 335.601 31.0447 335.601 30.746C335.601 30.4473 335.708 30.1907 335.923 29.976C336.138 29.7613 336.394 29.654 336.693 29.654C336.992 29.654 337.248 29.7613 337.463 29.976C337.678 30.1907 337.785 30.4473 337.785 30.746C337.785 31.0447 337.678 31.3013 337.463 31.516C337.248 31.7307 336.992 31.838 336.693 31.838ZM337.659 32.706V40H335.741V32.706H337.659Z" fill="#ADABB5"/>
<path d="M339.159 40V32.706H341.077V33.252C341.338 33.028 341.628 32.86 341.945 32.748C342.262 32.6267 342.608 32.566 342.981 32.566C343.448 32.566 343.868 32.664 344.241 32.86C344.624 33.0467 344.936 33.3127 345.179 33.658C345.468 33.3033 345.818 33.0327 346.229 32.846C346.64 32.6593 347.092 32.566 347.587 32.566C348.399 32.566 349.066 32.8367 349.589 33.378C350.112 33.9193 350.373 34.6147 350.373 35.464V40H348.455V35.744C348.455 35.2867 348.329 34.918 348.077 34.638C347.834 34.358 347.503 34.218 347.083 34.218C346.794 34.218 346.528 34.2833 346.285 34.414C346.052 34.5353 345.851 34.7127 345.683 34.946C345.692 35.03 345.702 35.114 345.711 35.198C345.72 35.282 345.725 35.3707 345.725 35.464V40H343.807V35.744C343.807 35.2867 343.681 34.918 343.429 34.638C343.186 34.358 342.855 34.218 342.435 34.218C342.146 34.218 341.889 34.274 341.665 34.386C341.441 34.498 341.245 34.6613 341.077 34.876V40H339.159Z" fill="#ADABB5"/>
<path d="M354.156 40.126C353.372 40.126 352.733 39.9207 352.238 39.51C351.744 39.09 351.496 38.5487 351.496 37.886C351.496 37.1953 351.762 36.654 352.294 36.262C352.826 35.87 353.559 35.674 354.492 35.674C354.791 35.674 355.09 35.6973 355.388 35.744C355.687 35.7907 355.981 35.8607 356.27 35.954V35.436C356.27 35.016 356.14 34.6987 355.878 34.484C355.617 34.2693 355.234 34.162 354.73 34.162C354.422 34.162 354.086 34.2133 353.722 34.316C353.368 34.4093 352.962 34.5587 352.504 34.764L351.804 33.35C352.374 33.0887 352.924 32.8927 353.456 32.762C353.998 32.6313 354.53 32.566 355.052 32.566C356.032 32.566 356.793 32.804 357.334 33.28C357.885 33.7467 358.16 34.4093 358.16 35.268V40H356.27V39.496C355.962 39.7107 355.636 39.8693 355.29 39.972C354.954 40.0747 354.576 40.126 354.156 40.126ZM353.33 37.844C353.33 38.124 353.452 38.348 353.694 38.516C353.937 38.6747 354.259 38.754 354.66 38.754C354.978 38.754 355.267 38.7167 355.528 38.642C355.799 38.558 356.046 38.4413 356.27 38.292V37.2C356.037 37.1067 355.79 37.0413 355.528 37.004C355.276 36.9573 355.01 36.934 354.73 36.934C354.292 36.934 353.946 37.018 353.694 37.186C353.452 37.3447 353.33 37.564 353.33 37.844Z" fill="#ADABB5"/>
<path d="M363.38 31.838C363.082 31.838 362.825 31.7307 362.61 31.516C362.396 31.3013 362.288 31.0447 362.288 30.746C362.288 30.4473 362.396 30.1907 362.61 29.976C362.825 29.7613 363.082 29.654 363.38 29.654C363.679 29.654 363.936 29.7613 364.15 29.976C364.365 30.1907 364.472 30.4473 364.472 30.746C364.472 31.0447 364.365 31.3013 364.15 31.516C363.936 31.7307 363.679 31.838 363.38 31.838ZM364.346 32.706V40H362.428V32.706H364.346Z" fill="#ADABB5"/>
<path d="M365.846 40V32.706H367.764V33.28C368.044 33.0467 368.352 32.8693 368.688 32.748C369.034 32.6267 369.407 32.566 369.808 32.566C370.648 32.566 371.339 32.8367 371.88 33.378C372.422 33.9193 372.692 34.6147 372.692 35.464V40H370.774V35.744C370.774 35.2867 370.634 34.918 370.354 34.638C370.084 34.358 369.72 34.218 369.262 34.218C368.945 34.218 368.656 34.2833 368.394 34.414C368.142 34.5353 367.932 34.7127 367.764 34.946V40H365.846Z" fill="#ADABB5"/>
<path d="M374.866 37.942V34.316H373.368V32.706H374.866V30.844L376.784 30.41V32.706H378.856V34.316H376.784V37.55C376.784 37.8953 376.858 38.138 377.008 38.278C377.157 38.418 377.418 38.488 377.792 38.488C377.969 38.488 378.137 38.4787 378.296 38.46C378.454 38.432 378.627 38.3853 378.814 38.32V39.888C378.608 39.9533 378.361 40.0047 378.072 40.042C377.782 40.0887 377.535 40.112 377.33 40.112C376.518 40.112 375.902 39.93 375.482 39.566C375.071 39.1927 374.866 38.6513 374.866 37.942Z" fill="#ADABB5"/>
<path d="M386.275 39.09C385.827 39.454 385.365 39.72 384.889 39.888C384.422 40.056 383.9 40.14 383.321 40.14C382.77 40.14 382.252 40.042 381.767 39.846C381.291 39.65 380.876 39.384 380.521 39.048C380.176 38.712 379.9 38.3153 379.695 37.858C379.499 37.3913 379.401 36.892 379.401 36.36C379.401 35.8373 379.494 35.3473 379.681 34.89C379.877 34.4233 380.143 34.022 380.479 33.686C380.815 33.3407 381.212 33.07 381.669 32.874C382.136 32.678 382.63 32.58 383.153 32.58C383.666 32.58 384.142 32.6827 384.581 32.888C385.029 33.084 385.412 33.3547 385.729 33.7C386.056 34.0453 386.308 34.4607 386.485 34.946C386.672 35.422 386.765 35.94 386.765 36.5V37.004H381.333C381.464 37.4613 381.716 37.83 382.089 38.11C382.462 38.39 382.901 38.53 383.405 38.53C383.722 38.53 384.021 38.4787 384.301 38.376C384.581 38.2733 384.819 38.1287 385.015 37.942L386.275 39.09ZM383.111 34.162C382.672 34.162 382.294 34.2973 381.977 34.568C381.66 34.8293 381.44 35.184 381.319 35.632H384.889C384.768 35.2027 384.544 34.8527 384.217 34.582C383.9 34.302 383.531 34.162 383.111 34.162Z" fill="#ADABB5"/>
<path d="M387.94 40V32.706H389.858V33.504C390.091 33.1867 390.371 32.9487 390.698 32.79C391.034 32.622 391.403 32.538 391.804 32.538C391.991 32.5473 392.145 32.566 392.266 32.594C392.397 32.6127 392.509 32.65 392.602 32.706V34.386C392.462 34.3207 392.308 34.274 392.14 34.246C391.972 34.2087 391.799 34.19 391.622 34.19C391.249 34.19 390.903 34.2833 390.586 34.47C390.278 34.6567 390.035 34.9273 389.858 35.282V40H387.94Z" fill="#ADABB5"/>
<path d="M395.746 40.126C394.962 40.126 394.323 39.9207 393.828 39.51C393.334 39.09 393.086 38.5487 393.086 37.886C393.086 37.1953 393.352 36.654 393.884 36.262C394.416 35.87 395.149 35.674 396.082 35.674C396.381 35.674 396.68 35.6973 396.978 35.744C397.277 35.7907 397.571 35.8607 397.86 35.954V35.436C397.86 35.016 397.73 34.6987 397.468 34.484C397.207 34.2693 396.824 34.162 396.32 34.162C396.012 34.162 395.676 34.2133 395.312 34.316C394.958 34.4093 394.552 34.5587 394.094 34.764L393.394 33.35C393.964 33.0887 394.514 32.8927 395.046 32.762C395.588 32.6313 396.12 32.566 396.642 32.566C397.622 32.566 398.383 32.804 398.924 33.28C399.475 33.7467 399.75 34.4093 399.75 35.268V40H397.86V39.496C397.552 39.7107 397.226 39.8693 396.88 39.972C396.544 40.0747 396.166 40.126 395.746 40.126ZM394.92 37.844C394.92 38.124 395.042 38.348 395.284 38.516C395.527 38.6747 395.849 38.754 396.25 38.754C396.568 38.754 396.857 38.7167 397.118 38.642C397.389 38.558 397.636 38.4413 397.86 38.292V37.2C397.627 37.1067 397.38 37.0413 397.118 37.004C396.866 36.9573 396.6 36.934 396.32 36.934C395.882 36.934 395.536 37.018 395.284 37.186C395.042 37.3447 394.92 37.564 394.92 37.844Z" fill="#ADABB5"/>
<path d="M404.772 38.46C405.099 38.46 405.402 38.3947 405.682 38.264C405.971 38.1333 406.246 37.928 406.508 37.648L407.656 38.838C407.329 39.1927 406.946 39.482 406.508 39.706C406.069 39.93 405.612 40.0653 405.136 40.112L404.968 40.644C405.369 40.6813 405.691 40.812 405.934 41.036C406.176 41.26 406.298 41.5447 406.298 41.89C406.298 42.2913 406.12 42.6273 405.766 42.898C405.42 43.1687 404.982 43.304 404.45 43.304C404.104 43.304 403.782 43.248 403.484 43.136C403.194 43.0333 402.933 42.8793 402.7 42.674L403.33 42.002C403.498 42.1327 403.67 42.2307 403.848 42.296C404.034 42.3707 404.226 42.408 404.422 42.408C404.664 42.408 404.851 42.3613 404.982 42.268C405.112 42.1747 405.178 42.044 405.178 41.876C405.178 41.7173 405.108 41.5913 404.968 41.498C404.837 41.4047 404.655 41.358 404.422 41.358H403.834L404.198 40.112C403.722 40.056 403.278 39.9207 402.868 39.706C402.457 39.482 402.103 39.2067 401.804 38.88C401.514 38.5533 401.286 38.1753 401.118 37.746C400.95 37.3073 400.866 36.8453 400.866 36.36C400.866 35.828 400.964 35.3333 401.16 34.876C401.356 34.4093 401.622 34.008 401.958 33.672C402.303 33.3267 402.709 33.056 403.176 32.86C403.652 32.664 404.156 32.566 404.688 32.566C405.266 32.566 405.822 32.6827 406.354 32.916C406.886 33.14 407.338 33.4573 407.712 33.868L406.536 35.114C406.274 34.8247 405.994 34.6053 405.696 34.456C405.397 34.3067 405.075 34.232 404.73 34.232C404.179 34.232 403.713 34.4373 403.33 34.848C402.956 35.2587 402.77 35.7627 402.77 36.36C402.77 36.9573 402.961 37.4567 403.344 37.858C403.736 38.2593 404.212 38.46 404.772 38.46Z" fill="#ADABB5"/>
<path d="M410.963 40.126C410.179 40.126 409.54 39.9207 409.045 39.51C408.55 39.09 408.303 38.5487 408.303 37.886C408.303 37.1953 408.569 36.654 409.101 36.262C409.633 35.87 410.366 35.674 411.299 35.674C411.598 35.674 411.896 35.6973 412.195 35.744C412.494 35.7907 412.788 35.8607 413.077 35.954V35.436C413.077 35.016 412.946 34.6987 412.685 34.484C412.424 34.2693 412.041 34.162 411.537 34.162C411.229 34.162 410.893 34.2133 410.529 34.316C410.174 34.4093 409.768 34.5587 409.311 34.764L408.611 33.35C409.18 33.0887 409.731 32.8927 410.263 32.762C410.804 32.6313 411.336 32.566 411.859 32.566C412.839 32.566 413.6 32.804 414.141 33.28C414.692 33.7467 414.967 34.4093 414.967 35.268V40H413.077V39.496C412.769 39.7107 412.442 39.8693 412.097 39.972C411.761 40.0747 411.383 40.126 410.963 40.126ZM410.137 37.844C410.137 38.124 410.258 38.348 410.501 38.516C410.744 38.6747 411.066 38.754 411.467 38.754C411.784 38.754 412.074 38.7167 412.335 38.642C412.606 38.558 412.853 38.4413 413.077 38.292V37.2C412.844 37.1067 412.596 37.0413 412.335 37.004C412.083 36.9573 411.817 36.934 411.537 36.934C411.098 36.934 410.753 37.018 410.501 37.186C410.258 37.3447 410.137 37.564 410.137 37.844ZM410.165 31.642L408.989 31.39C409.11 30.8207 409.302 30.396 409.563 30.116C409.834 29.836 410.174 29.696 410.585 29.696C410.781 29.696 410.972 29.7333 411.159 29.808C411.355 29.8827 411.537 29.962 411.705 30.046C411.882 30.13 412.05 30.2093 412.209 30.284C412.368 30.3587 412.512 30.396 412.643 30.396C412.792 30.396 412.914 30.34 413.007 30.228C413.1 30.116 413.18 29.92 413.245 29.64L414.407 29.892C414.286 30.4613 414.09 30.8907 413.819 31.18C413.558 31.46 413.222 31.6 412.811 31.6C412.624 31.6 412.438 31.5627 412.251 31.488C412.064 31.4133 411.882 31.334 411.705 31.25C411.537 31.166 411.369 31.0867 411.201 31.012C411.042 30.9373 410.893 30.9 410.753 30.9C410.604 30.9 410.482 30.9607 410.389 31.082C410.305 31.194 410.23 31.3807 410.165 31.642Z" fill="#ADABB5"/>
<path d="M416.083 36.36C416.083 35.828 416.181 35.3333 416.377 34.876C416.582 34.4093 416.857 34.008 417.203 33.672C417.557 33.3267 417.973 33.056 418.449 32.86C418.925 32.664 419.433 32.566 419.975 32.566C420.516 32.566 421.025 32.664 421.501 32.86C421.977 33.056 422.387 33.3267 422.733 33.672C423.087 34.008 423.363 34.4093 423.559 34.876C423.764 35.3333 423.867 35.828 423.867 36.36C423.867 36.892 423.764 37.3913 423.559 37.858C423.363 38.3153 423.087 38.712 422.733 39.048C422.387 39.384 421.977 39.65 421.501 39.846C421.025 40.042 420.516 40.14 419.975 40.14C419.433 40.14 418.925 40.042 418.449 39.846C417.973 39.65 417.557 39.384 417.203 39.048C416.857 38.712 416.582 38.3153 416.377 37.858C416.181 37.3913 416.083 36.892 416.083 36.36ZM419.975 38.474C420.535 38.474 421.011 38.2687 421.403 37.858C421.795 37.4473 421.991 36.948 421.991 36.36C421.991 35.7627 421.795 35.2587 421.403 34.848C421.011 34.4373 420.535 34.232 419.975 34.232C419.415 34.232 418.939 34.4373 418.547 34.848C418.155 35.2587 417.959 35.7627 417.959 36.36C417.959 36.948 418.155 37.4473 418.547 37.858C418.939 38.2687 419.415 38.474 419.975 38.474Z" fill="#ADABB5"/>
<path d="M425.901 37.858C426.219 37.858 426.489 37.97 426.713 38.194C426.937 38.418 427.049 38.6887 427.049 39.006C427.049 39.314 426.937 39.58 426.713 39.804C426.489 40.028 426.219 40.14 425.901 40.14C425.593 40.14 425.327 40.028 425.103 39.804C424.879 39.58 424.767 39.314 424.767 39.006C424.767 38.6887 424.879 38.418 425.103 38.194C425.327 37.97 425.593 37.858 425.901 37.858ZM425.901 32.566C426.219 32.566 426.489 32.678 426.713 32.902C426.937 33.126 427.049 33.3967 427.049 33.714C427.049 34.022 426.937 34.288 426.713 34.512C426.489 34.736 426.219 34.848 425.901 34.848C425.593 34.848 425.327 34.736 425.103 34.512C424.879 34.288 424.767 34.022 424.767 33.714C424.767 33.3967 424.879 33.126 425.103 32.902C425.327 32.678 425.593 32.566 425.901 32.566Z" fill="#ADABB5"/>
<path d="M431.171 40V30.2L433.089 29.78V33.28C433.369 33.0467 433.677 32.8693 434.013 32.748C434.358 32.6267 434.731 32.566 435.133 32.566C435.973 32.566 436.663 32.8367 437.205 33.378C437.746 33.9193 438.017 34.6147 438.017 35.464V40H436.099V35.744C436.099 35.2867 435.959 34.918 435.679 34.638C435.408 34.358 435.044 34.218 434.587 34.218C434.269 34.218 433.98 34.2833 433.719 34.414C433.467 34.5353 433.257 34.7127 433.089 34.946V40H431.171Z" fill="#ADABB5"/>
<path d="M439.133 36.36C439.133 35.828 439.231 35.3333 439.427 34.876C439.633 34.4093 439.908 34.008 440.253 33.672C440.608 33.3267 441.023 33.056 441.499 32.86C441.975 32.664 442.484 32.566 443.025 32.566C443.567 32.566 444.075 32.664 444.551 32.86C445.027 33.056 445.438 33.3267 445.783 33.672C446.138 34.008 446.413 34.4093 446.609 34.876C446.815 35.3333 446.917 35.828 446.917 36.36C446.917 36.892 446.815 37.3913 446.609 37.858C446.413 38.3153 446.138 38.712 445.783 39.048C445.438 39.384 445.027 39.65 444.551 39.846C444.075 40.042 443.567 40.14 443.025 40.14C442.484 40.14 441.975 40.042 441.499 39.846C441.023 39.65 440.608 39.384 440.253 39.048C439.908 38.712 439.633 38.3153 439.427 37.858C439.231 37.3913 439.133 36.892 439.133 36.36ZM443.025 38.474C443.585 38.474 444.061 38.2687 444.453 37.858C444.845 37.4473 445.041 36.948 445.041 36.36C445.041 35.7627 444.845 35.2587 444.453 34.848C444.061 34.4373 443.585 34.232 443.025 34.232C442.465 34.232 441.989 34.4373 441.597 34.848C441.205 35.2587 441.009 35.7627 441.009 36.36C441.009 36.948 441.205 37.4473 441.597 37.858C441.989 38.2687 442.465 38.474 443.025 38.474Z" fill="#ADABB5"/>
<path d="M449.048 31.838C448.75 31.838 448.493 31.7307 448.278 31.516C448.064 31.3013 447.956 31.0447 447.956 30.746C447.956 30.4473 448.064 30.1907 448.278 29.976C448.493 29.7613 448.75 29.654 449.048 29.654C449.347 29.654 449.604 29.7613 449.818 29.976C450.033 30.1907 450.14 30.4473 450.14 30.746C450.14 31.0447 450.033 31.3013 449.818 31.516C449.604 31.7307 449.347 31.838 449.048 31.838ZM447.648 43.01C447.471 43.01 447.289 42.996 447.102 42.968C446.906 42.9493 446.752 42.9213 446.64 42.884V41.414C446.743 41.4327 446.846 41.4467 446.948 41.456C447.042 41.4653 447.149 41.47 447.27 41.47C447.56 41.47 447.77 41.4093 447.9 41.288C448.031 41.176 448.096 40.9893 448.096 40.728V32.706H450.014V40.84C450.014 41.5307 449.804 42.0627 449.384 42.436C448.974 42.8187 448.395 43.01 447.648 43.01Z" fill="#ADABB5"/>
<path d="M458.052 39.09C457.604 39.454 457.142 39.72 456.666 39.888C456.2 40.056 455.677 40.14 455.098 40.14C454.548 40.14 454.03 40.042 453.544 39.846C453.068 39.65 452.653 39.384 452.298 39.048C451.953 38.712 451.678 38.3153 451.472 37.858C451.276 37.3913 451.178 36.892 451.178 36.36C451.178 35.8373 451.272 35.3473 451.458 34.89C451.654 34.4233 451.92 34.022 452.256 33.686C452.592 33.3407 452.989 33.07 453.446 32.874C453.913 32.678 454.408 32.58 454.93 32.58C455.444 32.58 455.92 32.6827 456.358 32.888C456.806 33.084 457.189 33.3547 457.506 33.7C457.833 34.0453 458.085 34.4607 458.262 34.946C458.449 35.422 458.542 35.94 458.542 36.5V37.004H453.11C453.241 37.4613 453.493 37.83 453.866 38.11C454.24 38.39 454.678 38.53 455.182 38.53C455.5 38.53 455.798 38.4787 456.078 38.376C456.358 38.2733 456.596 38.1287 456.792 37.942L458.052 39.09ZM454.888 34.162C454.45 34.162 454.072 34.2973 453.754 34.568C453.437 34.8293 453.218 35.184 453.096 35.632H456.666C456.545 35.2027 456.321 34.8527 455.994 34.582C455.677 34.302 455.308 34.162 454.888 34.162Z" fill="#ADABB5"/>
<path d="M464.844 40.126C464.06 40.126 463.421 39.9207 462.926 39.51C462.431 39.09 462.184 38.5487 462.184 37.886C462.184 37.1953 462.45 36.654 462.982 36.262C463.514 35.87 464.247 35.674 465.18 35.674C465.479 35.674 465.777 35.6973 466.076 35.744C466.375 35.7907 466.669 35.8607 466.958 35.954V35.436C466.958 35.016 466.827 34.6987 466.566 34.484C466.305 34.2693 465.922 34.162 465.418 34.162C465.11 34.162 464.774 34.2133 464.41 34.316C464.055 34.4093 463.649 34.5587 463.192 34.764L462.492 33.35C463.061 33.0887 463.612 32.8927 464.144 32.762C464.685 32.6313 465.217 32.566 465.74 32.566C466.72 32.566 467.481 32.804 468.022 33.28C468.573 33.7467 468.848 34.4093 468.848 35.268V40H466.958V39.496C466.65 39.7107 466.323 39.8693 465.978 39.972C465.642 40.0747 465.264 40.126 464.844 40.126ZM464.018 37.844C464.018 38.124 464.139 38.348 464.382 38.516C464.625 38.6747 464.947 38.754 465.348 38.754C465.665 38.754 465.955 38.7167 466.216 38.642C466.487 38.558 466.734 38.4413 466.958 38.292V37.2C466.725 37.1067 466.477 37.0413 466.216 37.004C465.964 36.9573 465.698 36.934 465.418 36.934C464.979 36.934 464.634 37.018 464.382 37.186C464.139 37.3447 464.018 37.564 464.018 37.844ZM465.334 29.668L466.566 31.488H465.012L463.122 29.668H465.334Z" fill="#ADABB5"/>
<path d="M469.683 39.132L470.635 37.858C471.065 38.138 471.471 38.348 471.853 38.488C472.236 38.6187 472.619 38.684 473.001 38.684C473.431 38.684 473.771 38.614 474.023 38.474C474.285 38.334 474.415 38.1473 474.415 37.914C474.415 37.7273 474.341 37.578 474.191 37.466C474.051 37.354 473.823 37.2747 473.505 37.228L472.105 37.018C471.387 36.906 470.836 36.6727 470.453 36.318C470.08 35.9633 469.893 35.492 469.893 34.904C469.893 34.204 470.169 33.644 470.719 33.224C471.27 32.804 472.007 32.594 472.931 32.594C473.463 32.594 473.981 32.6733 474.485 32.832C474.989 32.9813 475.47 33.2053 475.927 33.504L475.003 34.736C474.602 34.5027 474.219 34.33 473.855 34.218C473.491 34.0967 473.123 34.036 472.749 34.036C472.404 34.036 472.124 34.1013 471.909 34.232C471.704 34.3627 471.601 34.5353 471.601 34.75C471.601 34.946 471.676 35.1 471.825 35.212C471.984 35.3147 472.241 35.3893 472.595 35.436L473.995 35.646C474.705 35.7487 475.251 35.982 475.633 36.346C476.025 36.71 476.221 37.172 476.221 37.732C476.221 38.0773 476.137 38.3993 475.969 38.698C475.811 38.9873 475.591 39.2393 475.311 39.454C475.031 39.6687 474.695 39.8367 474.303 39.958C473.911 40.0793 473.487 40.14 473.029 40.14C472.367 40.14 471.746 40.056 471.167 39.888C470.589 39.7107 470.094 39.4587 469.683 39.132Z" fill="#ADABB5"/>
<path d="M483.367 30.2V40H481.449V32.146L479.531 32.93V31.264L482.149 30.2H483.367Z" fill="#ADABB5"/>
<path d="M488.906 40.14C488.262 40.14 487.674 40.0187 487.142 39.776C486.61 39.5333 486.157 39.1927 485.784 38.754C485.41 38.3153 485.116 37.7833 484.902 37.158C484.696 36.5327 484.594 35.842 484.594 35.086C484.594 34.3393 484.696 33.6533 484.902 33.028C485.116 32.4027 485.41 31.8707 485.784 31.432C486.166 30.9933 486.624 30.6527 487.156 30.41C487.688 30.1673 488.271 30.046 488.906 30.046C489.55 30.046 490.138 30.1673 490.67 30.41C491.202 30.6527 491.654 30.9933 492.028 31.432C492.401 31.8707 492.69 32.4027 492.896 33.028C493.11 33.6533 493.218 34.3393 493.218 35.086C493.218 35.842 493.115 36.5327 492.91 37.158C492.704 37.7833 492.41 38.3153 492.028 38.754C491.654 39.1927 491.202 39.5333 490.67 39.776C490.138 40.0187 489.55 40.14 488.906 40.14ZM488.906 38.474C489.662 38.474 490.259 38.1707 490.698 37.564C491.136 36.9573 491.356 36.1313 491.356 35.086C491.356 34.0593 491.132 33.2427 490.684 32.636C490.245 32.02 489.652 31.712 488.906 31.712C488.159 31.712 487.566 32.02 487.128 32.636C486.689 33.2427 486.47 34.0593 486.47 35.086C486.47 36.1313 486.689 36.9573 487.128 37.564C487.566 38.1707 488.159 38.474 488.906 38.474Z" fill="#ADABB5"/>
<path d="M494.458 40V30.2L496.376 29.78V33.28C496.656 33.0467 496.964 32.8693 497.3 32.748C497.645 32.6267 498.018 32.566 498.42 32.566C499.26 32.566 499.95 32.8367 500.492 33.378C501.033 33.9193 501.304 34.6147 501.304 35.464V40H499.386V35.744C499.386 35.2867 499.246 34.918 498.966 34.638C498.695 34.358 498.331 34.218 497.874 34.218C497.556 34.218 497.267 34.2833 497.006 34.414C496.754 34.5353 496.544 34.7127 496.376 34.946V40H494.458Z" fill="#ADABB5"/>
</g>
<ellipse cx="95.8335" cy="45.7939" rx="23.8334" ry="23.7939" fill="#7F31FF"/>
<mask id="mask0" mask-type="alpha" maskUnits="userSpaceOnUse" x="71" y="22" width="49" height="48">
<ellipse cx="95.7952" cy="46" rx="24.0247" ry="24" fill="#FFB931"/>
</mask>
<g mask="url(#mask0)">
<path d="M106.871 62.0756C101.306 53.8489 91.4604 53.6406 91.4604 53.6406H87.1797C66.0436 55.5151 73.41 68.8618 79.6349 74.8843C79.9381 80.1085 80.673 91.0045 81.1867 92.7957C81.8288 95.0346 103.125 93.4205 104.196 93.2643C104.879 93.1646 103.927 82.927 102.617 73.8117C102.336 71.8523 104.785 70.6238 106.156 72.0512L109.279 75.3009L115.646 73.1661C114.451 70.7536 109.361 65.757 106.871 62.0756Z" fill="#77CCFC"/>
<path d="M89.8542 36.302C94.7957 36.3261 97.2 34.4316 98.3943 32.3748C98.9442 31.4277 97.0995 30.3327 96.0077 30.4183C90.9243 31.2514 91.6735 29.5332 87.2322 29.7415C84.2617 29.8808 85.5199 32.5531 83.5936 32.6052C81.6673 32.6573 82.4699 37.4996 82.7375 40.9881C83.005 44.4767 84.0752 46.9238 85.7875 47.4445C87.6068 44.5287 86.2218 40.4263 86.0015 39.4261C85.1989 35.7813 86.055 35.7813 86.2156 35.7813C86.7506 35.7813 88.677 36.2499 89.8542 36.302Z" fill="#301400"/>
<path d="M97.6055 51.2553C99.5885 50.5658 97.3967 41.0907 96.0529 36.4394C95.8978 35.8092 95.429 34.4358 94.7954 33.9836C90.8175 31.5118 85.8947 34.5838 85.6655 36.3173C85.5672 37.0609 85.6655 38.4889 86.1204 40.2592C86.3793 41.4567 86.8428 42.2777 86.1204 42.1926C85.2173 42.0862 85.0803 41.0211 84.2835 40.9272C83.4867 40.8334 83.6123 42.8243 83.8078 43.5394C84.1042 44.6233 84.771 45.6742 85.3061 45.1015C85.6138 46.8161 86.0017 48.3817 86.3793 50.5098C86.6761 52.1827 84.8102 53.4905 84.1289 54.0572C83.7543 58.535 94.7791 56.8244 94.3491 55.515C93.9191 54.2056 92.5138 54.0332 90.978 53.3803C89.4423 52.7273 89.4938 51.0192 89.6403 51.1413C90.5669 51.9139 95.1267 52.1171 97.6055 51.2553Z" fill="#EEA982"/>
<path fill-rule="evenodd" clip-rule="evenodd" d="M93.9805 42.9257C93.9276 42.9514 93.9062 43.014 93.9326 43.0654L94.0387 43.2718C94.1302 43.4707 93.9807 43.6957 93.7563 43.6957H93.1722C93.1131 43.6957 93.0651 43.7423 93.0651 43.7998C93.0651 43.8574 93.1131 43.904 93.1722 43.904H93.7563C94.1369 43.904 94.3903 43.5212 94.2328 43.184L94.1353 43.2271L94.2311 43.1805L94.124 42.9723C94.0976 42.9208 94.0333 42.9 93.9805 42.9257Z" fill="#301400"/>
<path d="M86.2158 35.8334C86.7509 35.8334 88.6772 36.302 89.8544 36.3541C93.8336 36.3735 99.7085 35.7494 100.133 31.7928C100.258 30.6335 99.9603 29.3658 99.593 28.3357C98.7904 26.5133 96.849 25.1515 95.4193 25.2637C90.0149 25.4199 93.0649 29.1687 86.9649 29.0125C83.992 28.9364 84.9851 32.0845 83.0587 32.1366C82.5152 32.1513 82.0819 32.4422 81.7775 32.9589C80.3756 35.3383 82.2449 38.3229 82.7377 41.0402C82.8097 41.4375 82.8471 41.6763 82.8642 41.7968C82.8843 41.9388 82.8764 41.9169 82.8642 41.7968C82.8173 41.3373 82.7068 39.4395 83.8614 39.7906C84.907 38.1148 85.4598 38.6441 85.699 39.2074C85.7256 39.3441 85.7551 39.4864 85.7877 39.6344C85.8814 40.0598 85.876 39.6243 85.699 39.2074C85.0705 35.9772 86.0618 35.8334 86.2158 35.8334Z" fill="#301400"/>
<path d="M114.595 50.0527L120.748 48.2016C125.882 46.657 131.053 50.501 131.053 55.8625V66.4492L108.9 74.0512V57.7135C108.9 54.183 111.214 51.0698 114.595 50.0527Z" fill="#38424F" stroke="#38424F"/>
<path d="M101.003 74.9522L108.793 72.6453C115.481 70.7015 129.255 66.6783 131.052 66.1368C131.095 66.9699 130.803 67.2823 130.624 67.3344C121.385 70.4238 103.099 76.4151 101.515 76.7066C101.11 76.7814 100.771 76.8178 100.485 76.8114C99.326 76.7853 99.8916 75.2814 101.003 74.9522Z" fill="#38424F" stroke="#38424F"/>
<path d="M122.827 65.0957C124.708 66.0712 124.413 67.793 124.031 68.532H118.299C118.348 67.5878 117.723 66.8761 119.27 65.9339C120.116 64.9567 121.478 64.3957 122.827 65.0957Z" fill="#EEA982"/>
<path d="M124.047 68.48C118.857 81.549 114.629 80.9763 108.636 74.5719L115.218 72.3851C115.271 72.333 117.002 71.3611 118.054 68.48H124.047Z" fill="#77CCFC"/>
<path d="M104.708 73.166C105.407 72.5263 104.391 71.2318 104.227 70.9791C102.982 69.0645 99.518 68.5233 98.983 71.3436C98.2931 74.9802 101.383 73.1292 102.14 72.2808C102.532 71.8416 104.143 73.6843 104.708 73.166Z" fill="#EEA982"/>
<path d="M99.8926 69.1568L99.1435 73.4264L83.5188 75.7174L82.8232 66.7617L87.5855 71.1875L99.8926 69.1568Z" fill="#77CCFC"/>
<g style="mix-blend-mode:multiply">
<path d="M99.8613 69.1047L98.7268 69.2927C91.7478 70.4493 84.6392 68.1692 79.6349 63.1689C84.5122 68.4637 91.8171 70.799 98.8613 69.3153L99.8613 69.1047Z" fill="black" fill-opacity="0.1"/>
</g>
<ellipse rx="0.427579" ry="0.938328" transform="matrix(-0.979779 0.200082 0.210813 0.977526 94.5884 40.4809)" fill="#301400"/>
<ellipse rx="0.427597" ry="0.938329" transform="matrix(-0.979781 0.200074 0.210822 0.977525 90.7613 40.8589)" fill="#301400"/>
<path fill-rule="evenodd" clip-rule="evenodd" d="M90.4032 45.942C90.3483 45.9634 90.3216 46.024 90.3435 46.0774C90.4652 46.3733 90.7324 46.5766 91.0629 46.7145C91.3939 46.8526 91.8008 46.9305 92.2255 46.969C93.0756 47.046 94.0215 46.9668 94.6337 46.8705C94.692 46.8613 94.7317 46.8078 94.7222 46.7511C94.7128 46.6943 94.6579 46.6557 94.5995 46.6649C93.9988 46.7594 93.072 46.8365 92.2454 46.7616C91.8318 46.7242 91.4495 46.6492 91.1472 46.5231C90.8446 46.3968 90.6347 46.2249 90.5423 46.0001C90.5203 45.9467 90.458 45.9207 90.4032 45.942Z" fill="#301400"/>
</g>
<g filter="url(#filter1_d)">
<rect x="16" y="103.175" width="454.378" height="71.3315" rx="8" fill="white"/>
</g>
<ellipse cx="65.1221" cy="138.841" rx="22.3282" ry="22.2911" fill="#FFB931"/>
<rect x="96.3809" y="125.467" width="156.297" height="8.91644" rx="4.45822" fill="#ADABB5"/>
<rect x="96.3809" y="143.299" width="111.641" height="8.91643" rx="4.45821" fill="#DADADA"/>
<path d="M382.5 130.458C382.5 127.996 384.496 126 386.958 126H441.183C443.645 126 445.641 127.996 445.641 130.458C445.641 132.92 443.645 134.916 441.183 134.916H386.958C384.496 134.916 382.5 132.92 382.5 130.458Z" fill="#DADADA"/>
<g filter="url(#filter2_d)">
<rect x="16" y="281.504" width="454.378" height="71.3315" rx="8" fill="white"/>
</g>
<path d="M381 308.458C381 305.996 382.996 304 385.458 304H439.683C442.145 304 444.141 305.996 444.141 308.458C444.141 310.92 442.145 312.916 439.683 312.916H385.458C382.996 312.916 381 310.92 381 308.458Z" fill="#DADADA"/>
<ellipse cx="65.1221" cy="317.17" rx="22.3282" ry="22.2911" fill="#77CCFC"/>
<rect x="96.3809" y="303.795" width="156.297" height="8.91647" rx="4.45824" fill="#ADABB5"/>
<rect x="96.3809" y="321.628" width="111.641" height="8.91641" rx="4.45821" fill="#DADADA"/>
<g filter="url(#filter3_d)">
<rect x="43.2295" y="370.668" width="454.378" height="71.3315" rx="8" fill="white"/>
</g>
<path d="M408 397.458C408 394.996 409.996 393 412.458 393H466.683C469.145 393 471.141 394.996 471.141 397.458C471.141 399.92 469.145 401.916 466.683 401.916H412.458C409.996 401.916 408 399.92 408 397.458Z" fill="#DADADA"/>
<ellipse cx="92.3516" cy="406.334" rx="22.3282" ry="22.2911" fill="#46BF1B"/>
<rect x="123.61" y="392.96" width="156.297" height="8.91644" rx="4.45822" fill="#ADABB5"/>
<rect x="123.61" y="410.792" width="111.641" height="8.91644" rx="4.45822" fill="#DADADA"/>
<g filter="url(#filter4_d)">
<rect x="43" y="192" width="454.378" height="71.3315" rx="8" fill="white"/>
</g>
<path d="M408 219.458C408 216.996 409.996 215 412.458 215H466.683C469.145 215 471.141 216.996 471.141 219.458C471.141 221.92 469.145 223.916 466.683 223.916H412.458C409.996 223.916 408 221.92 408 219.458Z" fill="#DADADA"/>
<ellipse cx="92.3516" cy="228.006" rx="22.3282" ry="22.2911" fill="#FF316F"/>
<rect x="123.61" y="214.631" width="156.297" height="8.91644" rx="4.45822" fill="#ADABB5"/>
<rect x="123.61" y="232.464" width="111.641" height="8.91643" rx="4.45821" fill="#DADADA"/>
<defs>
<filter id="filter0_d" x="34.9893" y="0" width="501.011" height="92.1404" filterUnits="userSpaceOnUse" color-interpolation-filters="sRGB">
<feFlood flood-opacity="0" result="BackgroundImageFix"/>
<feColorMatrix in="SourceAlpha" type="matrix" values="0 0 0 0 0 0 0 0 0 0 0 0 0 0 0 0 0 0 127 0"/>
<feOffset/>
<feGaussianBlur stdDeviation="4"/>
<feColorMatrix type="matrix" values="0 0 0 0 0.282353 0 0 0 0 0.509804 0 0 0 0 0.921569 0 0 0 0.2 0"/>
<feBlend mode="normal" in2="BackgroundImageFix" result="effect1_dropShadow"/>
<feBlend mode="normal" in="SourceGraphic" in2="effect1_dropShadow" result="shape"/>
</filter>
<filter id="filter1_d" x="0" y="87.1754" width="486.378" height="103.331" filterUnits="userSpaceOnUse" color-interpolation-filters="sRGB">
<feFlood flood-opacity="0" result="BackgroundImageFix"/>
<feColorMatrix in="SourceAlpha" type="matrix" values="0 0 0 0 0 0 0 0 0 0 0 0 0 0 0 0 0 0 127 0"/>
<feOffset/>
<feGaussianBlur stdDeviation="8"/>
<feColorMatrix type="matrix" values="0 0 0 0 0.898039 0 0 0 0 0.898039 0 0 0 0 0.898039 0 0 0 0.4 0"/>
<feBlend mode="normal" in2="BackgroundImageFix" result="effect1_dropShadow"/>
<feBlend mode="normal" in="SourceGraphic" in2="effect1_dropShadow" result="shape"/>
</filter>
<filter id="filter2_d" x="0" y="265.504" width="486.378" height="103.332" filterUnits="userSpaceOnUse" color-interpolation-filters="sRGB">
<feFlood flood-opacity="0" result="BackgroundImageFix"/>
<feColorMatrix in="SourceAlpha" type="matrix" values="0 0 0 0 0 0 0 0 0 0 0 0 0 0 0 0 0 0 127 0"/>
<feOffset/>
<feGaussianBlur stdDeviation="8"/>
<feColorMatrix type="matrix" values="0 0 0 0 0.898039 0 0 0 0 0.898039 0 0 0 0 0.898039 0 0 0 0.4 0"/>
<feBlend mode="normal" in2="BackgroundImageFix" result="effect1_dropShadow"/>
<feBlend mode="normal" in="SourceGraphic" in2="effect1_dropShadow" result="shape"/>
</filter>
<filter id="filter3_d" x="27.2295" y="354.668" width="486.378" height="103.332" filterUnits="userSpaceOnUse" color-interpolation-filters="sRGB">
<feFlood flood-opacity="0" result="BackgroundImageFix"/>
<feColorMatrix in="SourceAlpha" type="matrix" values="0 0 0 0 0 0 0 0 0 0 0 0 0 0 0 0 0 0 127 0"/>
<feOffset/>
<feGaussianBlur stdDeviation="8"/>
<feColorMatrix type="matrix" values="0 0 0 0 0.898039 0 0 0 0 0.898039 0 0 0 0 0.898039 0 0 0 0.4 0"/>
<feBlend mode="normal" in2="BackgroundImageFix" result="effect1_dropShadow"/>
<feBlend mode="normal" in="SourceGraphic" in2="effect1_dropShadow" result="shape"/>
</filter>
<filter id="filter4_d" x="27" y="176" width="486.378" height="103.331" filterUnits="userSpaceOnUse" color-interpolation-filters="sRGB">
<feFlood flood-opacity="0" result="BackgroundImageFix"/>
<feColorMatrix in="SourceAlpha" type="matrix" values="0 0 0 0 0 0 0 0 0 0 0 0 0 0 0 0 0 0 127 0"/>
<feOffset/>
<feGaussianBlur stdDeviation="8"/>
<feColorMatrix type="matrix" values="0 0 0 0 0.898039 0 0 0 0 0.898039 0 0 0 0 0.898039 0 0 0 0.4 0"/>
<feBlend mode="normal" in2="BackgroundImageFix" result="effect1_dropShadow"/>
<feBlend mode="normal" in="SourceGraphic" in2="effect1_dropShadow" result="shape"/>
</filter>
</defs>
</svg>
