<svg width="528" height="574" viewBox="0 0 528 574" fill="none" xmlns="http://www.w3.org/2000/svg">
<path fill-rule="evenodd" clip-rule="evenodd" d="M26.3437 143.559C26.3437 144.632 27.212 145.501 28.2831 145.501L143.354 145.502C147.995 145.502 151.758 149.27 151.758 153.919L151.758 253.635L142.5 253.635L153.697 273.06L164.894 253.635L155.637 253.635L155.637 153.919C155.637 147.125 150.137 141.616 143.354 141.616L28.2831 141.616C27.212 141.616 26.3437 142.486 26.3437 143.559Z" fill="#DADADA"/>
<path fill-rule="evenodd" clip-rule="evenodd" d="M156.281 427.178C157.352 427.178 158.221 428.047 158.221 429.12V500.346C158.221 504.995 161.983 508.764 166.625 508.764H271.352V499.491L290.746 510.706L271.352 521.921V512.649H166.625C159.841 512.649 154.342 507.141 154.342 500.346V429.12C154.342 428.047 155.21 427.178 156.281 427.178Z" fill="#DADADA"/>
<rect x="-0.5" y="0.5" width="221.384" height="137.567" rx="15.5" transform="matrix(-1 0 0 1 527 435.433)" fill="white" stroke="#E4E4E4"/>
<rect width="175.838" height="11.6551" rx="5.82756" transform="matrix(-1 0 0 1 504.727 487.234)" fill="#ADABB5"/>
<rect width="125.414" height="12.9501" rx="6.47507" transform="matrix(-1 0 0 1 480.16 510.544)" fill="#DADADA"/>
<rect x="52.2969" y="326.667" width="203.545" height="126.452" rx="15.5" fill="white" stroke="#E4E4E4"/>
<rect x="73.2051" y="379.979" width="161.734" height="10.7202" rx="5.36011" fill="#ADABB5"/>
<rect x="95.7988" y="401.419" width="115.354" height="11.9114" rx="5.9557" fill="#DADADA"/>
<g filter="url(#filter0_d)">
<rect x="16" y="16" width="275.899" height="172.715" rx="16" fill="white"/>
<rect x="16.5" y="16.5" width="274.899" height="171.715" rx="15.5" stroke="#E4E4E4"/>
</g>
<path d="M79.8019 113.108L72.4082 94.8542H76.4956L82.0669 109.274L87.7683 94.8542H91.6734L84.1756 113.108H79.8019Z" fill="#38424F"/>
<path d="M90.3783 106.328C90.3783 105.337 90.5605 104.415 90.925 103.564C91.3068 102.694 91.8188 101.947 92.461 101.321C93.1205 100.678 93.8929 100.174 94.778 99.8087C95.6632 99.4436 96.6091 99.2611 97.6157 99.2611C98.6224 99.2611 99.5683 99.4436 100.453 99.8087C101.339 100.174 102.102 100.678 102.744 101.321C103.404 101.947 103.916 102.694 104.28 103.564C104.662 104.415 104.853 105.337 104.853 106.328C104.853 107.319 104.662 108.249 104.28 109.118C103.916 109.97 103.404 110.709 102.744 111.334C102.102 111.96 101.339 112.456 100.453 112.821C99.5683 113.186 98.6224 113.368 97.6157 113.368C96.6091 113.368 95.6632 113.186 94.778 112.821C93.8929 112.456 93.1205 111.96 92.461 111.334C91.8188 110.709 91.3068 109.97 90.925 109.118C90.5605 108.249 90.3783 107.319 90.3783 106.328ZM97.6157 110.265C98.6571 110.265 99.5423 109.883 100.271 109.118C101 108.353 101.365 107.423 101.365 106.328C101.365 105.215 101 104.276 100.271 103.512C99.5423 102.747 98.6571 102.364 97.6157 102.364C96.5744 102.364 95.6892 102.747 94.9603 103.512C94.2313 104.276 93.8668 105.215 93.8668 106.328C93.8668 107.423 94.2313 108.353 94.9603 109.118C95.6892 109.883 96.5744 110.265 97.6157 110.265Z" fill="#38424F"/>
<path d="M113.786 110.239C114.393 110.239 114.958 110.117 115.478 109.874C116.016 109.631 116.528 109.248 117.014 108.727L119.149 110.943C118.455 111.708 117.622 112.308 116.65 112.742C115.678 113.16 114.671 113.368 113.63 113.368C112.64 113.368 111.703 113.186 110.818 112.821C109.95 112.456 109.195 111.96 108.553 111.334C107.928 110.709 107.434 109.97 107.069 109.118C106.705 108.249 106.522 107.319 106.522 106.328C106.522 105.337 106.705 104.415 107.069 103.564C107.434 102.694 107.928 101.947 108.553 101.321C109.195 100.678 109.95 100.174 110.818 99.8087C111.703 99.4436 112.64 99.2611 113.63 99.2611C114.706 99.2611 115.739 99.4784 116.728 99.913C117.717 100.33 118.559 100.921 119.253 101.686L117.066 104.007C116.58 103.468 116.06 103.06 115.504 102.781C114.949 102.503 114.35 102.364 113.708 102.364C112.684 102.364 111.816 102.747 111.104 103.512C110.41 104.276 110.063 105.215 110.063 106.328C110.063 107.44 110.419 108.37 111.13 109.118C111.859 109.865 112.745 110.239 113.786 110.239Z" fill="#38424F"/>
<path d="M132.653 111.413C131.82 112.091 130.961 112.586 130.075 112.899C129.208 113.212 128.236 113.368 127.16 113.368C126.136 113.368 125.172 113.186 124.27 112.821C123.385 112.456 122.612 111.96 121.953 111.334C121.311 110.709 120.799 109.97 120.417 109.118C120.052 108.249 119.87 107.319 119.87 106.328C119.87 105.354 120.044 104.442 120.391 103.59C120.755 102.721 121.25 101.973 121.875 101.347C122.499 100.704 123.237 100.2 124.088 99.8348C124.955 99.4697 125.875 99.2872 126.847 99.2872C127.802 99.2872 128.687 99.4784 129.503 99.8609C130.336 100.226 131.047 100.73 131.637 101.373C132.245 102.016 132.714 102.79 133.043 103.694C133.39 104.581 133.564 105.545 133.564 106.588V107.527H123.463C123.706 108.379 124.174 109.066 124.869 109.587C125.563 110.109 126.379 110.37 127.316 110.37C127.906 110.37 128.461 110.274 128.982 110.083C129.503 109.891 129.945 109.622 130.31 109.274L132.653 111.413ZM126.769 102.234C125.953 102.234 125.25 102.486 124.66 102.99C124.07 103.477 123.662 104.137 123.437 104.972H130.075C129.85 104.172 129.433 103.52 128.826 103.016C128.236 102.495 127.55 102.234 126.769 102.234ZM128.722 97.3315L126.795 95.4018L124.869 97.3315H122.005L124.999 93.7851H128.644L131.637 97.3315H128.722Z" fill="#38424F"/>
<path d="M140.049 99.5219H143.069V98.2181C143.069 96.7057 143.512 95.5409 144.397 94.7239C145.282 93.9068 146.558 93.4983 148.224 93.4983C148.588 93.4983 148.962 93.5244 149.343 93.5765C149.725 93.6113 150.055 93.6634 150.333 93.733V96.7317C150.003 96.6622 149.708 96.61 149.448 96.5753C149.205 96.5405 148.944 96.5231 148.667 96.5231C147.99 96.5231 147.478 96.6709 147.131 96.9664C146.801 97.2619 146.636 97.7052 146.636 98.2963V99.5219H150.333V102.521H146.636V113.108H143.069V102.521H140.049V99.5219Z" fill="#38424F"/>
<path d="M163.975 111.413C163.142 112.091 162.283 112.586 161.398 112.899C160.53 113.212 159.558 113.368 158.482 113.368C157.458 113.368 156.495 113.186 155.592 112.821C154.707 112.456 153.935 111.96 153.275 111.334C152.633 110.709 152.121 109.97 151.739 109.118C151.375 108.249 151.192 107.319 151.192 106.328C151.192 105.354 151.366 104.442 151.713 103.59C152.077 102.721 152.572 101.973 153.197 101.347C153.822 100.704 154.559 100.2 155.41 99.8348C156.278 99.4697 157.198 99.2872 158.169 99.2872C159.124 99.2872 160.009 99.4784 160.825 99.8609C161.658 100.226 162.37 100.73 162.96 101.373C163.567 102.016 164.036 102.79 164.366 103.694C164.713 104.581 164.886 105.545 164.886 106.588V107.527H154.785C155.028 108.379 155.497 109.066 156.191 109.587C156.885 110.109 157.701 110.37 158.638 110.37C159.228 110.37 159.784 110.274 160.304 110.083C160.825 109.891 161.268 109.622 161.632 109.274L163.975 111.413ZM158.091 102.234C157.276 102.234 156.573 102.486 155.983 102.99C155.392 103.477 154.985 104.137 154.759 104.972H161.398C161.172 104.172 160.756 103.52 160.148 103.016C159.558 102.495 158.872 102.234 158.091 102.234Z" fill="#38424F"/>
<path d="M166.369 113.108V110.578L173.19 102.521H166.421V99.5219H177.772V102.051L170.899 110.109H177.928V113.108H166.369Z" fill="#38424F"/>
<path d="M188.763 99.5219V107.423C188.763 108.292 189.015 108.988 189.518 109.509C190.039 110.031 190.724 110.291 191.575 110.291C192.182 110.291 192.72 110.178 193.189 109.952C193.675 109.709 194.074 109.37 194.386 108.935V99.5219H197.953V113.108H194.386V112.012C193.866 112.447 193.284 112.786 192.642 113.029C192 113.255 191.306 113.368 190.559 113.368C188.997 113.368 187.713 112.864 186.706 111.856C185.7 110.83 185.196 109.526 185.196 107.944V99.5219H188.763Z" fill="#38424F"/>
<path d="M200.733 113.108V99.5219H204.299V100.539C204.785 100.122 205.323 99.8087 205.914 99.6001C206.504 99.3741 207.146 99.2611 207.84 99.2611C208.708 99.2611 209.489 99.4436 210.183 99.8087C210.895 100.156 211.476 100.652 211.927 101.295C212.465 100.634 213.116 100.13 213.88 99.7826C214.644 99.435 215.485 99.2611 216.405 99.2611C217.915 99.2611 219.156 99.7653 220.128 100.774C221.1 101.782 221.586 103.077 221.586 104.659V113.108H218.019V105.18C218.019 104.329 217.785 103.642 217.317 103.12C216.865 102.599 216.249 102.338 215.468 102.338C214.93 102.338 214.435 102.46 213.984 102.703C213.55 102.929 213.177 103.259 212.865 103.694C212.882 103.851 212.899 104.007 212.917 104.163C212.934 104.32 212.943 104.485 212.943 104.659V113.108H209.376V105.18C209.376 104.329 209.142 103.642 208.673 103.12C208.222 102.599 207.606 102.338 206.825 102.338C206.287 102.338 205.809 102.442 205.393 102.651C204.976 102.86 204.612 103.164 204.299 103.564V113.108H200.733Z" fill="#38424F"/>
<path d="M228.622 113.342C227.164 113.342 225.975 112.96 225.055 112.195C224.135 111.413 223.675 110.404 223.675 109.17C223.675 107.884 224.17 106.875 225.159 106.145C226.149 105.415 227.511 105.05 229.247 105.05C229.802 105.05 230.357 105.093 230.913 105.18C231.468 105.267 232.015 105.398 232.553 105.572V104.607C232.553 103.824 232.31 103.233 231.824 102.834C231.338 102.434 230.626 102.234 229.689 102.234C229.116 102.234 228.492 102.329 227.815 102.521C227.155 102.694 226.4 102.973 225.55 103.355L224.248 100.721C225.307 100.235 226.331 99.8696 227.32 99.6262C228.327 99.3828 229.316 99.2611 230.288 99.2611C232.11 99.2611 233.525 99.7044 234.532 100.591C235.556 101.46 236.068 102.694 236.068 104.294V113.108H232.553V112.169C231.98 112.569 231.373 112.864 230.731 113.055C230.106 113.247 229.403 113.342 228.622 113.342ZM227.086 109.092C227.086 109.613 227.311 110.031 227.763 110.343C228.214 110.639 228.813 110.787 229.559 110.787C230.149 110.787 230.687 110.717 231.173 110.578C231.677 110.422 232.136 110.204 232.553 109.926V107.892C232.119 107.718 231.659 107.597 231.173 107.527C230.705 107.44 230.21 107.397 229.689 107.397C228.873 107.397 228.231 107.553 227.763 107.866C227.311 108.162 227.086 108.57 227.086 109.092Z" fill="#38424F"/>
<path d="M82.2445 147.876V134.29H85.8112V135.359C86.3319 134.925 86.9046 134.594 87.5294 134.368C88.1716 134.142 88.8659 134.029 89.6122 134.029C91.1742 134.029 92.4586 134.533 93.4652 135.542C94.4719 136.55 94.9752 137.845 94.9752 139.427V147.876H91.4085V139.949C91.4085 139.097 91.1482 138.41 90.6275 137.889C90.1242 137.367 89.4473 137.106 88.5968 137.106C88.0067 137.106 87.4687 137.228 86.9827 137.471C86.5141 137.697 86.1236 138.028 85.8112 138.462V147.876H82.2445Z" fill="#38424F"/>
<path d="M97.052 141.096C97.052 140.105 97.2343 139.184 97.5987 138.332C97.9806 137.463 98.4926 136.715 99.1348 136.089C99.7943 135.446 100.567 134.942 101.452 134.577C102.337 134.212 103.283 134.029 104.29 134.029C105.296 134.029 106.242 134.212 107.127 134.577C108.012 134.942 108.776 135.446 109.418 136.089C110.078 136.715 110.59 137.463 110.954 138.332C111.336 139.184 111.527 140.105 111.527 141.096C111.527 142.087 111.336 143.017 110.954 143.886C110.59 144.738 110.078 145.477 109.418 146.102C108.776 146.728 108.012 147.224 107.127 147.589C106.242 147.954 105.296 148.136 104.29 148.136C103.283 148.136 102.337 147.954 101.452 147.589C100.567 147.224 99.7943 146.728 99.1348 146.102C98.4926 145.477 97.9806 144.738 97.5987 143.886C97.2343 143.017 97.052 142.087 97.052 141.096ZM104.29 145.033C105.331 145.033 106.216 144.651 106.945 143.886C107.674 143.121 108.038 142.191 108.038 141.096C108.038 139.983 107.674 139.045 106.945 138.28C106.216 137.515 105.331 137.132 104.29 137.132C103.248 137.132 102.363 137.515 101.634 138.28C100.905 139.045 100.541 139.983 100.541 141.096C100.541 142.191 100.905 143.121 101.634 143.886C102.363 144.651 103.248 145.033 104.29 145.033Z" fill="#38424F"/>
<path d="M117.637 147.876L111.805 134.29H115.684L119.407 143.338L123.104 134.29H126.905L121.073 147.876H117.637Z" fill="#38424F"/>
<path d="M132.608 148.11C131.15 148.11 129.962 147.728 129.042 146.963C128.122 146.181 127.662 145.172 127.662 143.938C127.662 142.652 128.156 141.643 129.146 140.913C130.135 140.183 131.498 139.818 133.233 139.818C133.789 139.818 134.344 139.862 134.899 139.949C135.455 140.035 136.001 140.166 136.539 140.34V139.375C136.539 138.593 136.296 138.002 135.811 137.602C135.325 137.202 134.613 137.002 133.676 137.002C133.103 137.002 132.478 137.098 131.801 137.289C131.142 137.463 130.387 137.741 129.536 138.123L128.235 135.49C129.293 135.003 130.317 134.638 131.307 134.394C132.313 134.151 133.303 134.029 134.275 134.029C136.097 134.029 137.511 134.473 138.518 135.359C139.542 136.228 140.054 137.463 140.054 139.062V147.876H136.539V146.937C135.967 147.337 135.359 147.632 134.717 147.824C134.092 148.015 133.389 148.11 132.608 148.11ZM131.072 143.86C131.072 144.381 131.298 144.799 131.749 145.112C132.2 145.407 132.799 145.555 133.546 145.555C134.136 145.555 134.674 145.485 135.16 145.346C135.663 145.19 136.123 144.973 136.539 144.694V142.66C136.106 142.487 135.646 142.365 135.16 142.295C134.691 142.208 134.196 142.165 133.676 142.165C132.86 142.165 132.218 142.321 131.749 142.634C131.298 142.93 131.072 143.338 131.072 143.86Z" fill="#38424F"/>
<path d="M152.417 147.876L146.585 134.29H150.464L154.187 143.338L157.884 134.29H161.685L155.853 147.876H152.417Z" fill="#38424F"/>
<path d="M174.742 146.181C173.909 146.859 173.05 147.354 172.165 147.667C171.297 147.98 170.325 148.136 169.249 148.136C168.225 148.136 167.262 147.954 166.359 147.589C165.474 147.224 164.702 146.728 164.042 146.102C163.4 145.477 162.888 144.738 162.506 143.886C162.142 143.017 161.959 142.087 161.959 141.096C161.959 140.122 162.133 139.21 162.48 138.358C162.845 137.489 163.339 136.741 163.964 136.115C164.589 135.472 165.326 134.968 166.177 134.603C167.045 134.238 167.965 134.055 168.936 134.055C169.891 134.055 170.776 134.247 171.592 134.629C172.425 134.994 173.137 135.498 173.727 136.141C174.334 136.785 174.803 137.558 175.133 138.462C175.48 139.349 175.653 140.314 175.653 141.357V142.295H165.552C165.795 143.147 166.264 143.834 166.958 144.355C167.652 144.877 168.468 145.138 169.405 145.138C169.995 145.138 170.551 145.042 171.071 144.851C171.592 144.66 172.035 144.39 172.399 144.042L174.742 146.181ZM168.858 137.002C168.043 137.002 167.34 137.254 166.75 137.758C166.16 138.245 165.752 138.905 165.526 139.74H172.165C171.939 138.94 171.523 138.288 170.915 137.784C170.325 137.263 169.639 137.002 168.858 137.002Z" fill="#38424F"/>
<path d="M177.839 147.876V134.29H181.405V135.359C181.926 134.925 182.499 134.594 183.123 134.368C183.766 134.142 184.46 134.029 185.206 134.029C186.768 134.029 188.053 134.533 189.059 135.542C190.066 136.55 190.569 137.845 190.569 139.427V147.876H187.003V139.949C187.003 139.097 186.742 138.41 186.222 137.889C185.718 137.367 185.041 137.106 184.191 137.106C183.601 137.106 183.063 137.228 182.577 137.471C182.108 137.697 181.718 138.028 181.405 138.462V147.876H177.839Z" fill="#38424F"/>
<path d="M203.398 147.876V146.754C202.86 147.189 202.261 147.519 201.602 147.745C200.942 147.954 200.257 148.058 199.545 148.058C198.59 148.058 197.688 147.876 196.838 147.511C196.004 147.146 195.275 146.65 194.651 146.024C194.026 145.398 193.531 144.66 193.167 143.808C192.82 142.956 192.646 142.043 192.646 141.07C192.646 140.096 192.828 139.184 193.193 138.332C193.557 137.48 194.052 136.741 194.677 136.115C195.302 135.49 196.039 135.003 196.89 134.655C197.757 134.29 198.677 134.107 199.649 134.107C200.309 134.107 200.951 134.203 201.576 134.394C202.218 134.568 202.808 134.829 203.346 135.177V129.622L206.913 128.84V147.876H203.398ZM196.161 141.07C196.161 142.165 196.542 143.095 197.306 143.86C198.07 144.625 199.007 145.007 200.118 145.007C200.777 145.007 201.376 144.894 201.914 144.668C202.47 144.442 202.947 144.121 203.346 143.703V138.41C202.964 138.01 202.487 137.697 201.914 137.471C201.359 137.245 200.76 137.132 200.118 137.132C198.99 137.132 198.044 137.515 197.28 138.28C196.534 139.027 196.161 139.957 196.161 141.07Z" fill="#38424F"/>
<path d="M214.016 148.11C212.558 148.11 211.369 147.728 210.449 146.963C209.529 146.181 209.069 145.172 209.069 143.938C209.069 142.652 209.564 141.643 210.553 140.913C211.543 140.183 212.905 139.818 214.641 139.818C215.196 139.818 215.751 139.862 216.307 139.949C216.862 140.035 217.409 140.166 217.947 140.34V139.375C217.947 138.593 217.704 138.002 217.218 137.602C216.732 137.202 216.02 137.002 215.083 137.002C214.51 137.002 213.886 137.098 213.209 137.289C212.549 137.463 211.794 137.741 210.944 138.123L209.642 135.49C210.701 135.003 211.725 134.638 212.714 134.394C213.721 134.151 214.71 134.029 215.682 134.029C217.504 134.029 218.919 134.473 219.926 135.359C220.95 136.228 221.462 137.463 221.462 139.062V147.876H217.947V146.937C217.374 147.337 216.767 147.632 216.125 147.824C215.5 148.015 214.797 148.11 214.016 148.11ZM212.48 143.86C212.48 144.381 212.705 144.799 213.157 145.112C213.608 145.407 214.207 145.555 214.953 145.555C215.543 145.555 216.081 145.485 216.567 145.346C217.07 145.19 217.53 144.973 217.947 144.694V142.66C217.513 142.487 217.053 142.365 216.567 142.295C216.099 142.208 215.604 142.165 215.083 142.165C214.267 142.165 213.625 142.321 213.157 142.634C212.705 142.93 212.48 143.338 212.48 143.86Z" fill="#38424F"/>
<path d="M224.525 142.4L224.083 128.658H227.702L227.259 142.4H224.525ZM225.879 148.136C225.306 148.136 224.812 147.928 224.395 147.511C223.979 147.093 223.77 146.598 223.77 146.024C223.77 145.433 223.979 144.929 224.395 144.512C224.812 144.095 225.306 143.886 225.879 143.886C226.469 143.886 226.973 144.095 227.389 144.512C227.806 144.929 228.014 145.433 228.014 146.024C228.014 146.598 227.806 147.093 227.389 147.511C226.973 147.928 226.469 148.136 225.879 148.136Z" fill="#38424F"/>
<path d="M129.338 63.5803C129.338 64.4726 129.182 65.3071 128.869 66.0836C128.568 66.8485 128.146 67.5091 127.602 68.0654C127.07 68.6101 126.428 69.0447 125.676 69.3692C124.924 69.6821 124.114 69.8385 123.246 69.8385C122.343 69.8385 121.499 69.6763 120.712 69.3518C119.925 69.0273 119.242 68.5869 118.664 68.0306C118.097 67.4627 117.646 66.7963 117.31 66.0314C116.974 65.2665 116.807 64.4437 116.807 63.5629C116.807 62.6821 116.969 61.8592 117.293 61.0943C117.628 60.3294 118.079 59.6688 118.646 59.1126C119.225 58.5447 119.908 58.0985 120.694 57.774C121.481 57.4495 122.32 57.2872 123.211 57.2872C124.218 57.2872 125.166 57.49 126.057 57.8957C126.948 58.3013 127.683 58.8576 128.262 59.5645L126.509 61.1813C126.081 60.6713 125.583 60.2831 125.016 60.0165C124.461 59.7384 123.859 59.5993 123.211 59.5993C122.667 59.5993 122.158 59.7036 121.684 59.9122C121.221 60.1092 120.816 60.3874 120.469 60.7467C120.133 61.0943 119.867 61.5116 119.67 61.9983C119.485 62.4735 119.393 62.995 119.393 63.5629C119.393 64.1308 119.491 64.6581 119.688 65.1448C119.884 65.6316 120.156 66.0546 120.503 66.4139C120.851 66.7616 121.261 67.0397 121.736 67.2483C122.222 67.4453 122.737 67.5438 123.28 67.5438C124.137 67.5438 124.871 67.3063 125.485 66.8311C126.109 66.3559 126.497 65.7475 126.648 65.0058H123.055V62.8154H129.338V63.5803Z" fill="#ADABB5"/>
<path d="M129.384 69.6473L134.382 57.4785H137.298L142.227 69.6473H139.502L138.27 66.4486H133.254L132.004 69.6473H129.384ZM134.035 64.4321H137.506L135.788 59.947L134.035 64.4321Z" fill="#ADABB5"/>
<path d="M140.105 59.7036V57.4785H150.796V59.7036H146.717V69.6473H144.201V59.7036H140.105Z" fill="#ADABB5"/>
<path d="M152.208 69.6473V57.4785H154.724V69.6473H152.208Z" fill="#ADABB5"/>
<path d="M156.937 69.6473V57.4785H159.453V67.4221H166.101V69.6473H156.937Z" fill="#ADABB5"/>
<path d="M167.835 69.6473V57.4785H170.352V62.3634H175.94V57.4785H178.457V69.6473H175.94V64.6755H170.352V69.6473H167.835Z" fill="#ADABB5"/>
<path d="M193.058 63.5629C193.058 64.4321 192.89 65.2549 192.555 66.0314C192.219 66.7963 191.762 67.4627 191.183 68.0306C190.616 68.5869 189.94 69.0273 189.153 69.3518C188.366 69.6763 187.521 69.8385 186.619 69.8385C185.728 69.8385 184.889 69.6763 184.102 69.3518C183.315 69.0273 182.633 68.5869 182.054 68.0306C181.487 67.4627 181.036 66.7963 180.7 66.0314C180.365 65.2549 180.197 64.4321 180.197 63.5629C180.197 62.6937 180.365 61.8766 180.7 61.1117C181.036 60.3352 181.487 59.6688 182.054 59.1126C182.633 58.5447 183.315 58.0985 184.102 57.774C184.889 57.4495 185.728 57.2872 186.619 57.2872C187.521 57.2872 188.366 57.4495 189.153 57.774C189.94 58.0985 190.616 58.5447 191.183 59.1126C191.762 59.6688 192.219 60.3352 192.555 61.1117C192.89 61.8766 193.058 62.6937 193.058 63.5629ZM190.472 63.5629C190.472 62.995 190.373 62.4735 190.177 61.9983C189.98 61.5116 189.708 61.0943 189.361 60.7467C189.025 60.3874 188.62 60.1092 188.146 59.9122C187.672 59.7036 187.163 59.5993 186.619 59.5993C186.075 59.5993 185.566 59.7036 185.091 59.9122C184.629 60.1092 184.224 60.3874 183.876 60.7467C183.541 61.0943 183.275 61.5116 183.078 61.9983C182.881 62.4735 182.783 62.995 182.783 63.5629C182.783 64.1192 182.881 64.6407 183.078 65.1274C183.275 65.6142 183.541 66.0372 183.876 66.3965C184.224 66.7442 184.629 67.0223 185.091 67.2309C185.566 67.4279 186.075 67.5265 186.619 67.5265C187.163 67.5265 187.672 67.4279 188.146 67.2309C188.62 67.0223 189.025 66.7442 189.361 66.3965C189.708 66.0372 189.98 65.6142 190.177 65.1274C190.373 64.6407 190.472 64.1192 190.472 63.5629Z" fill="#ADABB5"/>
<ellipse cx="153.763" cy="318.013" rx="34.7122" ry="34.7324" fill="#FFB931"/>
<path fill-rule="evenodd" clip-rule="evenodd" d="M155.577 305.88C156.767 305.19 157.567 303.901 157.567 302.425C157.567 300.222 155.786 298.436 153.588 298.436C151.391 298.436 149.61 300.222 149.61 302.425C149.61 303.901 150.41 305.189 151.599 305.879V308.704H144.074C139.447 308.704 135.682 312.478 135.682 317.117V327.915C135.682 332.554 139.446 336.327 144.073 336.327H163.098C167.725 336.327 171.49 332.553 171.49 327.914V317.117C171.49 312.478 167.725 308.704 163.098 308.704H155.577V305.88ZM144.074 311.508C140.989 311.508 138.479 314.024 138.479 317.117V327.915C138.479 331.007 140.989 333.523 144.073 333.523H163.098C166.183 333.523 168.693 331.007 168.693 327.914V317.117C168.693 314.024 166.183 311.508 163.098 311.508H144.074Z" fill="white"/>
<path d="M160.995 319.703V324.361C160.995 325.136 160.369 325.764 159.596 325.764C158.823 325.764 158.197 325.136 158.197 324.361V319.703C158.197 318.928 158.823 318.301 159.596 318.301C160.369 318.301 160.995 318.928 160.995 319.703Z" fill="white"/>
<path d="M150.417 319.703V324.361C150.417 325.136 149.79 325.764 149.018 325.764C148.245 325.764 147.619 325.136 147.619 324.361V319.703C147.619 318.928 148.245 318.301 149.018 318.301C149.79 318.301 150.417 318.928 150.417 319.703Z" fill="white"/>
<defs>
<filter id="filter0_d" x="0" y="0" width="307.899" height="204.715" filterUnits="userSpaceOnUse" color-interpolation-filters="sRGB">
<feFlood flood-opacity="0" result="BackgroundImageFix"/>
<feColorMatrix in="SourceAlpha" type="matrix" values="0 0 0 0 0 0 0 0 0 0 0 0 0 0 0 0 0 0 127 0"/>
<feOffset/>
<feGaussianBlur stdDeviation="8"/>
<feColorMatrix type="matrix" values="0 0 0 0 0.898039 0 0 0 0 0.898039 0 0 0 0 0.898039 0 0 0 0.4 0"/>
<feBlend mode="normal" in2="BackgroundImageFix" result="effect1_dropShadow"/>
<feBlend mode="normal" in="SourceGraphic" in2="effect1_dropShadow" result="shape"/>
</filter>
</defs>
</svg>
