<svg width="64" height="64" viewBox="0 0 64 64" fill="none" xmlns="http://www.w3.org/2000/svg">
<path d="M32 8C25.079 8 19.4 13.6089 19.4 20.4444V25.5556C17.6912 27.2054 16.3333 29.1756 15.406 31.3508C14.4787 33.5259 14.0007 35.8621 14 38.2222C14 48.0178 22.082 56 32 56C41.918 56 50 48.0178 50 38.2222C49.9993 35.8621 49.5213 33.5259 48.594 31.3508C47.6667 29.1756 46.3088 27.2054 44.6 25.5556V20.4444C44.6 13.6089 38.921 8 32 8ZM32 11.5556C36.959 11.5556 41 15.5467 41 20.4444V22.8889C38.345 21.36 35.2868 20.4444 32 20.4444C28.7132 20.4444 25.655 21.3618 23 22.8889V20.4444C23 15.5467 27.041 11.5556 32 11.5556ZM32 24C39.974 24 46.4 30.3467 46.4 38.2222C46.4 46.0978 39.974 52.4444 32 52.4444C24.026 52.4444 17.6 46.0978 17.6 38.2222C17.6 30.3467 24.026 24 32 24ZM32 34.6667C31.0452 34.6667 30.1295 35.0413 29.4544 35.7081C28.7793 36.3749 28.4 37.2792 28.4 38.2222C28.4 39.5378 29.1254 40.6631 30.2 41.28V45.3831C30.2 46.3375 31.0059 47.1111 32 47.1111C32.9941 47.1111 33.8 46.3375 33.8 45.3831V41.28C34.8746 40.6631 35.6 39.5378 35.6 38.2222C35.6 37.2792 35.2207 36.3749 34.5456 35.7081C33.8705 35.0413 32.9548 34.6667 32 34.6667Z" fill="#00BEF6"/>
</svg>
