<svg width="32" height="32" viewBox="0 0 32 32" fill="none" xmlns="http://www.w3.org/2000/svg">
<path d="M18.6035 24.6272C18.1158 24.4699 17.5929 24.7377 17.4356 25.2254L17.1791 26.0205H14.7727L14.5162 25.2254C14.3588 24.7377 13.8361 24.4699 13.3483 24.6272C12.8606 24.7845 12.5928 25.3074 12.7501 25.7951L13.214 27.2332C13.3377 27.6164 13.6944 27.8762 14.0971 27.8762H17.8548C18.2574 27.8762 18.6141 27.6164 18.7378 27.2332L19.2017 25.7951C19.3589 25.3074 19.0911 24.7845 18.6035 24.6272Z" fill="#FFB931"/>
<path d="M16.0005 4.12391C16.009 4.12373 15.992 4.12373 16.0005 4.12391V4.12391Z" fill="#FFB931"/>
<path d="M22.328 6.49589C20.6753 4.98056 18.4025 4.1398 16 4.12463C13.5974 4.1398 11.3246 4.98056 9.67187 6.49589C7.94889 8.07566 7 10.2649 7 12.6605C7 15.1462 8.06051 17.7384 10.0669 20.1566C11.5521 21.9467 13.0299 23.0183 13.0921 23.063C13.2499 23.1766 13.4395 23.2378 13.634 23.2378H18.3195C18.5128 23.2378 18.7012 23.1774 18.8586 23.0651C18.9212 23.0204 20.4105 21.9492 21.9075 20.1594C23.9306 17.7407 25 15.1476 25 12.6605C24.9999 10.2649 24.051 8.07566 22.328 6.49589ZM18.0062 21.3821H13.9495C12.9324 20.5724 8.85566 17.0519 8.85566 12.6605C8.85566 8.85926 11.9253 5.99096 16 5.98011C20.0746 5.99096 23.1443 8.85926 23.1443 12.6605C23.1443 17.0546 19.0257 20.5777 18.0062 21.3821Z" fill="#FFB931"/>
<path d="M15.9083 10.7578C15.9155 10.7577 15.9011 10.7577 15.9083 10.7578V10.7578Z" fill="#FFB931"/>
<path d="M18.7463 11.6779C18.4375 11.4645 17.3067 10.767 15.9071 10.7584C14.3493 10.7679 13.1207 11.6314 12.9876 11.7303C12.5764 12.036 12.4908 12.6173 12.7966 13.0285C12.9786 13.2734 13.2584 13.4028 13.5419 13.4028C13.7343 13.4028 13.9285 13.3432 14.0947 13.2195C14.1001 13.2156 14.4589 12.9575 14.9793 12.7796V17.7172C14.9793 18.2296 15.3947 18.645 15.9071 18.645C16.4195 18.645 16.8349 18.2296 16.8349 17.7172V12.783C17.3526 12.9616 17.7113 13.2186 17.7167 13.2225L17.7127 13.2196L17.7157 13.2155C17.871 13.3325 18.0636 13.4028 18.2731 13.4028C18.7855 13.4028 19.2009 12.9874 19.2009 12.475C19.2009 12.1355 19.0182 11.8396 18.7463 11.6779Z" fill="#FFB931"/>
</svg>
