<svg width="32" height="32" viewBox="0 0 32 32" fill="none" xmlns="http://www.w3.org/2000/svg">
<path d="M22.9062 4H9.09375C5.73366 4 3 6.66936 3 9.95041V18.0837C3 21.3641 5.73315 24.0331 9.09268 24.0331H22.9062C26.2663 24.0331 29 21.3637 29 18.0826V9.95041C29 6.66936 26.2663 4 22.9062 4ZM26.9688 18.0826C26.9688 20.27 25.1463 22.0496 22.9062 22.0496H9.09268C6.85323 22.0496 5.03125 20.2705 5.03125 18.0837V9.95041C5.03125 7.76304 6.85369 5.98347 9.09375 5.98347H22.9062C25.1463 5.98347 26.9688 7.76304 26.9688 9.95041V18.0826ZM21.8906 27.0083C21.8906 27.556 21.4359 28 20.875 28H11.125C10.5641 28 10.1094 27.556 10.1094 27.0083C10.1094 26.4605 10.5641 26.0165 11.125 26.0165H20.875C21.4359 26.0165 21.8906 26.4605 21.8906 27.0083ZM20.8897 15.8438L20.2131 15.4474C20.3458 15.0429 20.418 14.6122 20.418 14.1653C20.418 13.7184 20.3458 13.2877 20.2131 12.8832L20.8897 12.4868C21.3707 12.205 21.5267 11.5958 21.238 11.1261C20.9494 10.6564 20.3254 10.5042 19.8446 10.786L19.1556 11.1897C18.6033 10.6491 17.9016 10.2548 17.1172 10.0694V9.20661C17.1172 8.65888 16.6625 8.21488 16.1016 8.21488C15.5406 8.21488 15.0859 8.65888 15.0859 9.20661V10.0694C14.2837 10.2591 13.5685 10.6679 13.0106 11.2275L12.2569 10.786C11.7761 10.5042 11.1521 10.6564 10.8635 11.1261C10.5749 11.5958 10.7309 12.205 11.2118 12.4868L11.9738 12.9332C11.8514 13.3231 11.7852 13.7368 11.7852 14.1653C11.7852 14.5938 11.8514 15.0075 11.9738 15.3974L11.2118 15.8438C10.7308 16.1256 10.5749 16.7348 10.8635 17.2044C11.054 17.5143 11.3903 17.6861 11.7353 17.6861C11.9132 17.6861 12.0933 17.6404 12.2569 17.5446L13.0106 17.103C13.5685 17.6626 14.2837 18.0714 15.0859 18.2612V19.124C15.0859 19.6717 15.5406 20.1157 16.1016 20.1157C16.6625 20.1157 17.1172 19.6717 17.1172 19.124V18.2612C17.9016 18.0758 18.6033 17.6814 19.1555 17.1409L19.8446 17.5446C20.0083 17.6405 20.1884 17.6861 20.3662 17.6861C20.7112 17.6861 21.0477 17.5144 21.2381 17.2045C21.5267 16.7348 21.3707 16.1256 20.8897 15.8438ZM16.1016 16.3967C14.8415 16.3967 13.8164 15.3957 13.8164 14.1653C13.8164 12.9349 14.8415 11.9339 16.1016 11.9339C17.3616 11.9339 18.3867 12.9349 18.3867 14.1653C18.3867 15.3957 17.3616 16.3967 16.1016 16.3967Z" fill="#77CCFC"/>
</svg>
