<svg width="64" height="64" viewBox="0 0 64 64" fill="none" xmlns="http://www.w3.org/2000/svg">
<path d="M38.9601 39.8738C38.1379 39.8738 37.3114 39.6766 36.5468 39.2774L32.579 37.2057C32.1577 36.9858 31.655 36.9858 31.2338 37.2057L27.2659 39.2773C25.4993 40.1998 23.4018 40.0434 21.7926 38.8692C20.1959 37.7041 19.4122 35.7736 19.7478 33.8309L20.5056 29.443C20.5842 28.9882 20.4315 28.5233 20.0972 28.1998L16.8871 25.0923C15.4637 23.7144 14.9576 21.6899 15.5662 19.8086C16.1777 17.9183 17.7839 16.5671 19.7579 16.2823L24.194 15.6421C24.6628 15.5744 25.067 15.284 25.275 14.8651L27.259 10.873C28.1397 9.10091 29.9204 8 31.9063 8C33.8921 8 35.6729 9.10091 36.5535 10.873L38.5375 14.8651C38.7456 15.2839 39.1498 15.5744 39.6185 15.6421L44.0546 16.2823C46.0286 16.5672 47.6347 17.9184 48.2463 19.8086C48.8549 21.6898 48.3488 23.7144 46.9254 25.0923L43.7154 28.1997C43.3811 28.5233 43.2283 28.9882 43.3069 29.4431L44.0648 33.8307C44.4003 35.7735 43.6167 37.704 42.0199 38.8691C41.1073 39.5353 40.0375 39.8738 38.9601 39.8738ZM31.9063 33.2911C32.7335 33.2911 33.5604 33.4879 34.3145 33.8815L38.2822 35.9531C39.0043 36.3299 39.5911 35.9995 39.8099 35.8397C40.0226 35.6846 40.503 35.2404 40.3698 34.469L39.6119 30.0813C39.3222 28.4028 39.8813 26.6922 41.1076 25.5052L44.3175 22.3978C44.8848 21.8486 44.759 21.2114 44.6787 20.9629C44.5969 20.71 44.3201 20.1093 43.5193 19.9938L39.0832 19.3535C37.3952 19.11 35.936 18.0558 35.1796 16.5339L33.1957 12.5418C32.8405 11.8271 32.1758 11.7499 31.9064 11.7499C31.6371 11.7499 30.9724 11.8271 30.6172 12.5418L28.6332 16.534C27.877 18.0558 26.4177 19.11 24.7297 19.3535L20.2936 19.9938C19.4928 20.1093 19.216 20.71 19.1342 20.9629C19.0538 21.2114 18.9281 21.8486 19.4954 22.3978L22.7054 25.5052C23.9316 26.6921 24.4907 28.4028 24.201 30.0811L23.4431 34.469C23.3099 35.2403 23.7902 35.6845 24.003 35.8396C24.2218 35.9993 24.8088 36.33 25.5307 35.953L29.4984 33.8814C30.2521 33.488 31.0793 33.2911 31.9063 33.2911ZM24.4373 56C23.7893 56 23.1379 55.8446 22.5352 55.53L19.8815 54.1445C19.7797 54.0915 19.6585 54.0915 19.5567 54.1445L16.903 55.53C15.5105 56.257 13.8574 56.1336 12.589 55.2081C11.3289 54.2887 10.7108 52.7648 10.9756 51.2312L11.4824 48.2967C11.4999 48.1951 11.4651 48.0904 11.3893 48.017L9.24249 45.9389C8.11902 44.8514 7.71956 43.2531 8.20011 41.7678C8.68253 40.2764 9.94916 39.2105 11.5056 38.986L14.4725 38.5578C14.5469 38.547 14.6166 38.5123 14.6684 38.4598C15.3965 37.7234 16.5834 37.7165 17.32 38.4445C18.0564 39.1724 18.0633 40.3596 17.3353 41.0961C16.7126 41.7259 15.8862 42.1426 15.0082 42.2694L12.0412 42.6975C11.9892 42.705 11.8309 42.7279 11.768 42.9222C11.7082 43.1067 11.8155 43.2104 11.8506 43.2445L13.9975 45.3227C14.9652 46.2595 15.4064 47.6098 15.1776 48.9348L14.6708 51.8694C14.6627 51.9168 14.6378 52.061 14.7993 52.1788C14.9155 52.2636 15.0395 52.2725 15.1676 52.2058L17.8213 50.8204C19.0097 50.1999 20.4286 50.1999 21.617 50.8204L24.2707 52.2059C24.3988 52.2726 24.5227 52.2636 24.639 52.1789C24.8006 52.061 24.7756 51.9169 24.7675 51.8695L24.2607 48.935C24.0319 47.6099 24.4731 46.2596 25.4409 45.3227L27.5877 43.2446C28.3316 42.5244 29.5188 42.5435 30.2389 43.2877C30.9591 44.0317 30.9398 45.2188 30.1957 45.939L28.0489 48.0171C27.9731 48.0905 27.9383 48.1952 27.9558 48.2969L28.4626 51.2313C28.7275 52.7649 28.1093 54.2888 26.8492 55.2082C26.1297 55.7331 25.2864 56 24.4373 56ZM51.411 55.2081C52.6711 54.2886 53.2892 52.7647 53.0244 51.2311L52.5176 48.2967C52.5001 48.195 52.5349 48.0903 52.6107 48.0169L54.7575 45.9388C55.881 44.8513 56.2804 43.253 55.7999 41.7677C55.3175 40.2764 54.0508 39.2104 52.4944 38.9859L49.5276 38.5577C49.4531 38.5469 49.3834 38.5122 49.3316 38.4598C48.6037 37.7233 47.4164 37.7164 46.68 38.4444C45.9436 39.1723 45.9367 40.3595 46.6648 41.096C47.2874 41.7258 48.1138 42.1425 48.9919 42.2693L51.9588 42.6975C52.0108 42.705 52.1691 42.7278 52.232 42.9221C52.2918 43.1066 52.1845 43.2103 52.1494 43.2444L50.0025 45.3226C49.0348 46.2594 48.5936 47.6097 48.8224 48.9348L49.3292 51.8693C49.3373 51.9167 49.3622 52.0609 49.2007 52.1787C49.0845 52.2635 48.9604 52.2724 48.8324 52.2057L46.1787 50.8202C44.9903 50.1997 43.5713 50.1997 42.383 50.8202L39.7293 52.2056C39.6012 52.2725 39.4773 52.2635 39.361 52.1786C39.1994 52.0608 39.2244 51.9166 39.2325 51.8692L39.7393 48.9347C39.9681 47.6096 39.5269 46.2593 38.5591 45.3225L36.4123 43.2443C35.6683 42.524 34.4812 42.5433 33.7611 43.2874C33.0409 44.0314 33.0602 45.2185 33.8043 45.9387L35.9511 48.0168C36.0269 48.0902 36.0617 48.1949 36.0442 48.2965L35.5374 51.231C35.2725 52.7646 35.8907 54.2886 37.1508 55.208C38.4192 56.1336 40.0723 56.2568 41.4648 55.5298L44.1185 54.1443C44.2203 54.0913 44.3415 54.0913 44.4433 54.1443L47.097 55.5298C47.6997 55.8444 48.3511 55.9998 48.9991 55.9998C49.8482 56 50.6916 55.7331 51.411 55.2081Z" fill="#7F31FF"/>
</svg>
