<svg width="64" height="64" viewBox="0 0 64 64" fill="none" xmlns="http://www.w3.org/2000/svg">
<path d="M31.9993 37.3333C33.4138 37.3333 34.7704 36.7714 35.7706 35.7712C36.7708 34.771 37.3327 33.4144 37.3327 32C37.3327 30.5855 36.7708 29.2289 35.7706 28.2287C34.7704 27.2285 33.4138 26.6666 31.9993 26.6666C30.5849 26.6666 29.2283 27.2285 28.2281 28.2287C27.2279 29.2289 26.666 30.5855 26.666 32C26.666 33.4144 27.2279 34.771 28.2281 35.7712C29.2283 36.7714 30.5849 37.3333 31.9993 37.3333ZM15.9993 37.3333C17.4138 37.3333 18.7704 36.7714 19.7706 35.7712C20.7708 34.771 21.3327 33.4144 21.3327 32C21.3327 30.5855 20.7708 29.2289 19.7706 28.2287C18.7704 27.2285 17.4138 26.6666 15.9993 26.6666C14.5849 26.6666 13.2283 27.2285 12.2281 28.2287C11.2279 29.2289 10.666 30.5855 10.666 32C10.666 33.4144 11.2279 34.771 12.2281 35.7712C13.2283 36.7714 14.5849 37.3333 15.9993 37.3333ZM47.9993 37.3333C49.4138 37.3333 50.7704 36.7714 51.7706 35.7712C52.7708 34.771 53.3327 33.4144 53.3327 32C53.3327 30.5855 52.7708 29.2289 51.7706 28.2287C50.7704 27.2285 49.4138 26.6666 47.9993 26.6666C46.5849 26.6666 45.2283 27.2285 44.2281 28.2287C43.2279 29.2289 42.666 30.5855 42.666 32C42.666 33.4144 43.2279 34.771 44.2281 35.7712C45.2283 36.7714 46.5849 37.3333 47.9993 37.3333Z" fill="#ADABB5"/>
</svg>
