<svg width="48" height="48" viewBox="0 0 48 48" fill="none" xmlns="http://www.w3.org/2000/svg">
<path d="M11.0625 31.875C8.27102 31.875 6 34.146 6 36.9375C6 39.729 8.27102 42 11.0625 42C13.854 42 16.125 39.729 16.125 36.9375C16.125 34.146 13.854 31.875 11.0625 31.875ZM11.0625 39.1875C9.82184 39.1875 8.8125 38.1782 8.8125 36.9375C8.8125 35.6968 9.82184 34.6875 11.0625 34.6875C12.3032 34.6875 13.3125 35.6968 13.3125 36.9375C13.3125 38.1782 12.3032 39.1875 11.0625 39.1875Z" fill="#00BEF6"/>
<path d="M24.2464 15.8438C23.9525 15.8438 22.9487 15.7479 21.8479 15.3104C21.1264 15.0236 20.3085 15.376 20.0217 16.0978C19.7348 16.8195 20.0873 17.6371 20.8091 17.924C21.4526 18.1798 22.0913 18.3567 22.6645 18.4729V18.6562C22.6645 19.4329 23.294 20.0625 24.0707 20.0625C24.8474 20.0625 25.477 19.4329 25.477 18.6562V18.4384C26.8302 17.9418 27.7973 16.651 27.7973 15.1406C27.7973 14.1818 27.3716 13.2546 26.6295 12.5967C25.9224 11.9701 24.9888 11.625 24.0003 11.625C23.3189 11.625 22.805 11.3227 22.805 10.9219C22.805 10.5342 23.1204 10.2188 23.5081 10.2188C24.0076 10.2188 24.6152 10.2753 25.6703 10.6856C26.3942 10.967 27.2092 10.6085 27.4906 9.8847C27.7721 9.16083 27.4135 8.34584 26.6897 8.06437C26.2391 7.88916 25.8382 7.76027 25.4769 7.665V7.40625C25.4769 6.62958 24.8473 6 24.0706 6C23.294 6 22.6644 6.62958 22.6644 7.40625V7.50933C21.1321 7.88831 19.9925 9.27424 19.9925 10.9219C19.9925 12.9261 21.7155 14.4375 24.0003 14.4375C24.5339 14.4375 24.9847 14.7595 24.9847 15.1406C24.9847 15.5217 24.6466 15.8438 24.2464 15.8438Z" fill="#00BEF6"/>
<path d="M24.0703 22.1719C23.2936 22.1719 22.6641 22.8015 22.6641 23.5781V27.8672C22.6641 28.6439 23.2936 29.2734 24.0703 29.2734C24.847 29.2734 25.4766 28.6439 25.4766 27.8672V23.5781C25.4766 22.8015 24.847 22.1719 24.0703 22.1719Z" fill="#00BEF6"/>
<path d="M24.0703 31.875C21.2788 31.875 19.0078 34.146 19.0078 36.9375C19.0078 39.729 21.2788 42 24.0703 42C26.8618 42 29.1328 39.729 29.1328 36.9375C29.1328 34.146 26.8618 31.875 24.0703 31.875ZM24.0703 39.1875C22.8296 39.1875 21.8203 38.1782 21.8203 36.9375C21.8203 35.6968 22.8296 34.6875 24.0703 34.6875C25.311 34.6875 26.3203 35.6968 26.3203 36.9375C26.3203 38.1782 25.311 39.1875 24.0703 39.1875Z" fill="#00BEF6"/>
<path d="M36.9375 31.875C34.146 31.875 31.875 34.146 31.875 36.9375C31.875 39.729 34.146 42 36.9375 42C39.729 42 42 39.729 42 36.9375C42 34.146 39.729 31.875 36.9375 31.875ZM36.9375 39.1875C35.6968 39.1875 34.6875 38.1782 34.6875 36.9375C34.6875 35.6968 35.6968 34.6875 36.9375 34.6875C38.1782 34.6875 39.1875 35.6968 39.1875 36.9375C39.1875 38.1782 38.1782 39.1875 36.9375 39.1875Z" fill="#00BEF6"/>
<path d="M16.0984 13.3765C14.2582 13.7893 12.5875 14.8276 11.3944 16.3003C10.1828 17.7954 9.51562 19.6804 9.51562 21.6079V28.0079C9.51562 28.7845 10.1452 29.4141 10.9219 29.4141C11.6985 29.4141 12.3281 28.7845 12.3281 28.0079V21.6079C12.3281 18.9985 14.1727 16.6908 16.7141 16.1207C17.4719 15.9507 17.9484 15.1985 17.7784 14.4407C17.6084 13.6829 16.8561 13.2064 16.0984 13.3765Z" fill="#00BEF6"/>
<path d="M35.6019 21.6079V28.0079C35.6019 28.7845 36.2314 29.4141 37.0081 29.4141C37.7848 29.4141 38.4143 28.7845 38.4143 28.0079V21.6079C38.4143 19.6803 37.7472 17.7954 36.5356 16.3002C35.3424 14.8276 33.6718 13.7893 31.8316 13.3764C31.0734 13.2066 30.3216 13.6829 30.1516 14.4407C29.9816 15.1985 30.4581 15.9507 31.2159 16.1207C33.7573 16.6908 35.6019 18.9986 35.6019 21.6079Z" fill="#00BEF6"/>
</svg>
