<svg width="64" height="64" viewBox="0 0 64 64" fill="none" xmlns="http://www.w3.org/2000/svg">
<path d="M37.2089 49.2544C36.2336 48.9399 35.1878 49.4753 34.8732 50.4507L34.3602 52.041H29.5473L29.0343 50.4507C28.7196 49.4754 27.6741 48.9399 26.6986 49.2544C25.7232 49.569 25.1876 50.6148 25.5022 51.5901L26.43 54.4664C26.6773 55.2328 27.3907 55.7523 28.1961 55.7523H35.7115C36.5168 55.7523 37.2302 55.2328 37.4775 54.4664L38.4053 51.5901C38.7199 50.6148 38.1842 49.569 37.2089 49.2544Z" fill="#FFB931"/>
<path d="M32.001 8.24783C32.018 8.24747 31.984 8.24747 32.001 8.24783V8.24783Z" fill="#FFB931"/>
<path d="M44.6561 12.9918C41.3507 9.96118 36.8051 8.27967 31.9999 8.24933C27.1948 8.27967 22.6491 9.96118 19.3437 12.9918C15.8978 16.1514 14 20.5299 14 25.321C14 30.2925 16.121 35.4768 20.1337 40.3132C23.1042 43.8935 26.0598 46.0367 26.1842 46.1261C26.4998 46.3533 26.879 46.4756 27.268 46.4756H36.6391C37.0256 46.4756 37.4025 46.3549 37.7171 46.1303C37.8425 46.0409 40.821 43.8984 43.8151 40.3189C47.8612 35.4814 49.9999 30.2953 49.9999 25.321C49.9998 20.5299 48.102 16.1514 44.6561 12.9918ZM36.0124 42.7642H27.8989C25.8648 41.1449 17.7113 34.1039 17.7113 25.321C17.7113 17.7186 23.8507 11.982 31.9999 11.9603C40.1491 11.982 46.2885 17.7186 46.2885 25.321C46.2885 34.1094 38.0513 41.1554 36.0124 42.7642Z" fill="#FFB931"/>
<path d="M31.8167 21.5153C31.8309 21.5152 31.8023 21.5152 31.8167 21.5153V21.5153Z" fill="#FFB931"/>
<path d="M37.4926 23.3556C36.875 22.9288 34.6135 21.5338 31.8143 21.5167C28.6986 21.5357 26.2414 23.2626 25.9752 23.4605C25.1528 24.072 24.9817 25.2344 25.5931 26.0569C25.9573 26.5468 26.5169 26.8055 27.0838 26.8055C27.4686 26.8055 27.8569 26.6862 28.1895 26.4389C28.2001 26.4311 28.9177 25.9148 29.9585 25.5591V35.4342C29.9585 36.4591 30.7893 37.2899 31.8142 37.2899C32.8391 37.2899 33.6698 36.4591 33.6698 35.4342V25.5659C34.7052 25.9232 35.4225 26.437 35.4335 26.445L35.4254 26.439L35.4314 26.4309C35.742 26.665 36.1272 26.8055 36.5461 26.8055C37.571 26.8055 38.4018 25.9747 38.4018 24.9499C38.4019 24.271 38.0364 23.6791 37.4926 23.3556Z" fill="#FFB931"/>
</svg>
