<svg width="32" height="32" viewBox="0 0 32 32" fill="none" xmlns="http://www.w3.org/2000/svg">
<path d="M19.707 14.8882V17.8388C19.707 18.3293 19.3094 18.727 18.8188 18.727C18.3283 18.727 17.9307 18.3293 17.9307 17.8388V14.8882C17.9307 14.3976 18.3283 14 18.8188 14C19.3094 14 19.707 14.3976 19.707 14.8882Z" fill="#FFB931"/>
<path fill-rule="evenodd" clip-rule="evenodd" d="M28.3583 24.3468L27.7954 24.0171C27.9058 23.6805 27.9658 23.3222 27.9658 22.9504C27.9658 22.5786 27.9058 22.2203 27.7954 21.8838L28.3583 21.554C28.7585 21.3195 28.8882 20.8127 28.6481 20.422C28.4079 20.0312 27.8889 19.9046 27.4889 20.139L26.9156 20.4749C26.4561 20.0252 25.8723 19.6971 25.2198 19.5428V18.8251C25.2198 18.3694 24.8415 18 24.3748 18C23.9082 18 23.5299 18.3694 23.5299 18.8251V19.5428C22.8625 19.7007 22.2675 20.0408 21.8033 20.5064L21.1763 20.139C20.7763 19.9046 20.2572 20.0312 20.0171 20.422C19.7769 20.8127 19.9067 21.3195 20.3068 21.554L20.9407 21.9253C20.8389 22.2498 20.7838 22.5939 20.7838 22.9504C20.7838 23.3069 20.8389 23.6511 20.9407 23.9755L20.3068 24.3468C19.9067 24.5813 19.7769 25.0881 20.017 25.4788C20.1755 25.7366 20.4553 25.8795 20.7424 25.8795C20.8903 25.8795 21.0402 25.8415 21.1763 25.7618L21.8033 25.3944C22.2675 25.86 22.8625 26.2001 23.5299 26.3579V27.0758C23.5299 27.5314 23.9082 27.9008 24.3748 27.9008C24.8415 27.9008 25.2198 27.5314 25.2198 27.0758V26.358C25.8723 26.2037 26.4561 25.8757 26.9156 25.4259L27.4889 25.7618C27.625 25.8416 27.7748 25.8795 27.9228 25.8795C28.2098 25.8795 28.4897 25.7367 28.6481 25.4788C28.8882 25.0881 28.7585 24.5813 28.3583 24.3468ZM24.3748 24.8068C23.3265 24.8068 22.4737 23.974 22.4737 22.9504C22.4737 21.9268 23.3265 21.094 24.3748 21.094C25.4231 21.094 26.2759 21.9268 26.2759 22.9504C26.2759 23.974 25.4231 24.8068 24.3748 24.8068Z" fill="#FFB931"/>
<path d="M12.9873 14.8882V17.8388C12.9873 18.3293 12.5896 18.727 12.0991 18.727C11.6086 18.727 11.2109 18.3293 11.2109 17.8388V14.8882C11.2109 14.3976 11.6086 14 12.0991 14C12.5896 14 12.9873 14.3976 12.9873 14.8882Z" fill="#FFB931"/>
<path fill-rule="evenodd" clip-rule="evenodd" d="M16.2631 8.71463C17.0182 8.27782 17.5263 7.46139 17.5263 6.52632C17.5263 5.13107 16.3952 4 14.9999 4C13.6047 4 12.4736 5.13107 12.4736 6.52632C12.4736 7.46143 12.9817 8.27787 13.7368 8.71468V10.6296C13.7368 11.1539 14.3023 11.579 15 11.579C15.6976 11.579 16.2631 11.1539 16.2631 10.6296V8.71463Z" fill="#FFB931"/>
<path d="M18.7773 28H9.15625C6.31309 28 4 25.6015 4 22.6535V15.3465C4 12.3985 6.31309 10 9.15625 10H20.8438C23.6869 10 26 12.3985 26 15.3465V16.0198C26 16.512 25.6153 16.9109 25.1406 16.9109C24.666 16.9109 24.2812 16.512 24.2812 16.0198V15.3465C24.2812 13.3811 22.7392 11.7822 20.8438 11.7822H9.15625C7.26081 11.7822 5.71875 13.3811 5.71875 15.3465V22.6535C5.71875 24.6189 7.26081 26.2178 9.15625 26.2178H18.7773C19.252 26.2178 19.6367 26.6168 19.6367 27.1089C19.6367 27.6011 19.252 28 18.7773 28Z" fill="#FFB931"/>
</svg>
