<svg width="64" height="64" viewBox="0 0 64 64" fill="none" xmlns="http://www.w3.org/2000/svg">
<path d="M45.8125 8H18.1875C11.4673 8 6 13.3387 6 19.9008V36.1674C6 42.7283 11.4663 48.0661 18.1854 48.0661H45.8125C52.5327 48.0661 58 42.7274 58 36.1653V19.9008C58 13.3387 52.5327 8 45.8125 8ZM53.9375 36.1653C53.9375 40.54 50.2926 44.0992 45.8125 44.0992H18.1854C13.7065 44.0992 10.0625 40.5409 10.0625 36.1674V19.9008C10.0625 15.5261 13.7074 11.9669 18.1875 11.9669H45.8125C50.2926 11.9669 53.9375 15.5261 53.9375 19.9008V36.1653ZM43.7812 54.0165C43.7812 55.112 42.8719 56 41.75 56H22.25C21.1281 56 20.2188 55.112 20.2188 54.0165C20.2188 52.9211 21.1281 52.0331 22.25 52.0331H41.75C42.8719 52.0331 43.7812 52.9211 43.7812 54.0165ZM41.7795 31.6876L40.4262 30.8948C40.6915 30.0858 40.8359 29.2244 40.8359 28.3306C40.8359 27.4367 40.6915 26.5754 40.4262 25.7663L41.7795 24.9736C42.7415 24.41 43.0534 23.1916 42.4761 22.2522C41.8988 21.3129 40.6509 21.0084 39.6893 21.5719L38.3112 22.3794C37.2065 21.2983 35.8031 20.5097 34.2344 20.1387V18.4132C34.2344 17.3178 33.325 16.4298 32.2031 16.4298C31.0813 16.4298 30.1719 17.3178 30.1719 18.4132V20.1387C28.5674 20.5182 27.1371 21.3359 26.0212 22.455L24.5138 21.5719C23.5521 21.0084 22.3042 21.3129 21.7271 22.2522C21.1498 23.1916 21.4618 24.41 22.4237 24.9736L23.9475 25.8663C23.7029 26.6462 23.5703 27.4735 23.5703 28.3306C23.5703 29.1876 23.7029 30.0149 23.9475 30.7948L22.4237 31.6876C21.4617 32.2512 21.1498 33.4696 21.727 34.4088C22.1079 35.0287 22.7807 35.3721 23.4707 35.3721C23.8264 35.3721 24.1867 35.2809 24.5138 35.0892L26.0212 34.206C27.1371 35.3252 28.5674 36.1429 30.1719 36.5223V38.2479C30.1719 39.3434 31.0813 40.2314 32.2031 40.2314C33.325 40.2314 34.2344 39.3434 34.2344 38.2479V36.5224C35.8031 36.1515 37.2065 35.3629 38.3111 34.2818L39.6893 35.0893C40.0165 35.281 40.3768 35.3722 40.7324 35.3722C41.4225 35.3722 42.0953 35.0288 42.4762 34.4089C43.0533 33.4696 42.7415 32.2512 41.7795 31.6876ZM32.2031 32.7934C29.6831 32.7934 27.6328 30.7914 27.6328 28.3306C27.6328 25.8698 29.6831 23.8678 32.2031 23.8678C34.7232 23.8678 36.7734 25.8698 36.7734 28.3306C36.7734 30.7914 34.7232 32.7934 32.2031 32.7934Z" fill="#00BEF6"/>
</svg>
