<svg width="40" height="40" viewBox="0 0 40 40" fill="none" xmlns="http://www.w3.org/2000/svg">
<path d="M25.8845 21.838V25.5264C25.8845 26.1395 25.3874 26.6366 24.7743 26.6366C24.1611 26.6366 23.6641 26.1395 23.6641 25.5264V21.838C23.6641 21.2249 24.1611 20.7278 24.7743 20.7278C25.3874 20.7278 25.8845 21.2249 25.8845 21.838Z" fill="white"/>
<path d="M17.4821 21.838V25.5264C17.4821 26.1395 16.9851 26.6366 16.3719 26.6366C15.7588 26.6366 15.2617 26.1395 15.2617 25.5264V21.838C15.2617 21.2249 15.7588 20.7278 16.3719 20.7278C16.9851 20.7278 17.4821 21.2249 17.4821 21.838Z" fill="white"/>
<path fill-rule="evenodd" clip-rule="evenodd" d="M21.5785 10.8932C22.5223 10.3472 23.1573 9.32669 23.1573 8.1579C23.1573 6.41384 21.7434 5 19.9994 5C18.2553 5 16.8415 6.41384 16.8415 8.1579C16.8415 9.32684 17.4766 10.3474 18.4206 10.8934V13.1291H12.4502C8.77727 13.1291 5.78906 16.1173 5.78906 19.7903V28.34C5.78906 32.0124 8.77677 35 12.4491 35H27.5489C31.222 35 34.2101 32.0119 34.2101 28.3388V19.7903C34.2101 16.1173 31.2219 13.1291 27.5489 13.1291H21.5785V10.8932ZM12.4502 15.3495C10.0016 15.3495 8.00946 17.3417 8.00946 19.7903V28.34C8.00946 30.788 10.0011 32.7796 12.4491 32.7796H27.5489C29.9976 32.7796 31.9897 30.7875 31.9897 28.3388V19.7903C31.9897 17.3417 29.9976 15.3495 27.5489 15.3495H12.4502Z" fill="white"/>
</svg>
