<svg width="32" height="32" viewBox="0 0 32 32" fill="none" xmlns="http://www.w3.org/2000/svg">
<mask id="path-1-inside-1" fill="white">
<path fill-rule="evenodd" clip-rule="evenodd" d="M26.1102 14.1102H24.7756C24.5441 13.0341 24.1194 12.029 23.5392 11.1334L24.5175 10.1551C25.2555 9.4171 25.2554 8.2206 24.5174 7.48265C23.7793 6.7446 22.5828 6.7446 21.8449 7.48265L20.8667 8.46079C19.9711 7.88063 18.966 7.45591 17.8899 7.22441V5.88976C17.8899 4.84605 17.0438 4 16.0001 4C14.9564 4 14.1103 4.84605 14.1103 5.88976V7.22441C13.0342 7.45591 12.0291 7.88063 11.1335 8.46079L10.1553 7.48265C9.41729 6.7446 8.22079 6.74469 7.48284 7.48265C6.74488 8.2206 6.74469 9.4172 7.48274 10.1551L8.46098 11.1334C7.88082 12.029 7.4561 13.0341 7.2246 14.1102H5.88976C4.84605 14.1102 4 14.9563 4 16C4 17.0437 4.84605 17.8898 5.88976 17.8898H7.22441C7.45591 18.9659 7.88063 19.971 8.46079 20.8666L7.48255 21.8449C6.7445 22.5829 6.7446 23.7794 7.48265 24.5174C7.85162 24.8863 8.33521 25.0709 8.8189 25.0709C9.30258 25.0709 9.78617 24.8863 10.1552 24.5174L11.1334 23.5392C12.029 24.1194 13.0341 24.5441 14.1102 24.7756V26.1102C14.1102 27.154 14.9563 28 16 28C17.0437 28 17.8898 27.154 17.8898 26.1102V24.7756C18.9659 24.5441 19.971 24.1194 20.8666 23.5392L21.8448 24.5174C22.2138 24.8864 22.6973 25.0709 23.1811 25.0709C23.6647 25.0709 24.1484 24.8863 24.5174 24.5174C25.2554 23.7794 25.2555 22.5828 24.5175 21.8449L23.5392 20.8666C24.1194 19.971 24.5441 18.9659 24.7756 17.8898H26.1102C27.154 17.8898 28 17.0437 28 16C28 14.9563 27.154 14.1102 26.1102 14.1102ZM16 22C12.6916 22 10 19.3084 10 16C10 12.6916 12.6916 10 16 10C19.3084 10 22 12.6916 22 16C22 19.3084 19.3084 22 16 22Z"/>
</mask>
<path fill-rule="evenodd" clip-rule="evenodd" d="M26.1102 14.1102H24.7756C24.5441 13.0341 24.1194 12.029 23.5392 11.1334L24.5175 10.1551C25.2555 9.4171 25.2554 8.2206 24.5174 7.48265C23.7793 6.7446 22.5828 6.7446 21.8449 7.48265L20.8667 8.46079C19.9711 7.88063 18.966 7.45591 17.8899 7.22441V5.88976C17.8899 4.84605 17.0438 4 16.0001 4C14.9564 4 14.1103 4.84605 14.1103 5.88976V7.22441C13.0342 7.45591 12.0291 7.88063 11.1335 8.46079L10.1553 7.48265C9.41729 6.7446 8.22079 6.74469 7.48284 7.48265C6.74488 8.2206 6.74469 9.4172 7.48274 10.1551L8.46098 11.1334C7.88082 12.029 7.4561 13.0341 7.2246 14.1102H5.88976C4.84605 14.1102 4 14.9563 4 16C4 17.0437 4.84605 17.8898 5.88976 17.8898H7.22441C7.45591 18.9659 7.88063 19.971 8.46079 20.8666L7.48255 21.8449C6.7445 22.5829 6.7446 23.7794 7.48265 24.5174C7.85162 24.8863 8.33521 25.0709 8.8189 25.0709C9.30258 25.0709 9.78617 24.8863 10.1552 24.5174L11.1334 23.5392C12.029 24.1194 13.0341 24.5441 14.1102 24.7756V26.1102C14.1102 27.154 14.9563 28 16 28C17.0437 28 17.8898 27.154 17.8898 26.1102V24.7756C18.9659 24.5441 19.971 24.1194 20.8666 23.5392L21.8448 24.5174C22.2138 24.8864 22.6973 25.0709 23.1811 25.0709C23.6647 25.0709 24.1484 24.8863 24.5174 24.5174C25.2554 23.7794 25.2555 22.5828 24.5175 21.8449L23.5392 20.8666C24.1194 19.971 24.5441 18.9659 24.7756 17.8898H26.1102C27.154 17.8898 28 17.0437 28 16C28 14.9563 27.154 14.1102 26.1102 14.1102ZM16 22C12.6916 22 10 19.3084 10 16C10 12.6916 12.6916 10 16 10C19.3084 10 22 12.6916 22 16C22 19.3084 19.3084 22 16 22Z" fill="#46BF1B"/>
<path d="M24.7756 14.1102L23.798 14.3205L23.9678 15.1102H24.7756V14.1102ZM23.5392 11.1334L22.8321 10.4263L22.2602 10.9982L22.6999 11.677L23.5392 11.1334ZM24.5175 10.1551L25.2246 10.8623V10.8623L24.5175 10.1551ZM24.5174 7.48265L23.8102 8.18975L23.8103 8.1898L24.5174 7.48265ZM21.8449 7.48265L22.552 8.18975L22.552 8.18971L21.8449 7.48265ZM20.8667 8.46079L20.323 9.3001L21.0019 9.73982L21.5738 9.16789L20.8667 8.46079ZM17.8899 7.22441H16.8899V8.03217L17.6796 8.20204L17.8899 7.22441ZM14.1103 7.22441L14.3206 8.20204L15.1103 8.03217V7.22441H14.1103ZM11.1335 8.46079L10.4264 9.1679L10.9983 9.73982L11.6771 9.3001L11.1335 8.46079ZM10.1553 7.48265L10.8624 6.77554L10.1553 7.48265ZM7.48284 7.48265L6.77573 6.77554H6.77573L7.48284 7.48265ZM7.48274 10.1551L8.18985 9.44804L8.1898 9.448L7.48274 10.1551ZM8.46098 11.1334L9.30028 11.677L9.74 10.9982L9.16808 10.4263L8.46098 11.1334ZM7.2246 14.1102V15.1102H8.03236L8.20223 14.3205L7.2246 14.1102ZM7.22441 17.8898L8.20204 17.6795L8.03217 16.8898H7.22441V17.8898ZM8.46079 20.8666L9.1679 21.5737L9.73982 21.0018L9.3001 20.323L8.46079 20.8666ZM7.48255 21.8449L8.18966 22.552H8.18966L7.48255 21.8449ZM7.48265 24.5174L8.18975 23.8102L8.18971 23.8102L7.48265 24.5174ZM10.1552 24.5174L10.8623 25.2246L10.8624 25.2245L10.1552 24.5174ZM11.1334 23.5392L11.677 22.6999L10.9982 22.2602L10.4263 22.8321L11.1334 23.5392ZM14.1102 24.7756H15.1102V23.9678L14.3205 23.798L14.1102 24.7756ZM17.8898 24.7756L17.6795 23.798L16.8898 23.9678V24.7756H17.8898ZM20.8666 23.5392L21.5737 22.8321L21.0018 22.2602L20.323 22.6999L20.8666 23.5392ZM21.8448 24.5174L21.1376 25.2245V25.2245L21.8448 24.5174ZM24.5174 24.5174L23.8103 23.8102L23.8102 23.8102L24.5174 24.5174ZM24.5175 21.8449L23.8103 22.552L23.8104 22.552L24.5175 21.8449ZM23.5392 20.8666L22.6999 20.323L22.2602 21.0018L22.8321 21.5737L23.5392 20.8666ZM24.7756 17.8898V16.8898H23.9678L23.798 17.6795L24.7756 17.8898ZM24.7756 15.1102H26.1102V13.1102H24.7756V15.1102ZM22.6999 11.677C23.2155 12.473 23.5925 13.3655 23.798 14.3205L25.7532 13.8999C25.4957 12.7027 25.0232 11.585 24.3785 10.5897L22.6999 11.677ZM23.8103 9.44804L22.8321 10.4263L24.2463 11.8405L25.2246 10.8623L23.8103 9.44804ZM23.8103 8.1898C24.1578 8.53726 24.1578 9.10056 23.8103 9.44804L25.2246 10.8623C26.3532 9.73364 26.353 7.90394 25.2244 6.77549L23.8103 8.1898ZM22.552 8.18971C22.8994 7.84227 23.4627 7.8422 23.8102 8.18975L25.2245 6.77554C24.0959 5.64699 22.2662 5.64693 21.1377 6.77558L22.552 8.18971ZM21.5738 9.16789L22.552 8.18975L21.1377 6.77554L20.1596 7.75368L21.5738 9.16789ZM17.6796 8.20204C18.6346 8.4075 19.5271 8.7845 20.323 9.3001L21.4104 7.62148C20.415 6.97677 19.2974 6.50431 18.1002 6.24677L17.6796 8.20204ZM16.8899 5.88976V7.22441H18.8899V5.88976H16.8899ZM16.0001 5C16.4915 5 16.8899 5.39833 16.8899 5.88976H18.8899C18.8899 4.29376 17.5961 3 16.0001 3V5ZM15.1103 5.88976C15.1103 5.39833 15.5087 5 16.0001 5V3C14.4041 3 13.1103 4.29376 13.1103 5.88976H15.1103ZM15.1103 7.22441V5.88976H13.1103V7.22441H15.1103ZM11.6771 9.3001C12.4731 8.7845 13.3656 8.4075 14.3206 8.20204L13.9 6.24677C12.7028 6.50431 11.5851 6.97677 10.5898 7.62148L11.6771 9.3001ZM9.44823 8.18975L10.4264 9.1679L11.8406 7.75368L10.8624 6.77554L9.44823 8.18975ZM8.18994 8.18975C8.5374 7.84229 9.10074 7.84226 9.44823 8.18975L10.8624 6.77554C9.73384 5.64693 7.90417 5.64709 6.77573 6.77554L8.18994 8.18975ZM8.1898 9.448C7.84246 9.1007 7.84239 8.5373 8.18994 8.18975L6.77573 6.77554C5.64738 7.90389 5.64692 9.73369 6.77568 10.8623L8.1898 9.448ZM9.16808 10.4263L8.18985 9.44804L6.77563 10.8623L7.75387 11.8405L9.16808 10.4263ZM8.20223 14.3205C8.40769 13.3655 8.78469 12.473 9.30028 11.677L7.62167 10.5897C6.97695 11.585 6.5045 12.7027 6.24696 13.8999L8.20223 14.3205ZM5.88976 15.1102H7.2246V13.1102H5.88976V15.1102ZM5 16C5 15.5086 5.39833 15.1102 5.88976 15.1102V13.1102C4.29376 13.1102 3 14.404 3 16H5ZM5.88976 16.8898C5.39833 16.8898 5 16.4914 5 16H3C3 17.596 4.29376 18.8898 5.88976 18.8898V16.8898ZM7.22441 16.8898H5.88976V18.8898H7.22441V16.8898ZM9.3001 20.323C8.7845 19.527 8.4075 18.6345 8.20204 17.6795L6.24677 18.1001C6.50431 19.2973 6.97677 20.415 7.62148 21.4103L9.3001 20.323ZM8.18966 22.552L9.1679 21.5737L7.75368 20.1595L6.77544 21.1377L8.18966 22.552ZM8.18971 23.8102C7.8422 23.4627 7.84218 22.8994 8.18966 22.552L6.77544 21.1377C5.64683 22.2664 5.64699 24.0961 6.77558 25.2245L8.18971 23.8102ZM8.8189 24.0709C8.58964 24.0709 8.3637 23.9842 8.18975 23.8102L6.77554 25.2245C7.33955 25.7885 8.08079 26.0709 8.8189 26.0709V24.0709ZM9.44823 23.8102C9.27414 23.9842 9.04814 24.0709 8.8189 24.0709V26.0709C9.55703 26.0709 10.2982 25.7885 10.8623 25.2246L9.44823 23.8102ZM10.4263 22.8321L9.44814 23.8102L10.8624 25.2245L11.8405 24.2463L10.4263 22.8321ZM14.3205 23.798C13.3655 23.5925 12.473 23.2155 11.677 22.6999L10.5897 24.3785C11.585 25.0232 12.7027 25.4957 13.8999 25.7532L14.3205 23.798ZM15.1102 26.1102V24.7756H13.1102V26.1102H15.1102ZM16 27C15.5086 27 15.1102 26.6017 15.1102 26.1102H13.1102C13.1102 27.7062 14.404 29 16 29V27ZM16.8898 26.1102C16.8898 26.6017 16.4914 27 16 27V29C17.596 29 18.8898 27.7062 18.8898 26.1102H16.8898ZM16.8898 24.7756V26.1102H18.8898V24.7756H16.8898ZM20.323 22.6999C19.527 23.2155 18.6345 23.5925 17.6795 23.798L18.1001 25.7532C19.2973 25.4957 20.415 25.0232 21.4103 24.3785L20.323 22.6999ZM22.5519 23.8102L21.5737 22.8321L20.1595 24.2463L21.1376 25.2245L22.5519 23.8102ZM23.1811 24.0709C22.9517 24.0709 22.7259 23.9842 22.5519 23.8102L21.1376 25.2245C21.7018 25.7886 22.443 26.0709 23.1811 26.0709V24.0709ZM23.8102 23.8102C23.6363 23.9842 23.4103 24.0709 23.1811 24.0709V26.0709C23.9191 26.0709 24.6604 25.7885 25.2245 25.2245L23.8102 23.8102ZM23.8104 22.552C24.1578 22.8994 24.1578 23.4627 23.8103 23.8102L25.2244 25.2245C26.353 24.0961 26.3532 22.2663 25.2245 21.1377L23.8104 22.552ZM22.8321 21.5737L23.8103 22.552L25.2246 21.1377L24.2463 20.1595L22.8321 21.5737ZM23.798 17.6795C23.5925 18.6345 23.2155 19.527 22.6999 20.323L24.3785 21.4103C25.0232 20.4149 25.4957 19.2973 25.7532 18.1001L23.798 17.6795ZM26.1102 16.8898H24.7756V18.8898H26.1102V16.8898ZM27 16C27 16.4914 26.6017 16.8898 26.1102 16.8898V18.8898C27.7062 18.8898 29 17.596 29 16H27ZM26.1102 15.1102C26.6017 15.1102 27 15.5086 27 16H29C29 14.404 27.7062 13.1102 26.1102 13.1102V15.1102ZM9 16C9 19.8607 12.1393 23 16 23V21C13.2439 21 11 18.7561 11 16H9ZM16 9C12.1393 9 9 12.1393 9 16H11C11 13.2439 13.2439 11 16 11V9ZM23 16C23 12.1393 19.8607 9 16 9V11C18.7561 11 21 13.2439 21 16H23ZM16 23C19.8607 23 23 19.8607 23 16H21C21 18.7561 18.7561 21 16 21V23Z" fill="#46BF1B" mask="url(#path-1-inside-1)"/>
<path d="M19 16C19 14.3432 17.6568 13 16 13C14.3432 13 13 14.3432 13 16C13 17.6568 14.3432 19 16 19C17.6568 19 19 17.6568 19 16Z" fill="#46BF1B"/>
</svg>
