<svg width="32" height="32" viewBox="0 0 32 32" fill="none" xmlns="http://www.w3.org/2000/svg">
<path d="M23.4062 21.6719C21.7262 21.6719 20.3593 20.305 20.3593 18.625C20.3593 16.945 21.7262 15.5781 23.4062 15.5781C25.0863 15.5781 26.4531 16.945 26.4531 18.625C26.4531 20.305 25.0863 21.6719 23.4062 21.6719ZM23.4062 17.4531C22.76 17.4531 22.2343 17.9788 22.2343 18.625C22.2343 19.2712 22.76 19.7969 23.4062 19.7969C24.0524 19.7969 24.5781 19.2712 24.5781 18.625C24.5781 17.9788 24.0524 17.4531 23.4062 17.4531ZM15.7187 22.1875C14.0387 22.1875 12.6719 20.8207 12.6719 19.1406C12.6719 17.4606 14.0387 16.0938 15.7187 16.0938C17.3988 16.0938 18.7656 17.4606 18.7656 19.1406C18.7656 20.8207 17.3988 22.1875 15.7187 22.1875ZM15.7187 17.9688C15.0726 17.9688 14.5469 18.4945 14.5469 19.1406C14.5469 19.7868 15.0726 20.3125 15.7187 20.3125C16.3649 20.3125 16.8906 19.7868 16.8906 19.1406C16.8906 18.4945 16.3649 17.9688 15.7187 17.9688ZM13.2812 27.0625C13.2812 26.0545 14.1117 25.2344 15.1324 25.2344H16.75C17.2678 25.2344 17.6875 24.8147 17.6875 24.2969C17.6875 23.7791 17.2678 23.3594 16.75 23.3594H15.1324C13.0777 23.3594 11.4062 25.0206 11.4062 27.0625C11.4062 27.5803 11.826 28 12.3437 28C12.8615 28 13.2812 27.5803 13.2812 27.0625ZM8.12499 22.1875C6.44495 22.1875 5.07812 20.8207 5.07812 19.1406C5.07812 17.4606 6.44495 16.0938 8.12499 16.0938C9.80504 16.0938 11.1719 17.4606 11.1719 19.1406C11.1719 20.8207 9.80504 22.1875 8.12499 22.1875ZM8.12499 17.9688C7.47882 17.9688 6.95312 18.4945 6.95312 19.1406C6.95312 19.7868 7.47882 20.3125 8.12499 20.3125C8.77116 20.3125 9.29686 19.7868 9.29686 19.1406C9.29686 18.4945 8.77116 17.9688 8.12499 17.9688ZM5.875 27.0625C5.875 26.0545 6.70543 25.2344 7.72613 25.2344H9.62499C10.1428 25.2344 10.5625 24.8147 10.5625 24.2969C10.5625 23.7791 10.1428 23.3594 9.62499 23.3594H7.72613C5.67151 23.3594 4 25.0206 4 27.0625C4 27.5803 4.41972 28 4.9375 28C5.45528 28 5.875 27.5803 5.875 27.0625ZM20.5471 14.4062C20.303 14.4062 20.0633 14.311 19.8839 14.1317L19.7992 14.0469C19.343 13.5907 18.6495 13.4768 18.0734 13.7635C17.2168 14.19 16.2914 14.4062 15.3229 14.4062H15.3199H9.20311C6.33409 14.4062 4 12.0722 4 9.20312C4 6.33409 6.33409 4 9.20311 4H16.2812C19.1503 4 21.4843 6.33409 21.4843 9.20312V13.4688C21.4843 13.8479 21.2559 14.1898 20.9056 14.3349C20.7897 14.3829 20.6678 14.4062 20.5471 14.4062ZM9.20311 5.875C7.36801 5.875 5.875 7.36802 5.875 9.20312C5.875 11.0382 7.36801 12.5312 9.20311 12.5312H15.3203H15.3224C15.9989 12.5312 16.6431 12.3812 17.2377 12.0851C17.9913 11.7099 18.8341 11.6387 19.6093 11.8457V9.20312C19.6093 7.36802 18.1163 5.875 16.2812 5.875H9.20311ZM27.0625 28C26.5447 28 26.125 27.5803 26.125 27.0625C26.125 25.6955 25.0059 24.5833 23.6303 24.5833H22.9947C21.6191 24.5833 20.5 25.6955 20.5 27.0625C20.5 27.5803 20.0802 28 19.5625 28C19.0447 28 18.625 27.5803 18.625 27.0625C18.625 24.6616 20.5852 22.7083 22.9947 22.7083H23.6303C26.0397 22.7083 28 24.6616 28 27.0625C28 27.5803 27.5802 28 27.0625 28ZM7.74999 9.20312C7.74999 9.85033 8.27466 10.375 8.92187 10.375C9.56907 10.375 10.0937 9.85033 10.0937 9.20312C10.0937 8.55592 9.56907 8.03125 8.92187 8.03125C8.27466 8.03125 7.74999 8.55592 7.74999 9.20312ZM11.5 9.20312C11.5 9.85033 12.0247 10.375 12.6719 10.375C13.3191 10.375 13.8437 9.85033 13.8437 9.20312C13.8437 8.55592 13.3191 8.03125 12.6719 8.03125C12.0247 8.03125 11.5 8.55592 11.5 9.20312ZM15.25 9.20312C15.25 9.85033 15.7746 10.375 16.4219 10.375C17.0691 10.375 17.5937 9.85033 17.5937 9.20312C17.5937 8.55592 17.0691 8.03125 16.4219 8.03125C15.7746 8.03125 15.25 8.55592 15.25 9.20312Z" fill="#00BEF6"/>
</svg>
