<svg width="48" height="48" viewBox="0 0 48 48" fill="none" xmlns="http://www.w3.org/2000/svg">
<path d="M32.3285 25.3322V29.7582C32.3285 30.494 31.7321 31.0905 30.9963 31.0905C30.2605 31.0905 29.6641 30.494 29.6641 29.7582V25.3322C29.6641 24.5964 30.2605 24 30.9963 24C31.7321 24 32.3285 24.5964 32.3285 25.3322Z" fill="#FFB931"/>
<path d="M23.6645 25.3322V29.7582C23.6645 30.494 23.068 31.0905 22.3322 31.0905C21.5964 31.0905 21 30.494 21 29.7582V25.3322C21 24.5964 21.5964 24 22.3322 24C23.068 24 23.6645 24.5964 23.6645 25.3322Z" fill="#FFB931"/>
<path fill-rule="evenodd" clip-rule="evenodd" d="M28.5005 13.2705C29.8472 12.6893 30.7899 11.3495 30.7899 9.78947C30.7899 7.69661 29.0933 6 27.0004 6C24.9075 6 23.2109 7.69661 23.2109 9.78947C23.2109 11.3495 24.1536 12.6894 25.5005 13.2705V15.3727C25.5005 15.9953 26.172 16.5 27.0005 16.5C27.8289 16.5 28.5005 15.9953 28.5005 15.3727V13.2705Z" fill="#FFB931"/>
<path d="M25.834 15H35.7656C40.0304 15 43.5 18.5977 43.5 23.0198V33.9802C43.5 38.4023 40.0304 42 35.7656 42H18.2344C13.9696 42 10.5 38.4023 10.5 33.9802V27C10.5 26.2618 11.0771 25.6634 11.7891 25.6634C12.501 25.6634 13.0781 26.2618 13.0781 27V33.9802C13.0781 36.9283 15.3912 39.3267 18.2344 39.3267H35.7656C38.6088 39.3267 40.9219 36.9283 40.9219 33.9802V23.0198C40.9219 20.0717 38.6088 17.6733 35.7656 17.6733H25.834C25.122 17.6733 24.5449 17.0749 24.5449 16.3366C24.5449 15.5984 25.122 15 25.834 15Z" fill="#FFB931"/>
<path fill-rule="evenodd" clip-rule="evenodd" d="M12.7874 22.5C14.0995 22.5 15.3395 22.2121 16.4725 21.6443C16.8227 21.4688 17.2 21.3838 17.5754 21.3838C18.6776 21.3838 19.5063 22.2664 19.5063 22.2664C19.674 22.4196 19.8897 22.5 20.1083 22.5C20.2298 22.5 20.3523 22.4752 20.4679 22.4242C20.7913 22.2816 21 21.9615 21 21.608L20.9996 14.3264C21.0197 12.116 20.1696 10.0293 18.6057 8.45033C17.0408 6.87022 14.9611 6 12.75 6C10.523 6 8.44024 6.86446 6.88554 8.43419C5.32602 10.0087 4.47899 12.1029 4.5004 14.3308C4.52149 16.5254 5.39412 18.5814 6.95765 20.1203C8.51685 21.6549 10.5842 22.5 12.7793 22.5H12.7874ZM15.6733 20.0496C14.7907 20.4919 13.8194 20.7162 12.7865 20.7162C9.23762 20.7164 6.31801 17.8448 6.28407 14.3137C6.26726 12.5654 6.93096 10.9232 8.1529 9.68942C9.37007 8.46053 11.0027 7.78377 12.75 7.78377C14.4814 7.78377 16.1109 8.46629 17.3384 9.70557C18.5658 10.9448 19.2326 12.5813 19.216 14.3136L19.2162 19.9274C18.6943 19.7106 18.1358 19.5995 17.5745 19.5995C16.9281 19.5995 16.2776 19.7467 15.6733 20.0496Z" fill="#FFB931"/>
<path d="M10.3867 14.2945C10.3867 13.6788 9.88752 13.1797 9.2718 13.1797C8.65604 13.1797 8.15694 13.6788 8.15694 14.2945C8.15694 14.9103 8.65609 15.4094 9.2718 15.4094C9.88752 15.4094 10.3867 14.9103 10.3867 14.2945Z" fill="#FFB931"/>
<path d="M13.9096 14.2945C13.9096 13.6788 13.4105 13.1797 12.7948 13.1797C12.179 13.1797 11.6799 13.6788 11.6799 14.2945C11.6799 14.9103 12.1791 15.4094 12.7948 15.4094C13.4105 15.4094 13.9096 14.9103 13.9096 14.2945Z" fill="#FFB931"/>
<path d="M17.4326 14.2945C17.4326 13.6788 16.9335 13.1797 16.3178 13.1797C15.702 13.1797 15.2029 13.6788 15.2029 14.2945C15.2029 14.9103 15.702 15.4094 16.3178 15.4094C16.9335 15.4094 17.4326 14.9103 17.4326 14.2945Z" fill="#FFB931"/>
</svg>
