<svg width="24" height="24" viewBox="0 0 24 24" fill="none" xmlns="http://www.w3.org/2000/svg">
<path d="M9.89282 19.7661C4.44327 19.7661 0.00976562 15.3326 0.00976562 9.88305C0.00976562 4.43351 4.44327 0 9.89282 0C15.3424 0 19.7759 4.43351 19.7759 9.88305C19.7759 15.3326 15.3424 19.7661 9.89282 19.7661ZM9.89282 1.87356C5.47636 1.87356 1.88333 5.46659 1.88333 9.88305C1.88333 14.2995 5.47636 17.8925 9.89282 17.8925C14.3093 17.8925 17.9023 14.2995 17.9023 9.88305C17.9023 5.46659 14.3093 1.87356 9.89282 1.87356ZM23.717 23.7256C24.0829 23.3597 24.0829 22.7666 23.717 22.4008L19.5249 18.2087C19.1591 17.8428 18.5659 17.8428 18.2001 18.2087C17.8343 18.5745 17.8343 19.1677 18.2001 19.5335L22.3922 23.7256C22.5751 23.9085 22.8149 23.9999 23.0546 23.9999C23.2944 23.9999 23.5341 23.9085 23.717 23.7256Z" fill="#FF316F"/>
</svg>
