<svg width="40" height="40" viewBox="0 0 40 40" fill="none" xmlns="http://www.w3.org/2000/svg">
<path d="M29.2578 27.0898C27.1577 27.0898 25.4492 25.3813 25.4492 23.2812C25.4492 21.1812 27.1577 19.4727 29.2578 19.4727C31.3578 19.4727 33.0664 21.1812 33.0664 23.2812C33.0664 25.3813 31.3578 27.0898 29.2578 27.0898ZM29.2578 21.8164C28.4501 21.8164 27.7929 22.4735 27.7929 23.2812C27.7929 24.089 28.4501 24.7461 29.2578 24.7461C30.0655 24.7461 30.7226 24.089 30.7226 23.2812C30.7226 22.4735 30.0655 21.8164 29.2578 21.8164ZM19.6484 27.7344C17.5484 27.7344 15.8398 26.0258 15.8398 23.9258C15.8398 21.8257 17.5484 20.1172 19.6484 20.1172C21.7485 20.1172 23.457 21.8257 23.457 23.9258C23.457 26.0258 21.7485 27.7344 19.6484 27.7344ZM19.6484 22.4609C18.8407 22.4609 18.1836 23.1181 18.1836 23.9258C18.1836 24.7335 18.8407 25.3906 19.6484 25.3906C20.4561 25.3906 21.1133 24.7335 21.1133 23.9258C21.1133 23.1181 20.4561 22.4609 19.6484 22.4609ZM16.6015 33.8281C16.6015 32.5681 17.6396 31.543 18.9155 31.543H20.9375C21.5847 31.543 22.1093 31.0183 22.1093 30.3711C22.1093 29.7239 21.5847 29.1992 20.9375 29.1992H18.9155C16.3472 29.1992 14.2578 31.2757 14.2578 33.8281C14.2578 34.4754 14.7824 35 15.4297 35C16.0769 35 16.6015 34.4754 16.6015 33.8281ZM10.1562 27.7344C8.05619 27.7344 6.34765 26.0258 6.34765 23.9258C6.34765 21.8257 8.05619 20.1172 10.1562 20.1172C12.2563 20.1172 13.9648 21.8257 13.9648 23.9258C13.9648 26.0258 12.2563 27.7344 10.1562 27.7344ZM10.1562 22.4609C9.34853 22.4609 8.6914 23.1181 8.6914 23.9258C8.6914 24.7335 9.34853 25.3906 10.1562 25.3906C10.964 25.3906 11.6211 24.7335 11.6211 23.9258C11.6211 23.1181 10.964 22.4609 10.1562 22.4609ZM7.34375 33.8281C7.34375 32.5681 8.38179 31.543 9.65767 31.543H12.0312C12.6785 31.543 13.2031 31.0183 13.2031 30.3711C13.2031 29.7239 12.6785 29.1992 12.0312 29.1992H9.65767C7.08939 29.1992 5 31.2757 5 33.8281C5 34.4754 5.52465 35 6.17187 35C6.8191 35 7.34375 34.4754 7.34375 33.8281ZM25.6838 18.0078C25.3788 18.0078 25.0792 17.8888 24.8549 17.6646L24.749 17.5586C24.1787 16.9884 23.3119 16.846 22.5917 17.2044C21.5211 17.7375 20.3643 18.0078 19.1536 18.0078H19.1499H11.5039C7.91761 18.0078 5 15.0902 5 11.5039C5 7.91762 7.91761 5 11.5039 5H20.3515C23.9378 5 26.8554 7.91762 26.8554 11.5039V16.8359C26.8554 17.3099 26.5699 17.7372 26.132 17.9186C25.9871 17.9786 25.8347 18.0078 25.6838 18.0078ZM11.5039 7.34375C9.21001 7.34375 7.34375 9.21002 7.34375 11.5039C7.34375 13.7978 9.21001 15.6641 11.5039 15.6641H19.1504H19.153C19.9986 15.6641 20.8038 15.4764 21.5471 15.1064C22.4891 14.6373 23.5427 14.5483 24.5117 14.8071V11.5039C24.5117 9.21002 22.6454 7.34375 20.3515 7.34375H11.5039ZM33.8281 35C33.1808 35 32.6562 34.4754 32.6562 33.8281C32.6562 32.1194 31.2573 30.7292 29.5378 30.7292H28.7433C27.0238 30.7292 25.625 32.1194 25.625 33.8281C25.625 34.4754 25.1003 35 24.4531 35C23.8059 35 23.2812 34.4754 23.2812 33.8281C23.2812 30.827 25.7315 28.3854 28.7433 28.3854H29.5379C32.5497 28.3854 35 30.827 35 33.8281C34.9999 34.4754 34.4753 35 33.8281 35ZM9.68749 11.5039C9.68749 12.3129 10.3433 12.9688 11.1523 12.9688C11.9613 12.9688 12.6172 12.3129 12.6172 11.5039C12.6172 10.6949 11.9613 10.0391 11.1523 10.0391C10.3433 10.0391 9.68749 10.6949 9.68749 11.5039ZM14.375 11.5039C14.375 12.3129 15.0308 12.9688 15.8398 12.9688C16.6488 12.9688 17.3047 12.3129 17.3047 11.5039C17.3047 10.6949 16.6488 10.0391 15.8398 10.0391C15.0308 10.0391 14.375 10.6949 14.375 11.5039ZM19.0625 11.5039C19.0625 12.3129 19.7183 12.9688 20.5273 12.9688C21.3363 12.9688 21.9922 12.3129 21.9922 11.5039C21.9922 10.6949 21.3363 10.0391 20.5273 10.0391C19.7183 10.0391 19.0625 10.6949 19.0625 11.5039Z" fill="white"/>
</svg>
