<svg width="64" height="64" viewBox="0 0 64 64" fill="none" xmlns="http://www.w3.org/2000/svg">
<path d="M54.3786 29.7074C53.3273 28.71 51.8986 28.1805 50.4639 28.2571C49.4398 28.311 48.4548 28.6698 47.6104 29.2982L36.5609 37.5789C36.5567 37.5821 36.5525 37.5852 36.5483 37.5884C33.8704 39.631 30.1295 39.631 27.4516 37.5884C27.4474 37.5852 27.4432 37.5821 27.439 37.5789L16.3846 29.2946C15.5452 28.6698 14.5602 28.3111 13.5361 28.2572C12.1013 28.1815 10.6727 28.7101 9.62141 29.7075C8.57581 30.6994 8 32.0485 8 33.5061V44.75C8 50.9533 13.0468 56 19.25 56H44.75C50.9533 56 56 50.9533 56 44.75V33.5061C56 32.0485 55.4242 30.6994 54.3786 29.7074ZM52.25 44.75C52.25 48.8855 48.8855 52.25 44.75 52.25H19.25C15.1145 52.25 11.75 48.8855 11.75 44.75V33.5061C11.75 32.9697 11.996 32.6237 12.2023 32.428C12.4879 32.157 12.8804 32.0001 13.2653 32.0001C13.2898 32.0001 13.3144 32.0007 13.3389 32.0021C13.6262 32.0173 13.8977 32.1184 14.1406 32.2992L25.1838 40.575C29.1982 43.632 34.8018 43.632 38.8162 40.575L49.8544 32.3029C50.1023 32.1184 50.3737 32.0173 50.661 32.0021C51.0711 31.9813 51.4938 32.1399 51.7976 32.4281C52.0039 32.6238 52.2499 32.9698 52.2499 33.5062V44.75H52.25ZM12.6875 22.7188V19.25C12.6875 13.0468 17.7343 8 23.9375 8H40.25C46.4533 8 51.5 13.0468 51.5 19.25V22.7188C51.5 23.7543 50.6606 24.5938 49.625 24.5938C48.5894 24.5938 47.75 23.7543 47.75 22.7188V19.25C47.75 15.1145 44.3855 11.75 40.25 11.75H23.9375C19.802 11.75 16.4375 15.1145 16.4375 19.25V22.7188C16.4375 23.7543 15.5981 24.5938 14.5625 24.5938C13.5269 24.5938 12.6875 23.7543 12.6875 22.7188ZM30.2656 32.6562V32.4118C29.5014 32.2569 28.6498 32.021 27.7917 31.6799C26.8294 31.2974 26.3594 30.2073 26.7419 29.245C27.1245 28.2827 28.2149 27.8128 29.177 28.1952C30.6447 28.7785 31.9831 28.9062 32.375 28.9062C32.8919 28.9062 33.3125 28.4857 33.3125 27.9688C33.3125 27.4431 32.7566 27.0312 32.0469 27.0312C29.0005 27.0312 26.7031 25.0161 26.7031 22.3438C26.7031 20.1468 28.2226 18.2989 30.2656 17.7937V17.6562C30.2656 16.6207 31.1051 15.7812 32.1406 15.7812C33.1762 15.7812 34.0156 16.6207 34.0156 17.6562V18.0013C34.4974 18.1283 35.0319 18.3001 35.6327 18.5338C36.5979 18.909 37.076 19.9957 36.7006 20.9608C36.3253 21.926 35.2383 22.4041 34.2735 22.0287C32.8667 21.4816 32.0566 21.4062 31.3906 21.4062C30.8737 21.4062 30.4531 21.8268 30.4531 22.3438C30.4531 22.8782 31.1383 23.2812 32.0469 23.2812C34.8594 23.2812 37.0625 25.3402 37.0625 27.9688C37.0625 29.9764 35.7934 31.6928 34.0156 32.3592V32.6562C34.0156 33.6918 33.1762 34.5312 32.1406 34.5312C31.1051 34.5312 30.2656 33.6918 30.2656 32.6562Z" fill="#71D74D"/>
</svg>
