<svg width="64" height="64" viewBox="0 0 64 64" fill="none" xmlns="http://www.w3.org/2000/svg">
<path d="M32 56C25.5894 56 19.5625 53.5035 15.0294 48.9706C10.4965 44.4375 8 38.4106 8 32C8 25.5894 10.4965 19.5625 15.0294 15.0294C19.5625 10.4965 25.5894 8 32 8C38.4106 8 44.4375 10.4965 48.9706 15.0294C53.5035 19.5625 56 25.5894 56 32C56 38.4106 53.5035 44.4375 48.9706 48.9706C44.4375 53.5035 38.4106 56 32 56ZM32 11.75C20.8341 11.75 11.75 20.8341 11.75 32C11.75 43.1659 20.8341 52.25 32 52.25C43.1659 52.25 52.25 43.1659 52.25 32C52.25 20.8341 43.1659 11.75 32 11.75ZM40.7878 36.1426C39.9142 35.5866 38.7553 35.8441 38.1994 36.7179C38.1763 36.7542 35.8428 40.3495 31.9062 40.3495C27.9697 40.3495 25.6362 36.7542 25.6131 36.7179C25.0572 35.8442 23.8983 35.5867 23.0247 36.1426C22.151 36.6986 21.8935 37.8575 22.4494 38.7311C22.5889 38.9503 25.9343 44.0995 31.9062 44.0995C37.8782 44.0995 41.2236 38.9503 41.3631 38.7311C41.919 37.8574 41.6615 36.6986 40.7878 36.1426ZM23.75 23.4688C25.0444 23.4688 26.0938 24.5181 26.0938 25.8125C26.0938 27.1069 25.0444 28.1562 23.75 28.1562C22.4556 28.1562 21.4062 27.1069 21.4062 25.8125C21.4062 24.5181 22.4556 23.4688 23.75 23.4688ZM37.8125 25.8125C37.8125 27.1069 38.8618 28.1562 40.1562 28.1562C41.4507 28.1562 42.5 27.1069 42.5 25.8125C42.5 24.5181 41.4507 23.4688 40.1562 23.4688C38.8618 23.4688 37.8125 24.5181 37.8125 25.8125Z" fill="#FF316F"/>
</svg>
