<svg width="48" height="48" viewBox="0 0 48 48" fill="none" xmlns="http://www.w3.org/2000/svg">
<path d="M29.561 22.3322V26.7582C29.561 27.494 28.9645 28.0905 28.2287 28.0905C27.4929 28.0905 26.8965 27.494 26.8965 26.7582V22.3322C26.8965 21.5964 27.4929 21 28.2287 21C28.9645 21 29.561 21.5964 29.561 22.3322Z" fill="#FF316F"/>
<path fill-rule="evenodd" clip-rule="evenodd" d="M42.5365 36.5203L41.6921 36.0256C41.8577 35.5208 41.9478 34.9833 41.9478 34.4256C41.9478 33.8679 41.8577 33.3305 41.6921 32.8256L42.5365 32.331C43.1367 31.9793 43.3313 31.2191 42.9711 30.633C42.6109 30.0469 41.8323 29.8569 41.2323 30.2085L40.3724 30.7123C39.6832 30.0378 38.8075 29.5457 37.8287 29.3143V28.2376C37.8287 27.5541 37.2613 27 36.5613 27C35.8613 27 35.2938 27.5541 35.2938 28.2376V29.3143C34.2927 29.551 33.4003 30.0612 32.704 30.7595L31.7635 30.2085C31.1634 29.8569 30.3848 30.0469 30.0246 30.633C29.6644 31.2191 29.8591 31.9793 30.4593 32.331L31.4101 32.888C31.2574 33.3746 31.1747 33.8909 31.1747 34.4256C31.1747 34.9604 31.2574 35.4766 31.4101 35.9632L30.4593 36.5203C29.859 36.8719 29.6644 37.6321 30.0246 38.2182C30.2623 38.6049 30.682 38.8192 31.1126 38.8192C31.3345 38.8192 31.5593 38.7623 31.7635 38.6427L32.704 38.0916C33.4003 38.79 34.2927 39.3002 35.2938 39.5369V40.6136C35.2938 41.2972 35.8613 41.8512 36.5613 41.8512C37.2613 41.8512 37.8287 41.2972 37.8287 40.6136V39.537C38.8075 39.3056 39.6832 38.8135 40.3724 38.1389L41.2323 38.6428C41.4365 38.7624 41.6613 38.8193 41.8832 38.8193C42.3137 38.8193 42.7336 38.605 42.9712 38.2183C43.3313 37.6321 43.1367 36.8719 42.5365 36.5203ZM36.5613 37.2102C34.9888 37.2102 33.7096 35.961 33.7096 34.4256C33.7096 32.8902 34.9888 31.641 36.5613 31.641C38.1337 31.641 39.4129 32.8902 39.4129 34.4256C39.4129 35.961 38.1337 37.2102 36.5613 37.2102Z" fill="#FF316F"/>
<path d="M19.4809 22.3322V26.7582C19.4809 27.494 18.8844 28.0905 18.1486 28.0905C17.4128 28.0905 16.8164 27.494 16.8164 26.7582V22.3322C16.8164 21.5964 17.4128 21 18.1486 21C18.8844 21 19.4809 21.5964 19.4809 22.3322Z" fill="#FF316F"/>
<path fill-rule="evenodd" clip-rule="evenodd" d="M24.3952 13.0719C25.5279 12.4167 26.2899 11.1921 26.2899 9.78947C26.2899 7.69661 24.5933 6 22.5004 6C20.4075 6 18.7109 7.69661 18.7109 9.78947C18.7109 11.1921 19.473 12.4168 20.6057 13.072V15.9444C20.6057 16.7309 21.454 17.3685 22.5005 17.3685C23.5469 17.3685 24.3952 16.7309 24.3952 15.9444V13.0719Z" fill="#FF316F"/>
<path d="M28.166 42H13.7344C9.46964 42 6 38.4023 6 33.9802V23.0198C6 18.5977 9.46964 15 13.7344 15H31.2656C35.5304 15 39 18.5977 39 23.0198V24.0297C39 24.7679 38.4229 25.3663 37.7109 25.3663C36.999 25.3663 36.4219 24.7679 36.4219 24.0297V23.0198C36.4219 20.0717 34.1088 17.6733 31.2656 17.6733H13.7344C10.8912 17.6733 8.57812 20.0717 8.57812 23.0198V33.9802C8.57812 36.9283 10.8912 39.3267 13.7344 39.3267H28.166C28.878 39.3267 29.4551 39.9251 29.4551 40.6634C29.4551 41.4016 28.878 42 28.166 42Z" fill="#FF316F"/>
</svg>
