<svg width="48" height="48" viewBox="0 0 48 48" fill="none" xmlns="http://www.w3.org/2000/svg">
<path d="M35.1093 32.5078C32.5893 32.5078 30.539 30.4576 30.539 27.9375C30.539 25.4174 32.5893 23.3672 35.1093 23.3672C37.6294 23.3672 39.6796 25.4174 39.6796 27.9375C39.6796 30.4576 37.6294 32.5078 35.1093 32.5078ZM35.1093 26.1797C34.1401 26.1797 33.3515 26.9682 33.3515 27.9375C33.3515 28.9068 34.1401 29.6953 35.1093 29.6953C36.0786 29.6953 36.8671 28.9068 36.8671 27.9375C36.8671 26.9682 36.0786 26.1797 35.1093 26.1797ZM23.5781 33.2812C21.058 33.2812 19.0078 31.231 19.0078 28.7109C19.0078 26.1909 21.058 24.1406 23.5781 24.1406C26.0982 24.1406 28.1484 26.1909 28.1484 28.7109C28.1484 31.231 26.0982 33.2812 23.5781 33.2812ZM23.5781 26.9531C22.6088 26.9531 21.8203 27.7417 21.8203 28.7109C21.8203 29.6802 22.6088 30.4688 23.5781 30.4688C24.5473 30.4688 25.3359 29.6802 25.3359 28.7109C25.3359 27.7417 24.5473 26.9531 23.5781 26.9531ZM19.9218 40.5938C19.9218 39.0817 21.1675 37.8516 22.6986 37.8516H25.125C25.9016 37.8516 26.5312 37.222 26.5312 36.4453C26.5312 35.6686 25.9016 35.0391 25.125 35.0391H22.6986C19.6166 35.0391 17.1094 37.5309 17.1094 40.5938C17.1094 41.3704 17.7389 42 18.5156 42C19.2923 42 19.9218 41.3704 19.9218 40.5938ZM12.1875 33.2812C9.66742 33.2812 7.61718 31.231 7.61718 28.7109C7.61718 26.1909 9.66742 24.1406 12.1875 24.1406C14.7076 24.1406 16.7578 26.1909 16.7578 28.7109C16.7578 31.231 14.7076 33.2812 12.1875 33.2812ZM12.1875 26.9531C11.2182 26.9531 10.4297 27.7417 10.4297 28.7109C10.4297 29.6802 11.2182 30.4688 12.1875 30.4688C13.1567 30.4688 13.9453 29.6802 13.9453 28.7109C13.9453 27.7417 13.1567 26.9531 12.1875 26.9531ZM8.81249 40.5938C8.81249 39.0817 10.0581 37.8516 11.5892 37.8516H14.4375C15.2142 37.8516 15.8437 37.222 15.8437 36.4453C15.8437 35.6686 15.2142 35.0391 14.4375 35.0391H11.5892C8.50727 35.0391 6 37.5309 6 40.5938C6 41.3704 6.62958 42 7.40625 42C8.18292 42 8.81249 41.3704 8.81249 40.5938ZM30.8206 21.6094C30.4546 21.6094 30.095 21.4665 29.8259 21.1975L29.6988 21.0704C29.0144 20.3861 27.9742 20.2151 27.1101 20.6453C25.8253 21.285 24.4372 21.6093 22.9843 21.6093H22.9799H13.8047C9.50113 21.6094 6 18.1082 6 13.8047C6 9.50114 9.50113 6 13.8047 6H24.4218C28.7254 6 32.2265 9.50114 32.2265 13.8047V20.2031C32.2265 20.7719 31.8839 21.2847 31.3584 21.5024C31.1845 21.5744 31.0017 21.6094 30.8206 21.6094ZM13.8047 8.8125C11.052 8.8125 8.81249 11.052 8.81249 13.8047C8.81249 16.5574 11.052 18.7969 13.8047 18.7969H22.9804H22.9836C23.9983 18.7969 24.9646 18.5717 25.8565 18.1276C26.987 17.5648 28.2512 17.458 29.414 17.7686V13.8047C29.414 11.052 27.1745 8.8125 24.4218 8.8125H13.8047ZM40.5937 42C39.817 42 39.1874 41.3704 39.1874 40.5938C39.1874 38.5432 37.5088 36.875 35.4454 36.875H34.492C32.4286 36.875 30.75 38.5432 30.75 40.5938C30.75 41.3704 30.1204 42 29.3437 42C28.567 42 27.9375 41.3704 27.9375 40.5938C27.9375 36.9924 30.8778 34.0625 34.492 34.0625H35.4455C39.0596 34.0625 42 36.9924 42 40.5938C41.9999 41.3704 41.3704 42 40.5937 42ZM11.625 13.8047C11.625 14.7755 12.412 15.5625 13.3828 15.5625C14.3536 15.5625 15.1406 14.7755 15.1406 13.8047C15.1406 12.8339 14.3536 12.0469 13.3828 12.0469C12.412 12.0469 11.625 12.8339 11.625 13.8047ZM17.25 13.8047C17.25 14.7755 18.037 15.5625 19.0078 15.5625C19.9786 15.5625 20.7656 14.7755 20.7656 13.8047C20.7656 12.8339 19.9786 12.0469 19.0078 12.0469C18.037 12.0469 17.25 12.8339 17.25 13.8047ZM22.875 13.8047C22.875 14.7755 23.662 15.5625 24.6328 15.5625C25.6036 15.5625 26.3906 14.7755 26.3906 13.8047C26.3906 12.8339 25.6036 12.0469 24.6328 12.0469C23.662 12.0469 22.875 12.8339 22.875 13.8047Z" fill="#FF7B31"/>
</svg>
