<svg width="48" height="48" viewBox="0 0 48 48" fill="none" xmlns="http://www.w3.org/2000/svg">
<path d="M38.6402 34.5263C35.2613 39.2061 29.7883 42 24 42C19.192 42 14.6718 40.1276 11.272 36.728C7.87235 33.3282 6 28.808 6 24C6 19.192 7.87235 14.6719 11.272 11.272C14.6718 7.87235 19.192 6 24 6C29.7883 6 35.2613 8.79387 38.6402 13.4737C39.0947 14.1034 38.9528 14.9824 38.3231 15.437C37.6935 15.8916 36.8145 15.7497 36.3598 15.12C33.5083 11.1705 28.8878 8.8125 24 8.8125C15.6256 8.8125 8.8125 15.6256 8.8125 24C8.8125 32.3744 15.6256 39.1875 24 39.1875C28.8878 39.1875 33.5083 36.8295 36.3598 32.8799C36.8145 32.2503 37.6935 32.1083 38.3231 32.5629C38.9528 33.0176 39.0947 33.8966 38.6402 34.5263ZM24 17.3203C25.7968 17.3203 27.4857 18.0424 28.7555 19.3534C29.2958 19.9113 30.1861 19.9255 30.744 19.3852C31.3019 18.8448 31.3161 17.9545 30.7757 17.3967C28.9714 15.5337 26.565 14.5078 24 14.5078C18.766 14.5078 14.5078 18.766 14.5078 24C14.5078 29.234 18.766 33.4922 24 33.4922C26.5651 33.4922 28.9714 32.4663 30.7757 30.6034C31.3161 30.0455 31.3018 29.1552 30.744 28.6149C30.186 28.0745 29.2958 28.0888 28.7555 28.6467C27.4857 29.9576 25.7968 30.6797 24 30.6797C20.3168 30.6797 17.3203 27.6832 17.3203 24C17.3203 20.3168 20.3168 17.3203 24 17.3203ZM39.9247 25.4302C39.54 25.0477 39.3281 24.5398 39.3281 24C39.3281 23.4602 39.54 22.9523 39.9247 22.5698L41.5851 20.9192C42.1359 20.3716 42.1386 19.4812 41.591 18.9305C41.0434 18.3796 40.1529 18.377 39.6022 18.9246L37.9418 20.5753C37.3657 21.148 36.9519 21.8392 36.7229 22.5938H24C23.2233 22.5938 22.5937 23.2234 22.5937 24.0001C22.5937 24.7767 23.2233 25.4063 24 25.4063H36.7229C36.9519 26.1609 37.3657 26.8522 37.9418 27.4249L39.6022 29.0755C39.8767 29.3482 40.2351 29.4844 40.5937 29.4844C40.955 29.4844 41.3162 29.346 41.591 29.0695C42.1386 28.5188 42.136 27.6283 41.5852 27.0808L39.9247 25.4302Z" fill="#00BEF6"/>
</svg>
