<svg width="32" height="32" viewBox="0 0 32 32" fill="none" xmlns="http://www.w3.org/2000/svg">
<path d="M13.8928 23.7661C8.44327 23.7661 4.00977 19.3326 4.00977 13.8831C4.00977 8.43351 8.44327 4 13.8928 4C19.3424 4 23.7759 8.43351 23.7759 13.8831C23.7759 19.3326 19.3424 23.7661 13.8928 23.7661ZM13.8928 5.87356C9.47636 5.87356 5.88333 9.46659 5.88333 13.8831C5.88333 18.2995 9.47636 21.8925 13.8928 21.8925C18.3093 21.8925 21.9023 18.2995 21.9023 13.8831C21.9023 9.46659 18.3093 5.87356 13.8928 5.87356ZM27.717 27.7256C28.0829 27.3597 28.0829 26.7666 27.717 26.4008L23.5249 22.2087C23.1591 21.8428 22.5659 21.8428 22.2001 22.2087C21.8343 22.5745 21.8343 23.1677 22.2001 23.5335L26.3922 27.7256C26.5751 27.9085 26.8149 27.9999 27.0546 27.9999C27.2944 27.9999 27.5341 27.9085 27.717 27.7256Z" fill="#ADABB5"/>
</svg>
