<svg width="64" height="64" viewBox="0 0 64 64" fill="none" xmlns="http://www.w3.org/2000/svg">
<mask id="path-1-inside-1" fill="white">
<path fill-rule="evenodd" clip-rule="evenodd" d="M52.2205 28.2205H49.5512C49.0882 26.0682 48.2387 24.0581 47.0784 22.2668L49.0349 20.3103C50.511 18.8342 50.5108 16.4412 49.0347 14.9653C47.5586 13.4892 45.1656 13.4892 43.6897 14.9653L41.7334 16.9216C39.9421 15.7613 37.932 14.9118 35.7797 14.4488V11.7795C35.7797 9.69209 34.0876 8 32.0002 8C29.9128 8 28.2207 9.69209 28.2207 11.7795V14.4488C26.0684 14.9118 24.0583 15.7613 22.267 16.9216L20.3107 14.9653C18.8346 13.4892 16.4416 13.4894 14.9657 14.9653C13.4898 16.4412 13.4894 18.8344 14.9655 20.3103L16.922 22.2668C15.7616 24.0581 14.9122 26.0682 14.4492 28.2205H11.7795C9.69209 28.2205 8 29.9126 8 32C8 34.0874 9.69209 35.7795 11.7795 35.7795H14.4488C14.9118 37.9318 15.7613 39.9419 16.9216 41.7332L14.9651 43.6897C13.489 45.1658 13.4892 47.5588 14.9653 49.0347C15.7032 49.7727 16.6704 50.1417 17.6378 50.1417C18.6052 50.1417 19.5723 49.7727 20.3105 49.0347L22.2668 47.0784C24.0581 48.2387 26.0682 49.0882 28.2205 49.5512V52.2205C28.2205 54.3079 29.9126 56 32 56C34.0874 56 35.7795 54.3079 35.7795 52.2205V49.5512C37.9318 49.0882 39.9419 48.2387 41.7332 47.0784L43.6895 49.0347C44.4277 49.7729 45.3946 50.1417 46.3622 50.1417C47.3294 50.1417 48.2968 49.7727 49.0347 49.0347C50.5108 47.5588 50.511 45.1656 49.0349 43.6897L47.0784 41.7332C48.2387 39.9419 49.0882 37.9318 49.5512 35.7795H52.2205C54.3079 35.7795 56 34.0874 56 32C56 29.9126 54.3079 28.2205 52.2205 28.2205ZM32 44C25.3832 44 20 38.6168 20 32C20 25.3832 25.3832 20 32 20C38.6168 20 44 25.3832 44 32C44 38.6168 38.6168 44 32 44Z"/>
</mask>
<path fill-rule="evenodd" clip-rule="evenodd" d="M52.2205 28.2205H49.5512C49.0882 26.0682 48.2387 24.0581 47.0784 22.2668L49.0349 20.3103C50.511 18.8342 50.5108 16.4412 49.0347 14.9653C47.5586 13.4892 45.1656 13.4892 43.6897 14.9653L41.7334 16.9216C39.9421 15.7613 37.932 14.9118 35.7797 14.4488V11.7795C35.7797 9.69209 34.0876 8 32.0002 8C29.9128 8 28.2207 9.69209 28.2207 11.7795V14.4488C26.0684 14.9118 24.0583 15.7613 22.267 16.9216L20.3107 14.9653C18.8346 13.4892 16.4416 13.4894 14.9657 14.9653C13.4898 16.4412 13.4894 18.8344 14.9655 20.3103L16.922 22.2668C15.7616 24.0581 14.9122 26.0682 14.4492 28.2205H11.7795C9.69209 28.2205 8 29.9126 8 32C8 34.0874 9.69209 35.7795 11.7795 35.7795H14.4488C14.9118 37.9318 15.7613 39.9419 16.9216 41.7332L14.9651 43.6897C13.489 45.1658 13.4892 47.5588 14.9653 49.0347C15.7032 49.7727 16.6704 50.1417 17.6378 50.1417C18.6052 50.1417 19.5723 49.7727 20.3105 49.0347L22.2668 47.0784C24.0581 48.2387 26.0682 49.0882 28.2205 49.5512V52.2205C28.2205 54.3079 29.9126 56 32 56C34.0874 56 35.7795 54.3079 35.7795 52.2205V49.5512C37.9318 49.0882 39.9419 48.2387 41.7332 47.0784L43.6895 49.0347C44.4277 49.7729 45.3946 50.1417 46.3622 50.1417C47.3294 50.1417 48.2968 49.7727 49.0347 49.0347C50.5108 47.5588 50.511 45.1656 49.0349 43.6897L47.0784 41.7332C48.2387 39.9419 49.0882 37.9318 49.5512 35.7795H52.2205C54.3079 35.7795 56 34.0874 56 32C56 29.9126 54.3079 28.2205 52.2205 28.2205ZM32 44C25.3832 44 20 38.6168 20 32C20 25.3832 25.3832 20 32 20C38.6168 20 44 25.3832 44 32C44 38.6168 38.6168 44 32 44Z" fill="#FF7B31"/>
<path d="M49.5512 28.2205L48.5735 28.4308L48.7434 29.2205H49.5512V28.2205ZM47.0784 22.2668L46.3713 21.5597L45.7994 22.1316L46.2391 22.8104L47.0784 22.2668ZM49.0349 20.3103L49.742 21.0174L49.0349 20.3103ZM49.0347 14.9653L48.3276 15.6724L48.3276 15.6724L49.0347 14.9653ZM43.6897 14.9653L44.3968 15.6724L44.3969 15.6724L43.6897 14.9653ZM41.7334 16.9216L41.1898 17.7609L41.8686 18.2006L42.4405 17.6287L41.7334 16.9216ZM35.7797 14.4488H34.7797V15.2566L35.5694 15.4265L35.7797 14.4488ZM28.2207 14.4488L28.431 15.4265L29.2207 15.2566V14.4488H28.2207ZM22.267 16.9216L21.5599 17.6287L22.1318 18.2006L22.8106 17.7609L22.267 16.9216ZM20.3107 14.9653L21.0178 14.2582L21.0178 14.2582L20.3107 14.9653ZM14.9657 14.9653L15.6728 15.6724V15.6724L14.9657 14.9653ZM14.9655 20.3103L15.6726 19.6032L15.6725 19.6031L14.9655 20.3103ZM16.922 22.2668L17.7613 22.8104L18.201 22.1316L17.6291 21.5597L16.922 22.2668ZM14.4492 28.2205V29.2205H15.257L15.4268 28.4308L14.4492 28.2205ZM14.4488 35.7795L15.4265 35.5692L15.2566 34.7795H14.4488V35.7795ZM16.9216 41.7332L17.6287 42.4403L18.2006 41.8684L17.7609 41.1896L16.9216 41.7332ZM14.9651 43.6897L15.6722 44.3968H15.6722L14.9651 43.6897ZM14.9653 49.0347L15.6724 48.3276L15.6724 48.3276L14.9653 49.0347ZM20.3105 49.0347L21.0175 49.7419L21.0176 49.7418L20.3105 49.0347ZM22.2668 47.0784L22.8104 46.2391L22.1316 45.7994L21.5597 46.3713L22.2668 47.0784ZM28.2205 49.5512H29.2205V48.7434L28.4308 48.5735L28.2205 49.5512ZM35.7795 49.5512L35.5692 48.5735L34.7795 48.7434V49.5512H35.7795ZM41.7332 47.0784L42.4403 46.3713L41.8684 45.7994L41.1896 46.2391L41.7332 47.0784ZM43.6895 49.0347L42.9824 49.7418V49.7418L43.6895 49.0347ZM49.0347 49.0347L48.3276 48.3276L48.3276 48.3276L49.0347 49.0347ZM49.0349 43.6897L48.3278 44.3968L48.3278 44.3969L49.0349 43.6897ZM47.0784 41.7332L46.2391 41.1896L45.7994 41.8684L46.3713 42.4403L47.0784 41.7332ZM49.5512 35.7795V34.7795H48.7434L48.5735 35.5692L49.5512 35.7795ZM49.5512 29.2205H52.2205V27.2205H49.5512V29.2205ZM46.2391 22.8104C47.3349 24.5021 48.1366 26.3996 48.5735 28.4308L50.5288 28.0102C50.0398 25.7369 49.1426 23.6141 47.9177 21.7231L46.2391 22.8104ZM48.3278 19.6032L46.3713 21.5597L47.7855 22.9739L49.742 21.0174L48.3278 19.6032ZM48.3276 15.6724C49.4132 16.7579 49.4133 18.5177 48.3278 19.6032L49.742 21.0174C51.6087 19.1507 51.6084 16.1245 49.7418 14.2581L48.3276 15.6724ZM44.3969 15.6724C45.4822 14.5869 47.242 14.5868 48.3276 15.6724L49.7418 14.2582C47.8752 12.3916 44.849 12.3915 42.9825 14.2582L44.3969 15.6724ZM42.4405 17.6287L44.3968 15.6724L42.9826 14.2582L41.0263 16.2145L42.4405 17.6287ZM35.5694 15.4265C37.6006 15.8634 39.4981 16.6651 41.1898 17.7609L42.2771 16.0823C40.3861 14.8574 38.2633 13.9602 35.99 13.4712L35.5694 15.4265ZM34.7797 11.7795V14.4488H36.7797V11.7795H34.7797ZM32.0002 9C33.5353 9 34.7797 10.2444 34.7797 11.7795H36.7797C36.7797 9.13981 34.6399 7 32.0002 7V9ZM29.2207 11.7795C29.2207 10.2444 30.465 9 32.0002 9V7C29.3605 7 27.2207 9.13981 27.2207 11.7795H29.2207ZM29.2207 14.4488V11.7795H27.2207V14.4488H29.2207ZM22.8106 17.7609C24.5023 16.6651 26.3998 15.8634 28.431 15.4265L28.0104 13.4712C25.737 13.9602 23.6143 14.8574 21.7233 16.0823L22.8106 17.7609ZM19.6036 15.6724L21.5599 17.6287L22.9741 16.2145L21.0178 14.2582L19.6036 15.6724ZM15.6728 15.6724C16.7582 14.587 18.518 14.5869 19.6036 15.6724L21.0178 14.2582C19.1511 12.3915 16.125 12.3918 14.2586 14.2582L15.6728 15.6724ZM15.6725 19.6031C14.5872 18.5179 14.5873 16.7579 15.6728 15.6724L14.2586 14.2582C12.3923 16.1245 12.3916 19.1509 14.2584 21.0175L15.6725 19.6031ZM17.6291 21.5597L15.6726 19.6032L14.2584 21.0174L16.2148 22.9739L17.6291 21.5597ZM15.4268 28.4308C15.8638 26.3996 16.6655 24.5021 17.7613 22.8104L16.0826 21.7231C14.8578 23.6141 13.9606 25.7369 13.4716 28.0102L15.4268 28.4308ZM11.7795 29.2205H14.4492V27.2205H11.7795V29.2205ZM9 32C9 30.4649 10.2444 29.2205 11.7795 29.2205V27.2205C9.13981 27.2205 7 29.3603 7 32H9ZM11.7795 34.7795C10.2444 34.7795 9 33.5351 9 32H7C7 34.6397 9.13981 36.7795 11.7795 36.7795V34.7795ZM14.4488 34.7795H11.7795V36.7795H14.4488V34.7795ZM17.7609 41.1896C16.6651 39.4979 15.8634 37.6004 15.4265 35.5692L13.4712 35.9898C13.9602 38.2631 14.8574 40.3859 16.0823 42.2769L17.7609 41.1896ZM15.6722 44.3968L17.6287 42.4403L16.2145 41.0261L14.258 42.9826L15.6722 44.3968ZM15.6724 48.3276C14.5868 47.2421 14.5867 45.4823 15.6722 44.3968L14.258 42.9826C12.3913 44.8493 12.3916 47.8755 14.2582 49.7419L15.6724 48.3276ZM17.6378 49.1417C16.9248 49.1417 16.2153 48.8705 15.6724 48.3276L14.2582 49.7418C15.1912 50.6748 16.416 51.1417 17.6378 51.1417V49.1417ZM19.6035 48.3275C19.0603 48.8705 18.3507 49.1417 17.6378 49.1417V51.1417C18.8596 51.1417 20.0844 50.6748 21.0175 49.7419L19.6035 48.3275ZM21.5597 46.3713L19.6034 48.3276L21.0176 49.7418L22.9739 47.7855L21.5597 46.3713ZM28.4308 48.5735C26.3996 48.1366 24.5021 47.3349 22.8104 46.2391L21.7231 47.9177C23.6141 49.1426 25.7369 50.0398 28.0102 50.5288L28.4308 48.5735ZM29.2205 52.2205V49.5512H27.2205V52.2205H29.2205ZM32 55C30.4649 55 29.2205 53.7556 29.2205 52.2205H27.2205C27.2205 54.8602 29.3603 57 32 57V55ZM34.7795 52.2205C34.7795 53.7556 33.5351 55 32 55V57C34.6397 57 36.7795 54.8602 36.7795 52.2205H34.7795ZM34.7795 49.5512V52.2205H36.7795V49.5512H34.7795ZM41.1896 46.2391C39.4979 47.3349 37.6004 48.1366 35.5692 48.5735L35.9898 50.5288C38.2631 50.0398 40.3859 49.1426 42.2769 47.9177L41.1896 46.2391ZM44.3966 48.3276L42.4403 46.3713L41.0261 47.7855L42.9824 49.7418L44.3966 48.3276ZM46.3622 49.1417C45.649 49.1417 44.9397 48.8707 44.3966 48.3276L42.9824 49.7418C43.9156 50.675 45.1403 51.1417 46.3622 51.1417V49.1417ZM48.3276 48.3276C47.7847 48.8705 47.075 49.1417 46.3622 49.1417V51.1417C47.5838 51.1417 48.8088 50.6748 49.7418 49.7418L48.3276 48.3276ZM48.3278 44.3969C49.4133 45.4822 49.4132 47.2421 48.3276 48.3276L49.7418 49.7419C51.6084 47.8755 51.6087 44.8491 49.742 42.9825L48.3278 44.3969ZM46.3713 42.4403L48.3278 44.3968L49.742 42.9826L47.7855 41.0261L46.3713 42.4403ZM48.5735 35.5692C48.1366 37.6004 47.3349 39.4979 46.2391 41.1896L47.9177 42.2769C49.1426 40.3859 50.0398 38.2631 50.5288 35.9898L48.5735 35.5692ZM52.2205 34.7795H49.5512V36.7795H52.2205V34.7795ZM55 32C55 33.5351 53.7556 34.7795 52.2205 34.7795V36.7795C54.8602 36.7795 57 34.6397 57 32H55ZM52.2205 29.2205C53.7556 29.2205 55 30.4648 55 32H57C57 29.3603 54.8602 27.2205 52.2205 27.2205V29.2205ZM19 32C19 39.1691 24.8309 45 32 45V43C25.9355 43 21 38.0645 21 32H19ZM32 19C24.8309 19 19 24.8309 19 32H21C21 25.9355 25.9355 21 32 21V19ZM45 32C45 24.8309 39.1691 19 32 19V21C38.0645 21 43 25.9355 43 32H45ZM32 45C39.1691 45 45 39.1691 45 32H43C43 38.0645 38.0645 43 32 43V45Z" fill="#FF7B31" mask="url(#path-1-inside-1)"/>
<path d="M38 32C38 28.6863 35.3137 26 32 26C28.6863 26 26 28.6863 26 32C26 35.3137 28.6863 38 32 38C35.3137 38 38 35.3137 38 32Z" fill="#FF7B31"/>
</svg>
