<svg width="48" height="48" viewBox="0 0 48 48" fill="none" xmlns="http://www.w3.org/2000/svg">
<path d="M24.0731 27.0225C23.265 27.0225 22.61 26.3931 22.61 25.6167V17.0415C22.61 16.2651 23.265 15.6357 24.0731 15.6357C24.8811 15.6357 25.5361 16.2651 25.5361 17.0415V25.6167C25.5361 26.393 24.8811 27.0225 24.0731 27.0225ZM24.0731 32.5752C25.0831 32.5752 25.9019 31.7885 25.9019 30.818C25.9019 29.8476 25.0831 29.0608 24.0731 29.0608C23.0631 29.0608 22.2443 29.8476 22.2443 30.818C22.2443 31.7885 23.0631 32.5752 24.0731 32.5752ZM26.7759 40.9142L28.6389 39.1814C28.8767 38.9601 29.2011 38.8587 29.5287 38.9033L32.0951 39.2524C34.2392 39.544 36.2121 38.1662 36.5862 36.1157L37.0341 33.6611C37.0914 33.3471 37.292 33.0815 37.5846 32.9322L39.8744 31.7641C41.7868 30.7884 42.5402 28.5595 41.5896 26.6898L40.4512 24.4507C40.3056 24.1643 40.3056 23.8357 40.4512 23.5492L41.5895 21.3103C42.5402 19.4404 41.7868 17.2115 39.8743 16.2359L37.5846 15.0679C37.292 14.9186 37.0913 14.6529 37.0341 14.339L36.5862 11.8843C36.2121 9.83385 34.2395 8.45626 32.0951 8.74768L29.5287 9.09673C29.2009 9.14143 28.8767 9.03994 28.6388 8.81867L26.7759 7.08585C25.2194 5.63805 22.7807 5.63805 21.2241 7.08585L19.3611 8.81867C19.1233 9.03994 18.799 9.14136 18.4713 9.09673L15.9048 8.74768C13.7608 8.45612 11.7878 9.83385 11.4137 11.8843L10.9659 14.339C10.9086 14.6529 10.708 14.9186 10.4154 15.0679L8.12563 16.2359C6.21322 17.2115 5.45982 19.4405 6.41043 21.3103L7.54875 23.5493C7.6944 23.8357 7.6944 24.1643 7.54875 24.4508L6.41043 26.6898C5.45982 28.5596 6.21322 30.7885 8.12563 31.7642L10.4153 32.9322C10.7079 33.0815 10.9086 33.3471 10.9659 33.6611L11.4137 36.1157C11.7543 37.9822 13.4193 39.2914 15.3326 39.2912C15.5212 39.2912 15.7125 39.2785 15.9048 39.2524L18.4712 38.9033C18.7992 38.8588 19.1233 38.9601 19.3611 39.1814L21.2241 40.9142C22.0024 41.6381 23.0012 42 24 42C24.9988 42 25.9976 41.6381 26.7759 40.9142ZM18.0612 36.1195L15.4948 36.4686C14.9223 36.5468 14.3958 36.1782 14.2959 35.6303L13.848 33.1756C13.6338 32.0015 12.8828 31.0077 11.7874 30.4489L9.49774 29.281C8.98648 29.0202 8.78524 28.4241 9.03952 27.9239L10.1778 25.6849C10.7222 24.6142 10.7222 23.3859 10.1778 22.3152L9.03952 20.0762C8.78524 19.576 8.98648 18.98 9.49774 18.7192L11.7875 17.5512C12.8829 16.9924 13.6338 15.9986 13.848 14.8245L14.2959 12.3698C14.3958 11.822 14.9223 11.4539 15.4948 11.5315L18.0612 11.8806C19.2893 12.0476 20.5049 11.6678 21.3963 10.8388L23.2592 9.10601C23.6746 8.71963 24.3253 8.71963 24.7407 9.10601L26.6036 10.8388C27.495 11.6679 28.7105 12.0474 29.9388 11.8806L32.5052 11.5316C33.0774 11.4536 33.6041 11.822 33.7041 12.3699L34.152 14.8245C34.3662 15.9986 35.1172 16.9924 36.2126 17.5512L38.5022 18.7192C39.0134 18.98 39.2147 19.5761 38.9604 20.0763L37.8221 22.3152C37.2778 23.386 37.2778 24.6142 37.8221 25.6849L38.9605 27.924C39.2147 28.4241 39.0135 29.0202 38.5023 29.281L36.2127 30.449C35.1173 31.0078 34.3662 32.0016 34.152 33.1757L33.7042 35.6304C33.6043 36.1782 33.0773 36.546 32.5052 36.4687L29.9388 36.1196C28.7105 35.9525 27.495 36.3324 26.6037 37.1614L24.7408 38.8942C24.3254 39.2805 23.6747 39.2805 23.2593 38.8942L21.3964 37.1613C20.6431 36.4606 19.6583 36.0809 18.6298 36.0809C18.4413 36.0809 18.2513 36.0937 18.0612 36.1195Z" fill="#FF7B31"/>
</svg>
