<svg width="48" height="48" viewBox="0 0 48 48" fill="none" xmlns="http://www.w3.org/2000/svg">
<path d="M40.594 42C40.7752 42 40.9579 41.965 41.1319 41.8929C41.6574 41.6752 42 41.1624 42 40.5936L41.9992 24.1689C42.0434 19.3461 40.1885 14.7923 36.7757 11.3466C33.3609 7.89879 28.8237 6 24 6C19.1405 6 14.5963 7.88585 11.2047 11.3101C7.80225 14.7454 5.95416 19.3148 6.00085 24.1764C6.04676 28.9643 7.95061 33.4499 11.3617 36.8072C14.7642 40.156 19.2758 41.9999 24.0661 41.9999C24.0718 41.9999 24.0777 41.9999 24.0834 41.9999C26.917 42 29.6222 41.3644 32.1236 40.1109C34.5137 38.9131 37.4074 39.396 39.3243 41.313L39.5993 41.5881C39.8683 41.8571 40.2281 41.9999 40.594 42ZM34.8797 36.6457C33.5141 36.6457 32.1402 36.9567 30.8635 37.5965C28.757 38.6522 26.4755 39.1874 24.0822 39.1874C24.0777 39.1875 24.072 39.1874 24.0676 39.1874C15.7341 39.1881 8.89294 32.4433 8.81327 24.1494C8.77383 20.0441 10.3328 16.1872 13.203 13.2894C16.0623 10.4024 19.8968 8.81249 24 8.81249C28.0674 8.81249 31.8948 10.4153 34.7774 13.3257C37.6599 16.236 39.2258 20.0799 39.1867 24.1494C39.1867 24.1539 39.1867 24.1585 39.1867 24.163L39.1874 37.738C37.8548 37.0175 36.3723 36.6457 34.8797 36.6457Z" fill="#7F31FF"/>
<path d="M34.5 19.7609C34.5 19.0405 33.9404 18.4565 33.25 18.4565H21.8125C21.1221 18.4565 20.5625 19.0405 20.5625 19.7609C20.5625 20.4813 21.1221 21.0652 21.8125 21.0652H33.25C33.9404 21.0652 34.5 20.4813 34.5 19.7609ZM34.5 24.9783C34.5 24.2579 33.9404 23.6739 33.25 23.6739H16.25C15.5596 23.6739 15 24.2579 15 24.9783C15 25.6987 15.5596 26.2826 16.25 26.2826H33.25C33.9404 26.2826 34.5 25.6987 34.5 24.9783ZM22 30.1957C22 29.4753 21.4404 28.8913 20.75 28.8913H16.25C15.5596 28.8913 15 29.4753 15 30.1957C15 30.916 15.5596 31.5 16.25 31.5H20.75C21.4404 31.5 22 30.916 22 30.1957ZM15 19.6304C15 20.5309 15.6996 21.2609 16.5625 21.2609C17.4254 21.2609 18.125 20.5309 18.125 19.6304C18.125 18.73 17.4254 18 16.5625 18C15.6996 18 15 18.73 15 19.6304Z" fill="#7F31FF"/>
</svg>
